<svg xmlns="http://www.w3.org/2000/svg" xmlns:xlink="http://www.w3.org/1999/xlink" width="40" zoomAndPan="magnify" viewBox="0 0 30 30.000001" height="40" preserveAspectRatio="xMidYMid meet" version="1.0"><defs><clipPath id="40a8ce9f51"><path d="M 0.484375 0 L 29.515625 0 L 29.515625 29.03125 L 0.484375 29.03125 Z M 0.484375 0 " clip-rule="nonzero"/></clipPath></defs><g clip-path="url(#40a8ce9f51)"><path fill="#000000" d="M 29.515625 14.515625 C 29.515625 15.46875 29.421875 16.414062 29.238281 17.347656 C 29.050781 18.28125 28.777344 19.191406 28.410156 20.070312 C 28.046875 20.953125 27.597656 21.789062 27.070312 22.582031 C 26.539062 23.375 25.9375 24.105469 25.265625 24.78125 C 24.589844 25.453125 23.855469 26.054688 23.066406 26.585938 C 22.273438 27.117188 21.4375 27.5625 20.554688 27.925781 C 19.675781 28.292969 18.765625 28.566406 17.832031 28.753906 C 16.898438 28.9375 15.953125 29.03125 15 29.03125 C 14.046875 29.03125 13.101562 28.9375 12.167969 28.753906 C 11.234375 28.566406 10.324219 28.292969 9.445312 27.925781 C 8.5625 27.5625 7.726562 27.117188 6.933594 26.585938 C 6.144531 26.054688 5.410156 25.453125 4.734375 24.78125 C 4.0625 24.105469 3.460938 23.375 2.929688 22.582031 C 2.402344 21.789062 1.953125 20.953125 1.589844 20.070312 C 1.222656 19.191406 0.949219 18.28125 0.761719 17.347656 C 0.578125 16.414062 0.484375 15.46875 0.484375 14.515625 C 0.484375 13.5625 0.578125 12.617188 0.761719 11.683594 C 0.949219 10.75 1.222656 9.839844 1.589844 8.960938 C 1.953125 8.082031 2.402344 7.242188 2.929688 6.453125 C 3.460938 5.660156 4.0625 4.925781 4.734375 4.25 C 5.410156 3.578125 6.144531 2.976562 6.933594 2.445312 C 7.726562 1.917969 8.5625 1.46875 9.445312 1.105469 C 10.324219 0.738281 11.234375 0.464844 12.167969 0.277344 C 13.101562 0.09375 14.046875 0 15 0 C 15.953125 0 16.898438 0.09375 17.832031 0.277344 C 18.765625 0.464844 19.675781 0.738281 20.554688 1.105469 C 21.4375 1.46875 22.273438 1.917969 23.066406 2.445312 C 23.855469 2.976562 24.589844 3.578125 25.265625 4.25 C 25.9375 4.925781 26.539062 5.660156 27.070312 6.453125 C 27.597656 7.242188 28.046875 8.082031 28.410156 8.960938 C 28.777344 9.839844 29.050781 10.75 29.238281 11.683594 C 29.421875 12.617188 29.515625 13.5625 29.515625 14.515625 Z M 29.515625 14.515625 " fill-opacity="1" fill-rule="nonzero"/></g><path fill="#ffffff" d="M 22.613281 9.796875 L 15.320312 4.792969 C 15.105469 4.644531 14.894531 4.644531 14.679688 4.792969 L 7.386719 9.796875 C 7.160156 9.957031 7.085938 10.167969 7.167969 10.433594 C 7.25 10.699219 7.433594 10.835938 7.710938 10.835938 L 22.289062 10.835938 C 22.566406 10.835938 22.75 10.699219 22.832031 10.433594 C 22.914062 10.167969 22.839844 9.957031 22.613281 9.796875 Z M 22.613281 9.796875 " fill-opacity="1" fill-rule="nonzero"/><path fill="#ffffff" d="M 9.578125 11.738281 L 10.71875 11.738281 C 10.890625 11.738281 11.035156 11.796875 11.15625 11.917969 C 11.277344 12.039062 11.335938 12.183594 11.335938 12.351562 L 11.335938 17.746094 C 11.335938 17.917969 11.277344 18.0625 11.15625 18.183594 C 11.035156 18.304688 10.890625 18.363281 10.71875 18.363281 L 9.578125 18.363281 C 9.40625 18.363281 9.261719 18.304688 9.140625 18.183594 C 9.023438 18.0625 8.960938 17.917969 8.960938 17.746094 L 8.960938 12.351562 C 8.960938 12.183594 9.023438 12.039062 9.140625 11.917969 C 9.261719 11.796875 9.40625 11.738281 9.578125 11.738281 Z M 9.578125 11.738281 " fill-opacity="1" fill-rule="nonzero"/><path fill="#ffffff" d="M 14.671875 11.738281 L 15.816406 11.738281 C 15.984375 11.738281 16.132812 11.796875 16.253906 11.917969 C 16.371094 12.039062 16.433594 12.183594 16.433594 12.351562 L 16.433594 17.746094 C 16.433594 17.917969 16.371094 18.0625 16.253906 18.183594 C 16.132812 18.304688 15.984375 18.363281 15.816406 18.363281 L 14.671875 18.363281 C 14.503906 18.363281 14.359375 18.304688 14.238281 18.183594 C 14.117188 18.0625 14.058594 17.917969 14.058594 17.746094 L 14.058594 12.351562 C 14.058594 12.183594 14.117188 12.039062 14.238281 11.917969 C 14.359375 11.796875 14.503906 11.738281 14.671875 11.738281 Z M 14.671875 11.738281 " fill-opacity="1" fill-rule="nonzero"/><path fill="#ffffff" d="M 19.28125 11.738281 L 20.421875 11.738281 C 20.59375 11.738281 20.738281 11.796875 20.859375 11.917969 C 20.980469 12.039062 21.039062 12.183594 21.039062 12.351562 L 21.039062 17.746094 C 21.039062 17.917969 20.980469 18.0625 20.859375 18.183594 C 20.738281 18.304688 20.59375 18.363281 20.421875 18.363281 L 19.28125 18.363281 C 19.109375 18.363281 18.964844 18.304688 18.84375 18.183594 C 18.722656 18.0625 18.664062 17.917969 18.664062 17.746094 L 18.664062 12.351562 C 18.664062 12.183594 18.722656 12.039062 18.84375 11.917969 C 18.964844 11.796875 19.109375 11.738281 19.28125 11.738281 Z M 19.28125 11.738281 " fill-opacity="1" fill-rule="nonzero"/><path fill="#ffffff" d="M 8.921875 19.265625 L 21.078125 19.265625 C 21.335938 19.265625 21.554688 19.359375 21.738281 19.539062 C 21.917969 19.722656 22.011719 19.941406 22.011719 20.199219 L 22.011719 20.976562 C 22.011719 21.234375 21.917969 21.453125 21.738281 21.636719 C 21.554688 21.820312 21.335938 21.910156 21.078125 21.910156 L 8.921875 21.910156 C 8.664062 21.910156 8.445312 21.820312 8.261719 21.636719 C 8.078125 21.453125 7.988281 21.234375 7.988281 20.976562 L 7.988281 20.199219 C 7.988281 19.941406 8.078125 19.722656 8.261719 19.539062 C 8.445312 19.359375 8.664062 19.265625 8.921875 19.265625 Z M 8.921875 19.265625 " fill-opacity="1" fill-rule="nonzero"/></svg>