<svg xmlns="http://www.w3.org/2000/svg" xmlns:xlink="http://www.w3.org/1999/xlink" width="40" zoomAndPan="magnify" viewBox="0 0 30 30.000001" height="40" preserveAspectRatio="xMidYMid meet" version="1.0"><defs><clipPath id="fe67de3a56"><path d="M 0.484375 0 L 29.515625 0 L 29.515625 29.03125 L 0.484375 29.03125 Z M 0.484375 0 " clip-rule="nonzero"/></clipPath></defs><g clip-path="url(#fe67de3a56)"><path fill="#000000" d="M 15 29.035156 C 22.996094 29.035156 29.515625 22.511719 29.515625 14.515625 C 29.515625 6.519531 22.996094 0 15 0 C 7.003906 0 0.484375 6.519531 0.484375 14.515625 C 0.484375 22.511719 7.003906 29.035156 15 29.035156 " fill-opacity="1" fill-rule="evenodd"/></g><path fill="#ffffff" d="M 11.882812 12.1875 C 11.390625 12.433594 11.496094 12.914062 11.496094 13.476562 L 11.496094 15.640625 C 11.496094 15.882812 11.304688 16.082031 11.070312 16.082031 C 10.835938 16.082031 10.644531 15.882812 10.644531 15.640625 L 10.644531 13.476562 C 10.644531 13.097656 10.648438 12.589844 10.816406 12.144531 C 10.9375 11.820312 11.191406 11.527344 11.382812 11.347656 C 12.382812 10.410156 14.03125 10.410156 15.035156 11.347656 C 15.226562 11.527344 15.476562 11.820312 15.601562 12.144531 C 15.769531 12.589844 15.769531 13.097656 15.769531 13.476562 L 15.769531 15.640625 C 15.769531 15.882812 15.582031 16.082031 15.34375 16.082031 C 15.109375 16.082031 14.921875 15.882812 14.921875 15.640625 L 14.921875 13.476562 C 14.921875 12.914062 15.027344 12.433594 14.53125 12.1875 C 14.652344 14.582031 14.535156 17.332031 14.535156 19.765625 C 14.535156 20.011719 14.335938 20.207031 14.09375 20.207031 C 13.847656 20.207031 13.648438 20.011719 13.648438 19.765625 C 13.648438 15.695312 12.765625 14.707031 12.765625 19.765625 C 12.765625 20.011719 12.570312 20.207031 12.324219 20.207031 C 12.082031 20.207031 11.882812 20.011719 11.882812 19.765625 C 11.882812 17.332031 11.761719 14.585938 11.882812 12.1875 " fill-opacity="1" fill-rule="nonzero"/><path fill="#ffffff" d="M 13.207031 10.265625 C 13.695312 10.265625 14.09375 9.867188 14.09375 9.382812 C 14.09375 8.894531 13.695312 8.496094 13.207031 8.496094 C 12.722656 8.496094 12.324219 8.894531 12.324219 9.382812 C 12.324219 9.867188 12.722656 10.265625 13.207031 10.265625 " fill-opacity="1" fill-rule="evenodd"/><path fill="#ffffff" d="M 9.269531 17.007812 L 10.597656 16.183594 C 10.714844 16.128906 10.769531 15.992188 10.714844 15.878906 C 10.660156 15.765625 10.523438 15.71875 10.40625 15.773438 C 9.980469 15.921875 9.289062 16.367188 8.941406 16.277344 C 8.367188 16.128906 7.792969 16.261719 7.453125 16.582031 C 7.210938 16.808594 7.0625 17.121094 7.0625 17.46875 L 7.0625 18.617188 C 7.0625 18.746094 7.164062 18.851562 7.289062 18.851562 C 7.414062 18.851562 7.511719 18.746094 7.511719 18.617188 L 7.511719 17.46875 C 7.511719 17.167969 7.699219 16.914062 7.960938 16.785156 C 7.898438 18.054688 7.960938 19.007812 7.960938 20.300781 C 7.960938 20.429688 8.066406 20.535156 8.195312 20.535156 C 8.324219 20.535156 8.429688 20.429688 8.429688 20.300781 L 8.429688 18.589844 C 8.578125 18.503906 8.648438 18.5 8.800781 18.589844 L 8.976562 20.300781 C 8.976562 20.429688 9.082031 20.535156 9.210938 20.535156 C 9.34375 20.535156 9.445312 20.429688 9.445312 20.300781 C 9.445312 19.007812 9.335938 18.277344 9.269531 17.007812 " fill-opacity="1" fill-rule="nonzero"/><path fill="#ffffff" d="M 8.5625 16.214844 C 8.847656 16.214844 9.078125 15.984375 9.078125 15.699219 C 9.078125 15.417969 8.847656 15.1875 8.5625 15.1875 C 8.277344 15.1875 8.046875 15.417969 8.046875 15.699219 C 8.046875 15.984375 8.277344 16.214844 8.5625 16.214844 " fill-opacity="1" fill-rule="evenodd"/><path fill="#ffffff" d="M 20.433594 12.074219 C 21.195312 12.699219 22.207031 13.824219 22.839844 14.441406 C 22.996094 14.632812 22.964844 14.910156 22.773438 15.0625 C 22.585938 15.214844 22.308594 15.1875 22.152344 14.996094 C 21.621094 14.589844 21.304688 14.351562 20.800781 13.984375 L 21.359375 17.210938 L 17.351562 17.210938 L 17.917969 14.027344 L 16.554688 15.640625 C 16.402344 15.832031 16.121094 15.859375 15.933594 15.707031 C 15.742188 15.554688 15.714844 15.273438 15.867188 15.085938 L 18.265625 12.121094 C 18.886719 11.355469 19.75 11.515625 20.433594 12.074219 " fill-opacity="1" fill-rule="nonzero"/><path fill="#ffffff" d="M 20.675781 17.207031 C 20.664062 18.078125 20.648438 18.941406 20.648438 19.765625 C 20.648438 20.011719 20.449219 20.207031 20.207031 20.207031 C 19.960938 20.207031 19.765625 20.011719 19.765625 19.765625 L 19.765625 17.207031 L 20.675781 17.207031 " fill-opacity="1" fill-rule="nonzero"/><path fill="#ffffff" d="M 18.945312 17.207031 C 18.929688 18.078125 18.917969 18.941406 18.917969 19.765625 C 18.917969 20.011719 18.71875 20.207031 18.472656 20.207031 C 18.230469 20.207031 18.03125 20.011719 18.03125 19.765625 L 18.03125 17.207031 L 18.945312 17.207031 " fill-opacity="1" fill-rule="nonzero"/><path fill="#ffffff" d="M 19.320312 11.589844 C 19.863281 11.589844 20.304688 11.148438 20.304688 10.605469 C 20.304688 10.0625 19.863281 9.621094 19.320312 9.621094 C 18.777344 9.621094 18.335938 10.0625 18.335938 10.605469 C 18.335938 11.148438 18.777344 11.589844 19.320312 11.589844 " fill-opacity="1" fill-rule="evenodd"/></svg>