<svg xmlns="http://www.w3.org/2000/svg" xmlns:xlink="http://www.w3.org/1999/xlink" width="40" zoomAndPan="magnify" viewBox="0 0 30 30.000001" height="40" preserveAspectRatio="xMidYMid meet" version="1.0"><defs><clipPath id="ad87879376"><path d="M 0.484375 0 L 29.515625 0 L 29.515625 29.03125 L 0.484375 29.03125 Z M 0.484375 0 " clip-rule="nonzero"/></clipPath><clipPath id="71cb987d84"><path d="M 7 9 L 29.515625 9 L 29.515625 29 L 7 29 Z M 7 9 " clip-rule="nonzero"/></clipPath></defs><g clip-path="url(#ad87879376)"><path fill="#000000" d="M 15 29.03125 C 16.800781 29.03125 18.523438 28.703125 20.113281 28.105469 C 20.058594 28.050781 20.003906 27.996094 19.949219 27.945312 C 19.894531 27.890625 19.839844 27.835938 19.785156 27.78125 C 19.730469 27.726562 19.675781 27.671875 19.621094 27.617188 C 19.566406 27.5625 19.511719 27.507812 19.460938 27.453125 C 19.402344 27.398438 19.347656 27.34375 19.296875 27.289062 C 19.238281 27.234375 19.183594 27.179688 19.132812 27.125 C 19.078125 27.070312 19.023438 27.015625 18.96875 26.960938 C 18.914062 26.90625 18.859375 26.851562 18.804688 26.796875 C 18.75 26.742188 18.695312 26.6875 18.640625 26.632812 C 18.585938 26.578125 18.53125 26.523438 18.476562 26.472656 C 18.421875 26.417969 18.367188 26.359375 18.3125 26.308594 C 18.257812 26.253906 18.203125 26.199219 18.148438 26.144531 C 18.09375 26.089844 18.039062 26.035156 17.984375 25.980469 C 17.929688 25.925781 17.875 25.871094 17.820312 25.816406 C 17.765625 25.761719 17.710938 25.707031 17.660156 25.652344 C 17.601562 25.597656 17.546875 25.542969 17.496094 25.488281 C 17.4375 25.433594 17.382812 25.378906 17.332031 25.324219 C 17.277344 25.269531 17.222656 25.214844 17.167969 25.160156 C 17.113281 25.105469 17.058594 25.050781 17.003906 24.996094 C 16.949219 24.941406 16.894531 24.886719 16.839844 24.832031 C 16.785156 24.777344 16.730469 24.722656 16.675781 24.667969 C 16.621094 24.613281 16.566406 24.5625 16.511719 24.507812 C 16.457031 24.453125 16.402344 24.398438 16.347656 24.34375 C 16.292969 24.289062 16.238281 24.234375 16.183594 24.179688 C 16.128906 24.125 16.074219 24.070312 16.019531 24.015625 C 15.964844 23.960938 15.910156 23.90625 15.855469 23.851562 C 15.800781 23.796875 15.746094 23.742188 15.695312 23.6875 C 15.636719 23.632812 15.582031 23.578125 15.53125 23.523438 C 15.472656 23.46875 15.417969 23.414062 15.367188 23.359375 C 15.308594 23.304688 15.257812 23.25 15.203125 23.195312 C 15.148438 23.140625 15.09375 23.085938 15.039062 23.03125 C 14.984375 22.976562 14.929688 22.921875 14.875 22.867188 C 14.820312 22.8125 14.765625 22.757812 14.710938 22.703125 C 14.65625 22.648438 14.601562 22.597656 14.546875 22.542969 C 14.492188 22.488281 14.4375 22.433594 14.382812 22.378906 C 14.328125 22.324219 14.273438 22.269531 14.21875 22.214844 C 14.164062 22.160156 14.109375 22.105469 14.054688 22.050781 C 14 21.996094 13.945312 21.941406 13.890625 21.886719 C 13.835938 21.832031 13.78125 21.777344 13.730469 21.722656 C 13.671875 21.667969 13.617188 21.613281 13.566406 21.558594 C 13.511719 21.503906 13.457031 21.449219 13.402344 21.394531 C 13.347656 21.339844 13.292969 21.285156 13.238281 21.230469 C 13.183594 21.175781 13.128906 21.121094 13.074219 21.066406 C 13.019531 21.011719 12.964844 20.957031 12.910156 20.902344 C 12.855469 20.847656 12.800781 20.792969 12.746094 20.742188 C 12.691406 20.6875 12.636719 20.632812 12.582031 20.578125 C 12.527344 20.523438 12.472656 20.46875 12.417969 20.414062 C 12.363281 20.359375 12.308594 20.304688 12.253906 20.25 C 12.199219 20.195312 12.144531 20.140625 12.089844 20.085938 C 12.035156 20.03125 11.980469 19.976562 11.929688 19.921875 C 11.871094 19.867188 11.816406 19.8125 11.765625 19.757812 C 11.707031 19.703125 11.652344 19.648438 11.601562 19.59375 C 11.546875 19.539062 11.492188 19.484375 11.4375 19.429688 C 11.382812 19.375 11.328125 19.320312 11.273438 19.265625 C 11.21875 19.210938 11.164062 19.15625 11.109375 19.101562 C 11.054688 19.046875 11 18.992188 10.945312 18.941406 C 9.246094 17.261719 8.308594 15.761719 7.882812 14.421875 L 8.367188 14.421875 C 8.367188 14.414062 8.367188 14.410156 8.363281 14.402344 L 8.234375 14.402344 C 8.222656 14.347656 8.210938 14.292969 8.199219 14.242188 L 8.070312 14.242188 C 8.058594 14.183594 8.046875 14.132812 8.039062 14.078125 L 7.90625 14.078125 C 7.894531 14.023438 7.882812 13.96875 7.875 13.914062 L 7.746094 13.914062 C 7.675781 13.621094 7.632812 13.335938 7.613281 13.0625 L 7.613281 12.214844 C 7.816406 9.675781 9.488281 8.351562 10.9375 8.210938 C 11.175781 8.1875 11.398438 8.175781 11.605469 8.175781 C 12.964844 8.175781 13.746094 8.652344 14.484375 9.414062 C 14.539062 9.46875 14.59375 9.523438 14.648438 9.578125 C 14.703125 9.632812 14.757812 9.6875 14.8125 9.742188 C 14.867188 9.796875 14.921875 9.851562 14.976562 9.90625 C 14.992188 9.921875 15.011719 9.941406 15.027344 9.957031 C 15.9375 8.882812 16.738281 8.175781 18.390625 8.175781 C 18.601562 8.175781 18.824219 8.1875 19.0625 8.210938 C 19.785156 8.28125 20.566406 8.648438 21.191406 9.316406 C 21.25 9.367188 21.304688 9.421875 21.355469 9.480469 C 21.410156 9.53125 21.464844 9.585938 21.519531 9.644531 C 21.574219 9.695312 21.628906 9.75 21.683594 9.808594 C 21.738281 9.859375 21.792969 9.914062 21.847656 9.972656 C 21.902344 10.023438 21.957031 10.078125 22.011719 10.132812 C 22.066406 10.1875 22.121094 10.242188 22.175781 10.296875 C 22.230469 10.351562 22.285156 10.40625 22.339844 10.460938 C 22.394531 10.515625 22.449219 10.570312 22.503906 10.625 C 22.558594 10.679688 22.613281 10.730469 22.667969 10.789062 C 22.722656 10.84375 22.777344 10.894531 22.828125 10.953125 C 22.886719 11.003906 22.941406 11.058594 22.992188 11.117188 C 23.050781 11.167969 23.105469 11.222656 23.15625 11.28125 C 23.210938 11.332031 23.269531 11.386719 23.320312 11.445312 C 23.375 11.496094 23.429688 11.550781 23.484375 11.609375 C 23.539062 11.660156 23.59375 11.714844 23.648438 11.773438 C 23.703125 11.824219 23.757812 11.878906 23.8125 11.933594 C 23.867188 11.988281 23.921875 12.042969 23.976562 12.097656 C 24.03125 12.152344 24.085938 12.207031 24.140625 12.261719 C 24.195312 12.316406 24.25 12.371094 24.304688 12.425781 C 24.359375 12.480469 24.414062 12.535156 24.46875 12.589844 C 24.523438 12.644531 24.578125 12.695312 24.628906 12.753906 C 24.6875 12.804688 24.742188 12.859375 24.792969 12.917969 C 24.851562 12.96875 24.90625 13.023438 24.957031 13.082031 C 25.015625 13.132812 25.070312 13.1875 25.121094 13.246094 C 25.175781 13.296875 25.230469 13.351562 25.285156 13.410156 C 25.339844 13.460938 25.394531 13.515625 25.449219 13.574219 C 25.503906 13.625 25.558594 13.679688 25.613281 13.738281 C 25.667969 13.789062 25.722656 13.84375 25.777344 13.898438 C 25.832031 13.953125 25.886719 14.007812 25.941406 14.0625 C 25.996094 14.117188 26.050781 14.171875 26.105469 14.226562 C 26.160156 14.28125 26.214844 14.335938 26.269531 14.390625 C 26.324219 14.445312 26.378906 14.496094 26.433594 14.554688 C 26.488281 14.609375 26.542969 14.660156 26.59375 14.71875 C 26.652344 14.769531 26.707031 14.824219 26.757812 14.882812 C 26.816406 14.933594 26.871094 14.988281 26.921875 15.046875 C 26.980469 15.097656 27.03125 15.152344 27.085938 15.210938 C 27.140625 15.261719 27.195312 15.316406 27.25 15.375 C 27.304688 15.425781 27.359375 15.480469 27.414062 15.539062 C 27.46875 15.589844 27.523438 15.644531 27.578125 15.699219 C 27.632812 15.753906 27.6875 15.808594 27.742188 15.863281 C 27.796875 15.917969 27.851562 15.972656 27.90625 16.027344 C 27.960938 16.082031 28.015625 16.136719 28.070312 16.191406 C 28.125 16.246094 28.179688 16.300781 28.234375 16.355469 C 28.289062 16.410156 28.34375 16.460938 28.398438 16.519531 C 28.453125 16.574219 28.507812 16.625 28.558594 16.683594 C 28.617188 16.734375 28.671875 16.789062 28.722656 16.847656 C 28.78125 16.898438 28.835938 16.953125 28.886719 17.011719 C 28.941406 17.0625 29 17.117188 29.050781 17.175781 C 29.105469 17.226562 29.160156 17.28125 29.214844 17.339844 C 29.222656 17.34375 29.230469 17.351562 29.238281 17.359375 C 29.417969 16.441406 29.515625 15.488281 29.515625 14.515625 C 29.515625 6.5 23.015625 0 15 0 C 6.984375 0 0.484375 6.5 0.484375 14.515625 C 0.484375 22.53125 6.984375 29.03125 15 29.03125 " fill-opacity="1" fill-rule="nonzero"/></g><path fill="#ffffff" d="M 8.144531 13.914062 L 12.640625 13.914062 C 12.644531 13.902344 12.652344 13.890625 12.65625 13.867188 L 12.679688 13.664062 L 12.734375 13.246094 L 12.785156 12.875 L 12.828125 12.53125 L 12.867188 12.214844 L 12.902344 11.953125 C 12.90625 11.945312 12.90625 11.933594 12.90625 11.925781 C 12.933594 11.78125 13 11.660156 13.09375 11.578125 C 13.175781 11.511719 13.269531 11.472656 13.378906 11.46875 C 13.382812 11.46875 13.390625 11.46875 13.394531 11.46875 C 13.511719 11.46875 13.617188 11.507812 13.699219 11.582031 C 13.753906 11.628906 13.796875 11.6875 13.832031 11.753906 C 13.859375 11.8125 13.878906 11.878906 13.886719 11.949219 L 13.886719 11.953125 L 13.917969 12.164062 L 13.945312 12.382812 L 13.976562 12.609375 L 14.007812 12.839844 L 14.039062 13.078125 L 14.074219 13.324219 L 14.109375 13.578125 L 14.144531 13.835938 L 14.179688 14.105469 L 14.21875 14.382812 L 14.257812 14.671875 L 14.296875 14.96875 L 14.339844 15.277344 L 14.382812 15.597656 L 14.425781 15.933594 L 14.476562 16.285156 L 14.527344 16.65625 L 14.578125 17.054688 L 14.636719 17.480469 L 14.699219 17.945312 L 14.753906 18.34375 L 14.953125 17.28125 L 15.078125 16.589844 L 15.175781 16.070312 L 15.257812 15.632812 L 15.328125 15.25 L 15.394531 14.90625 L 15.453125 14.589844 L 15.503906 14.300781 L 15.554688 14.03125 L 15.601562 13.785156 L 15.644531 13.550781 L 15.683594 13.335938 L 15.722656 13.136719 L 15.75 12.972656 C 15.753906 12.964844 15.753906 12.957031 15.757812 12.953125 C 15.769531 12.886719 15.792969 12.824219 15.824219 12.769531 C 15.867188 12.699219 15.921875 12.640625 15.988281 12.597656 C 16.058594 12.550781 16.140625 12.523438 16.230469 12.523438 C 16.335938 12.519531 16.4375 12.554688 16.519531 12.617188 C 16.574219 12.660156 16.621094 12.714844 16.65625 12.78125 C 16.683594 12.828125 16.703125 12.878906 16.71875 12.9375 C 16.71875 12.941406 16.71875 12.945312 16.71875 12.949219 L 16.789062 13.253906 L 16.828125 13.414062 L 16.863281 13.578125 L 16.902344 13.75 L 16.941406 13.917969 L 16.980469 14.089844 L 17.058594 14.441406 L 17.101562 14.625 L 17.144531 14.8125 L 17.1875 15.007812 L 17.234375 15.203125 L 17.265625 15.347656 L 17.300781 15.183594 L 17.34375 14.96875 L 17.382812 14.769531 L 17.421875 14.585938 L 17.492188 14.234375 L 17.523438 14.070312 L 17.558594 13.910156 L 17.585938 13.757812 L 17.601562 13.695312 C 17.605469 13.667969 17.613281 13.640625 17.621094 13.613281 C 17.636719 13.566406 17.65625 13.523438 17.683594 13.484375 C 17.707031 13.445312 17.738281 13.40625 17.773438 13.375 C 17.808594 13.34375 17.847656 13.316406 17.890625 13.296875 C 17.933594 13.277344 17.980469 13.265625 18.027344 13.257812 C 18.035156 13.257812 18.042969 13.253906 18.050781 13.253906 C 18.09375 13.25 18.136719 13.253906 18.175781 13.261719 C 18.296875 13.285156 18.398438 13.359375 18.472656 13.464844 C 18.488281 13.488281 18.503906 13.515625 18.519531 13.542969 C 18.527344 13.5625 18.535156 13.578125 18.542969 13.601562 L 18.550781 13.617188 L 18.582031 13.703125 L 18.617188 13.796875 L 18.652344 13.898438 L 18.667969 13.933594 C 18.667969 13.941406 18.671875 13.945312 18.675781 13.949219 L 19.515625 13.949219 L 19.828125 13.945312 L 20.832031 13.945312 L 21.203125 13.941406 L 21.609375 13.941406 L 22.066406 13.9375 L 22.25 13.9375 C 22.257812 13.910156 22.261719 13.878906 22.269531 13.847656 C 22.285156 13.765625 22.300781 13.6875 22.316406 13.605469 C 22.328125 13.53125 22.339844 13.457031 22.351562 13.382812 C 22.359375 13.3125 22.371094 13.246094 22.375 13.175781 C 22.378906 13.136719 22.382812 13.097656 22.386719 13.0625 L 22.386719 12.214844 C 22.382812 12.179688 22.378906 12.140625 22.375 12.105469 C 22.371094 12.050781 22.367188 11.996094 22.359375 11.945312 C 22.351562 11.890625 22.34375 11.839844 22.335938 11.785156 C 22.328125 11.734375 22.320312 11.683594 22.308594 11.632812 C 22.300781 11.582031 22.289062 11.53125 22.28125 11.480469 C 22.269531 11.429688 22.257812 11.378906 22.246094 11.328125 C 22.234375 11.28125 22.222656 11.230469 22.207031 11.183594 C 22.195312 11.136719 22.183594 11.089844 22.167969 11.042969 C 22.15625 11 22.140625 10.953125 22.125 10.910156 C 22.109375 10.863281 22.09375 10.820312 22.078125 10.777344 C 22.0625 10.734375 22.046875 10.691406 22.03125 10.652344 C 22.015625 10.609375 21.996094 10.570312 21.980469 10.527344 C 21.964844 10.488281 21.945312 10.449219 21.925781 10.410156 C 21.90625 10.371094 21.890625 10.332031 21.871094 10.292969 C 21.851562 10.257812 21.832031 10.21875 21.8125 10.183594 C 21.792969 10.144531 21.769531 10.109375 21.75 10.074219 C 21.730469 10.035156 21.707031 10 21.6875 9.96875 C 21.667969 9.933594 21.644531 9.898438 21.625 9.863281 C 21.601562 9.832031 21.578125 9.796875 21.554688 9.761719 C 21.53125 9.730469 21.507812 9.699219 21.484375 9.667969 C 21.460938 9.636719 21.4375 9.605469 21.414062 9.574219 C 21.390625 9.542969 21.363281 9.511719 21.335938 9.480469 C 21.3125 9.449219 21.285156 9.417969 21.257812 9.390625 C 21.238281 9.363281 21.214844 9.339844 21.191406 9.316406 C 20.566406 8.648438 19.785156 8.28125 19.0625 8.210938 C 18.824219 8.1875 18.601562 8.175781 18.390625 8.175781 C 16.738281 8.175781 15.9375 8.882812 15.027344 9.957031 C 15.027344 9.957031 15.027344 9.960938 15.023438 9.960938 C 15.019531 9.964844 15.019531 9.96875 15.015625 9.976562 C 15.007812 9.980469 15.003906 9.988281 15 9.992188 C 14.972656 9.960938 14.949219 9.929688 14.921875 9.902344 C 14.890625 9.867188 14.863281 9.832031 14.832031 9.796875 C 14.800781 9.761719 14.773438 9.726562 14.742188 9.695312 C 14.714844 9.660156 14.683594 9.628906 14.65625 9.597656 C 14.628906 9.566406 14.597656 9.535156 14.570312 9.503906 C 14.542969 9.472656 14.515625 9.445312 14.484375 9.414062 C 13.746094 8.652344 12.964844 8.175781 11.605469 8.175781 C 11.398438 8.175781 11.175781 8.1875 10.9375 8.210938 C 9.488281 8.351562 7.816406 9.675781 7.613281 12.214844 L 7.613281 13.0625 C 7.632812 13.335938 7.675781 13.621094 7.746094 13.914062 L 8.144531 13.914062 " fill-opacity="1" fill-rule="nonzero"/><path fill="#ffffff" d="M 11.113281 19.101562 C 11.140625 19.132812 11.171875 19.160156 11.199219 19.1875 C 11.226562 19.214844 11.257812 19.242188 11.285156 19.269531 C 11.316406 19.296875 11.34375 19.324219 11.371094 19.351562 C 11.402344 19.378906 11.433594 19.40625 11.460938 19.433594 C 11.492188 19.460938 11.523438 19.488281 11.550781 19.515625 C 11.582031 19.542969 11.613281 19.570312 11.640625 19.597656 C 11.671875 19.625 11.703125 19.65625 11.734375 19.683594 C 11.765625 19.710938 11.796875 19.738281 11.828125 19.765625 C 11.859375 19.792969 11.890625 19.820312 11.917969 19.847656 C 11.953125 19.875 11.984375 19.90625 12.015625 19.933594 C 12.046875 19.960938 12.078125 19.988281 12.109375 20.015625 C 12.144531 20.042969 12.175781 20.070312 12.207031 20.097656 C 12.238281 20.128906 12.273438 20.15625 12.304688 20.183594 C 12.339844 20.210938 12.371094 20.238281 12.40625 20.265625 C 12.4375 20.292969 12.472656 20.324219 12.503906 20.351562 C 12.539062 20.378906 12.570312 20.40625 12.605469 20.433594 C 12.640625 20.464844 12.671875 20.492188 12.707031 20.519531 C 12.742188 20.546875 12.777344 20.574219 12.808594 20.601562 C 12.84375 20.632812 12.878906 20.660156 12.914062 20.6875 C 12.949219 20.714844 12.984375 20.742188 13.019531 20.773438 C 13.054688 20.800781 13.089844 20.828125 13.125 20.855469 C 13.160156 20.882812 13.199219 20.914062 13.234375 20.941406 C 13.269531 20.96875 13.304688 20.996094 13.339844 21.027344 C 13.378906 21.054688 13.414062 21.082031 13.449219 21.109375 C 13.488281 21.140625 13.523438 21.167969 13.5625 21.195312 C 13.597656 21.222656 13.636719 21.253906 13.671875 21.28125 C 13.710938 21.308594 13.746094 21.339844 13.785156 21.367188 C 13.820312 21.394531 13.859375 21.421875 13.898438 21.453125 C 13.9375 21.480469 13.972656 21.507812 14.011719 21.539062 C 14.050781 21.566406 14.089844 21.59375 14.128906 21.621094 C 14.164062 21.652344 14.203125 21.679688 14.242188 21.707031 C 14.28125 21.738281 14.320312 21.765625 14.363281 21.792969 C 14.402344 21.824219 14.441406 21.851562 14.480469 21.878906 C 14.519531 21.910156 14.558594 21.9375 14.597656 21.96875 C 14.640625 21.996094 14.679688 22.023438 14.71875 22.054688 C 14.761719 22.082031 14.800781 22.109375 14.839844 22.140625 C 14.882812 22.167969 14.921875 22.195312 14.964844 22.226562 C 14.976562 22.234375 14.988281 22.242188 15 22.25 C 15.011719 22.242188 15.027344 22.230469 15.042969 22.222656 C 15.0625 22.207031 15.082031 22.191406 15.105469 22.175781 C 15.128906 22.160156 15.152344 22.144531 15.171875 22.128906 C 15.199219 22.109375 15.222656 22.09375 15.246094 22.074219 C 15.273438 22.054688 15.300781 22.035156 15.328125 22.015625 C 15.359375 21.996094 15.386719 21.976562 15.414062 21.953125 C 15.417969 21.953125 15.417969 21.953125 15.421875 21.953125 C 15.496094 21.894531 15.574219 21.84375 15.648438 21.789062 C 15.65625 21.78125 15.660156 21.777344 15.667969 21.773438 C 15.6875 21.757812 15.707031 21.746094 15.722656 21.730469 C 15.765625 21.703125 15.804688 21.671875 15.84375 21.644531 C 15.886719 21.609375 15.933594 21.578125 15.976562 21.546875 C 16.027344 21.507812 16.078125 21.46875 16.125 21.433594 C 16.179688 21.390625 16.234375 21.351562 16.289062 21.308594 C 16.34375 21.265625 16.398438 21.226562 16.453125 21.183594 C 16.515625 21.136719 16.574219 21.089844 16.636719 21.042969 C 16.707031 20.988281 16.773438 20.933594 16.84375 20.878906 C 16.921875 20.816406 17 20.753906 17.078125 20.691406 C 17.171875 20.617188 17.261719 20.542969 17.347656 20.472656 C 17.460938 20.378906 17.566406 20.289062 17.675781 20.199219 C 17.828125 20.066406 17.980469 19.9375 18.125 19.808594 C 18.664062 19.328125 19.144531 18.863281 19.570312 18.410156 C 19.695312 18.277344 19.8125 18.144531 19.929688 18.015625 C 20.007812 17.925781 20.085938 17.835938 20.160156 17.746094 C 20.21875 17.675781 20.277344 17.605469 20.335938 17.535156 C 20.386719 17.472656 20.433594 17.414062 20.484375 17.351562 C 20.527344 17.292969 20.570312 17.238281 20.617188 17.179688 C 20.65625 17.128906 20.695312 17.074219 20.730469 17.023438 C 20.765625 16.976562 20.800781 16.929688 20.835938 16.882812 C 20.867188 16.839844 20.894531 16.796875 20.925781 16.753906 C 20.953125 16.714844 20.976562 16.679688 21.003906 16.640625 C 21.027344 16.609375 21.046875 16.574219 21.070312 16.542969 C 21.089844 16.511719 21.109375 16.484375 21.125 16.457031 C 21.140625 16.433594 21.15625 16.410156 21.171875 16.386719 C 21.183594 16.367188 21.195312 16.347656 21.207031 16.328125 C 21.21875 16.3125 21.226562 16.296875 21.238281 16.28125 C 21.242188 16.269531 21.25 16.257812 21.257812 16.25 C 21.261719 16.242188 21.265625 16.234375 21.269531 16.226562 C 21.273438 16.222656 21.277344 16.21875 21.277344 16.214844 C 21.28125 16.210938 21.28125 16.210938 21.28125 16.210938 C 21.324219 16.136719 21.367188 16.0625 21.410156 15.992188 C 21.554688 15.742188 21.683594 15.496094 21.792969 15.253906 C 21.863281 15.097656 21.929688 14.941406 21.988281 14.785156 C 22.03125 14.671875 22.070312 14.558594 22.109375 14.445312 L 22.078125 14.445312 L 21.675781 14.449219 L 20.628906 14.449219 L 20.308594 14.453125 L 19.464844 14.453125 L 19.398438 14.457031 L 18.652344 14.457031 C 18.652344 14.457031 18.648438 14.457031 18.648438 14.457031 C 18.507812 14.457031 18.375 14.386719 18.28125 14.269531 C 18.246094 14.226562 18.214844 14.175781 18.195312 14.117188 C 18.191406 14.113281 18.191406 14.113281 18.191406 14.109375 L 18.140625 13.96875 L 18.089844 13.832031 L 18.0625 13.957031 L 18.035156 14.097656 L 18.007812 14.246094 L 17.976562 14.398438 L 17.941406 14.5625 L 17.910156 14.730469 L 17.875 14.902344 L 17.835938 15.085938 L 17.796875 15.273438 L 17.757812 15.476562 L 17.75 15.503906 C 17.734375 15.582031 17.707031 15.652344 17.671875 15.714844 C 17.582031 15.855469 17.4375 15.945312 17.273438 15.945312 C 17.230469 15.945312 17.191406 15.941406 17.15625 15.933594 C 17.070312 15.910156 16.992188 15.863281 16.929688 15.800781 C 16.882812 15.75 16.839844 15.683594 16.8125 15.613281 C 16.800781 15.582031 16.792969 15.550781 16.785156 15.519531 L 16.757812 15.394531 L 16.707031 15.175781 L 16.660156 14.964844 L 16.613281 14.757812 L 16.566406 14.554688 L 16.519531 14.355469 L 16.476562 14.160156 L 16.433594 13.972656 L 16.390625 13.789062 L 16.3125 13.4375 L 16.273438 13.265625 L 16.238281 13.121094 L 16.210938 13.269531 L 16.179688 13.449219 L 16.144531 13.640625 L 16.105469 13.84375 L 16.0625 14.066406 L 16.019531 14.300781 L 15.972656 14.558594 L 15.921875 14.832031 L 15.867188 15.128906 L 15.804688 15.453125 L 15.742188 15.8125 L 15.667969 16.210938 L 15.582031 16.671875 L 15.324219 18.046875 L 15.238281 18.507812 C 15.21875 18.625 15.167969 18.726562 15.097656 18.804688 C 15.035156 18.871094 14.960938 18.917969 14.875 18.941406 C 14.835938 18.953125 14.796875 18.960938 14.753906 18.960938 C 14.75 18.960938 14.746094 18.960938 14.742188 18.957031 C 14.722656 18.957031 14.703125 18.957031 14.6875 18.953125 C 14.621094 18.945312 14.5625 18.921875 14.507812 18.886719 C 14.445312 18.847656 14.390625 18.789062 14.347656 18.71875 C 14.304688 18.652344 14.273438 18.566406 14.261719 18.476562 L 14.226562 18.238281 L 14.152344 17.664062 L 14.082031 17.167969 L 14.023438 16.71875 L 13.964844 16.304688 L 13.914062 15.917969 L 13.863281 15.554688 L 13.816406 15.210938 L 13.773438 14.878906 L 13.730469 14.5625 L 13.6875 14.261719 L 13.648438 13.964844 L 13.609375 13.683594 L 13.574219 13.410156 L 13.539062 13.144531 L 13.503906 12.886719 L 13.46875 12.636719 L 13.4375 12.394531 L 13.40625 12.15625 L 13.394531 12.09375 L 13.386719 12.167969 L 13.351562 12.445312 L 13.3125 12.742188 L 13.269531 13.0625 L 13.226562 13.410156 L 13.175781 13.792969 L 13.15625 13.933594 C 13.125 14.195312 12.941406 14.390625 12.714844 14.417969 C 12.699219 14.417969 12.679688 14.421875 12.664062 14.421875 L 7.882812 14.421875 C 8.308594 15.761719 9.246094 17.261719 10.945312 18.941406 C 10.972656 18.96875 11 18.996094 11.03125 19.023438 C 11.058594 19.050781 11.085938 19.078125 11.113281 19.101562 " fill-opacity="1" fill-rule="nonzero"/><path fill="#000000" d="M 14.65625 9.597656 C 14.683594 9.628906 14.714844 9.660156 14.742188 9.695312 C 14.773438 9.726562 14.800781 9.761719 14.832031 9.796875 C 14.863281 9.832031 14.890625 9.867188 14.921875 9.902344 C 14.949219 9.929688 14.972656 9.960938 15 9.992188 C 15.003906 9.988281 15.007812 9.980469 15.015625 9.976562 C 15.019531 9.96875 15.019531 9.964844 15.023438 9.960938 C 15.027344 9.960938 15.027344 9.957031 15.027344 9.957031 C 15.011719 9.941406 14.992188 9.921875 14.976562 9.90625 C 14.921875 9.851562 14.867188 9.796875 14.8125 9.742188 C 14.757812 9.6875 14.703125 9.632812 14.648438 9.578125 C 14.59375 9.523438 14.539062 9.46875 14.484375 9.414062 C 14.515625 9.445312 14.542969 9.472656 14.570312 9.503906 C 14.597656 9.535156 14.628906 9.566406 14.65625 9.597656 " fill-opacity="1" fill-rule="nonzero"/><g clip-path="url(#71cb987d84)"><path fill="#000000" d="M 29.050781 17.175781 C 29 17.117188 28.941406 17.0625 28.886719 17.011719 C 28.835938 16.953125 28.78125 16.898438 28.722656 16.847656 C 28.671875 16.789062 28.617188 16.734375 28.558594 16.683594 C 28.507812 16.625 28.453125 16.574219 28.398438 16.519531 C 28.34375 16.460938 28.289062 16.410156 28.234375 16.355469 C 28.179688 16.300781 28.125 16.246094 28.070312 16.191406 C 28.015625 16.136719 27.960938 16.082031 27.90625 16.027344 C 27.851562 15.972656 27.796875 15.917969 27.742188 15.863281 C 27.6875 15.808594 27.632812 15.753906 27.578125 15.699219 C 27.523438 15.644531 27.46875 15.589844 27.414062 15.539062 C 27.359375 15.480469 27.304688 15.425781 27.25 15.375 C 27.195312 15.316406 27.140625 15.261719 27.085938 15.210938 C 27.03125 15.152344 26.980469 15.097656 26.921875 15.046875 C 26.871094 14.988281 26.816406 14.933594 26.757812 14.882812 C 26.707031 14.824219 26.652344 14.769531 26.59375 14.71875 C 26.542969 14.660156 26.488281 14.609375 26.433594 14.554688 C 26.378906 14.496094 26.324219 14.445312 26.269531 14.390625 C 26.214844 14.335938 26.160156 14.28125 26.105469 14.226562 C 26.050781 14.171875 25.996094 14.117188 25.941406 14.0625 C 25.886719 14.007812 25.832031 13.953125 25.777344 13.898438 C 25.722656 13.84375 25.667969 13.789062 25.613281 13.738281 C 25.558594 13.679688 25.503906 13.625 25.449219 13.574219 C 25.394531 13.515625 25.339844 13.460938 25.285156 13.410156 C 25.230469 13.351562 25.175781 13.296875 25.121094 13.246094 C 25.070312 13.1875 25.015625 13.132812 24.957031 13.082031 C 24.90625 13.023438 24.851562 12.96875 24.792969 12.917969 C 24.742188 12.859375 24.6875 12.804688 24.628906 12.753906 C 24.578125 12.695312 24.523438 12.644531 24.46875 12.589844 C 24.414062 12.535156 24.359375 12.480469 24.304688 12.425781 C 24.25 12.371094 24.195312 12.316406 24.140625 12.261719 C 24.085938 12.207031 24.03125 12.152344 23.976562 12.097656 C 23.921875 12.042969 23.867188 11.988281 23.8125 11.933594 C 23.757812 11.878906 23.703125 11.824219 23.648438 11.773438 C 23.59375 11.714844 23.539062 11.660156 23.484375 11.609375 C 23.429688 11.550781 23.375 11.496094 23.320312 11.445312 C 23.269531 11.386719 23.210938 11.332031 23.15625 11.28125 C 23.105469 11.222656 23.050781 11.167969 22.992188 11.117188 C 22.941406 11.058594 22.886719 11.003906 22.828125 10.953125 C 22.777344 10.894531 22.722656 10.84375 22.667969 10.789062 C 22.613281 10.730469 22.558594 10.679688 22.503906 10.625 C 22.449219 10.570312 22.394531 10.515625 22.339844 10.460938 C 22.285156 10.40625 22.230469 10.351562 22.175781 10.296875 C 22.121094 10.242188 22.066406 10.1875 22.011719 10.132812 C 21.957031 10.078125 21.902344 10.023438 21.847656 9.972656 C 21.792969 9.914062 21.738281 9.859375 21.683594 9.808594 C 21.628906 9.75 21.574219 9.695312 21.519531 9.644531 C 21.464844 9.585938 21.410156 9.53125 21.355469 9.480469 C 21.304688 9.421875 21.25 9.367188 21.191406 9.316406 C 21.214844 9.339844 21.238281 9.363281 21.257812 9.390625 C 21.285156 9.417969 21.3125 9.449219 21.335938 9.480469 C 21.363281 9.511719 21.390625 9.542969 21.414062 9.574219 C 21.4375 9.605469 21.460938 9.636719 21.484375 9.667969 C 21.507812 9.699219 21.53125 9.730469 21.554688 9.761719 C 21.578125 9.796875 21.601562 9.832031 21.625 9.863281 C 21.644531 9.898438 21.667969 9.933594 21.6875 9.96875 C 21.707031 10 21.730469 10.035156 21.75 10.074219 C 21.769531 10.109375 21.792969 10.144531 21.8125 10.183594 C 21.832031 10.21875 21.851562 10.257812 21.871094 10.292969 C 21.890625 10.332031 21.90625 10.371094 21.925781 10.410156 C 21.945312 10.449219 21.964844 10.488281 21.980469 10.527344 C 21.996094 10.570312 22.015625 10.609375 22.03125 10.652344 C 22.046875 10.691406 22.0625 10.734375 22.078125 10.777344 C 22.09375 10.820312 22.109375 10.863281 22.125 10.910156 C 22.140625 10.953125 22.15625 11 22.167969 11.042969 C 22.183594 11.089844 22.195312 11.136719 22.207031 11.183594 C 22.222656 11.230469 22.234375 11.28125 22.246094 11.328125 C 22.257812 11.378906 22.269531 11.429688 22.28125 11.480469 C 22.289062 11.53125 22.300781 11.582031 22.308594 11.632812 C 22.320312 11.683594 22.328125 11.734375 22.335938 11.785156 C 22.34375 11.839844 22.351562 11.890625 22.359375 11.945312 C 22.367188 11.996094 22.371094 12.050781 22.375 12.105469 C 22.378906 12.140625 22.382812 12.179688 22.386719 12.214844 L 22.386719 13.0625 C 22.382812 13.097656 22.378906 13.136719 22.375 13.175781 C 22.371094 13.246094 22.359375 13.3125 22.351562 13.382812 C 22.339844 13.457031 22.328125 13.53125 22.316406 13.605469 C 22.300781 13.6875 22.285156 13.765625 22.269531 13.847656 C 22.261719 13.878906 22.257812 13.910156 22.25 13.9375 L 22.066406 13.9375 L 21.609375 13.941406 L 21.203125 13.941406 L 20.832031 13.945312 L 19.828125 13.945312 L 19.515625 13.949219 L 18.675781 13.949219 C 18.671875 13.945312 18.667969 13.941406 18.667969 13.933594 L 18.652344 13.898438 L 18.617188 13.796875 L 18.582031 13.703125 L 18.550781 13.617188 L 18.542969 13.601562 C 18.535156 13.578125 18.527344 13.5625 18.519531 13.542969 C 18.503906 13.515625 18.488281 13.488281 18.472656 13.464844 C 18.398438 13.359375 18.296875 13.285156 18.175781 13.261719 C 18.136719 13.253906 18.09375 13.25 18.050781 13.253906 C 18.042969 13.253906 18.035156 13.257812 18.027344 13.257812 C 17.980469 13.265625 17.933594 13.277344 17.890625 13.296875 C 17.847656 13.316406 17.808594 13.34375 17.773438 13.375 C 17.738281 13.40625 17.707031 13.445312 17.683594 13.484375 C 17.65625 13.523438 17.636719 13.566406 17.621094 13.613281 C 17.613281 13.640625 17.605469 13.667969 17.601562 13.695312 L 17.585938 13.757812 L 17.558594 13.910156 L 17.523438 14.070312 L 17.492188 14.234375 L 17.421875 14.585938 L 17.382812 14.769531 L 17.34375 14.96875 L 17.300781 15.183594 L 17.265625 15.347656 L 17.234375 15.203125 L 17.1875 15.007812 L 17.144531 14.8125 L 17.101562 14.625 L 17.058594 14.441406 L 16.980469 14.089844 L 16.941406 13.917969 L 16.902344 13.75 L 16.863281 13.578125 L 16.828125 13.414062 L 16.789062 13.253906 L 16.71875 12.949219 C 16.71875 12.945312 16.71875 12.941406 16.71875 12.9375 C 16.703125 12.878906 16.683594 12.828125 16.65625 12.78125 C 16.621094 12.714844 16.574219 12.660156 16.519531 12.617188 C 16.4375 12.554688 16.335938 12.519531 16.230469 12.523438 C 16.140625 12.523438 16.058594 12.550781 15.988281 12.597656 C 15.921875 12.640625 15.867188 12.699219 15.824219 12.769531 C 15.792969 12.824219 15.769531 12.886719 15.757812 12.953125 C 15.753906 12.957031 15.753906 12.964844 15.75 12.972656 L 15.722656 13.136719 L 15.683594 13.335938 L 15.644531 13.550781 L 15.601562 13.785156 L 15.554688 14.03125 L 15.503906 14.300781 L 15.453125 14.589844 L 15.394531 14.90625 L 15.328125 15.25 L 15.257812 15.632812 L 15.175781 16.070312 L 15.078125 16.589844 L 14.953125 17.28125 L 14.753906 18.34375 L 14.699219 17.945312 L 14.636719 17.480469 L 14.578125 17.054688 L 14.527344 16.65625 L 14.476562 16.285156 L 14.425781 15.933594 L 14.382812 15.597656 L 14.339844 15.277344 L 14.296875 14.96875 L 14.257812 14.671875 L 14.21875 14.382812 L 14.179688 14.105469 L 14.144531 13.835938 L 14.109375 13.578125 L 14.074219 13.324219 L 14.039062 13.078125 L 14.007812 12.839844 L 13.976562 12.609375 L 13.945312 12.382812 L 13.917969 12.164062 L 13.886719 11.953125 L 13.886719 11.949219 C 13.878906 11.878906 13.859375 11.8125 13.832031 11.753906 C 13.796875 11.6875 13.753906 11.628906 13.699219 11.582031 C 13.617188 11.507812 13.511719 11.46875 13.394531 11.46875 C 13.390625 11.46875 13.382812 11.46875 13.378906 11.46875 C 13.269531 11.472656 13.175781 11.511719 13.09375 11.578125 C 13 11.660156 12.933594 11.78125 12.90625 11.925781 C 12.90625 11.933594 12.90625 11.945312 12.902344 11.953125 L 12.867188 12.214844 L 12.828125 12.53125 L 12.785156 12.875 L 12.734375 13.246094 L 12.679688 13.664062 L 12.65625 13.867188 C 12.652344 13.890625 12.644531 13.902344 12.640625 13.914062 L 7.875 13.914062 C 7.882812 13.96875 7.894531 14.023438 7.90625 14.078125 L 8.039062 14.078125 C 8.046875 14.132812 8.058594 14.183594 8.070312 14.242188 L 8.199219 14.242188 C 8.210938 14.292969 8.222656 14.347656 8.234375 14.402344 L 8.363281 14.402344 C 8.367188 14.410156 8.367188 14.414062 8.367188 14.421875 L 12.664062 14.421875 C 12.679688 14.421875 12.699219 14.417969 12.714844 14.417969 C 12.941406 14.390625 13.125 14.195312 13.15625 13.933594 L 13.175781 13.792969 L 13.226562 13.410156 L 13.269531 13.0625 L 13.3125 12.742188 L 13.351562 12.445312 L 13.386719 12.167969 L 13.394531 12.09375 L 13.40625 12.15625 L 13.4375 12.394531 L 13.46875 12.636719 L 13.503906 12.886719 L 13.539062 13.144531 L 13.574219 13.410156 L 13.609375 13.683594 L 13.648438 13.964844 L 13.6875 14.261719 L 13.730469 14.5625 L 13.773438 14.878906 L 13.816406 15.210938 L 13.863281 15.554688 L 13.914062 15.917969 L 13.964844 16.304688 L 14.023438 16.71875 L 14.082031 17.167969 L 14.152344 17.664062 L 14.226562 18.238281 L 14.261719 18.476562 C 14.273438 18.566406 14.304688 18.652344 14.347656 18.71875 C 14.390625 18.789062 14.445312 18.847656 14.507812 18.886719 C 14.5625 18.921875 14.621094 18.945312 14.6875 18.953125 C 14.703125 18.957031 14.722656 18.957031 14.742188 18.957031 C 14.746094 18.960938 14.75 18.960938 14.753906 18.960938 C 14.796875 18.960938 14.835938 18.953125 14.875 18.941406 C 14.960938 18.917969 15.035156 18.871094 15.097656 18.804688 C 15.167969 18.726562 15.21875 18.625 15.238281 18.507812 L 15.324219 18.046875 L 15.582031 16.671875 L 15.667969 16.210938 L 15.742188 15.8125 L 15.804688 15.453125 L 15.867188 15.128906 L 15.921875 14.832031 L 15.972656 14.558594 L 16.019531 14.300781 L 16.0625 14.066406 L 16.105469 13.84375 L 16.144531 13.640625 L 16.179688 13.449219 L 16.210938 13.269531 L 16.238281 13.121094 L 16.273438 13.265625 L 16.3125 13.4375 L 16.390625 13.789062 L 16.433594 13.972656 L 16.476562 14.160156 L 16.519531 14.355469 L 16.566406 14.554688 L 16.613281 14.757812 L 16.660156 14.964844 L 16.707031 15.175781 L 16.757812 15.394531 L 16.785156 15.519531 C 16.792969 15.550781 16.800781 15.582031 16.8125 15.613281 C 16.839844 15.683594 16.882812 15.75 16.929688 15.800781 C 16.992188 15.863281 17.070312 15.910156 17.15625 15.933594 C 17.191406 15.941406 17.230469 15.945312 17.273438 15.945312 C 17.4375 15.945312 17.582031 15.855469 17.671875 15.714844 C 17.707031 15.652344 17.734375 15.582031 17.75 15.503906 L 17.757812 15.476562 L 17.796875 15.273438 L 17.835938 15.085938 L 17.875 14.902344 L 17.910156 14.730469 L 17.941406 14.5625 L 17.976562 14.398438 L 18.007812 14.246094 L 18.035156 14.097656 L 18.0625 13.957031 L 18.089844 13.832031 L 18.140625 13.96875 L 18.191406 14.109375 C 18.191406 14.113281 18.191406 14.113281 18.195312 14.117188 C 18.214844 14.175781 18.246094 14.226562 18.28125 14.269531 C 18.375 14.386719 18.507812 14.457031 18.648438 14.457031 C 18.648438 14.457031 18.652344 14.457031 18.652344 14.457031 L 19.398438 14.457031 L 19.464844 14.453125 L 20.308594 14.453125 L 20.628906 14.449219 L 21.675781 14.449219 L 22.078125 14.445312 L 22.109375 14.445312 C 22.070312 14.558594 22.03125 14.671875 21.988281 14.785156 C 21.929688 14.941406 21.863281 15.097656 21.792969 15.253906 C 21.683594 15.496094 21.554688 15.742188 21.410156 15.992188 C 21.367188 16.0625 21.324219 16.136719 21.28125 16.210938 C 21.28125 16.210938 21.28125 16.210938 21.277344 16.214844 C 21.277344 16.21875 21.273438 16.222656 21.269531 16.226562 C 21.265625 16.234375 21.261719 16.242188 21.257812 16.25 C 21.25 16.257812 21.242188 16.269531 21.238281 16.28125 C 21.226562 16.296875 21.21875 16.3125 21.207031 16.328125 C 21.195312 16.347656 21.183594 16.367188 21.171875 16.386719 C 21.15625 16.410156 21.140625 16.433594 21.125 16.457031 C 21.109375 16.484375 21.089844 16.511719 21.070312 16.542969 C 21.046875 16.574219 21.027344 16.609375 21.003906 16.640625 C 20.976562 16.679688 20.953125 16.714844 20.925781 16.753906 C 20.894531 16.796875 20.867188 16.839844 20.835938 16.882812 C 20.800781 16.929688 20.765625 16.976562 20.730469 17.023438 C 20.695312 17.074219 20.65625 17.128906 20.617188 17.179688 C 20.570312 17.238281 20.527344 17.292969 20.484375 17.351562 C 20.433594 17.414062 20.386719 17.472656 20.335938 17.535156 C 20.277344 17.605469 20.21875 17.675781 20.160156 17.746094 C 20.085938 17.835938 20.007812 17.925781 19.929688 18.015625 C 19.8125 18.144531 19.695312 18.277344 19.570312 18.410156 C 19.144531 18.863281 18.664062 19.328125 18.125 19.808594 C 17.980469 19.9375 17.828125 20.066406 17.675781 20.199219 C 17.566406 20.289062 17.460938 20.378906 17.347656 20.472656 C 17.261719 20.542969 17.171875 20.617188 17.078125 20.691406 C 17 20.753906 16.921875 20.816406 16.84375 20.878906 C 16.773438 20.933594 16.707031 20.988281 16.636719 21.042969 C 16.574219 21.089844 16.515625 21.136719 16.453125 21.183594 C 16.398438 21.226562 16.34375 21.265625 16.289062 21.308594 C 16.234375 21.351562 16.179688 21.390625 16.125 21.433594 C 16.078125 21.46875 16.027344 21.507812 15.976562 21.546875 C 15.933594 21.578125 15.886719 21.609375 15.84375 21.644531 C 15.804688 21.671875 15.765625 21.703125 15.722656 21.730469 C 15.707031 21.746094 15.6875 21.757812 15.667969 21.773438 C 15.660156 21.777344 15.65625 21.78125 15.648438 21.789062 C 15.574219 21.84375 15.496094 21.894531 15.421875 21.953125 C 15.417969 21.953125 15.417969 21.953125 15.414062 21.953125 C 15.386719 21.976562 15.359375 21.996094 15.328125 22.015625 C 15.300781 22.035156 15.273438 22.054688 15.246094 22.074219 C 15.222656 22.09375 15.199219 22.109375 15.171875 22.128906 C 15.152344 22.144531 15.128906 22.160156 15.105469 22.175781 C 15.082031 22.191406 15.0625 22.207031 15.042969 22.222656 C 15.027344 22.230469 15.011719 22.242188 15 22.25 C 14.988281 22.242188 14.976562 22.234375 14.964844 22.226562 C 14.921875 22.195312 14.882812 22.167969 14.839844 22.140625 C 14.800781 22.109375 14.761719 22.082031 14.71875 22.054688 C 14.679688 22.023438 14.640625 21.996094 14.597656 21.96875 C 14.558594 21.9375 14.519531 21.910156 14.480469 21.878906 C 14.441406 21.851562 14.402344 21.824219 14.363281 21.792969 C 14.320312 21.765625 14.28125 21.738281 14.242188 21.707031 C 14.203125 21.679688 14.164062 21.652344 14.128906 21.621094 C 14.089844 21.59375 14.050781 21.566406 14.011719 21.539062 C 13.972656 21.507812 13.9375 21.480469 13.898438 21.453125 C 13.859375 21.421875 13.820312 21.394531 13.785156 21.367188 C 13.746094 21.339844 13.710938 21.308594 13.671875 21.28125 C 13.636719 21.253906 13.597656 21.222656 13.5625 21.195312 C 13.523438 21.167969 13.488281 21.140625 13.449219 21.109375 C 13.414062 21.082031 13.378906 21.054688 13.339844 21.027344 C 13.304688 20.996094 13.269531 20.96875 13.234375 20.941406 C 13.199219 20.914062 13.160156 20.882812 13.125 20.855469 C 13.089844 20.828125 13.054688 20.800781 13.019531 20.773438 C 12.984375 20.742188 12.949219 20.714844 12.914062 20.6875 C 12.878906 20.660156 12.84375 20.632812 12.808594 20.601562 C 12.777344 20.574219 12.742188 20.546875 12.707031 20.519531 C 12.671875 20.492188 12.640625 20.464844 12.605469 20.433594 C 12.570312 20.40625 12.539062 20.378906 12.503906 20.351562 C 12.472656 20.324219 12.4375 20.292969 12.40625 20.265625 C 12.371094 20.238281 12.339844 20.210938 12.304688 20.183594 C 12.273438 20.15625 12.238281 20.128906 12.207031 20.097656 C 12.175781 20.070312 12.144531 20.042969 12.109375 20.015625 C 12.078125 19.988281 12.046875 19.960938 12.015625 19.933594 C 11.984375 19.90625 11.953125 19.875 11.917969 19.847656 C 11.890625 19.820312 11.859375 19.792969 11.828125 19.765625 C 11.796875 19.738281 11.765625 19.710938 11.734375 19.683594 C 11.703125 19.65625 11.671875 19.625 11.640625 19.597656 C 11.613281 19.570312 11.582031 19.542969 11.550781 19.515625 C 11.523438 19.488281 11.492188 19.460938 11.460938 19.433594 C 11.433594 19.40625 11.402344 19.378906 11.371094 19.351562 C 11.34375 19.324219 11.316406 19.296875 11.285156 19.269531 C 11.257812 19.242188 11.226562 19.214844 11.199219 19.1875 C 11.171875 19.160156 11.140625 19.132812 11.113281 19.101562 C 11.085938 19.078125 11.058594 19.050781 11.03125 19.023438 C 11 18.996094 10.972656 18.96875 10.945312 18.941406 C 11 18.992188 11.054688 19.046875 11.109375 19.101562 C 11.164062 19.15625 11.21875 19.210938 11.273438 19.265625 C 11.328125 19.320312 11.382812 19.375 11.4375 19.429688 C 11.492188 19.484375 11.546875 19.539062 11.601562 19.59375 C 11.652344 19.648438 11.707031 19.703125 11.765625 19.757812 C 11.816406 19.8125 11.871094 19.867188 11.929688 19.921875 C 11.980469 19.976562 12.035156 20.03125 12.089844 20.085938 C 12.144531 20.140625 12.199219 20.195312 12.253906 20.25 C 12.308594 20.304688 12.363281 20.359375 12.417969 20.414062 C 12.472656 20.46875 12.527344 20.523438 12.582031 20.578125 C 12.636719 20.632812 12.691406 20.6875 12.746094 20.742188 C 12.800781 20.792969 12.855469 20.847656 12.910156 20.902344 C 12.964844 20.957031 13.019531 21.011719 13.074219 21.066406 C 13.128906 21.121094 13.183594 21.175781 13.238281 21.230469 C 13.292969 21.285156 13.347656 21.339844 13.402344 21.394531 C 13.457031 21.449219 13.511719 21.503906 13.566406 21.558594 C 13.617188 21.613281 13.671875 21.667969 13.730469 21.722656 C 13.78125 21.777344 13.835938 21.832031 13.890625 21.886719 C 13.945312 21.941406 14 21.996094 14.054688 22.050781 C 14.109375 22.105469 14.164062 22.160156 14.21875 22.214844 C 14.273438 22.269531 14.328125 22.324219 14.382812 22.378906 C 14.4375 22.433594 14.492188 22.488281 14.546875 22.542969 C 14.601562 22.597656 14.65625 22.648438 14.710938 22.703125 C 14.765625 22.757812 14.820312 22.8125 14.875 22.867188 C 14.929688 22.921875 14.984375 22.976562 15.039062 23.03125 C 15.09375 23.085938 15.148438 23.140625 15.203125 23.195312 C 15.257812 23.25 15.308594 23.304688 15.367188 23.359375 C 15.417969 23.414062 15.472656 23.46875 15.53125 23.523438 C 15.582031 23.578125 15.636719 23.632812 15.695312 23.6875 C 15.746094 23.742188 15.800781 23.796875 15.855469 23.851562 C 15.910156 23.90625 15.964844 23.960938 16.019531 24.015625 C 16.074219 24.070312 16.128906 24.125 16.183594 24.179688 C 16.238281 24.234375 16.292969 24.289062 16.347656 24.34375 C 16.402344 24.398438 16.457031 24.453125 16.511719 24.507812 C 16.566406 24.5625 16.621094 24.613281 16.675781 24.667969 C 16.730469 24.722656 16.785156 24.777344 16.839844 24.832031 C 16.894531 24.886719 16.949219 24.941406 17.003906 24.996094 C 17.058594 25.050781 17.113281 25.105469 17.167969 25.160156 C 17.222656 25.214844 17.277344 25.269531 17.332031 25.324219 C 17.382812 25.378906 17.4375 25.433594 17.496094 25.488281 C 17.546875 25.542969 17.601562 25.597656 17.660156 25.652344 C 17.710938 25.707031 17.765625 25.761719 17.820312 25.816406 C 17.875 25.871094 17.929688 25.925781 17.984375 25.980469 C 18.039062 26.035156 18.09375 26.089844 18.148438 26.144531 C 18.203125 26.199219 18.257812 26.253906 18.3125 26.308594 C 18.367188 26.359375 18.421875 26.417969 18.476562 26.472656 C 18.53125 26.523438 18.585938 26.578125 18.640625 26.632812 C 18.695312 26.6875 18.75 26.742188 18.804688 26.796875 C 18.859375 26.851562 18.914062 26.90625 18.96875 26.960938 C 19.023438 27.015625 19.078125 27.070312 19.132812 27.125 C 19.183594 27.179688 19.238281 27.234375 19.296875 27.289062 C 19.347656 27.34375 19.402344 27.398438 19.460938 27.453125 C 19.511719 27.507812 19.566406 27.5625 19.621094 27.617188 C 19.675781 27.671875 19.730469 27.726562 19.785156 27.78125 C 19.839844 27.835938 19.894531 27.890625 19.949219 27.945312 C 20.003906 27.996094 20.058594 28.050781 20.113281 28.105469 C 20.117188 28.105469 20.117188 28.101562 20.121094 28.101562 C 20.121094 28.101562 20.125 28.101562 20.128906 28.097656 C 20.132812 28.097656 20.136719 28.097656 20.140625 28.09375 C 20.144531 28.09375 20.148438 28.089844 20.152344 28.089844 C 20.160156 28.085938 20.164062 28.085938 20.171875 28.082031 C 20.179688 28.082031 20.183594 28.078125 20.191406 28.074219 C 20.199219 28.070312 20.207031 28.070312 20.214844 28.066406 C 20.226562 28.0625 20.234375 28.058594 20.242188 28.054688 C 20.253906 28.050781 20.265625 28.046875 20.273438 28.042969 C 20.285156 28.039062 20.296875 28.035156 20.308594 28.03125 C 20.320312 28.027344 20.332031 28.019531 20.347656 28.015625 C 20.359375 28.011719 20.375 28.003906 20.386719 28 C 20.402344 27.992188 20.417969 27.984375 20.433594 27.980469 C 20.449219 27.972656 20.464844 27.964844 20.484375 27.960938 C 20.5 27.953125 20.519531 27.945312 20.539062 27.9375 C 20.554688 27.929688 20.574219 27.921875 20.59375 27.914062 C 20.617188 27.90625 20.636719 27.898438 20.660156 27.886719 C 20.679688 27.878906 20.703125 27.867188 20.726562 27.859375 C 20.75 27.847656 20.773438 27.835938 20.796875 27.828125 C 20.824219 27.816406 20.851562 27.804688 20.875 27.792969 C 20.902344 27.78125 20.929688 27.769531 20.957031 27.757812 C 20.988281 27.742188 21.019531 27.730469 21.046875 27.714844 C 21.1875 27.652344 21.324219 27.585938 21.460938 27.519531 C 21.460938 27.515625 21.464844 27.515625 21.464844 27.515625 C 21.507812 27.496094 21.546875 27.476562 21.589844 27.453125 C 21.632812 27.433594 21.675781 27.410156 21.71875 27.386719 C 21.765625 27.363281 21.8125 27.335938 21.859375 27.3125 C 21.914062 27.285156 21.964844 27.253906 22.019531 27.222656 C 22.074219 27.191406 22.128906 27.164062 22.183594 27.132812 C 22.238281 27.101562 22.292969 27.070312 22.347656 27.035156 C 22.410156 27 22.46875 26.964844 22.53125 26.929688 C 22.597656 26.886719 22.664062 26.84375 22.734375 26.800781 C 22.808594 26.753906 22.882812 26.707031 22.957031 26.65625 C 23.039062 26.605469 23.121094 26.546875 23.203125 26.492188 C 23.300781 26.425781 23.394531 26.359375 23.488281 26.292969 C 23.605469 26.207031 23.722656 26.121094 23.835938 26.03125 C 24.007812 25.902344 24.171875 25.769531 24.335938 25.628906 C 24.742188 25.289062 25.132812 24.925781 25.496094 24.542969 C 25.632812 24.398438 25.765625 24.253906 25.894531 24.105469 C 25.980469 24.011719 26.0625 23.917969 26.140625 23.820312 C 26.203125 23.75 26.261719 23.675781 26.320312 23.601562 C 26.371094 23.539062 26.421875 23.476562 26.46875 23.414062 C 26.515625 23.355469 26.558594 23.296875 26.605469 23.238281 C 26.644531 23.1875 26.683594 23.132812 26.722656 23.078125 C 26.757812 23.03125 26.792969 22.980469 26.828125 22.933594 C 26.859375 22.890625 26.890625 22.84375 26.917969 22.800781 C 26.945312 22.761719 26.972656 22.722656 27 22.683594 C 27.023438 22.648438 27.046875 22.617188 27.070312 22.582031 C 27.089844 22.550781 27.109375 22.523438 27.128906 22.492188 C 27.144531 22.46875 27.160156 22.441406 27.179688 22.417969 C 27.191406 22.398438 27.203125 22.378906 27.21875 22.355469 C 27.226562 22.339844 27.238281 22.324219 27.25 22.308594 C 27.257812 22.296875 27.261719 22.285156 27.269531 22.273438 C 27.277344 22.265625 27.28125 22.257812 27.285156 22.25 C 27.289062 22.242188 27.292969 22.238281 27.296875 22.234375 C 27.296875 22.230469 27.296875 22.230469 27.300781 22.226562 C 27.476562 21.941406 27.648438 21.652344 27.808594 21.351562 C 27.902344 21.175781 27.992188 21 28.082031 20.816406 C 28.144531 20.6875 28.203125 20.558594 28.261719 20.425781 C 28.308594 20.320312 28.355469 20.214844 28.398438 20.109375 C 28.4375 20.019531 28.472656 19.929688 28.507812 19.835938 C 28.542969 19.757812 28.570312 19.679688 28.601562 19.597656 C 28.628906 19.527344 28.652344 19.453125 28.679688 19.378906 C 28.703125 19.3125 28.726562 19.25 28.75 19.179688 C 28.769531 19.121094 28.789062 19.058594 28.8125 18.996094 C 28.828125 18.9375 28.847656 18.878906 28.867188 18.820312 C 28.882812 18.765625 28.898438 18.710938 28.917969 18.652344 C 28.933594 18.601562 28.949219 18.550781 28.964844 18.496094 C 28.976562 18.445312 28.992188 18.394531 29.003906 18.34375 C 29.019531 18.292969 29.03125 18.246094 29.046875 18.195312 C 29.058594 18.152344 29.066406 18.105469 29.078125 18.058594 C 29.089844 18.019531 29.101562 17.976562 29.109375 17.933594 C 29.117188 17.898438 29.128906 17.859375 29.136719 17.824219 C 29.144531 17.789062 29.152344 17.757812 29.160156 17.722656 C 29.167969 17.695312 29.171875 17.664062 29.179688 17.632812 C 29.183594 17.609375 29.191406 17.582031 29.195312 17.558594 C 29.199219 17.535156 29.207031 17.515625 29.210938 17.492188 C 29.214844 17.476562 29.21875 17.457031 29.222656 17.441406 C 29.222656 17.425781 29.226562 17.414062 29.230469 17.398438 C 29.230469 17.390625 29.234375 17.382812 29.234375 17.371094 C 29.234375 17.367188 29.234375 17.363281 29.238281 17.359375 C 29.230469 17.351562 29.222656 17.34375 29.214844 17.339844 C 29.160156 17.28125 29.105469 17.226562 29.050781 17.175781 " fill-opacity="1" fill-rule="nonzero"/></g></svg>