<svg xmlns="http://www.w3.org/2000/svg" xmlns:xlink="http://www.w3.org/1999/xlink" width="40" zoomAndPan="magnify" viewBox="0 0 30 30.000001" height="40" preserveAspectRatio="xMidYMid meet" version="1.0"><defs><clipPath id="6d338f3515"><path d="M 0.484375 0 L 29.515625 0 L 29.515625 29.03125 L 0.484375 29.03125 Z M 0.484375 0 " clip-rule="nonzero"/></clipPath></defs><g clip-path="url(#6d338f3515)"><path fill="#000000" d="M 29.519531 14.519531 C 29.519531 15.472656 29.425781 16.414062 29.238281 17.351562 C 29.054688 18.285156 28.777344 19.191406 28.414062 20.074219 C 28.050781 20.953125 27.601562 21.789062 27.074219 22.582031 C 26.542969 23.375 25.941406 24.109375 25.265625 24.78125 C 24.59375 25.457031 23.859375 26.058594 23.066406 26.589844 C 22.273438 27.117188 21.4375 27.566406 20.558594 27.929688 C 19.675781 28.292969 18.769531 28.570312 17.835938 28.757812 C 16.898438 28.941406 15.957031 29.035156 15.003906 29.035156 C 14.050781 29.035156 13.105469 28.941406 12.171875 28.757812 C 11.234375 28.570312 10.328125 28.292969 9.445312 27.929688 C 8.566406 27.566406 7.730469 27.117188 6.9375 26.589844 C 6.144531 26.058594 5.410156 25.457031 4.738281 24.78125 C 4.0625 24.109375 3.460938 23.375 2.933594 22.582031 C 2.402344 21.789062 1.957031 20.953125 1.589844 20.074219 C 1.226562 19.191406 0.949219 18.285156 0.765625 17.351562 C 0.578125 16.414062 0.484375 15.472656 0.484375 14.519531 C 0.484375 13.566406 0.578125 12.621094 0.765625 11.6875 C 0.949219 10.75 1.226562 9.84375 1.589844 8.960938 C 1.957031 8.082031 2.402344 7.246094 2.933594 6.453125 C 3.460938 5.660156 4.0625 4.925781 4.738281 4.253906 C 5.410156 3.578125 6.144531 2.976562 6.9375 2.449219 C 7.730469 1.917969 8.566406 1.472656 9.445312 1.105469 C 10.328125 0.742188 11.234375 0.464844 12.171875 0.28125 C 13.105469 0.09375 14.050781 0 15.003906 0 C 15.957031 0 16.898438 0.09375 17.835938 0.28125 C 18.769531 0.464844 19.675781 0.742188 20.558594 1.105469 C 21.4375 1.472656 22.273438 1.917969 23.066406 2.449219 C 23.859375 2.976562 24.59375 3.578125 25.265625 4.253906 C 25.941406 4.925781 26.542969 5.660156 27.074219 6.453125 C 27.601562 7.246094 28.050781 8.082031 28.414062 8.960938 C 28.777344 9.84375 29.054688 10.75 29.238281 11.6875 C 29.425781 12.621094 29.519531 13.566406 29.519531 14.519531 Z M 29.519531 14.519531 " fill-opacity="1" fill-rule="nonzero"/></g><path fill="#ffffff" d="M 22.027344 13.105469 C 21.855469 13.105469 21.714844 13.242188 21.714844 13.417969 C 21.714844 14.789062 21.714844 20.273438 21.714844 21.644531 C 21.714844 21.820312 21.574219 21.957031 21.402344 21.957031 C 20.578125 21.957031 18.359375 21.957031 17.539062 21.957031 C 17.363281 21.957031 17.226562 21.820312 17.226562 21.644531 C 17.226562 20.503906 17.226562 16.566406 17.226562 15.425781 C 17.226562 15.34375 17.191406 15.261719 17.132812 15.203125 C 17.074219 15.144531 16.996094 15.113281 16.910156 15.113281 C 16.074219 15.113281 13.789062 15.113281 12.953125 15.113281 C 12.871094 15.113281 12.789062 15.144531 12.730469 15.203125 C 12.671875 15.261719 12.640625 15.34375 12.640625 15.425781 C 12.640625 16.566406 12.640625 20.503906 12.640625 21.644531 C 12.640625 21.820312 12.5 21.957031 12.328125 21.957031 C 11.546875 21.957031 9.523438 21.957031 8.742188 21.957031 C 8.570312 21.957031 8.429688 21.820312 8.429688 21.644531 C 8.429688 20.273438 8.429688 14.789062 8.429688 13.417969 C 8.429688 13.242188 8.289062 13.105469 8.113281 13.105469 L 6.652344 13.105469 C 6.523438 13.105469 6.40625 13.023438 6.359375 12.902344 C 6.3125 12.78125 6.347656 12.644531 6.441406 12.558594 C 8.265625 10.910156 13.660156 6.03125 14.792969 5.007812 C 14.910156 4.898438 15.09375 4.898438 15.210938 5.007812 C 16.34375 6.03125 21.738281 10.910156 23.5625 12.558594 C 23.65625 12.644531 23.691406 12.78125 23.644531 12.902344 C 23.597656 13.023438 23.480469 13.105469 23.351562 13.105469 C 22.898438 13.105469 22.359375 13.105469 22.027344 13.105469 Z M 22.027344 13.105469 " fill-opacity="1" fill-rule="evenodd"/></svg>