<svg xmlns="http://www.w3.org/2000/svg" xmlns:xlink="http://www.w3.org/1999/xlink" width="40" zoomAndPan="magnify" viewBox="0 0 30 30.000001" height="40" preserveAspectRatio="xMidYMid meet" version="1.0"><defs><clipPath id="403d0e6fd7"><path d="M 0.484375 0 L 29.515625 0 L 29.515625 29.03125 L 0.484375 29.03125 Z M 0.484375 0 " clip-rule="nonzero"/></clipPath></defs><g clip-path="url(#403d0e6fd7)"><path fill="#000000" d="M 29.515625 14.515625 C 29.515625 15.46875 29.421875 16.414062 29.238281 17.347656 C 29.050781 18.28125 28.777344 19.191406 28.410156 20.070312 C 28.046875 20.953125 27.597656 21.789062 27.070312 22.582031 C 26.539062 23.375 25.9375 24.105469 25.265625 24.78125 C 24.589844 25.453125 23.855469 26.054688 23.066406 26.585938 C 22.273438 27.117188 21.4375 27.5625 20.554688 27.925781 C 19.675781 28.292969 18.765625 28.566406 17.832031 28.753906 C 16.898438 28.9375 15.953125 29.03125 15 29.03125 C 14.046875 29.03125 13.101562 28.9375 12.167969 28.753906 C 11.234375 28.566406 10.324219 28.292969 9.445312 27.925781 C 8.5625 27.5625 7.726562 27.117188 6.933594 26.585938 C 6.144531 26.054688 5.410156 25.453125 4.734375 24.78125 C 4.0625 24.105469 3.460938 23.375 2.929688 22.582031 C 2.402344 21.789062 1.953125 20.953125 1.589844 20.070312 C 1.222656 19.191406 0.949219 18.28125 0.761719 17.347656 C 0.578125 16.414062 0.484375 15.46875 0.484375 14.515625 C 0.484375 13.5625 0.578125 12.617188 0.761719 11.683594 C 0.949219 10.75 1.222656 9.839844 1.589844 8.960938 C 1.953125 8.082031 2.402344 7.242188 2.929688 6.453125 C 3.460938 5.660156 4.0625 4.925781 4.734375 4.25 C 5.410156 3.578125 6.144531 2.976562 6.933594 2.445312 C 7.726562 1.917969 8.5625 1.46875 9.445312 1.105469 C 10.324219 0.738281 11.234375 0.464844 12.167969 0.277344 C 13.101562 0.09375 14.046875 0 15 0 C 15.953125 0 16.898438 0.09375 17.832031 0.277344 C 18.765625 0.464844 19.675781 0.738281 20.554688 1.105469 C 21.4375 1.46875 22.273438 1.917969 23.066406 2.445312 C 23.855469 2.976562 24.589844 3.578125 25.265625 4.25 C 25.9375 4.925781 26.539062 5.660156 27.070312 6.453125 C 27.597656 7.242188 28.046875 8.082031 28.410156 8.960938 C 28.777344 9.839844 29.050781 10.75 29.238281 11.683594 C 29.421875 12.617188 29.515625 13.5625 29.515625 14.515625 Z M 29.515625 14.515625 " fill-opacity="1" fill-rule="nonzero"/></g><path fill="#ffffff" d="M 14.363281 10.476562 L 14.363281 18.679688 L 15.296875 18.679688 L 15.296875 10.476562 C 15.148438 10.519531 14.992188 10.542969 14.832031 10.542969 C 14.671875 10.542969 14.515625 10.519531 14.363281 10.476562 Z M 14.363281 10.476562 " fill-opacity="1" fill-rule="nonzero"/><path fill="#ffffff" d="M 17.503906 20.457031 L 17.503906 19.996094 C 17.503906 19.449219 17.050781 18.996094 16.5 18.996094 L 13.164062 18.996094 C 12.886719 18.996094 12.636719 19.109375 12.453125 19.289062 C 12.273438 19.472656 12.160156 19.722656 12.160156 19.996094 L 12.160156 20.457031 Z M 17.503906 20.457031 " fill-opacity="1" fill-rule="nonzero"/><path fill="#ffffff" d="M 14.832031 7.46875 C 15.210938 7.46875 15.558594 7.625 15.804688 7.871094 C 16.054688 8.121094 16.210938 8.46875 16.210938 8.847656 C 16.210938 9.226562 16.054688 9.574219 15.804688 9.824219 C 15.558594 10.070312 15.210938 10.226562 14.832031 10.226562 C 14.449219 10.226562 14.105469 10.070312 13.855469 9.824219 C 13.609375 9.574219 13.453125 9.226562 13.453125 8.847656 C 13.453125 8.46875 13.609375 8.121094 13.855469 7.871094 C 14.105469 7.625 14.449219 7.46875 14.832031 7.46875 Z M 14.832031 7.46875 " fill-opacity="1" fill-rule="nonzero"/><path fill="#ffffff" d="M 11.636719 13.683594 C 12.023438 13.3125 12.285156 12.816406 12.351562 12.257812 L 7.625 12.257812 C 7.695312 12.816406 7.953125 13.3125 8.339844 13.683594 C 8.765625 14.09375 9.347656 14.347656 9.988281 14.347656 C 10.628906 14.347656 11.210938 14.09375 11.636719 13.683594 Z M 11.636719 13.683594 " fill-opacity="1" fill-rule="nonzero"/><path fill="#ffffff" d="M 12.742188 12.09375 C 12.710938 12.824219 12.394531 13.480469 11.898438 13.957031 C 11.402344 14.433594 10.730469 14.726562 9.988281 14.726562 C 9.246094 14.726562 8.574219 14.433594 8.078125 13.957031 C 7.582031 13.476562 7.261719 12.8125 7.234375 12.074219 C 7.230469 11.972656 7.3125 11.882812 7.414062 11.878906 L 12.554688 11.878906 C 12.660156 11.878906 12.746094 11.964844 12.746094 12.066406 C 12.746094 12.078125 12.742188 12.085938 12.742188 12.09375 Z M 12.742188 12.09375 " fill-opacity="1" fill-rule="nonzero"/><path fill="#ffffff" d="M 7.257812 11.980469 C 7.207031 12.070312 7.242188 12.183594 7.332031 12.234375 C 7.425781 12.285156 7.539062 12.25 7.589844 12.15625 L 9.949219 7.761719 C 9.996094 7.667969 9.960938 7.554688 9.871094 7.503906 C 9.777344 7.457031 9.664062 7.488281 9.613281 7.582031 Z M 10.355469 7.570312 C 10.308594 7.476562 10.191406 7.445312 10.101562 7.492188 C 10.007812 7.542969 9.976562 7.65625 10.023438 7.75 L 12.390625 12.15625 C 12.4375 12.25 12.554688 12.285156 12.644531 12.234375 C 12.738281 12.183594 12.769531 12.070312 12.722656 11.980469 Z M 10.355469 7.570312 " fill-opacity="1" fill-rule="nonzero"/><path fill="#ffffff" d="M 9.96875 6.257812 C 10.195312 6.257812 10.398438 6.347656 10.546875 6.496094 C 10.695312 6.644531 10.785156 6.847656 10.785156 7.074219 C 10.785156 7.296875 10.695312 7.503906 10.546875 7.648438 C 10.398438 7.796875 10.195312 7.890625 9.96875 7.890625 C 9.742188 7.890625 9.539062 7.796875 9.390625 7.648438 C 9.246094 7.503906 9.152344 7.296875 9.152344 7.074219 C 9.152344 6.847656 9.246094 6.644531 9.390625 6.496094 C 9.539062 6.347656 9.742188 6.257812 9.96875 6.257812 Z M 9.96875 6.257812 " fill-opacity="1" fill-rule="nonzero"/><path fill="#ffffff" d="M 10.632812 6.953125 C 10.53125 6.929688 10.425781 6.988281 10.398438 7.089844 C 10.371094 7.191406 10.433594 7.292969 10.535156 7.320312 L 13.90625 8.222656 C 14.007812 8.25 14.113281 8.191406 14.140625 8.089844 C 14.167969 7.988281 14.105469 7.886719 14.003906 7.859375 Z M 16.039062 8.40625 C 15.941406 8.378906 15.835938 8.4375 15.808594 8.539062 C 15.78125 8.640625 15.84375 8.742188 15.945312 8.769531 L 19.324219 9.675781 C 19.425781 9.703125 19.527344 9.640625 19.554688 9.542969 C 19.582031 9.441406 19.523438 9.335938 19.421875 9.308594 Z M 16.039062 8.40625 " fill-opacity="1" fill-rule="nonzero"/><path fill="#ffffff" d="M 22.375 14.773438 L 17.648438 14.773438 C 17.714844 15.332031 17.976562 15.832031 18.363281 16.203125 C 18.789062 16.613281 19.371094 16.863281 20.011719 16.863281 C 20.652344 16.863281 21.234375 16.613281 21.660156 16.203125 C 22.046875 15.832031 22.304688 15.332031 22.375 14.773438 Z M 22.375 14.773438 " fill-opacity="1" fill-rule="nonzero"/><path fill="#ffffff" d="M 17.445312 14.398438 L 22.578125 14.398438 C 22.683594 14.398438 22.765625 14.480469 22.765625 14.585938 C 22.765625 14.59375 22.765625 14.601562 22.765625 14.609375 C 22.730469 15.339844 22.414062 16 21.921875 16.472656 C 21.425781 16.949219 20.753906 17.242188 20.011719 17.242188 C 19.269531 17.242188 18.597656 16.949219 18.101562 16.472656 C 17.601562 15.996094 17.285156 15.332031 17.257812 14.59375 L 17.253906 14.59375 C 17.25 14.488281 17.332031 14.402344 17.4375 14.398438 Z M 17.445312 14.398438 " fill-opacity="1" fill-rule="nonzero"/><path fill="#ffffff" d="M 17.277344 14.496094 C 17.230469 14.589844 17.261719 14.703125 17.355469 14.753906 C 17.445312 14.800781 17.5625 14.765625 17.609375 14.675781 L 19.96875 10.277344 C 20.019531 10.1875 19.984375 10.074219 19.890625 10.023438 C 19.800781 9.972656 19.6875 10.007812 19.636719 10.101562 Z M 20.378906 10.089844 C 20.328125 9.996094 20.214844 9.960938 20.125 10.011719 C 20.03125 10.0625 19.996094 10.175781 20.046875 10.265625 L 22.410156 14.675781 C 22.460938 14.765625 22.574219 14.800781 22.667969 14.753906 C 22.757812 14.703125 22.792969 14.589844 22.742188 14.496094 Z M 20.378906 10.089844 " fill-opacity="1" fill-rule="nonzero"/><path fill="#ffffff" d="M 19.992188 8.777344 C 20.441406 8.777344 20.808594 9.140625 20.808594 9.589844 C 20.808594 10.042969 20.441406 10.40625 19.992188 10.40625 C 19.542969 10.40625 19.175781 10.042969 19.175781 9.589844 C 19.175781 9.140625 19.542969 8.777344 19.992188 8.777344 Z M 19.992188 8.777344 " fill-opacity="1" fill-rule="nonzero"/><path fill="#ffffff" d="M 11.800781 20.769531 L 17.863281 20.769531 C 18.414062 20.769531 18.867188 21.222656 18.867188 21.773438 L 18.867188 22.585938 C 18.867188 22.691406 18.78125 22.773438 18.675781 22.773438 L 10.984375 22.773438 C 10.882812 22.773438 10.796875 22.691406 10.796875 22.585938 L 10.796875 21.773438 C 10.796875 21.371094 11.285156 20.769531 11.800781 20.769531 Z M 11.800781 20.769531 " fill-opacity="1" fill-rule="nonzero"/></svg>