<svg xmlns="http://www.w3.org/2000/svg" xmlns:xlink="http://www.w3.org/1999/xlink" width="40" zoomAndPan="magnify" viewBox="0 0 30 30.000001" height="40" preserveAspectRatio="xMidYMid meet" version="1.0"><defs><clipPath id="8a4ab7fd3d"><path d="M 0.484375 0 L 29.515625 0 L 29.515625 29.03125 L 0.484375 29.03125 Z M 0.484375 0 " clip-rule="nonzero"/></clipPath><clipPath id="1db5f47c8a"><path d="M 0.484375 14.515625 C 0.484375 22.53125 6.984375 29.03125 15 29.03125 C 23.015625 29.03125 29.515625 22.53125 29.515625 14.515625 C 29.515625 6.5 23.015625 0 15 0 C 6.984375 0 0.484375 6.5 0.484375 14.515625 Z M 0.484375 14.515625 " clip-rule="nonzero"/></clipPath><clipPath id="1af1564dc8"><path d="M 8 6 L 15 6 L 15 15 L 8 15 Z M 8 6 " clip-rule="nonzero"/></clipPath><clipPath id="9f8ac46e2b"><path d="M 0.484375 14.515625 C 0.484375 22.53125 6.984375 29.03125 15 29.03125 C 23.015625 29.03125 29.515625 22.53125 29.515625 14.515625 C 29.515625 6.5 23.015625 0 15 0 C 6.984375 0 0.484375 6.5 0.484375 14.515625 Z M 0.484375 14.515625 " clip-rule="nonzero"/></clipPath><clipPath id="43605eb2c6"><path d="M 4 13 L 16 13 L 16 23 L 4 23 Z M 4 13 " clip-rule="nonzero"/></clipPath><clipPath id="4c5b4ef0cd"><path d="M 0.484375 14.515625 C 0.484375 22.53125 6.984375 29.03125 15 29.03125 C 23.015625 29.03125 29.515625 22.53125 29.515625 14.515625 C 29.515625 6.5 23.015625 0 15 0 C 6.984375 0 0.484375 6.5 0.484375 14.515625 Z M 0.484375 14.515625 " clip-rule="nonzero"/></clipPath><clipPath id="c828d32223"><path d="M 8 15 L 14 15 L 14 18 L 8 18 Z M 8 15 " clip-rule="nonzero"/></clipPath><clipPath id="bf1a1ea5a8"><path d="M 0.484375 14.515625 C 0.484375 22.53125 6.984375 29.03125 15 29.03125 C 23.015625 29.03125 29.515625 22.53125 29.515625 14.515625 C 29.515625 6.5 23.015625 0 15 0 C 6.984375 0 0.484375 6.5 0.484375 14.515625 Z M 0.484375 14.515625 " clip-rule="nonzero"/></clipPath><clipPath id="f3179d6439"><path d="M 8 11 L 15 11 L 15 13 L 8 13 Z M 8 11 " clip-rule="nonzero"/></clipPath><clipPath id="5bdc8c7a54"><path d="M 0.484375 14.515625 C 0.484375 22.53125 6.984375 29.03125 15 29.03125 C 23.015625 29.03125 29.515625 22.53125 29.515625 14.515625 C 29.515625 6.5 23.015625 0 15 0 C 6.984375 0 0.484375 6.5 0.484375 14.515625 Z M 0.484375 14.515625 " clip-rule="nonzero"/></clipPath><clipPath id="6e7d5d15f4"><path d="M 9 11 L 13 11 L 13 14 L 9 14 Z M 9 11 " clip-rule="nonzero"/></clipPath><clipPath id="9757e71716"><path d="M 0.484375 14.515625 C 0.484375 22.53125 6.984375 29.03125 15 29.03125 C 23.015625 29.03125 29.515625 22.53125 29.515625 14.515625 C 29.515625 6.5 23.015625 0 15 0 C 6.984375 0 0.484375 6.5 0.484375 14.515625 Z M 0.484375 14.515625 " clip-rule="nonzero"/></clipPath><clipPath id="69f3596457"><path d="M 9 8 L 12 8 L 12 11 L 9 11 Z M 9 8 " clip-rule="nonzero"/></clipPath><clipPath id="f957ca7423"><path d="M 0.484375 14.515625 C 0.484375 22.53125 6.984375 29.03125 15 29.03125 C 23.015625 29.03125 29.515625 22.53125 29.515625 14.515625 C 29.515625 6.5 23.015625 0 15 0 C 6.984375 0 0.484375 6.5 0.484375 14.515625 Z M 0.484375 14.515625 " clip-rule="nonzero"/></clipPath><clipPath id="e907899b9a"><path d="M 11 8 L 14 8 L 14 11 L 11 11 Z M 11 8 " clip-rule="nonzero"/></clipPath><clipPath id="bf6a07b141"><path d="M 0.484375 14.515625 C 0.484375 22.53125 6.984375 29.03125 15 29.03125 C 23.015625 29.03125 29.515625 22.53125 29.515625 14.515625 C 29.515625 6.5 23.015625 0 15 0 C 6.984375 0 0.484375 6.5 0.484375 14.515625 Z M 0.484375 14.515625 " clip-rule="nonzero"/></clipPath><clipPath id="5aaa41a555"><path d="M 10 9 L 13 9 L 13 11 L 10 11 Z M 10 9 " clip-rule="nonzero"/></clipPath><clipPath id="076013afa2"><path d="M 0.484375 14.515625 C 0.484375 22.53125 6.984375 29.03125 15 29.03125 C 23.015625 29.03125 29.515625 22.53125 29.515625 14.515625 C 29.515625 6.5 23.015625 0 15 0 C 6.984375 0 0.484375 6.5 0.484375 14.515625 Z M 0.484375 14.515625 " clip-rule="nonzero"/></clipPath><clipPath id="a2ebe2a931"><path d="M 8 9 L 10 9 L 10 11 L 8 11 Z M 8 9 " clip-rule="nonzero"/></clipPath><clipPath id="c1767f26cf"><path d="M 0.484375 14.515625 C 0.484375 22.53125 6.984375 29.03125 15 29.03125 C 23.015625 29.03125 29.515625 22.53125 29.515625 14.515625 C 29.515625 6.5 23.015625 0 15 0 C 6.984375 0 0.484375 6.5 0.484375 14.515625 Z M 0.484375 14.515625 " clip-rule="nonzero"/></clipPath><clipPath id="035147313d"><path d="M 12 9 L 15 9 L 15 11 L 12 11 Z M 12 9 " clip-rule="nonzero"/></clipPath><clipPath id="259b7ab9f4"><path d="M 0.484375 14.515625 C 0.484375 22.53125 6.984375 29.03125 15 29.03125 C 23.015625 29.03125 29.515625 22.53125 29.515625 14.515625 C 29.515625 6.5 23.015625 0 15 0 C 6.984375 0 0.484375 6.5 0.484375 14.515625 Z M 0.484375 14.515625 " clip-rule="nonzero"/></clipPath><clipPath id="7d86b09322"><path d="M 7 9 L 9 9 L 9 12 L 7 12 Z M 7 9 " clip-rule="nonzero"/></clipPath><clipPath id="af5d269fbd"><path d="M 0.484375 14.515625 C 0.484375 22.53125 6.984375 29.03125 15 29.03125 C 23.015625 29.03125 29.515625 22.53125 29.515625 14.515625 C 29.515625 6.5 23.015625 0 15 0 C 6.984375 0 0.484375 6.5 0.484375 14.515625 Z M 0.484375 14.515625 " clip-rule="nonzero"/></clipPath><clipPath id="ae75073d16"><path d="M 6 18 L 8 18 L 8 23 L 6 23 Z M 6 18 " clip-rule="nonzero"/></clipPath><clipPath id="58b0a49cb9"><path d="M 0.484375 14.515625 C 0.484375 22.53125 6.984375 29.03125 15 29.03125 C 23.015625 29.03125 29.515625 22.53125 29.515625 14.515625 C 29.515625 6.5 23.015625 0 15 0 C 6.984375 0 0.484375 6.5 0.484375 14.515625 Z M 0.484375 14.515625 " clip-rule="nonzero"/></clipPath><clipPath id="10c06a8a02"><path d="M 17 10 L 23 10 L 23 17 L 17 17 Z M 17 10 " clip-rule="nonzero"/></clipPath><clipPath id="7801ed2091"><path d="M 0.484375 14.515625 C 0.484375 22.53125 6.984375 29.03125 15 29.03125 C 23.015625 29.03125 29.515625 22.53125 29.515625 14.515625 C 29.515625 6.5 23.015625 0 15 0 C 6.984375 0 0.484375 6.5 0.484375 14.515625 Z M 0.484375 14.515625 " clip-rule="nonzero"/></clipPath><clipPath id="4b073181cf"><path d="M 14 15 L 26 15 L 26 23 L 14 23 Z M 14 15 " clip-rule="nonzero"/></clipPath><clipPath id="e9b60958ab"><path d="M 0.484375 14.515625 C 0.484375 22.53125 6.984375 29.03125 15 29.03125 C 23.015625 29.03125 29.515625 22.53125 29.515625 14.515625 C 29.515625 6.5 23.015625 0 15 0 C 6.984375 0 0.484375 6.5 0.484375 14.515625 Z M 0.484375 14.515625 " clip-rule="nonzero"/></clipPath><clipPath id="5167a39232"><path d="M 17 16 L 21 16 L 21 20 L 17 20 Z M 17 16 " clip-rule="nonzero"/></clipPath><clipPath id="9a2f3fa49c"><path d="M 0.484375 14.515625 C 0.484375 22.53125 6.984375 29.03125 15 29.03125 C 23.015625 29.03125 29.515625 22.53125 29.515625 14.515625 C 29.515625 6.5 23.015625 0 15 0 C 6.984375 0 0.484375 6.5 0.484375 14.515625 Z M 0.484375 14.515625 " clip-rule="nonzero"/></clipPath><clipPath id="88dacf8c2c"><path d="M 19 16 L 23 16 L 23 20 L 19 20 Z M 19 16 " clip-rule="nonzero"/></clipPath><clipPath id="5d8d9ed570"><path d="M 0.484375 14.515625 C 0.484375 22.53125 6.984375 29.03125 15 29.03125 C 23.015625 29.03125 29.515625 22.53125 29.515625 14.515625 C 29.515625 6.5 23.015625 0 15 0 C 6.984375 0 0.484375 6.5 0.484375 14.515625 Z M 0.484375 14.515625 " clip-rule="nonzero"/></clipPath><clipPath id="787f613573"><path d="M 14 8 L 26 8 L 26 19 L 14 19 Z M 14 8 " clip-rule="nonzero"/></clipPath><clipPath id="6870fa7201"><path d="M 0.484375 14.515625 C 0.484375 22.53125 6.984375 29.03125 15 29.03125 C 23.015625 29.03125 29.515625 22.53125 29.515625 14.515625 C 29.515625 6.5 23.015625 0 15 0 C 6.984375 0 0.484375 6.5 0.484375 14.515625 Z M 0.484375 14.515625 " clip-rule="nonzero"/></clipPath><clipPath id="4455974cf6"><path d="M 18 7 L 22 7 L 22 10 L 18 10 Z M 18 7 " clip-rule="nonzero"/></clipPath><clipPath id="56f4c34272"><path d="M 0.484375 14.515625 C 0.484375 22.53125 6.984375 29.03125 15 29.03125 C 23.015625 29.03125 29.515625 22.53125 29.515625 14.515625 C 29.515625 6.5 23.015625 0 15 0 C 6.984375 0 0.484375 6.5 0.484375 14.515625 Z M 0.484375 14.515625 " clip-rule="nonzero"/></clipPath><clipPath id="d02af353ad"><path d="M 19 17 L 21 17 L 21 23 L 19 23 Z M 19 17 " clip-rule="nonzero"/></clipPath><clipPath id="b6e5299750"><path d="M 0.484375 14.515625 C 0.484375 22.53125 6.984375 29.03125 15 29.03125 C 23.015625 29.03125 29.515625 22.53125 29.515625 14.515625 C 29.515625 6.5 23.015625 0 15 0 C 6.984375 0 0.484375 6.5 0.484375 14.515625 Z M 0.484375 14.515625 " clip-rule="nonzero"/></clipPath><clipPath id="3b454398a8"><path d="M 13 9 L 16 9 L 16 12 L 13 12 Z M 13 9 " clip-rule="nonzero"/></clipPath><clipPath id="1d7f208aed"><path d="M 0.484375 14.515625 C 0.484375 22.53125 6.984375 29.03125 15 29.03125 C 23.015625 29.03125 29.515625 22.53125 29.515625 14.515625 C 29.515625 6.5 23.015625 0 15 0 C 6.984375 0 0.484375 6.5 0.484375 14.515625 Z M 0.484375 14.515625 " clip-rule="nonzero"/></clipPath></defs><g clip-path="url(#8a4ab7fd3d)"><g clip-path="url(#1db5f47c8a)"><path fill="#000000" d="M 0.484375 23.671875 L 0.484375 5.359375 C 0.484375 2.410156 2.894531 0 5.84375 0 L 24.15625 0 C 27.105469 0 29.515625 2.410156 29.515625 5.359375 L 29.515625 23.671875 C 29.515625 26.621094 27.105469 29.03125 24.15625 29.03125 L 5.84375 29.03125 C 2.894531 29.03125 0.484375 26.621094 0.484375 23.671875 Z M 0.484375 23.671875 " fill-opacity="1" fill-rule="nonzero"/></g></g><g clip-path="url(#1af1564dc8)"><g clip-path="url(#9f8ac46e2b)"><path fill="#ffffff" d="M 11.445312 14.929688 L 11.347656 14.929688 C 10.507812 14.929688 9.75 14.597656 9.152344 13.96875 C 8.417969 13.195312 7.980469 11.992188 8.035156 10.894531 C 7.957031 9.332031 8.558594 8.050781 9.683594 7.371094 C 10.722656 6.746094 12.070312 6.746094 13.113281 7.371094 C 14.238281 8.046875 14.835938 9.332031 14.761719 10.894531 C 14.8125 11.988281 14.375 13.195312 13.644531 13.96875 C 13.046875 14.59375 12.285156 14.929688 11.445312 14.929688 Z M 11.398438 7.585938 C 10.925781 7.585938 10.449219 7.710938 10.035156 7.957031 C 9.113281 8.511719 8.652344 9.546875 8.71875 10.871094 C 8.71875 10.886719 8.71875 10.894531 8.71875 10.910156 C 8.667969 11.828125 9.035156 12.84375 9.648438 13.488281 C 10.117188 13.984375 10.6875 14.234375 11.34375 14.242188 L 11.441406 14.242188 C 12.097656 14.242188 12.671875 13.992188 13.140625 13.496094 C 13.75 12.847656 14.117188 11.832031 14.070312 10.914062 C 14.070312 10.898438 14.070312 10.890625 14.070312 10.878906 C 14.140625 9.546875 13.671875 8.511719 12.75 7.960938 C 12.34375 7.710938 11.871094 7.585938 11.398438 7.585938 Z M 11.398438 7.585938 " fill-opacity="1" fill-rule="nonzero"/></g></g><g clip-path="url(#43605eb2c6)"><g clip-path="url(#4c5b4ef0cd)"><path fill="#ffffff" d="M 14.417969 22.207031 L 4.839844 22.207031 C 4.652344 22.207031 4.496094 22.058594 4.496094 21.863281 L 4.496094 20.238281 C 4.496094 18.828125 4.847656 17.785156 5.574219 17.0625 C 6.203125 16.433594 7.007812 16.148438 7.71875 15.894531 C 8.902344 15.46875 9.515625 15.195312 9.5 14.117188 C 9.496094 13.929688 9.648438 13.773438 9.835938 13.765625 C 10.023438 13.761719 10.179688 13.914062 10.183594 14.101562 C 10.214844 15.726562 9.0625 16.140625 7.945312 16.535156 C 6.585938 17.023438 5.179688 17.523438 5.179688 20.238281 L 5.179688 21.519531 L 14.417969 21.519531 C 14.605469 21.519531 14.761719 21.671875 14.761719 21.863281 C 14.761719 22.058594 14.609375 22.207031 14.417969 22.207031 Z M 15.050781 16.589844 C 15.011719 16.589844 14.976562 16.585938 14.933594 16.566406 L 14.84375 16.535156 C 13.730469 16.140625 12.578125 15.722656 12.609375 14.101562 C 12.613281 13.914062 12.769531 13.761719 12.957031 13.765625 C 13.144531 13.773438 13.296875 13.929688 13.292969 14.117188 C 13.269531 15.195312 13.890625 15.46875 15.074219 15.894531 L 15.164062 15.925781 C 15.339844 15.988281 15.433594 16.183594 15.367188 16.363281 C 15.324219 16.503906 15.1875 16.589844 15.050781 16.589844 Z M 15.050781 16.589844 " fill-opacity="1" fill-rule="nonzero"/></g></g><g clip-path="url(#c828d32223)"><g clip-path="url(#bf1a1ea5a8)"><path fill="#ffffff" d="M 11.355469 17.410156 C 10.695312 17.410156 10.160156 16.90625 9.191406 16 L 8.984375 15.808594 C 8.847656 15.679688 8.839844 15.460938 8.96875 15.320312 C 9.097656 15.183594 9.316406 15.175781 9.453125 15.304688 L 9.660156 15.496094 C 10.5 16.28125 10.96875 16.71875 11.355469 16.71875 C 11.363281 16.71875 11.367188 16.71875 11.367188 16.71875 C 11.789062 16.710938 12.421875 16.152344 13.332031 15.304688 C 13.46875 15.175781 13.6875 15.183594 13.816406 15.320312 C 13.949219 15.460938 13.9375 15.679688 13.800781 15.808594 C 12.621094 16.910156 12.035156 17.398438 11.382812 17.40625 C 11.375 17.410156 11.367188 17.410156 11.355469 17.410156 Z M 11.355469 17.410156 " fill-opacity="1" fill-rule="nonzero"/></g></g><g clip-path="url(#f3179d6439)"><g clip-path="url(#5bdc8c7a54)"><path fill="#ffffff" d="M 10.429688 12.664062 C 10.3125 12.664062 10.195312 12.601562 10.132812 12.496094 C 10.027344 12.304688 9.890625 12.195312 9.730469 12.160156 C 9.476562 12.097656 9.113281 12.203125 8.71875 12.453125 C 8.558594 12.558594 8.347656 12.507812 8.242188 12.347656 C 8.140625 12.1875 8.191406 11.976562 8.351562 11.875 C 8.75 11.625 9.339844 11.355469 9.898438 11.488281 C 10.246094 11.574219 10.523438 11.792969 10.726562 12.144531 C 10.820312 12.3125 10.769531 12.519531 10.601562 12.613281 C 10.542969 12.652344 10.484375 12.664062 10.429688 12.664062 Z M 12.367188 12.664062 C 12.308594 12.664062 12.25 12.652344 12.191406 12.621094 C 12.027344 12.527344 11.972656 12.316406 12.066406 12.148438 C 12.273438 11.796875 12.550781 11.578125 12.898438 11.492188 C 13.457031 11.355469 14.046875 11.628906 14.445312 11.878906 C 14.605469 11.980469 14.652344 12.191406 14.550781 12.351562 C 14.449219 12.511719 14.238281 12.5625 14.078125 12.457031 C 13.675781 12.203125 13.316406 12.101562 13.0625 12.164062 C 12.902344 12.203125 12.773438 12.3125 12.660156 12.5 C 12.597656 12.601562 12.484375 12.664062 12.367188 12.664062 Z M 12.367188 12.664062 " fill-opacity="1" fill-rule="nonzero"/></g></g><g clip-path="url(#6e7d5d15f4)"><g clip-path="url(#9757e71716)"><path fill="#ffffff" d="M 10.753906 13.449219 C 10.445312 13.449219 10.171875 13.332031 10.007812 13.21875 C 9.902344 13.140625 9.847656 13.015625 9.867188 12.886719 C 10.011719 11.886719 10.742188 11.4375 11.398438 11.4375 C 12.054688 11.4375 12.78125 11.882812 12.929688 12.886719 C 12.945312 13.015625 12.894531 13.144531 12.785156 13.21875 C 12.515625 13.410156 11.921875 13.609375 11.402344 13.246094 C 11.1875 13.394531 10.964844 13.449219 10.753906 13.449219 Z M 10.203125 12.9375 Z M 10.601562 12.746094 C 10.753906 12.785156 10.957031 12.777344 11.132812 12.5625 C 11.199219 12.480469 11.292969 12.4375 11.398438 12.4375 C 11.5 12.4375 11.59375 12.480469 11.660156 12.5625 C 11.839844 12.777344 12.039062 12.785156 12.191406 12.746094 C 12.039062 12.289062 11.6875 12.117188 11.398438 12.117188 C 11.105469 12.117188 10.753906 12.289062 10.601562 12.746094 Z M 10.601562 12.746094 " fill-opacity="1" fill-rule="nonzero"/></g></g><g clip-path="url(#69f3596457)"><g clip-path="url(#f957ca7423)"><path fill="#ffffff" d="M 10.160156 10.761719 C 9.640625 10.761719 9.222656 10.339844 9.222656 9.824219 C 9.222656 9.304688 9.640625 8.886719 10.160156 8.886719 C 10.679688 8.886719 11.097656 9.304688 11.097656 9.824219 C 11.097656 10.339844 10.679688 10.761719 10.160156 10.761719 Z M 10.160156 9.574219 C 10.023438 9.574219 9.910156 9.683594 9.910156 9.824219 C 9.910156 9.960938 10.023438 10.074219 10.160156 10.074219 C 10.296875 10.074219 10.410156 9.960938 10.410156 9.824219 C 10.414062 9.6875 10.296875 9.574219 10.160156 9.574219 Z M 10.160156 9.574219 " fill-opacity="1" fill-rule="nonzero"/></g></g><g clip-path="url(#e907899b9a)"><g clip-path="url(#bf6a07b141)"><path fill="#ffffff" d="M 12.628906 10.761719 C 12.113281 10.761719 11.691406 10.339844 11.691406 9.824219 C 11.691406 9.304688 12.113281 8.886719 12.628906 8.886719 C 13.148438 8.886719 13.566406 9.304688 13.566406 9.824219 C 13.566406 10.339844 13.148438 10.761719 12.628906 10.761719 Z M 12.628906 9.574219 C 12.492188 9.574219 12.378906 9.683594 12.378906 9.824219 C 12.378906 9.960938 12.492188 10.074219 12.628906 10.074219 C 12.769531 10.074219 12.878906 9.960938 12.878906 9.824219 C 12.878906 9.6875 12.769531 9.574219 12.628906 9.574219 Z M 12.628906 9.574219 " fill-opacity="1" fill-rule="nonzero"/></g></g><g clip-path="url(#5aaa41a555)"><g clip-path="url(#076013afa2)"><path fill="#ffffff" d="M 10.753906 10.171875 C 10.679688 10.171875 10.597656 10.144531 10.535156 10.089844 C 10.386719 9.96875 10.371094 9.75 10.492188 9.609375 C 10.742188 9.304688 11.207031 9.273438 11.394531 9.273438 C 11.582031 9.273438 12.046875 9.304688 12.296875 9.609375 C 12.414062 9.757812 12.398438 9.96875 12.25 10.089844 C 12.101562 10.210938 11.890625 10.195312 11.769531 10.046875 C 11.742188 10.015625 11.601562 9.957031 11.394531 9.957031 C 11.183594 9.957031 11.042969 10.015625 11.019531 10.046875 C 10.949219 10.125 10.851562 10.171875 10.753906 10.171875 Z M 10.753906 10.171875 " fill-opacity="1" fill-rule="nonzero"/></g></g><g clip-path="url(#a2ebe2a931)"><g clip-path="url(#c1767f26cf)"><path fill="#ffffff" d="M 9.566406 10.167969 C 9.46875 10.167969 9.371094 10.125 9.300781 10.042969 C 9.230469 9.964844 8.839844 9.902344 8.601562 10.011719 C 8.425781 10.085938 8.226562 10.011719 8.148438 9.835938 C 8.074219 9.664062 8.148438 9.460938 8.324219 9.386719 C 8.78125 9.179688 9.523438 9.234375 9.835938 9.605469 C 9.953125 9.75 9.9375 9.964844 9.789062 10.085938 C 9.722656 10.144531 9.648438 10.167969 9.566406 10.167969 Z M 9.566406 10.167969 " fill-opacity="1" fill-rule="nonzero"/></g></g><g clip-path="url(#035147313d)"><g clip-path="url(#259b7ab9f4)"><path fill="#ffffff" d="M 13.222656 10.171875 C 13.148438 10.171875 13.066406 10.144531 13.003906 10.089844 C 12.859375 9.96875 12.839844 9.75 12.960938 9.609375 C 13.269531 9.238281 14.015625 9.183594 14.46875 9.390625 C 14.644531 9.464844 14.71875 9.671875 14.644531 9.839844 C 14.570312 10.015625 14.363281 10.089844 14.195312 10.015625 C 13.957031 9.90625 13.5625 9.96875 13.492188 10.046875 C 13.421875 10.125 13.324219 10.171875 13.222656 10.171875 Z M 13.222656 10.171875 " fill-opacity="1" fill-rule="nonzero"/></g></g><g clip-path="url(#7d86b09322)"><g clip-path="url(#af5d269fbd)"><path fill="#ffffff" d="M 8.257812 11.949219 C 7.8125 11.949219 7.4375 11.75 7.210938 11.382812 C 6.941406 10.929688 6.957031 10.308594 7.253906 9.875 C 7.53125 9.476562 7.988281 9.296875 8.511719 9.390625 C 8.699219 9.421875 8.824219 9.601562 8.789062 9.789062 C 8.757812 9.976562 8.578125 10.101562 8.390625 10.0625 C 8.132812 10.019531 7.9375 10.085938 7.816406 10.265625 C 7.667969 10.480469 7.660156 10.804688 7.792969 11.027344 C 7.90625 11.210938 8.097656 11.292969 8.355469 11.261719 C 8.542969 11.238281 8.714844 11.375 8.734375 11.5625 C 8.757812 11.75 8.625 11.917969 8.4375 11.941406 C 8.382812 11.949219 8.320312 11.949219 8.257812 11.949219 Z M 8.257812 11.949219 " fill-opacity="1" fill-rule="nonzero"/></g></g><g clip-path="url(#ae75073d16)"><g clip-path="url(#58b0a49cb9)"><path fill="#ffffff" d="M 7.246094 22.207031 C 7.058594 22.207031 6.902344 22.058594 6.902344 21.863281 L 6.902344 18.882812 C 6.902344 18.695312 7.054688 18.539062 7.246094 18.539062 C 7.441406 18.539062 7.59375 18.6875 7.59375 18.882812 L 7.59375 21.863281 C 7.585938 22.058594 7.4375 22.207031 7.246094 22.207031 Z M 7.246094 22.207031 " fill-opacity="1" fill-rule="nonzero"/></g></g><g clip-path="url(#10c06a8a02)"><g clip-path="url(#7801ed2091)"><path fill="#ffffff" d="M 19.851562 16.433594 L 19.773438 16.433594 C 18.96875 16.433594 18.292969 16.035156 17.816406 15.289062 C 17.144531 14.234375 17.003906 12.601562 17.484375 11.570312 C 17.527344 11.484375 17.597656 11.417969 17.6875 11.390625 C 17.777344 11.359375 17.875 11.367188 17.957031 11.414062 C 18.824219 11.878906 19.960938 11.394531 21.058594 10.800781 C 21.148438 10.753906 21.25 10.746094 21.34375 10.785156 C 21.8125 10.960938 22.152344 11.390625 22.328125 12.019531 C 22.480469 12.554688 22.492188 13.199219 22.375 13.835938 C 22.085938 15.414062 21.09375 16.433594 19.851562 16.433594 Z M 17.996094 12.171875 C 17.785156 12.941406 17.878906 14.109375 18.394531 14.925781 C 18.746094 15.472656 19.210938 15.75 19.773438 15.75 L 19.851562 15.75 C 20.941406 15.75 21.523438 14.695312 21.707031 13.710938 C 21.890625 12.722656 21.679688 11.796875 21.226562 11.488281 C 20.136719 12.066406 19.007812 12.507812 17.996094 12.171875 Z M 17.996094 12.171875 " fill-opacity="1" fill-rule="nonzero"/></g></g><g clip-path="url(#4b073181cf)"><g clip-path="url(#e9b60958ab)"><path fill="#ffffff" d="M 25.207031 22.207031 L 14.417969 22.207031 C 14.230469 22.207031 14.074219 22.058594 14.074219 21.863281 L 14.074219 20.578125 C 14.074219 17.941406 15.636719 17.394531 16.78125 16.996094 C 17.726562 16.664062 18.21875 16.457031 18.207031 15.644531 C 18.207031 15.457031 18.359375 15.300781 18.546875 15.300781 C 18.546875 15.300781 18.546875 15.300781 18.554688 15.300781 C 18.742188 15.300781 18.890625 15.449219 18.898438 15.636719 C 18.910156 16.976562 17.894531 17.332031 17.007812 17.644531 C 15.851562 18.050781 14.761719 18.429688 14.761719 20.578125 L 14.761719 21.519531 L 24.863281 21.519531 L 24.863281 20.578125 C 24.863281 18.429688 23.773438 18.046875 22.617188 17.644531 C 21.722656 17.332031 20.714844 16.976562 20.726562 15.636719 C 20.726562 15.449219 20.882812 15.300781 21.078125 15.300781 C 21.265625 15.300781 21.414062 15.457031 21.414062 15.648438 C 21.40625 16.460938 21.902344 16.671875 22.84375 17 C 23.988281 17.402344 25.550781 17.949219 25.550781 20.582031 L 25.550781 21.871094 C 25.550781 22.058594 25.394531 22.207031 25.207031 22.207031 Z M 25.207031 22.207031 " fill-opacity="1" fill-rule="nonzero"/></g></g><g clip-path="url(#5167a39232)"><g clip-path="url(#9a2f3fa49c)"><path fill="#ffffff" d="M 18.652344 19.300781 C 18.542969 19.300781 18.4375 19.253906 18.371094 19.160156 L 17.082031 17.355469 C 16.972656 17.199219 17.007812 16.988281 17.164062 16.875 C 17.320312 16.765625 17.53125 16.800781 17.640625 16.957031 L 18.730469 18.484375 L 19.242188 18.128906 L 17.878906 17.019531 C 17.730469 16.898438 17.707031 16.683594 17.828125 16.535156 C 17.949219 16.390625 18.164062 16.367188 18.3125 16.488281 L 20.027344 17.886719 C 20.113281 17.953125 20.15625 18.054688 20.152344 18.160156 C 20.148438 18.269531 20.09375 18.367188 20.003906 18.429688 L 18.84375 19.238281 C 18.785156 19.277344 18.71875 19.300781 18.652344 19.300781 Z M 18.652344 19.300781 " fill-opacity="1" fill-rule="nonzero"/></g></g><g clip-path="url(#88dacf8c2c)"><g clip-path="url(#5d8d9ed570)"><path fill="#ffffff" d="M 20.972656 19.300781 C 20.90625 19.300781 20.839844 19.285156 20.777344 19.238281 L 19.617188 18.429688 C 19.527344 18.367188 19.472656 18.269531 19.46875 18.164062 C 19.464844 18.054688 19.511719 17.953125 19.59375 17.886719 L 21.308594 16.488281 C 21.457031 16.367188 21.671875 16.390625 21.789062 16.535156 C 21.910156 16.683594 21.890625 16.898438 21.742188 17.019531 L 20.378906 18.132812 L 20.890625 18.484375 L 21.976562 16.957031 C 22.089844 16.800781 22.304688 16.765625 22.457031 16.875 C 22.613281 16.988281 22.648438 17.203125 22.535156 17.355469 L 21.25 19.160156 C 21.1875 19.253906 21.082031 19.300781 20.972656 19.300781 Z M 20.972656 19.300781 " fill-opacity="1" fill-rule="nonzero"/></g></g><g clip-path="url(#787f613573)"><g clip-path="url(#6870fa7201)"><path fill="#ffffff" d="M 24.039062 18.257812 C 23.960938 18.257812 23.890625 18.234375 23.828125 18.183594 C 23.679688 18.066406 23.652344 17.855469 23.769531 17.703125 C 23.925781 17.503906 23.925781 17.359375 23.765625 16.914062 C 23.707031 16.75 23.777344 16.566406 23.933594 16.492188 C 24.253906 16.335938 24.347656 15.960938 24.324219 15.65625 C 24.300781 15.316406 24.121094 14.925781 23.777344 14.8125 C 23.609375 14.753906 23.511719 14.574219 23.554688 14.398438 C 23.699219 13.859375 23.515625 13.441406 23.101562 12.800781 C 22.964844 12.59375 22.890625 12.296875 22.800781 11.917969 C 22.519531 10.769531 22.128906 9.203125 19.867188 9.203125 C 19.847656 9.203125 19.835938 9.203125 19.816406 9.203125 C 19.8125 9.203125 19.8125 9.203125 19.808594 9.203125 C 17.496094 9.179688 17.105469 10.761719 16.824219 11.917969 C 16.730469 12.292969 16.660156 12.59375 16.523438 12.800781 C 16.117188 13.425781 15.925781 13.867188 16.070312 14.398438 C 16.113281 14.570312 16.019531 14.753906 15.847656 14.8125 C 15.503906 14.929688 15.328125 15.320312 15.300781 15.65625 C 15.277344 15.957031 15.371094 16.335938 15.691406 16.492188 C 15.847656 16.566406 15.921875 16.75 15.859375 16.914062 C 15.699219 17.359375 15.699219 17.503906 15.855469 17.703125 C 15.972656 17.847656 15.945312 18.066406 15.796875 18.183594 C 15.648438 18.300781 15.429688 18.273438 15.316406 18.125 C 14.992188 17.714844 15.015625 17.328125 15.128906 16.941406 C 14.769531 16.644531 14.578125 16.160156 14.613281 15.613281 C 14.652344 15.039062 14.929688 14.546875 15.347656 14.292969 C 15.257812 13.570312 15.589844 12.980469 15.945312 12.429688 C 16.015625 12.320312 16.082031 12.046875 16.15625 11.757812 C 16.429688 10.621094 16.949219 8.519531 19.753906 8.519531 C 19.773438 8.519531 19.789062 8.519531 19.808594 8.519531 C 19.824219 8.519531 19.84375 8.519531 19.863281 8.519531 C 22.667969 8.519531 23.183594 10.621094 23.460938 11.757812 C 23.53125 12.046875 23.601562 12.320312 23.671875 12.429688 C 24.023438 12.976562 24.359375 13.570312 24.269531 14.292969 C 24.683594 14.554688 24.960938 15.039062 25.003906 15.613281 C 25.039062 16.160156 24.847656 16.644531 24.488281 16.941406 C 24.601562 17.332031 24.621094 17.71875 24.300781 18.125 C 24.238281 18.210938 24.136719 18.257812 24.039062 18.257812 Z M 24.039062 18.257812 " fill-opacity="1" fill-rule="nonzero"/></g></g><g clip-path="url(#4455974cf6)"><g clip-path="url(#56f4c34272)"><path fill="#ffffff" d="M 20.726562 9.28125 C 20.695312 9.28125 20.667969 9.277344 20.636719 9.269531 C 20.457031 9.21875 20.347656 9.03125 20.398438 8.847656 C 20.445312 8.667969 20.410156 8.472656 20.292969 8.324219 C 20.179688 8.171875 20.003906 8.085938 19.816406 8.085938 C 19.628906 8.085938 19.449219 8.171875 19.339844 8.324219 C 19.222656 8.472656 19.1875 8.667969 19.234375 8.847656 C 19.285156 9.03125 19.179688 9.21875 18.996094 9.269531 C 18.8125 9.320312 18.625 9.210938 18.574219 9.027344 C 18.46875 8.636719 18.546875 8.230469 18.796875 7.902344 C 19.042969 7.582031 19.417969 7.398438 19.820312 7.398438 C 20.222656 7.398438 20.597656 7.582031 20.84375 7.902344 C 21.089844 8.222656 21.171875 8.636719 21.066406 9.027344 C 21.019531 9.183594 20.878906 9.28125 20.726562 9.28125 Z M 20.726562 9.28125 " fill-opacity="1" fill-rule="nonzero"/></g></g><g clip-path="url(#d02af353ad)"><g clip-path="url(#b6e5299750)"><path fill="#ffffff" d="M 19.8125 22.207031 C 19.625 22.207031 19.46875 22.058594 19.46875 21.863281 L 19.46875 18.148438 C 19.46875 17.960938 19.621094 17.804688 19.8125 17.804688 C 20.003906 17.804688 20.15625 17.957031 20.15625 18.148438 L 20.15625 21.863281 C 20.15625 22.058594 20 22.207031 19.8125 22.207031 Z M 19.8125 22.207031 " fill-opacity="1" fill-rule="nonzero"/></g></g><g clip-path="url(#3b454398a8)"><g clip-path="url(#1d7f208aed)"><path fill="#ffffff" d="M 14.53125 11.949219 C 14.46875 11.949219 14.40625 11.945312 14.34375 11.9375 C 14.15625 11.914062 14.023438 11.742188 14.046875 11.554688 C 14.066406 11.367188 14.238281 11.234375 14.425781 11.257812 C 14.6875 11.289062 14.875 11.210938 14.988281 11.023438 C 15.121094 10.800781 15.113281 10.476562 14.964844 10.261719 C 14.84375 10.082031 14.648438 10.015625 14.390625 10.058594 C 14.203125 10.089844 14.023438 9.964844 13.992188 9.78125 C 13.960938 9.59375 14.085938 9.417969 14.269531 9.386719 C 14.796875 9.292969 15.257812 9.46875 15.527344 9.871094 C 15.828125 10.304688 15.839844 10.925781 15.570312 11.378906 C 15.355469 11.75 14.980469 11.949219 14.53125 11.949219 Z M 14.53125 11.949219 " fill-opacity="1" fill-rule="nonzero"/></g></g></svg>