<svg xmlns="http://www.w3.org/2000/svg" xmlns:xlink="http://www.w3.org/1999/xlink" width="2400" zoomAndPan="magnify" viewBox="0 0 1800 449.999984" height="600" preserveAspectRatio="xMidYMid meet" version="1.2"><defs><clipPath id="351e908de1"><path d="M 0 395.339844 L 1800 395.339844 L 1800 450 L 0 450 Z M 0 395.339844 "/></clipPath><clipPath id="fd8d654143"><path d="M 596.789062 398.542969 C 689.859375 396.609375 796.308594 395.339844 900.492188 395.339844 C 1004.675781 395.339844 1104.925781 396.425781 1197.3125 398.363281 C 1199.28125 398.421875 1201.246094 398.421875 1203.210938 398.484375 C 1550.160156 406.222656 1805.703125 426.660156 1810.617188 450.542969 L 1810.617188 531.929688 L -10.617188 531.929688 L -10.617188 450.605469 C -5.699219 426.539062 245.910156 406.101562 596.789062 398.542969 Z M 596.789062 398.542969 "/></clipPath><clipPath id="345ba95739"><path d="M 0 0 L 1800 0 L 1800 54.664062 L 0 54.664062 Z M 0 0 "/></clipPath><clipPath id="2aca7dd824"><path d="M 1203.203125 51.460938 C 1110.132812 53.394531 1003.683594 54.664062 899.5 54.664062 C 795.316406 54.664062 695.066406 53.578125 602.679688 51.640625 C 600.710938 51.582031 598.746094 51.582031 596.78125 51.519531 C 249.832031 43.78125 -5.710938 23.34375 -10.625 -0.539062 L -10.625 -81.925781 L 1810.605469 -81.925781 L 1810.605469 -0.601562 C 1805.691406 23.464844 1554.082031 43.902344 1203.203125 51.460938 Z M 1203.203125 51.460938 "/></clipPath></defs><g id="41845561b5"><rect x="0" width="1800" y="0" height="449.999984" style="fill:#ffffff;fill-opacity:1;stroke:none;"/><rect x="0" width="1800" y="0" height="449.999984" style="fill:#1263a0;fill-opacity:1;stroke:none;"/><path style="fill:none;stroke-width:6;stroke-linecap:round;stroke-linejoin:miter;stroke:#868e96;stroke-opacity:1;stroke-miterlimit:4;" d="M 3.323391 3.314652 C 800.781786 91.679242 1598.234973 91.679242 2395.693369 3.304235 " transform="matrix(0.75,0,0,0.75,0.405895,-0.372707)"/><g clip-rule="nonzero" clip-path="url(#351e908de1)"><g clip-rule="nonzero" clip-path="url(#fd8d654143)"><path style=" stroke:none;fill-rule:nonzero;fill:#ffffff;fill-opacity:1;" d="M -10.617188 395.339844 L 1810.4375 395.339844 L 1810.4375 531.929688 L -10.617188 531.929688 Z M -10.617188 395.339844 "/></g></g><g clip-rule="nonzero" clip-path="url(#345ba95739)"><g clip-rule="nonzero" clip-path="url(#2aca7dd824)"><path style=" stroke:none;fill-rule:nonzero;fill:#ffffff;fill-opacity:1;" d="M 1810.605469 54.664062 L -10.445312 54.664062 L -10.445312 -81.925781 L 1810.605469 -81.925781 Z M 1810.605469 54.664062 "/></g></g></g></svg>