<svg xmlns="http://www.w3.org/2000/svg" xmlns:xlink="http://www.w3.org/1999/xlink" width="1366" zoomAndPan="magnify" viewBox="0 0 1024.5 576" height="768" preserveAspectRatio="xMidYMid meet" version="1.2"><defs><clipPath id="32a859f24f"><path d="M 530 92 L 1024 92 L 1024 162 L 530 162 Z M 530 92 "/></clipPath><clipPath id="6406e2050d"><path d="M 448 414 L 1024 414 L 1024 486 L 448 486 Z M 448 414 "/></clipPath><clipPath id="0afca53ad2"><path d="M 0 140.925781 L 1024 140.925781 L 1024 434.675781 L 0 434.675781 Z M 0 140.925781 "/></clipPath><clipPath id="2385a0a9ab"><path d="M 0 123.933594 L 57.574219 123.933594 L 57.574219 453.304688 L 0 453.304688 Z M 0 123.933594 "/></clipPath><clipPath id="e358512e88"><path d="M 45.90625 421.578125 L 154.453125 421.578125 L 154.453125 444 L 45.90625 444 Z M 45.90625 421.578125 "/></clipPath><clipPath id="d2eb66356d"><path d="M 0 399 L 43 399 L 43 461 L 0 461 Z M 0 399 "/></clipPath><clipPath id="904d5c1ddd"><path d="M -9.335938 406.902344 L 32.960938 399.597656 L 42.207031 453.105469 L -0.0898438 460.414062 Z M -9.335938 406.902344 "/></clipPath><clipPath id="16ce408ddf"><path d="M 48 399 L 135 399 L 135 453 L 48 453 Z M 48 399 "/></clipPath><clipPath id="f65ea35565"><path d="M 52.359375 452.019531 L 48.496094 406.730469 L 130.710938 399.714844 L 134.574219 445.003906 Z M 52.359375 452.019531 "/></clipPath><clipPath id="616edb5908"><path d="M 140.570312 421.582031 L 417.679688 421.582031 L 417.679688 444.003906 L 140.570312 444.003906 Z M 140.570312 421.582031 "/></clipPath><clipPath id="6c6d1fd206"><path d="M 417.675781 432.792969 L 140.570312 421.582031 L 140.570312 444.003906 Z M 417.675781 432.792969 "/></clipPath><clipPath id="87aa3f908f"><path d="M 643.417969 423.457031 L 906.691406 423.457031 L 906.691406 445.878906 L 643.417969 445.878906 Z M 643.417969 423.457031 "/></clipPath><clipPath id="f9993c890a"><path d="M 643.472656 434.667969 L 906.691406 445.878906 L 906.691406 423.457031 Z M 643.472656 434.667969 "/></clipPath><clipPath id="839c5c790e"><path d="M 95.523438 127.246094 L 396.578125 127.246094 L 396.578125 154.585938 L 95.523438 154.585938 Z M 95.523438 127.246094 "/></clipPath><clipPath id="84fbf637c0"><path d="M 396.480469 140.914062 L 95.523438 127.246094 L 95.523438 154.585938 Z M 396.480469 140.914062 "/></clipPath><clipPath id="3990639657"><path d="M 42.207031 127.246094 L 107.230469 127.246094 L 107.230469 183.023438 L 42.207031 183.023438 Z M 42.207031 127.246094 "/></clipPath><clipPath id="bd8fcd86b9"><path d="M 905.175781 387.996094 L 1024 387.996094 L 1024 448.433594 L 905.175781 448.433594 Z M 905.175781 387.996094 "/></clipPath><clipPath id="b95ec9bdc0"><path d="M 933.152344 431.359375 L 1024 431.359375 L 1024 465.496094 L 933.152344 465.496094 Z M 933.152344 431.359375 "/></clipPath><clipPath id="84913b6fa4"><path d="M 933.199219 448.425781 L 1041.558594 465.496094 L 1041.558594 431.359375 Z M 933.199219 448.425781 "/></clipPath><clipPath id="d23d7871f1"><path d="M 0 111 L 110 111 L 110 155 L 0 155 Z M 0 111 "/></clipPath><clipPath id="ce81081248"><path d="M 109.210938 107.957031 L 110.398438 151.234375 L -6.414062 154.4375 L -7.601562 111.164062 Z M 109.210938 107.957031 "/></clipPath><clipPath id="297d5a7b91"><path d="M 109.804688 129.597656 L -6.328125 154.4375 L -7.515625 111.160156 Z M 109.804688 129.597656 "/></clipPath><clipPath id="93fc2d09fe"><path d="M 764.761719 114.53125 L 1024 114.53125 L 1024 166.25 L 764.761719 166.25 Z M 764.761719 114.53125 "/></clipPath><clipPath id="86a5d3e6bc"><path d="M 764.761719 140.390625 L 1035.785156 114.53125 L 1035.785156 166.25 Z M 764.761719 140.390625 "/></clipPath><clipPath id="ea4de97ebb"><path d="M 609.75 136.78125 L 793.058594 136.78125 L 793.058594 142.367188 L 609.75 142.367188 Z M 609.75 136.78125 "/></clipPath><clipPath id="c96dd6f4e5"><path d="M 701.394531 136.78125 L 793.039062 142.367188 L 609.75 142.367188 Z M 701.394531 136.78125 "/></clipPath><clipPath id="962dffc2ad"><path d="M 732 134 L 832 134 L 832 223 L 732 223 Z M 732 134 "/></clipPath><clipPath id="2fc79dd4db"><path d="M 805.941406 92.523438 L 858.007812 177.074219 L 784.136719 222.566406 L 732.066406 138.015625 Z M 805.941406 92.523438 "/></clipPath><clipPath id="3ab5529ea6"><path d="M 831.9375 134.738281 L 784.058594 222.445312 L 732.066406 138.015625 Z M 831.9375 134.738281 "/></clipPath><clipPath id="80d0667822"><path d="M 1014.96875 114.539062 L 1024 114.539062 L 1024 145.824219 L 1014.96875 145.824219 Z M 1014.96875 114.539062 "/></clipPath><clipPath id="9ce643d5b0"><path d="M 312.195312 138.683594 L 484.910156 138.683594 L 484.910156 311.398438 L 312.195312 311.398438 Z M 312.195312 138.683594 "/></clipPath></defs><g id="add1a940fc"><g clip-rule="nonzero" clip-path="url(#32a859f24f)"><path style="fill:none;stroke-width:5;stroke-linecap:round;stroke-linejoin:miter;stroke:#1263a0;stroke-opacity:1;stroke-miterlimit:4;" d="M 2.842069 13.766203 C 118.915205 -1.324186 330.416086 -1.256672 637.328815 13.973084 " transform="matrix(-0.748488,0.0414437,-0.0414437,-0.748488,1029.205589,123.986828)"/></g><path style="fill:none;stroke-width:5;stroke-linecap:round;stroke-linejoin:miter;stroke:#1263a0;stroke-opacity:1;stroke-miterlimit:4;" d="M 2.952164 2.964936 C 113.512256 23.446101 361.272602 23.337835 746.227454 2.630005 " transform="matrix(0.748611,0.0391436,-0.0391436,0.748611,-4.39084,108.782044)"/><path style="fill:none;stroke-width:5;stroke-linecap:round;stroke-linejoin:miter;stroke:#1263a0;stroke-opacity:1;stroke-miterlimit:4;" d="M 2.844794 13.767742 C 118.917929 -1.322646 330.413607 -1.255419 637.331539 13.974625 " transform="matrix(0.748488,-0.0414437,0.0414437,0.748488,-5.207691,451.207445)"/><g clip-rule="nonzero" clip-path="url(#6406e2050d)"><path style="fill:none;stroke-width:5;stroke-linecap:round;stroke-linejoin:miter;stroke:#1263a0;stroke-opacity:1;stroke-miterlimit:4;" d="M 2.950718 2.962676 C 113.511083 23.449044 361.271156 23.335575 746.231484 2.632676 " transform="matrix(-0.748611,-0.0391436,0.0391436,-0.748611,1028.393753,466.419332)"/></g><g clip-rule="nonzero" clip-path="url(#0afca53ad2)"><path style=" stroke:none;fill-rule:nonzero;fill:#1263a0;fill-opacity:1;" d="M -27.132812 140.925781 L 1051.480469 140.925781 L 1051.480469 434.675781 L -27.132812 434.675781 Z M -27.132812 140.925781 "/></g><g clip-rule="nonzero" clip-path="url(#2385a0a9ab)"><path style=" stroke:none;fill-rule:nonzero;fill:#1263a0;fill-opacity:1;" d="M -115.140625 123.933594 L 57.574219 123.933594 L 57.574219 453.175781 L -115.140625 453.175781 Z M -115.140625 123.933594 "/></g><g clip-rule="nonzero" clip-path="url(#e358512e88)"><path style=" stroke:none;fill-rule:nonzero;fill:#1263a0;fill-opacity:1;" d="M 45.90625 421.578125 L 154.421875 421.578125 L 154.421875 444 L 45.90625 444 Z M 45.90625 421.578125 "/></g><g clip-rule="nonzero" clip-path="url(#d2eb66356d)"><g clip-rule="nonzero" clip-path="url(#904d5c1ddd)"><path style=" stroke:none;fill-rule:nonzero;fill:#1263a0;fill-opacity:1;" d="M -9.335938 406.902344 L 32.960938 399.597656 L 42.210938 453.128906 L -0.0859375 460.4375 Z M -9.335938 406.902344 "/></g></g><g clip-rule="nonzero" clip-path="url(#16ce408ddf)"><g clip-rule="nonzero" clip-path="url(#f65ea35565)"><path style=" stroke:none;fill-rule:nonzero;fill:#1263a0;fill-opacity:1;" d="M 52.359375 452.019531 L 48.496094 406.730469 L 130.757812 399.710938 L 134.621094 445 Z M 52.359375 452.019531 "/></g></g><g clip-rule="nonzero" clip-path="url(#616edb5908)"><g clip-rule="nonzero" clip-path="url(#6c6d1fd206)"><path style=" stroke:none;fill-rule:nonzero;fill:#1263a0;fill-opacity:1;" d="M 140.570312 444.003906 L 140.570312 421.582031 L 417.679688 421.582031 L 417.679688 444.003906 Z M 140.570312 444.003906 "/></g></g><g clip-rule="nonzero" clip-path="url(#87aa3f908f)"><g clip-rule="nonzero" clip-path="url(#f9993c890a)"><path style=" stroke:none;fill-rule:nonzero;fill:#1263a0;fill-opacity:1;" d="M 906.691406 423.457031 L 906.691406 445.878906 L 643.507812 445.878906 L 643.507812 423.457031 Z M 906.691406 423.457031 "/></g></g><g clip-rule="nonzero" clip-path="url(#839c5c790e)"><g clip-rule="nonzero" clip-path="url(#84fbf637c0)"><path style=" stroke:none;fill-rule:nonzero;fill:#1263a0;fill-opacity:1;" d="M 95.523438 154.585938 L 95.523438 127.246094 L 396.472656 127.246094 L 396.472656 154.585938 Z M 95.523438 154.585938 "/></g></g><g clip-rule="nonzero" clip-path="url(#3990639657)"><path style=" stroke:none;fill-rule:nonzero;fill:#1263a0;fill-opacity:1;" d="M 42.207031 127.246094 L 107.132812 127.246094 L 107.132812 183.023438 L 42.207031 183.023438 Z M 42.207031 127.246094 "/></g><g clip-rule="nonzero" clip-path="url(#bd8fcd86b9)"><path style=" stroke:none;fill-rule:nonzero;fill:#1263a0;fill-opacity:1;" d="M 905.175781 387.996094 L 1027.703125 387.996094 L 1027.703125 448.433594 L 905.175781 448.433594 Z M 905.175781 387.996094 "/></g><g clip-rule="nonzero" clip-path="url(#b95ec9bdc0)"><g clip-rule="nonzero" clip-path="url(#84913b6fa4)"><path style=" stroke:none;fill-rule:nonzero;fill:#1263a0;fill-opacity:1;" d="M 1041.558594 431.359375 L 1041.558594 465.496094 L 933.152344 465.496094 L 933.152344 431.359375 Z M 1041.558594 431.359375 "/></g></g><g clip-rule="nonzero" clip-path="url(#d23d7871f1)"><g clip-rule="nonzero" clip-path="url(#ce81081248)"><g clip-rule="nonzero" clip-path="url(#297d5a7b91)"><path style=" stroke:none;fill-rule:nonzero;fill:#1263a0;fill-opacity:1;" d="M 109.210938 107.957031 L 110.398438 151.234375 L -6.246094 154.433594 L -7.433594 111.15625 Z M 109.210938 107.957031 "/></g></g></g><g clip-rule="nonzero" clip-path="url(#93fc2d09fe)"><g clip-rule="nonzero" clip-path="url(#86a5d3e6bc)"><path style=" stroke:none;fill-rule:nonzero;fill:#1263a0;fill-opacity:1;" d="M 764.761719 166.25 L 764.761719 114.53125 L 1035.882812 114.53125 L 1035.882812 166.25 Z M 764.761719 166.25 "/></g></g><g clip-rule="nonzero" clip-path="url(#ea4de97ebb)"><g clip-rule="nonzero" clip-path="url(#c96dd6f4e5)"><path style=" stroke:none;fill-rule:nonzero;fill:#1263a0;fill-opacity:1;" d="M 609.75 136.78125 L 793.035156 136.78125 L 793.035156 142.367188 L 609.75 142.367188 Z M 609.75 136.78125 "/></g></g><g clip-rule="nonzero" clip-path="url(#962dffc2ad)"><g clip-rule="nonzero" clip-path="url(#2fc79dd4db)"><g clip-rule="nonzero" clip-path="url(#3ab5529ea6)"><path style=" stroke:none;fill-rule:nonzero;fill:#1263a0;fill-opacity:1;" d="M 805.941406 92.523438 L 858.007812 177.074219 L 784.136719 222.566406 L 732.066406 138.015625 Z M 805.941406 92.523438 "/></g></g></g><g clip-rule="nonzero" clip-path="url(#80d0667822)"><path style=" stroke:none;fill-rule:nonzero;fill:#1263a0;fill-opacity:1;" d="M 1014.96875 114.539062 L 1044.652344 114.539062 L 1044.652344 145.847656 L 1014.96875 145.847656 Z M 1014.96875 114.539062 "/></g><g clip-rule="nonzero" clip-path="url(#9ce643d5b0)"><path style=" stroke:none;fill-rule:nonzero;fill:#1263a0;fill-opacity:1;" d="M 312.195312 138.683594 L 484.910156 138.683594 L 484.910156 311.398438 L 312.195312 311.398438 Z M 312.195312 138.683594 "/></g></g></svg>