<svg xmlns="http://www.w3.org/2000/svg" xmlns:xlink="http://www.w3.org/1999/xlink" width="500" zoomAndPan="magnify" viewBox="0 0 375 374.999991" height="500" preserveAspectRatio="xMidYMid meet" version="1.2"><defs><clipPath id="eeb3588221"><path d="M 0 350.492188 L 375 350.492188 L 375 375 L 0 375 Z M 0 350.492188 "/></clipPath><clipPath id="bdc4730d98"><path d="M 124.332031 351.160156 C 143.71875 350.757812 165.898438 350.492188 187.601562 350.492188 C 209.308594 350.492188 230.191406 350.71875 249.441406 351.121094 C 249.851562 351.132812 250.257812 351.132812 250.667969 351.148438 C 322.949219 352.757812 376.1875 357.015625 377.210938 361.992188 L 377.210938 378.949219 L -2.210938 378.949219 L -2.210938 362.003906 C -1.1875 356.992188 51.230469 352.734375 124.332031 351.160156 Z M 124.332031 351.160156 "/></clipPath><clipPath id="93e5e2d308"><path d="M 0 0 L 375 0 L 375 24.515625 L 0 24.515625 Z M 0 0 "/></clipPath><clipPath id="229c2c2117"><path d="M 250.664062 23.847656 C 231.273438 24.25 209.097656 24.515625 187.394531 24.515625 C 165.6875 24.515625 144.800781 24.289062 125.554688 23.886719 C 125.144531 23.875 124.734375 23.875 124.324219 23.859375 C 52.046875 22.25 -1.191406 17.992188 -2.214844 13.015625 L -2.214844 -3.941406 L 377.207031 -3.941406 L 377.207031 13.003906 C 376.183594 18.015625 323.761719 22.273438 250.664062 23.847656 Z M 250.664062 23.847656 "/></clipPath></defs><g id="09cae4d0dd"><rect x="0" width="375" y="0" height="374.999991" style="fill:#ffffff;fill-opacity:1;stroke:none;"/><rect x="0" width="375" y="0" height="374.999991" style="fill:#1263a0;fill-opacity:1;stroke:none;"/><path style="fill:none;stroke-width:1;stroke-linecap:round;stroke-linejoin:miter;stroke:#868e96;stroke-opacity:1;stroke-miterlimit:4;" d="M 0.555745 0.551695 C 166.800548 18.983988 333.04535 18.97878 499.290153 0.541279 " transform="matrix(0.75,0,0,0.75,0.0949099,13.144822)"/><g clip-rule="nonzero" clip-path="url(#eeb3588221)"><g clip-rule="nonzero" clip-path="url(#bdc4730d98)"><path style=" stroke:none;fill-rule:nonzero;fill:#ffffff;fill-opacity:1;" d="M -2.210938 350.492188 L 377.175781 350.492188 L 377.175781 378.949219 L -2.210938 378.949219 Z M -2.210938 350.492188 "/></g></g><g clip-rule="nonzero" clip-path="url(#93e5e2d308)"><g clip-rule="nonzero" clip-path="url(#229c2c2117)"><path style=" stroke:none;fill-rule:nonzero;fill:#ffffff;fill-opacity:1;" d="M 377.207031 24.515625 L -2.179688 24.515625 L -2.179688 -3.941406 L 377.207031 -3.941406 Z M 377.207031 24.515625 "/></g></g></g></svg>