<svg xmlns="http://www.w3.org/2000/svg" width="40" height="40" version="1.0" viewBox="0 0 30 30"><defs><clipPath id="40a8ce9f51"><path d="M.484 0h29.032v29.031H.484Zm0 0"/></clipPath></defs><g clip-path="url(#40a8ce9f51)"><path d="M29.516 14.516q-.001 1.43-.278 2.832c-.187.933-.46 1.843-.828 2.722a14.5 14.5 0 0 1-3.144 4.711 15 15 0 0 1-2.2 1.805q-1.188.796-2.511 1.34A14.4 14.4 0 0 1 15 29.03q-1.43 0-2.832-.277a14.4 14.4 0 0 1-2.723-.828 14.2 14.2 0 0 1-2.511-1.34 15 15 0 0 1-2.2-1.805 14.5 14.5 0 0 1-3.145-4.71 14.4 14.4 0 0 1-1.105-5.555q.001-1.431.278-2.832c.187-.934.46-1.844.828-2.723.363-.879.812-1.719 1.34-2.508A15 15 0 0 1 4.734 4.25a15 15 0 0 1 2.2-1.805 14.5 14.5 0 0 1 2.511-1.34A14.4 14.4 0 0 1 15 0q1.43.001 2.832.277c.934.188 1.844.461 2.723.828q1.323.548 2.511 1.34 1.186.797 2.2 1.805 1.008 1.014 1.804 2.203c.528.79.977 1.629 1.34 2.508a14.4 14.4 0 0 1 1.106 5.555m0 0"/></g><path fill="#fff" d="M22.613 9.797 15.32 4.793a.516.516 0 0 0-.64 0L7.387 9.797q-.341.239-.219.637c.082.265.266.402.543.402h14.578c.277 0 .461-.137.543-.402q.122-.398-.219-.637M9.578 11.738h1.14q.258 0 .438.18a.6.6 0 0 1 .18.434v5.394a.6.6 0 0 1-.18.438.6.6 0 0 1-.437.18h-1.14a.6.6 0 0 1-.438-.18.6.6 0 0 1-.18-.438v-5.394q.002-.252.18-.434a.6.6 0 0 1 .437-.18m5.094 0h1.144a.6.6 0 0 1 .438.18c.117.121.18.266.18.434v5.394a.6.6 0 0 1-.18.438.6.6 0 0 1-.438.18h-1.144a.6.6 0 0 1-.434-.18.6.6 0 0 1-.18-.438v-5.394a.6.6 0 0 1 .18-.434.6.6 0 0 1 .434-.18m4.609 0h1.14q.258 0 .438.18a.6.6 0 0 1 .18.434v5.394a.6.6 0 0 1-.18.438.6.6 0 0 1-.437.18h-1.14a.6.6 0 0 1-.438-.18.6.6 0 0 1-.18-.438v-5.394a.6.6 0 0 1 .18-.434.6.6 0 0 1 .437-.18M8.922 19.266h12.156q.386.002.66.273c.18.184.274.402.274.66v.778a.9.9 0 0 1-.274.66.9.9 0 0 1-.66.273H8.922a.9.9 0 0 1-.66-.273.9.9 0 0 1-.274-.66v-.778q-.001-.386.274-.66a.9.9 0 0 1 .66-.273m0 0"/></svg>