<svg xmlns="http://www.w3.org/2000/svg" width="1366" height="768" version="1.2" viewBox="0 0 1024.5 576"><defs><clipPath id="32a859f24f"><path d="M530 92h494v70H530Zm0 0"/></clipPath><clipPath id="6406e2050d"><path d="M448 414h576v72H448Zm0 0"/></clipPath><clipPath id="0afca53ad2"><path d="M0 140.926h1024v293.75H0Zm0 0"/></clipPath><clipPath id="2385a0a9ab"><path d="M0 123.934h57.574v329.37H0Zm0 0"/></clipPath><clipPath id="e358512e88"><path d="M45.906 421.578h108.547V444H45.906Zm0 0"/></clipPath><clipPath id="d2eb66356d"><path d="M0 399h43v62H0Zm0 0"/></clipPath><clipPath id="904d5c1ddd"><path d="m-9.336 406.902 42.297-7.304 9.246 53.507-42.297 7.31Zm0 0"/></clipPath><clipPath id="16ce408ddf"><path d="M48 399h87v54H48Zm0 0"/></clipPath><clipPath id="f65ea35565"><path d="m52.36 452.02-3.864-45.29 82.215-7.015 3.863 45.289Zm0 0"/></clipPath><clipPath id="616edb5908"><path d="M140.57 421.582h277.11v22.422H140.57Zm0 0"/></clipPath><clipPath id="6c6d1fd206"><path d="M417.676 432.793 140.57 421.582v22.422Zm0 0"/></clipPath><clipPath id="87aa3f908f"><path d="M643.418 423.457h263.273v22.422H643.418Zm0 0"/></clipPath><clipPath id="f9993c890a"><path d="m643.473 434.668 263.218 11.21v-22.421Zm0 0"/></clipPath><clipPath id="839c5c790e"><path d="M95.523 127.246h301.055v27.34H95.523Zm0 0"/></clipPath><clipPath id="84fbf637c0"><path d="M396.48 140.914 95.523 127.246v27.34Zm0 0"/></clipPath><clipPath id="3990639657"><path d="M42.207 127.246h65.023v55.777H42.207Zm0 0"/></clipPath><clipPath id="bd8fcd86b9"><path d="M905.176 387.996H1024v60.438H905.176Zm0 0"/></clipPath><clipPath id="b95ec9bdc0"><path d="M933.152 431.36H1024v34.136h-90.848Zm0 0"/></clipPath><clipPath id="84913b6fa4"><path d="m933.2 448.426 108.359 17.07V431.36Zm0 0"/></clipPath><clipPath id="d23d7871f1"><path d="M0 111h110v44H0Zm0 0"/></clipPath><clipPath id="ce81081248"><path d="m109.21 107.957 1.188 43.277-116.812 3.203-1.188-43.273Zm0 0"/></clipPath><clipPath id="297d5a7b91"><path d="m109.805 129.598-116.133 24.84-1.188-43.278Zm0 0"/></clipPath><clipPath id="93fc2d09fe"><path d="M764.762 114.531H1024v51.719H764.762Zm0 0"/></clipPath><clipPath id="86a5d3e6bc"><path d="m764.762 140.39 271.023-25.859v51.719Zm0 0"/></clipPath><clipPath id="ea4de97ebb"><path d="M609.75 136.781h183.309v5.586H609.75Zm0 0"/></clipPath><clipPath id="c96dd6f4e5"><path d="m701.395 136.781 91.644 5.586H609.75Zm0 0"/></clipPath><clipPath id="962dffc2ad"><path d="M732 134h100v89H732Zm0 0"/></clipPath><clipPath id="2fc79dd4db"><path d="m805.941 92.523 52.067 84.551-73.871 45.492-52.07-84.55Zm0 0"/></clipPath><clipPath id="3ab5529ea6"><path d="m831.938 134.738-47.88 87.707-51.992-84.43Zm0 0"/></clipPath><clipPath id="80d0667822"><path d="M1014.969 114.54H1024v31.284h-9.031Zm0 0"/></clipPath><clipPath id="9ce643d5b0"><path d="M312.195 138.684H484.91v172.714H312.195Zm0 0"/></clipPath></defs><g id="add1a940fc"><g clip-path="url(#32a859f24f)"><path d="M2.842 13.766c116.073-15.09 327.574-15.023 634.487.207" style="fill:none;stroke-width:5;stroke-linecap:round;stroke-linejoin:miter;stroke:#1263a0;stroke-opacity:1;stroke-miterlimit:4" transform="matrix(-.74849 .04144 -.04144 -.74849 1029.206 123.987)"/></g><path d="M2.952 2.965c110.56 20.481 358.32 20.373 743.275-.335" style="fill:none;stroke-width:5;stroke-linecap:round;stroke-linejoin:miter;stroke:#1263a0;stroke-opacity:1;stroke-miterlimit:4" transform="rotate(2.993 -2084.034 -29.64)scale(.74963)"/><path d="M2.845 13.768q174.11-22.636 634.487.207" style="fill:none;stroke-width:5;stroke-linecap:round;stroke-linejoin:miter;stroke:#1263a0;stroke-opacity:1;stroke-miterlimit:4" transform="rotate(-3.169 8152.556 319.727)scale(.74963)"/><g clip-path="url(#6406e2050d)"><path d="M2.95 2.963c110.561 20.486 358.321 20.373 743.281-.33" style="fill:none;stroke-width:5;stroke-linecap:round;stroke-linejoin:miter;stroke:#1263a0;stroke-opacity:1;stroke-miterlimit:4" transform="rotate(-177.011 520.289 219.777)scale(.74963)"/></g><g clip-path="url(#0afca53ad2)"><path d="M-27.133 140.926H1051.48v293.75H-27.133Zm0 0" style="stroke:none;fill-rule:nonzero;fill:#1263a0;fill-opacity:1"/></g><g clip-path="url(#2385a0a9ab)"><path d="M-115.14 123.934H57.573v329.242H-115.14Zm0 0" style="stroke:none;fill-rule:nonzero;fill:#1263a0;fill-opacity:1"/></g><g clip-path="url(#e358512e88)"><path d="M45.906 421.578h108.516V444H45.906Zm0 0" style="stroke:none;fill-rule:nonzero;fill:#1263a0;fill-opacity:1"/></g><g clip-path="url(#d2eb66356d)"><g clip-path="url(#904d5c1ddd)"><path d="m-9.336 406.902 42.297-7.304 9.25 53.53-42.297 7.31Zm0 0" style="stroke:none;fill-rule:nonzero;fill:#1263a0;fill-opacity:1"/></g></g><g clip-path="url(#16ce408ddf)"><g clip-path="url(#f65ea35565)"><path d="m52.36 452.02-3.864-45.29 82.262-7.02L134.62 445Zm0 0" style="stroke:none;fill-rule:nonzero;fill:#1263a0;fill-opacity:1"/></g></g><g clip-path="url(#616edb5908)"><g clip-path="url(#6c6d1fd206)"><path d="M140.57 444.004v-22.422h277.11v22.422Zm0 0" style="stroke:none;fill-rule:nonzero;fill:#1263a0;fill-opacity:1"/></g></g><g clip-path="url(#87aa3f908f)"><g clip-path="url(#f9993c890a)"><path d="M906.691 423.457v22.422H643.508v-22.422Zm0 0" style="stroke:none;fill-rule:nonzero;fill:#1263a0;fill-opacity:1"/></g></g><g clip-path="url(#839c5c790e)"><g clip-path="url(#84fbf637c0)"><path d="M95.523 154.586v-27.34h300.95v27.34Zm0 0" style="stroke:none;fill-rule:nonzero;fill:#1263a0;fill-opacity:1"/></g></g><g clip-path="url(#3990639657)"><path d="M42.207 127.246h64.926v55.777H42.207Zm0 0" style="stroke:none;fill-rule:nonzero;fill:#1263a0;fill-opacity:1"/></g><g clip-path="url(#bd8fcd86b9)"><path d="M905.176 387.996h122.527v60.438H905.176Zm0 0" style="stroke:none;fill-rule:nonzero;fill:#1263a0;fill-opacity:1"/></g><g clip-path="url(#b95ec9bdc0)"><g clip-path="url(#84913b6fa4)"><path d="M1041.559 431.36v34.136H933.152V431.36Zm0 0" style="stroke:none;fill-rule:nonzero;fill:#1263a0;fill-opacity:1"/></g></g><g clip-path="url(#d23d7871f1)"><g clip-path="url(#ce81081248)"><g clip-path="url(#297d5a7b91)"><path d="m109.21 107.957 1.188 43.277-116.644 3.2-1.188-43.278Zm0 0" style="stroke:none;fill-rule:nonzero;fill:#1263a0;fill-opacity:1"/></g></g></g><g clip-path="url(#93fc2d09fe)"><g clip-path="url(#86a5d3e6bc)"><path d="M764.762 166.25v-51.719h271.12v51.719Zm0 0" style="stroke:none;fill-rule:nonzero;fill:#1263a0;fill-opacity:1"/></g></g><g clip-path="url(#ea4de97ebb)"><g clip-path="url(#c96dd6f4e5)"><path d="M609.75 136.781h183.285v5.586H609.75Zm0 0" style="stroke:none;fill-rule:nonzero;fill:#1263a0;fill-opacity:1"/></g></g><g clip-path="url(#962dffc2ad)"><g clip-path="url(#2fc79dd4db)"><g clip-path="url(#3ab5529ea6)"><path d="m805.941 92.523 52.067 84.551-73.871 45.492-52.07-84.55Zm0 0" style="stroke:none;fill-rule:nonzero;fill:#1263a0;fill-opacity:1"/></g></g></g><g clip-path="url(#80d0667822)"><path d="M1014.969 114.54h29.683v31.308h-29.683Zm0 0" style="stroke:none;fill-rule:nonzero;fill:#1263a0;fill-opacity:1"/></g><g clip-path="url(#9ce643d5b0)"><path d="M312.195 138.684H484.91v172.714H312.195Zm0 0" style="stroke:none;fill-rule:nonzero;fill:#1263a0;fill-opacity:1"/></g></g></svg>