<svg xmlns="http://www.w3.org/2000/svg" width="2400" height="600" version="1.2" viewBox="0 0 1800 450"><defs><clipPath id="351e908de1"><path d="M0 395.34h1800V450H0Zm0 0"/></clipPath><clipPath id="fd8d654143"><path d="M596.79 398.543c93.07-1.934 199.519-3.203 303.702-3.203 104.184 0 204.434 1.086 296.82 3.023 1.97.059 3.934.059 5.899.121 346.95 7.739 602.492 28.176 607.406 52.059v81.387H-10.617v-81.325c4.918-24.066 256.527-44.503 607.406-52.062m0 0"/></clipPath><clipPath id="345ba95739"><path d="M0 0h1800v54.664H0Zm0 0"/></clipPath><clipPath id="2aca7dd824"><path d="M1203.203 51.46c-93.07 1.935-199.52 3.204-303.703 3.204-104.184 0-204.434-1.086-296.82-3.023-1.97-.059-3.934-.059-5.899-.121C249.832 43.78-5.71 23.344-10.625-.54v-81.386h1821.23V-.602c-4.914 24.067-256.523 44.504-607.402 52.063m0 0"/></clipPath></defs><g id="41845561b5"><path d="M0 0h1800v450H0z" style="fill:#fff;fill-opacity:1;stroke:none"/><path d="M0 0h1800v450H0z" style="fill:#1263a0;fill-opacity:1;stroke:none"/><path d="M3.323 3.315c797.459 88.364 1594.912 88.364 2392.37-.01" style="fill:none;stroke-width:6;stroke-linecap:round;stroke-linejoin:miter;stroke:#868e96;stroke-opacity:1;stroke-miterlimit:4" transform="matrix(.75 0 0 .75 .406 -.373)"/><g clip-path="url(#351e908de1)"><g clip-path="url(#fd8d654143)"><path d="M-10.617 395.34h1821.055v136.59H-10.618Zm0 0" style="stroke:none;fill-rule:nonzero;fill:#fff;fill-opacity:1"/></g></g><g clip-path="url(#345ba95739)"><g clip-path="url(#2aca7dd824)"><path d="M1810.605 54.664H-10.445v-136.59h1821.05Zm0 0" style="stroke:none;fill-rule:nonzero;fill:#fff;fill-opacity:1"/></g></g></g></svg>