<svg xmlns="http://www.w3.org/2000/svg" width="40" height="40" version="1.0" viewBox="0 0 30 30"><defs><clipPath id="fe67de3a56"><path d="M.484 0h29.032v29.031H.484Zm0 0"/></clipPath></defs><g clip-path="url(#fe67de3a56)"><path fill-rule="evenodd" d="M15 29.035c7.996 0 14.516-6.523 14.516-14.52C29.516 6.52 22.996 0 15 0S.484 6.52.484 14.516 7.004 29.036 15 29.036"/></g><path fill="#fff" d="M11.883 12.188c-.492.246-.387.726-.387 1.289v2.164a.435.435 0 0 1-.426.441.435.435 0 0 1-.425-.441v-2.164c0-.38.003-.887.171-1.332.121-.325.375-.618.567-.797 1-.938 2.648-.938 3.652 0 .192.18.442.472.567.797.168.445.168.953.168 1.332v2.164a.433.433 0 0 1-.426.441.43.43 0 0 1-.422-.441v-2.164c0-.563.105-1.043-.39-1.29.12 2.395.003 5.145.003 7.579a.44.44 0 0 1-.441.441.44.44 0 0 1-.446-.441c0-4.07-.882-5.059-.882 0a.44.44 0 1 1-.883 0c0-2.434-.121-5.18 0-7.579"/><path fill="#fff" fill-rule="evenodd" d="M13.207 10.266a.89.89 0 0 0 .887-.883.89.89 0 0 0-.887-.887.89.89 0 0 0-.883.887c0 .484.399.883.883.883"/><path fill="#fff" d="m9.27 17.008 1.328-.824a.23.23 0 0 0 .117-.305.23.23 0 0 0-.309-.106c-.426.149-1.117.594-1.465.504-.574-.148-1.148-.015-1.488.305a1.2 1.2 0 0 0-.39.887v1.148c0 .13.101.235.226.235a.23.23 0 0 0 .223-.235V17.47a.77.77 0 0 1 .449-.684c-.063 1.27 0 2.223 0 3.516 0 .129.105.234.234.234a.235.235 0 0 0 .235-.234V18.59c.148-.086.218-.09.37 0l.177 1.71c0 .13.105.235.234.235a.233.233 0 0 0 .234-.234c0-1.293-.11-2.024-.175-3.293"/><path fill="#fff" fill-rule="evenodd" d="M8.563 16.215a.514.514 0 1 0 0-1.027.514.514 0 1 0 0 1.027"/><path fill="#fff" d="M20.434 12.074c.761.625 1.773 1.75 2.406 2.367a.442.442 0 1 1-.687.555 64 64 0 0 0-1.352-1.012l.558 3.227h-4.007l.566-3.184-1.363 1.614a.441.441 0 1 1-.688-.555l2.399-2.965c.62-.766 1.484-.605 2.168-.047"/><path fill="#fff" d="M20.676 17.207c-.012.871-.028 1.734-.028 2.559a.44.44 0 1 1-.882 0v-2.559zm-1.731 0c-.015.871-.027 1.734-.027 2.559 0 .246-.2.441-.445.441a.44.44 0 0 1-.442-.441v-2.559z"/><path fill="#fff" fill-rule="evenodd" d="M19.32 11.59a.985.985 0 1 0-.001-1.97.985.985 0 0 0 .001 1.97"/></svg>