<svg xmlns="http://www.w3.org/2000/svg" width="40" height="40" version="1.0" viewBox="0 0 30 30"><defs><clipPath id="ad87879376"><path d="M.484 0h29.032v29.031H.484Zm0 0"/></clipPath><clipPath id="71cb987d84"><path d="M7 9h22.516v20H7Zm0 0"/></clipPath></defs><g clip-path="url(#ad87879376)"><path d="M15 29.031a14.5 14.5 0 0 0 5.113-.926 6 6 0 0 0-.164-.16l-.164-.164-.164-.164a6 6 0 0 1-.16-.164 3 3 0 0 1-.164-.164l-.328-.328-.164-.164-.164-.164a6 6 0 0 0-.164-.16c-.055-.055-.11-.114-.165-.164l-.164-.164-.164-.165-.164-.164a6 6 0 0 1-.16-.164 3 3 0 0 1-.164-.164 3 3 0 0 1-.164-.164l-.164-.164-.164-.164-.164-.164-.164-.164c-.055-.055-.11-.105-.164-.16l-.164-.164-.164-.164-.164-.164-.165-.164a6 6 0 0 1-.16-.165 3 3 0 0 1-.164-.164 3 3 0 0 1-.164-.164q-.085-.081-.164-.164l-.164-.164-.164-.164-.164-.164c-.055-.055-.11-.105-.164-.16l-.164-.164-.164-.164-.328-.328q-.084-.083-.16-.164a3 3 0 0 1-.165-.164l-.164-.164-.164-.165-.164-.164-.164-.164a6 6 0 0 0-.164-.16l-.164-.164-.164-.164-.164-.164-.164-.164a6 6 0 0 1-.16-.164 3 3 0 0 1-.164-.164l-.328-.328-.165-.164-.164-.164a6 6 0 0 0-.164-.16c-1.699-1.68-2.636-3.18-3.062-4.52h.484q.001-.01-.004-.02h-.129l-.035-.16H8.07q-.018-.085-.03-.164h-.134a2 2 0 0 1-.031-.164h-.129a5 5 0 0 1-.133-.851v-.848c.203-2.54 1.875-3.863 3.324-4.004q.358-.036.668-.035c1.36 0 2.141.476 2.88 1.238l.163.164.165.164.164.164.05.051c.91-1.074 1.711-1.781 3.364-1.781q.314 0 .672.035c.722.07 1.503.437 2.128 1.105q.089.077.164.164.082.076.165.165.081.075.164.164.081.075.164.164.081.076.164.16l.164.164.164.164.164.164c.055.055.11.105.164.164.055.055.11.106.16.164q.088.076.164.164.088.077.164.164c.055.051.114.106.164.164q.083.077.164.164.083.077.164.164.082.078.165.16l.164.165.164.164.328.328c.054.055.11.105.16.164q.087.075.164.164.088.075.164.164.088.075.164.164.083.076.164.164.083.076.164.164.083.077.164.164.083.078.164.16l.164.165.329.328c.054.054.109.105.164.164.054.054.109.105.16.164q.087.075.164.164.087.075.164.164c.058.05.11.105.164.164q.083.075.164.164.083.075.164.164.083.077.164.16l.328.328.164.164.164.164c.055.055.11.106.164.165.055.054.11.105.16.164q.09.075.165.164.087.075.164.164c.054.05.113.105.164.164q.082.075.164.164a.1.1 0 0 1 .023.02c.18-.919.278-1.872.278-2.844C29.516 6.5 23.016 0 15 0S.484 6.5.484 14.516 6.984 29.03 15 29.03"/></g><path fill="#fff" d="M8.145 13.914h4.496c.004-.012.011-.023.015-.047l.024-.203.054-.418.051-.371.043-.344.04-.316.034-.262c.004-.008.004-.02.004-.027a.6.6 0 0 1 .188-.348.47.47 0 0 1 .285-.11h.016c.117 0 .222.04.304.114a.6.6 0 0 1 .133.172.6.6 0 0 1 .055.195v.004l.031.211.027.219.032.226.03.23.032.24.035.245.035.254.036.258.035.27.039.277.039.289.039.297.043.308.043.32.043.337.05.351.051.371.051.399.059.425.062.465.055.399.2-1.063.124-.691.098-.52.082-.437.07-.383.067-.344.058-.316.05-.29.052-.269.047-.246.043-.234.039-.215.039-.2.027-.163q.004-.013.008-.02a.53.53 0 0 1 .23-.355.43.43 0 0 1 .242-.075.45.45 0 0 1 .29.094.62.62 0 0 1 .2.32l-.001.012.07.305.04.16.034.164.04.172.038.168.04.172.078.351.043.184.043.188.043.195.046.195.032.145.035-.164.043-.215.039-.2.039-.183.07-.352.031-.164.036-.16.027-.152.016-.063a.5.5 0 0 1 .082-.21.48.48 0 0 1 .343-.227l.024-.004a.48.48 0 0 1 .422.21l.047.079c.007.02.015.035.023.059l.008.015.031.086.035.094.035.101.016.036q.001.01.008.015h.84l.312-.004h1.004l.371-.004h.406l.457-.004h.184l.02-.09.046-.242.036-.222c.007-.07.02-.137.023-.207l.012-.114v-.847l-.012-.11a2 2 0 0 0-.016-.16l-.023-.16a2 2 0 0 0-.027-.152c-.008-.051-.02-.102-.028-.153l-.035-.152c-.012-.047-.023-.098-.039-.144q-.017-.07-.039-.141a5 5 0 0 0-.09-.266q-.023-.066-.047-.125c-.015-.043-.035-.082-.05-.125q-.025-.058-.055-.117c-.02-.039-.035-.078-.055-.117q-.03-.054-.058-.11-.031-.057-.063-.109-.032-.058-.062-.105l-.063-.106q-.035-.048-.07-.101l-.07-.094-.07-.094q-.037-.046-.08-.094a1 1 0 0 0-.077-.09q-.03-.04-.067-.074c-.625-.668-1.406-1.035-2.128-1.105a7 7 0 0 0-.672-.035c-1.653 0-2.453.707-3.364 1.781q.001.002-.004.004l-.007.016c-.008.003-.012.011-.016.015-.027-.031-.05-.062-.078-.09l-.09-.105q-.045-.053-.09-.102-.042-.052-.086-.097-.042-.048-.086-.094l-.086-.09c-.738-.762-1.52-1.238-2.879-1.238q-.31 0-.668.035c-1.449.14-3.12 1.465-3.324 4.004v.848q.029.41.133.851z"/><path fill="#fff" d="M11.113 19.102q.044.045.086.085.044.041.086.083.046.04.086.082.048.04.09.082.047.04.09.082.047.04.09.082l.093.086.094.082q.048.04.09.082.051.042.098.086l.093.082q.053.04.098.082.048.044.098.086l.101.082.098.086c.035.027.066.054.101.082.036.03.067.058.102.086q.053.04.102.082.053.045.105.085t.106.086l.105.082c.035.028.074.06.11.086q.053.04.105.086l.11.082q.055.047.113.086l.109.086q.056.044.113.086l.113.086c.04.027.075.055.114.086l.117.082q.054.046.113.086.058.046.121.086.06.046.117.086c.04.031.079.058.118.09q.064.04.12.086.065.04.122.086a2 2 0 0 1 .16.109c.012-.008.027-.02.043-.027q.029-.024.062-.047.037-.023.067-.047c.027-.02.05-.035.074-.055l.082-.058a1 1 0 0 0 .086-.063h.008q.113-.085.226-.164l.02-.016q.03-.02.055-.043.064-.043.12-.085.067-.053.134-.098.076-.06.148-.113.083-.062.164-.125.083-.062.164-.125c.063-.047.121-.094.184-.141.07-.055.136-.11.207-.164l.234-.188q.141-.112.27-.218c.113-.094.218-.184.328-.274l.449-.39q.809-.72 1.445-1.399c.125-.133.242-.265.36-.394q.118-.135.23-.27l.176-.21.148-.184q.063-.087.133-.172c.04-.051.078-.106.113-.157l.106-.14.09-.13.078-.112.066-.098q.031-.046.055-.086l.047-.07.035-.059.031-.047a.1.1 0 0 1 .02-.031l.012-.023q.006-.006.007-.012l.004-.004q.064-.112.13-.219a8.4 8.4 0 0 0 .577-1.207q.064-.17.121-.34h-.03l-.403.004h-1.047l-.32.004h-.844l-.067.004h-.75a.47.47 0 0 1-.367-.187.5.5 0 0 1-.086-.153q-.005-.004-.004-.008l-.05-.14-.051-.137-.027.125-.028.14-.027.15-.031.151-.036.165-.03.167-.036.172-.04.184-.038.187-.04.204-.007.027a.7.7 0 0 1-.078.21.47.47 0 0 1-.516.22.5.5 0 0 1-.226-.133.6.6 0 0 1-.117-.188q-.017-.047-.028-.093l-.027-.125-.051-.22-.047-.21-.047-.207-.047-.203-.046-.2-.043-.195-.043-.187-.043-.184-.078-.351-.04-.172-.035-.145-.027.149-.031.18-.035.19-.04.204-.043.222-.042.235-.047.258-.051.273-.055.297-.062.324-.063.36-.074.398-.086.46-.258 1.376-.086.46a.6.6 0 0 1-.14.298.48.48 0 0 1-.344.156q-.006.001-.012-.004-.03.001-.055-.004a.4.4 0 0 1-.18-.066.6.6 0 0 1-.246-.41l-.034-.239-.075-.574-.07-.496-.059-.45-.058-.413-.05-.387-.052-.363-.047-.344-.043-.332-.043-.316-.043-.301-.039-.297-.039-.281-.035-.274-.035-.265-.035-.258-.035-.25-.031-.242-.032-.239-.011-.062-.008.074-.035.277-.04.297-.042.32-.043.348-.051.383-.02.14c-.031.262-.215.458-.441.485l-.05.004H7.882c.426 1.34 1.363 2.84 3.062 4.52q.04.04.086.081.042.042.082.079"/><path d="M14.656 9.598q.044.045.086.097.045.049.09.102l.09.105c.027.028.05.059.078.09.004-.004.008-.012.016-.015l.007-.016c.004 0 .004-.004.004-.004l-.05-.05-.165-.165-.164-.164-.164-.164q.047.045.086.09.044.046.086.094"/><g clip-path="url(#71cb987d84)"><path d="M29.05 17.176a2 2 0 0 0-.163-.164 2 2 0 0 0-.164-.164 2 2 0 0 0-.164-.164c-.051-.059-.106-.11-.16-.164-.055-.06-.11-.11-.165-.165l-.164-.164-.164-.164-.164-.164-.164-.164a6 6 0 0 0-.164-.16 3 3 0 0 0-.164-.164 3 3 0 0 0-.164-.164 2 2 0 0 0-.164-.164 2 2 0 0 0-.164-.164 2 2 0 0 0-.164-.164c-.051-.059-.106-.11-.16-.164-.055-.059-.11-.11-.164-.164l-.329-.328-.164-.165q-.081-.082-.164-.16a3 3 0 0 0-.164-.164 3 3 0 0 0-.164-.164 3 3 0 0 0-.164-.164 2 2 0 0 0-.164-.164 2 2 0 0 0-.164-.164 2 2 0 0 0-.164-.164c-.05-.059-.106-.11-.16-.164l-.164-.164-.164-.164-.164-.164-.165-.164a6 6 0 0 0-.164-.16 3 3 0 0 0-.164-.165 3 3 0 0 0-.164-.164 2 2 0 0 0-.164-.164 2 2 0 0 0-.164-.164 2 2 0 0 0-.164-.164q-.076-.085-.16-.164c-.055-.059-.11-.11-.164-.164l-.164-.164-.164-.164-.164-.164q-.083-.084-.164-.16a3 3 0 0 0-.164-.164 3 3 0 0 0-.164-.164 3 3 0 0 0-.165-.165 2 2 0 0 0-.164-.164 1 1 0 0 1 .067.075 1 1 0 0 1 .078.09q.042.046.078.093l.14.188.071.101.063.106q.03.047.062.105.031.051.063.11l.058.109c.02.039.035.078.055.117q.03.06.054.117c.016.043.036.082.051.125a4 4 0 0 1 .094.258q.024.066.043.133.023.07.039.14.022.073.04.145l.034.152c.008.051.02.102.028.153q.017.075.027.152l.023.16q.011.078.016.16l.012.11v.848l-.012.113c-.004.07-.016.136-.023.207l-.036.222-.046.243-.02.09h-.184l-.457.003h-.406l-.371.004h-1.004l-.312.004h-.84q-.007-.005-.008-.015l-.016-.036-.035-.101-.035-.094-.031-.086-.008-.015c-.008-.024-.016-.04-.023-.059l-.047-.078a.48.48 0 0 0-.422-.211l-.024.004a.47.47 0 0 0-.344.227.5.5 0 0 0-.081.21l-.016.063-.027.152-.036.16-.03.164-.071.352-.04.184-.038.199-.043.215-.035.164-.032-.145-.047-.195-.042-.195-.043-.188-.043-.184-.079-.351-.039-.172-.039-.168-.039-.172-.035-.164-.039-.16-.07-.305v-.011a.62.62 0 0 0-.2-.32.45.45 0 0 0-.289-.095.43.43 0 0 0-.242.075.53.53 0 0 0-.23.355q-.004.007-.008.02l-.027.164-.04.199-.038.215-.043.234-.047.246-.051.27-.05.289-.06.316-.066.344-.07.383-.082.437-.098.52-.125.691-.2 1.063-.054-.399-.062-.465-.059-.425-.05-.399-.051-.37-.051-.352-.043-.336-.043-.32-.043-.31-.04-.296-.038-.29-.04-.277-.034-.27-.036-.257-.035-.254-.035-.246-.031-.238-.031-.23-.032-.227-.027-.219-.031-.21v-.005a.6.6 0 0 0-.055-.195.6.6 0 0 0-.133-.172.45.45 0 0 0-.304-.113h-.016a.47.47 0 0 0-.285.11.6.6 0 0 0-.188.347c0 .008 0 .02-.004.027l-.035.262-.039.316-.043.344-.05.371-.055.418-.024.203c-.004.024-.011.035-.015.047H7.875q.013.083.031.164h.133c.008.055.02.106.031.164h.13l.034.16h.13q.004.01.003.02h4.297c.016 0 .035-.004.05-.004.227-.027.411-.223.442-.484l.02-.141.05-.383.044-.348.043-.32.039-.297.035-.277.008-.074.011.062.031.239.032.242.035.25.035.258.035.265.035.274.04.28.039.298.042.3.043.317.043.332.047.344.051.363.05.387.06.414.058.449.07.496.075.574.035.239a.6.6 0 0 0 .246.41.4.4 0 0 0 .234.07q.006.005.012.004a.48.48 0 0 0 .344-.156.6.6 0 0 0 .14-.297l.086-.461.258-1.375.086-.461.074-.398.063-.36.062-.324.055-.297.05-.273.048-.258.043-.235.042-.222.04-.203.035-.192.03-.18.028-.148.035.145.04.172.078.351.043.184.043.187.043.195.046.2.047.203.047.207.047.21.05.22.028.125q.011.046.027.093a.6.6 0 0 0 .118.188.5.5 0 0 0 .226.133.47.47 0 0 0 .516-.219.7.7 0 0 0 .078-.211l.008-.027.039-.204.039-.187.039-.184.035-.172.031-.168.036-.164.03-.152.028-.148.027-.141.028-.125.05.137.051.14q-.001.004.004.008.032.089.086.153a.47.47 0 0 0 .367.187h.75l.067-.004h.844l.32-.004h1.047l.402-.004h.031q-.058.17-.12.34a8 8 0 0 1-.579 1.207l-.129.219-.004.004q-.001.006-.007.012l-.012.023a.1.1 0 0 0-.02.031l-.031.047-.035.059-.047.07q-.024.04-.055.086l-.066.098-.078.113-.09.129-.106.14a4 4 0 0 1-.113.157q-.07.085-.133.172l-.148.183-.176.211q-.112.135-.23.27-.174.194-.36.394-.637.678-1.445 1.399l-.45.39c-.109.09-.214.18-.327.274q-.129.106-.27.218l-.234.188-.207.164c-.063.047-.121.094-.184.14-.055.044-.11.083-.164.126l-.164.125-.148.113q-.066.045-.133.098c-.04.027-.078.058-.121.085q-.025.022-.055.043l-.02.016c-.074.055-.152.106-.226.164h-.008a1 1 0 0 1-.086.063l-.082.058c-.023.02-.047.035-.074.055q-.03.023-.067.047-.034.023-.062.047c-.016.007-.031.02-.043.027l-.035-.023a2 2 0 0 0-.125-.086 1 1 0 0 0-.121-.086 1 1 0 0 0-.121-.086c-.04-.032-.078-.059-.118-.09q-.058-.04-.117-.086a1 1 0 0 1-.12-.086 1 1 0 0 1-.114-.086l-.117-.082a2 2 0 0 0-.114-.086l-.113-.086-.113-.086-.11-.086a2 2 0 0 1-.113-.086l-.11-.082q-.052-.044-.105-.086l-.109-.086-.105-.082a2 2 0 0 0-.106-.085q-.053-.04-.105-.086l-.102-.082a2 2 0 0 1-.102-.086c-.035-.028-.066-.055-.101-.082l-.098-.086q-.05-.042-.101-.082-.05-.04-.098-.086l-.098-.082q-.046-.042-.093-.082-.047-.044-.098-.086-.042-.042-.09-.082l-.094-.082q-.046-.044-.093-.086-.043-.042-.09-.082-.043-.042-.09-.082l-.09-.082q-.04-.042-.086-.082-.042-.042-.086-.082-.042-.04-.086-.086-.04-.036-.082-.079-.045-.04-.086-.082.083.078.164.16l.164.165.165.164.492.492q.076.083.16.164l.164.164.164.164.164.164.164.164q.083.078.164.16l.164.164.164.164.164.165.164.164q.077.081.164.164l.16.164.329.328.164.164.164.164c.055.055.11.105.164.16l.164.164.164.164.164.164c.055.055.106.11.164.164q.077.083.164.164.077.082.164.165l.16.164.165.164.164.164.164.164.164.164c.054.055.11.105.164.16l.164.164.164.164.164.164.164.164q.075.083.164.164.076.083.164.164.077.083.16.164l.164.164.328.329c.055.05.11.109.165.164q.081.076.164.16l.164.164.164.164.492.492q.076.083.16.164l.164.164.164.164q.083.078.164.16l.008-.003q.001.001.008-.004.006.001.012-.004l.011-.004.02-.008q.01-.001.02-.008l.023-.008q.017-.005.027-.011.02-.006.031-.012l.036-.012q.016-.008.039-.015l.039-.016q.023-.013.047-.02a.2.2 0 0 1 .05-.02l.055-.023.055-.023.066-.027q.03-.014.067-.028l.07-.03.078-.036.082-.035.09-.043q.21-.096.414-.195.002-.005.004-.004.063-.03.125-.063.064-.03.129-.066l.14-.075q.08-.041.16-.09l.165-.09q.081-.045.164-.097l.183-.105.203-.13a7 7 0 0 0 .223-.144c.082-.05.164-.11.246-.164q.146-.1.285-.199.177-.128.348-.262a10 10 0 0 0 .5-.402 14 14 0 0 0 1.559-1.524q.128-.139.246-.285.092-.106.18-.218.076-.094.148-.188l.136-.176q.06-.076.118-.16c.035-.047.07-.098.105-.144a3 3 0 0 0 .09-.133l.082-.117c.023-.036.047-.067.07-.102l.059-.09q.023-.036.05-.074.017-.03.04-.063.013-.022.031-.046l.02-.036q.01-.01.015-.023.006-.011.012-.016-.001-.004.004-.007a16 16 0 0 0 .781-1.41q.093-.193.18-.391.071-.159.136-.317.059-.134.11-.273c.035-.078.062-.156.094-.238.027-.07.05-.145.078-.22.023-.066.047-.128.07-.198l.063-.184q.024-.087.054-.176.022-.081.051-.168l.047-.156.039-.152c.016-.051.027-.098.043-.149l.031-.136q.02-.06.031-.125c.008-.036.02-.075.028-.11l.023-.101.02-.09.015-.074c.004-.024.012-.043.016-.067l.012-.05q.001-.022.007-.044l.004-.027q-.001-.006.004-.012a.1.1 0 0 0-.023-.02 3 3 0 0 0-.164-.163"/></g></svg>