<svg xmlns="http://www.w3.org/2000/svg" width="40" height="40" version="1.0" viewBox="0 0 30 30"><defs><clipPath id="6d338f3515"><path d="M.484 0h29.032v29.031H.484Zm0 0"/></clipPath></defs><g clip-path="url(#6d338f3515)"><path d="M29.52 14.52c0 .953-.094 1.894-.282 2.832a14.5 14.5 0 0 1-3.972 7.43 14.4 14.4 0 0 1-4.707 3.148q-1.324.545-2.723.828a14.7 14.7 0 0 1-5.664 0 14.6 14.6 0 0 1-5.234-2.168 14.4 14.4 0 0 1-2.2-1.809 14.6 14.6 0 0 1-3.148-4.707q-.546-1.324-.824-2.722a14.4 14.4 0 0 1 0-5.664 14.43 14.43 0 0 1 3.972-7.434 14.6 14.6 0 0 1 4.707-3.148Q10.768.558 12.172.28a14.4 14.4 0 0 1 5.664 0q1.4.278 2.723.824a14.6 14.6 0 0 1 6.515 5.348q.794 1.19 1.34 2.508.546 1.322.824 2.726.282 1.402.282 2.833m0 0"/></g><path fill="#fff" fill-rule="evenodd" d="M22.027 13.105a.31.31 0 0 0-.312.313v8.227a.31.31 0 0 1-.313.312H17.54a.31.31 0 0 1-.312-.312v-6.22a.32.32 0 0 0-.094-.222.3.3 0 0 0-.223-.09h-3.957a.32.32 0 0 0-.223.09.32.32 0 0 0-.09.223v6.219a.31.31 0 0 1-.312.312H8.742a.31.31 0 0 1-.312-.312v-8.227a.31.31 0 0 0-.317-.313h-1.46a.314.314 0 0 1-.21-.547c1.823-1.648 7.217-6.527 8.35-7.55.117-.11.3-.11.418 0 1.133 1.023 6.527 5.902 8.352 7.55a.314.314 0 0 1-.211.547zm0 0"/></svg>