<svg xmlns="http://www.w3.org/2000/svg" width="640" height="640" version="1.0" viewBox="0 0 480 480"><defs><clipPath id="9e3b4e5427"><path d="M179.68 131.406h120.457v163.242H179.68Zm0 0"/></clipPath><clipPath id="c5802da21c"><path d="M183 254h117.07v40.633H183Zm0 0"/></clipPath></defs><path fill="#3995c8" fill-rule="evenodd" d="M56.016 88.844A236.91 236.91 0 0 0 7.684 295.438l48.015-11.473a187.52 187.52 0 0 1 38.25-163.523Zm0 0"/><path fill="#b7436a" fill-rule="evenodd" d="M226.512 476.793c11.496.629 23.02.418 34.484-.629a236.78 236.78 0 0 0 160.426-84.328l-36.027-30.004a189.9 189.9 0 0 1-128.665 67.633 190 190 0 0 1-27.656.504Zm0 0"/><path fill="#41708c" fill-rule="evenodd" d="M13.61 313.297c28.25 86.332 103.367 148.894 193.359 161.047l6.273-46.5c-72.168-9.742-132.406-59.914-155.058-129.14Zm0 0"/><path fill="#83ced3" fill-rule="evenodd" d="M239.813 3.121a236.74 236.74 0 0 0-169.985 70.45l34.524 34.093a188.24 188.24 0 0 1 135.16-56.02Zm0 0"/><path fill="#fbc15d" fill-rule="evenodd" d="M467.195 176.277a236.85 236.85 0 0 0-76.535-117.12A236.7 236.7 0 0 0 261.402 5.683l-4.289 46.351A190.2 190.2 0 0 1 360.97 95a190.33 190.33 0 0 1 61.492 94.105Zm0 0"/><path fill="#e18137" fill-rule="evenodd" d="M434.23 376.375a236.92 236.92 0 0 0 38.692-179.742l-47.672 9a188.37 188.37 0 0 1-30.762 142.914Zm0 0"/><g clip-path="url(#9e3b4e5427)"><path fill="#1263a0" d="m184.027 131.473 18.637.078.266 23.808c.789.91 1.53 1.95 2.55 2.891.356.328 1.141.488 1.43.844.3.37-.183 1.058.137 1.418.2.222.848-.043 1.039.195.184.223.07.59.25.824.215.278.629-.191.836.13.18.284-.11.792.008 1.218.117.422.632.406.78.871.161.496-1.37 1.293-1.26 1.86.05.269.433.093.792.3.23.133.184.461.406.653.329.285.895.44 1 .574.086.11.028.379-.418.531-.324.105-.82-.027-1.203.059-.547.117-.93.441-.836.55.133.153.567.055 1.016.168.465.114.992.672 1.43.848.367.148.32-.39.828.035.32.27.668.547.922.95.265.429.437.984.785 1.253.226.172.723.164 1.133.242.445.082.808.239 1.164.23.601-.019.742-.194 1.172.048.156.09.175.406.382.613.215.215.622.32.633.547.016.246-.64.414-.531.613.082.156.863-.09.938.067.078.168-.11.468-.008.605.199.27.77.227 1.05.39.47.27.684.692 1.063.989.219.168-.004.672.203.867.285.27.684.274.996.551.348.316.203.922.555 1.289.215.227.945.113 1.234.305.246.168.067.402.219.633.2.304.855-.125.95.851.027.274-.15.469-.137 1.012.007.285.136.328.3.566.102.149.36.238.461.41.086.149.016.387.07.442.133.129.399-.223.547-.125.18.12.22.582.41.68.352.183.735.03 1.126.12.175.044.582.29.55.594-.039.371-.601 1.07-.39 1.14.117.036.363.243.531.15.152-.087.227-.47.422-.54.242-.09.324.196.566.094.324-.133.14-.684.938-.562.11.015.539.332.605.804.024.176-.277.34-.308.531-.055.305.164.63.316.793.434.477 1.496-.027 1.668-.02.684.036.95.563 1.422.345.516-.243.144-.29.566-.54.262-.152.766-.163 1.215-.183.356-.016.68-.11.817.223.078.187.375.75.316 1.011-.05.243-.453.184-.477.426-.02.18.254.336.184.48-.078.16-.281.294-.316.493-.047.273.078.625-.063.914-.137.27-.937-.031-.976.285-.032.266-.004.688.19.895.192.203.556.191.505.46-.031.176-.313.586-.617.856-.153.133-.38.078-.453.246-.168.395.25.965.199 1.176-.059.238-.34.64-.387.91-.04.223.164.316.027.504-.16.215-.726.266-.793.496-.054.191.34.238.45.59.148.484.039 1.297-.04 1.558-.062.215-1.21-.16-1.273.051-.023.074.102.16.078.235-.035.117-.308 0-.344.117-.011.043.06.656.348.824.195.113.578-.246.75-.09.274.25.348.668.332.715-.023.09-.2.066-.262.223-.058.14 0 .465-.101.55-.242.211-.602.18-.664.372-.035.113.465.128.578.43.074.202-.3.698-.078.827.144.082.375-.05.61-.054.347-.008.71.105.866.308.22.29-.316.66-.28 1.02.058.539.6 1.047.554 1.195-.047.152-.156.477-.278.61-.14.16-.808-.247-1.015-.118-.098.063-.07.243-.168.313-.121.09-.746-.07-.867.02-.153.113-.075.253-.18.386-.355.453-.7.969-.926 1.277-.144.196.2.153.328.29.13.136.188.542.36.69.304.259.707.274.68.56-.008.12-.176.32-.204.53-.031.208.075.427 0 .56a.94.94 0 0 1-.48.37c-.196.075-.477.07-.543.16-.2.254.379.47.367.731-.012.352-.547.75-.32 1.113.101.16.476-.34.648-.27.145.055.11.325.293.329.149.008.309.059.465-.027.121-.07.238-.274.383-.309.14-.031-.188.152.262.613.128.133.39.758.66.934.398.254.828.062.98.27.344.464.223.937.57 1.003.141.028.22-.156.352-.254.234-.175.746-.168.953-.507.195-.313.383-.586.461-.922.066-.282.031-.657.125-.696.219-.09.363.223.617.282.188.047.477-.153.656-.196.215-.05.567-.027.758-.222.13-.133.098-.5.23-.567.22-.113.571 0 .759-.187.222-.219.273-.742.457-.89.23-.192.746-.27.937-.454.164-.156-.23-.832-.105-.973.125-.144.261.012.382-.078.149-.105.133-.27.27-.332.156-.07.336.336.504.363.226.04.437-.265.559-.046.093.175-.036.507.117.703.136.168.562.191.605.402.047.219-.387.668-.215.774.207.128.41-.215.746-.204.188.008.227.203.426.27.403.137.637.215.75.441.082.157.012.22-.187.493-.25.343-.344.906-.246 1.101.16.328.726-.07 1.054.027.082.024-.004.188.024.332.027.149.172.274.215.364.062.133-.344.312-.422.629-.067.28.328.57.382.847.04.203-.273.422-.234.508.086.184.594.223.68.41.164.364-.11.996.05 1.36.196.441.973.757 1.16 1.203.071.164-.355.312-.238.488.125.191.43.137.606.34.144.16.133.383.297.558.187.196.707.473.918.676.246.235-.113.606.12.84.134.133.368.117.49.348.046.094-.161.09-.134.222.04.18.317.489.414.528.211.09.594-.39.77-.25.125.101-.313.586-.203.703.113.121.488.07.633.168.183.12-.149.254-.028.39.09.098.52-.062.703.036.164.082.09.422.114.496.05.148.246.379.293.804.015.149-.141.246-.157.418-.027.27.063.61.02.739-.117.355-.832.203-1 .379-.23.242.121.777.336 1.015.21.235-.024.59.371.88.144.105.418.019.703.105.145.046.066.207.2.289.163.109.534.144.624.207.258.18.32.468.582.547.102.03-.101.445-.004.457.254.027.473.125.774 0 .195-.082.367-.403.574-.524.23-.129.496-.058.672-.05.367.015.742.503 1.09.679.328.164.633.016.847.23.2.196.106.508.247.731.109.168.453.246.582.402.117.14.003.524.078.688.078.183.343.156.449.324.125.195-.059.441.059.629.078.125.304.434.308.594.016.355-.726.437-.664.785.035.207.613.297.926.578.203.187-.258.426-.149.652.11.23.79.446.84.594.106.293-.293.465-.34.691-.09.426.106.836.551 1.145.176.121.707.492 1.278.688.265.09.543-.094.796.07.176.117.13.465.25.695.184.344.524.567.77.477.168-.059.578-.512.476-.883-.07-.254-.667-.375-.601-.66.062-.282.453-.489.668-.719.305-.332.469-.648.621-.707.203-.078.477-.024.64-.117.141-.082.18-.317.337-.36.468-.14.699.278.941.371.207.079.445-.18.613-.074.203.125.84.11 1.867.164.2.008.532.52.793.535.332.024.598-.445.848-.406.274.04.469.446.715.598.355.219.734.187.957.113.348-.117-.031-.387.05-.683.063-.235.481-.34.509-.567.058-.469-.372-.523-.243-.719.274-.41.735.02 1.121-.175.485-.239.993-.727 1.266-.578.176.093.2.656.535.738.442.11 1.211-.258 1.45-.137.148.078.41.625.605.64.266.02.48-.507.816-.507.137 0 .317.195.457.176.153-.02.309-.32.465-.336.211-.024.45.285.649.238.347-.078.421-.492.777-.562.445-.094.734-.153 1.191-.168.52-.02.707 1.52 1.27 1.394.219-.05.344-.387.601-.52.54-.277 1.25-.437 1.715-.617.325-.125.703.07 1.028-.086.07-.039.308.235.543.2.203-.032.386-.38.671-.32.211.038.606.046.829.179.195.117.214.36.394.414.422.133.774-.02.906-.09.215-.113-.359-.191-.675-.562-.34-.399-.422-1.098-.258-1.29.308-.363.82-.706.855-1.12.028-.282-.433-.645-.289-.88.094-.152.488-.214.723-.285.2-.062.234-.152.414-.12.281.054.379.37.574.296.305-.113.16-1.058.324-.98.485.219 1.508.898 1.95 1.441.343.418.101.672.476 1.082.277.309.676.29.965.602.16.172-.867.101-.742.277.101.145.191.469.418.645.183.136.515-.051.738.07.172.094.16.426.305.563.261.25.648.328.797.48.097.102-.11.3-.09.5.023.2.265.394.406.492.156.11.461.352.707.367.274.02.488-.191.598-.05l.363 58.136-116.406-.441-.094-40.707c0-.75-.203-1.082.176-2.059.074-.191.398-.148.629-.469.172-.242.265-.847.316-1.019.05-.164.332-.422.3-.754-.019-.262-.355-.605-.312-.734.153-.47.657-.832.758-1.297.09-.39-.812-.84-.719-1.211.102-.406.707-.531 1.043-.828.188-.168-.07-.383.012-.586.11-.27.524-.535.434-.79-.11-.308-.844-.335-1.262-.55-.273-.14-.055-1.426-.383-1.55-.457-.18-.957.491-1.492.445-.383-.032-.77-1.157-1.137-1.25-.281-.075-.554.687-.797.707-.609.046-1.054-.528-1.132-.895-.063-.293.453-.89.359-1.133-.18-.453-.977-.512-.988-.969-.012-.32.468-.48.593-.847.114-.332-.136-.871-.035-1.18.23-.68 1.078-.89 1.375-1.488.121-.242-.043-.426.055-.684.082-.207.46-.379.535-.625.086-.273-.129-.617-.02-.867.087-.203.376.098.473-.094.106-.21-.047-.488.035-.777.07-.238.418-.293.551-.52.133-.226.051-.625.153-.785.226-.367.792-.578 1.207-.699.5-.148.851-.203 1.128-.676.489-.82 1.41-1.527 1.668-2.668.063-.277.059-.777.176-1.23.067-.25.356-.488.336-.668-.05-.508-.625-.574-.445-.867.347-.57.86-.63 1.168-1.114.125-.195.066-.726.183-.976.18-.387.668-.367.84-.797.235-.59.32-1.547.574-2.152.22-.524.61-.696.778-1.23.09-.294-.145-.907-.028-1.15.293-.609.907-1.015 1.418-1.78.102-.153.032-.669.141-.82.156-.22.55-.259.684-.493.21-.367-.047-1.149.168-1.457.629-.91 1.402-1.07 1.41-1.938.004-.828-.668-.96-1.125-1.511-.285-.344.02-1.332-.309-1.723-.215-.254-.633-.68-1.039-.762-.422-.086-.836.172-1.187.004-.282-.133-.688-.945-1.012-1.035-.465-.125-.852.469-1.266.191-.289-.19-.261-.77-.496-1.097-.246-.344-.758-.434-1.031-.707-.223-.223-.172-.766-.277-1.2-.067-.28-.293-.464-.371-.652-.165-.402-.446-.258-.641-.664-.129-.27-.082-.855-.27-1.101-.144-.196-.246-.371-.445-.477-.137-.074-.383-.062-.45-.219-.136-.304.106-.41.321-.593.254-.22.508-.512.61-.813.058-.168.226-.598.05-.863-.164-.25-.664-.336-.722-.528-.07-.246.144-.437.132-.714-.015-.317-.261-.723-.48-1.043-.211-.305-.516-1.059-.816-1.348-.399-.379-.77-.281-.727-.586.02-.14.207-.129.324-.332.102-.18.133-.578.16-.688-.195-20.355-.23-40.632.293-60.632m0 0"/></g><g clip-path="url(#c5802da21c)"><path fill="#fff" d="M183.324 294.586s10.598-8.074 14.805-10.094c4.203-2.015 3.531-1.68 9.082-7.23 5.55-5.555 5.89-3.367 10.094-8.246 4.207-4.875 4.71-9.418 8.074-4.707 3.367 4.707 4.207 8.242 6.898 3.53 2.692-4.71 8.243-14.132 10.262-12.952 2.02 1.175 6.426 7.984 8.445 10.523 2.016 2.543 2.391 1.348 3.813 3.516s2.766 2.39 4.262 4.262c1.496 1.87 7.699-4.41 9.195-5.833 1.496-1.421 8.824 8.524 12.414 10.47 3.586 1.945 3.512 3.96 5.68 5.007 2.172 1.047 16.75 12.742 14.656 11.754-2.094-.984-3.067-3.078-4.86-2.856-1.792.223-2.167 2.395-3.664.223-1.496-2.168-.3-3.289-4.859-5.906-4.562-2.617-6.058-4.41-7.703-3.512-1.645.895 1.644 3.29 2.32 5.68.672 2.394 2.465 6.879.746 3.89-1.718-2.992-1.718-3.964-4.187-5.984-2.469-2.016-1.945-1.719-3.215-3.062-1.27-1.348-2.02-3.516-3.289-5.907-1.273-2.394-.973-5.234-1.871-3.964l-.895 1.269s1.344 1.574.97 3.14c-.372 1.571 1.347 3.817 1.796 5.31.45 1.495 3.215 5.683 3.664 7.327s1.121 3.664-1.57-1.046c-2.692-4.711-1.871-2.317-3.59-4.036-1.719-1.722-.899-4.562-1.719-3.367-.824 1.2-1.195 1.797-2.246 3.89-1.043 2.095-4.258 1.794-4.559 3.665-.3 1.867-2.843 3.586-2.242 1.941.598-1.644-.676 1.723 2.242-4.336 2.914-6.054 3.215-4.41 3.067-7.254-.152-2.84 1.156-4.41.183-4.148-.968.262-1.57 1.531-2.726 2.84-1.16 1.308-2.356 2.43-2.469 3.59s-.933 3.066-.707 1.644c.223-1.418.297-1.383.145-2.43-.145-1.046.824-1.16 1.125-2.84.296-1.683 3.886-4 3.738-4.3-.149-.297-2.168.148-3.363 1.195-1.2 1.047-1.461 2.77-3.293 4.004-1.832 1.23-4.223 2.875-5.72 4.445-1.495 1.57-3.663.786-3.886 4.301-.226 3.516.297 7.625-.375 5.16-.672-2.468-.523-3.812-1.047-3.066s-.824 1.57-2.394 2.691-3.813 2.692-2.613.899c1.195-1.797 0 .972 2.613-2.617 2.617-3.59-.895-2.844 2.094-5.536 2.992-2.691 10.843-8.37 10.77-9.27-.08-.898 0-.374-2.395 1.196-2.391 1.57-5.235 2.094-7.329 4.485-2.09 2.394-7.175 2.695-6.804 5.984.375 3.289 1.199 3.066-1.867 1.195-3.067-1.867.523-2.39-4.336.227-4.86 2.613-6.657 1.047-6.657 2.84s-4.933 5.16-6.054 4.86c-1.121-.298-.598.187.82-.638 1.422-.82 1.234-1.195 2.059-1.793.82-.597 1.496-1.718 1.234-2.054-.262-.34-.938-.602-2.207-.262-1.274.336-2.578.523-3.328-.188-.746-.71-1.309-1.347.597-.824 1.907.524.637-.894 4.188-1.531s1.906-1.496 6.281-3.441c4.375-1.942 5.496-1.832 7.067-2.692s2.203-1.418 3.175-3.512c.973-2.093 1.797-1.12 1.496-3.293-.296-2.167.301-1.98-1.53-1.269-1.833.71-1.274-1.309-3.18 1.16-1.907 2.465-2.282.934-4.336 3.14-2.055 2.204-5.496 5.532-5.047 4.184.449-1.343 2.054-.968 2.394-2.765.336-1.793 2.614-3.914 4.035-5.34s1.536-1.016 3.965-4.117c2.43-3.102 5.496-5.16 4.188-5.196-1.309-.039-1.309-1.308-1.871-.261s-.825.894-2.02 2.168c-1.195 1.27-2.316 1.007-2.953 2.691-.637 1.68.3.82-2.168 3.215-2.469 2.39-4.3 5.383-3.926 3.7.375-1.68.86-.86 1.457-3.216.602-2.355 2.207-2.465 3.63-4.449 1.417-1.98 6.093-5.008 6.019-6.988-.075-1.985.484-2.02-.04-2.844-.523-.82-.335-2.727-1.234-1.719-.894 1.012-1.234 1.309-2.879 3.739-1.644 2.43-1.382.824-3.14 3.59-1.754 2.765-2.766 3.1-4.371 5.718 0 0 .015 1.059-2.957 3.969-2.97 2.91-2.633 2.238-4.54 5.77-1.906 3.535-2.636 2.804-2.636 4.937 0 0 .02.074.094.82.074.75.82 2.04.578 2.094-.242.059-.282-.895-.953-1.176-.672-.281.039-.844-1.438-.242-1.476.598-.523-.227-1.496-.844s1.29-2.261 1.082-3.176c-.203-.918.863-1.16.469-2.058-.395-.895.207-1.067-.45-1.344-.652-.281-4.167 4.465-6.019 4.633-1.848.172-4.316 4.039-4.879 4.207-.558.168-2.016 1.738-1.738.918.281-.824 1.18-.973 2.074-2.188.899-1.214 1.309-3.046 2.524-3.628 1.218-.579 3.347-1.57 4.449-3.196 1.105-1.625 2.433-2.617 2.394-3.644s3.7-3.067 4.824-5.028c1.122-1.964 2.801-1.347 2.86-3.03.055-1.68.11-2.298-.508-2.579-.613-.281-.11 1.57-1.176 1.906s-1.347 1.067-2.074 1.63c-.73.558-1.012 1.679-1.625 2.41-.617.73-1.797.671-2.355 1.906-.563 1.234-.77.316.335-1.348 1.102-1.66 1.458-1.645 2.465-2.633 1.012-.992 2.227-3.121 3.067-3.629.844-.504.844-.465.636-1.344-.207-.878-.28-1.273-.636-1.402-.356-.133-.805-.113-1.59 1.215s-2.559 3.008-3.68 3.867c-1.12.863-.3.711-2.992 2.508-2.691 1.793-1.531 2.02-4.375 3.96-2.84 1.946-3.496 2.227-3.328 4.47.172 2.242-2.242 3.195-2.074 5.664s-.278 7.402-.727 4.879c-.45-2.524-.844-2.41-1.012-4.262s.059-3.477-1.402-2.692c-1.457.786-.953-.058-3.812 1.848-2.86 1.91-2.243.508-5.215 2.918s-10.02 6.945-9.188 5.547"/></g><path d="M146.516 310.987v-6.813c0-.3-.008-.547-.016-.734q-.018-.281-.03-.532-.065-1.031-.704-1.171a2 2 0 0 0-.375-.063 6 6 0 0 0-.375-.016c-.23 0-.344-.07-.344-.218 0-.114.164-.172.5-.172q.406 0 .922.031.515.019 1 .031.498.017.797.016.263.001.719-.016.45-.013.937-.031.48-.03.89-.031.436 0 .438.172c0 .148-.117.218-.343.218-.168 0-.375.024-.625.063-.274.055-.461.172-.563.36q-.157.281-.203.827-.019.251-.031.532-.017.281-.016.734v6.813q-.001 1.535.016 2.718.013 1.189.078 1.844.029.422.203.703.168.27.625.328.233.018.531.047c.196.024.375.031.531.031q.33.001.329.172-.002.204-.391.203-1.019 0-1.938-.03a36 36 0 0 0-1.312-.032h-.703c-.313.008-.649.02-1 .031q-.517.03-.922.031-.422.001-.422-.203 0-.17.328-.172c.156 0 .297-.007.422-.03q.187-.03.328-.048a.57.57 0 0 0 .438-.328q.123-.263.172-.719a20 20 0 0 0 .093-1.843c.008-.782.016-1.68.016-2.703m9.002.906v-6.25c0-.239-.008-.453-.015-.64q-.035-.453-.203-.641-.16-.186-.594-.313a.8.8 0 0 0-.313-.047 7 7 0 0 0-.422-.015q-.314 0-.312-.188 0-.17.422-.172.733.001 1.484.031.763.017 1.156.016.421.001 1.282-.016.872-.03 1.703-.03.856 0 1.828.046.984.047 1.969.219c.664.117 1.3.312 1.906.594a5.7 5.7 0 0 1 1.672 1.171q.687.69 1.203 1.797c.351.742.531 1.64.531 2.703q0 1.675-.61 2.922-.595 1.254-1.39 2.016c-.281.281-.687.586-1.219.906q-.796.488-2.015.828-1.219.342-2.906.344-.504 0-1.079-.047-.58-.035-1.109-.047-.55-.047-1.031-.078a12 12 0 0 0-.828-.031h-.438c-.187.008-.39.016-.61.016q-.327.03-.655.03-.329.015-.61.016-.361 0-.36-.187-.001-.188.298-.188.387 0 .64-.062.296-.06.39-.297.108-.247.157-.64.061-.562.063-1.563c.007-.664.015-1.399.015-2.203m2.469-3.406v4.594q.013.954.031 1.218l.063.734q.046.375.156.516.154.251.734.484.577.235 1.657.235c.832 0 1.566-.086 2.203-.266a4.7 4.7 0 0 0 1.797-.953q.89-.716 1.218-1.86.342-1.154.344-2.53c0-1.126-.187-2.055-.562-2.797q-.55-1.11-1.141-1.625a6 6 0 0 0-1.766-1.11 6.5 6.5 0 0 0-1.78-.469 13 13 0 0 0-1.579-.109q-.28.001-.656.031-.375.036-.469.094c-.156.055-.234.172-.234.36-.012.304-.016.78-.016 1.437zm19.967 4.093h-4.313q-.126.001-.171.125l-.985 2.375c-.094.219-.164.43-.203.625a2 2 0 0 0-.062.453q-.001.235.156.375c.101.086.297.125.578.125h.266c.113 0 .187.024.218.063a.17.17 0 0 1 .047.125q0 .187-.281.187-.471 0-1.047-.03-.564-.034-1-.032-.142-.002-.766.031c-.418.02-.867.031-1.359.031q-.328 0-.328-.187.002-.188.203-.188h.281c.094-.007.184-.015.266-.015q.621-.107.937-.5.31-.406.579-1.063l4.796-11.156q.295-.703.547-.703c.133 0 .235.047.297.14q.094.13.235.422l.406.954c.207.468.453 1.039.734 1.703l.906 2.156q.498 1.142.985 2.297.499 1.16.922 2.156.42.985.718 1.656.36.785.641 1.188.292.39.516.531c.156.086.289.14.406.172q.42.063.687.062.249 0 .25.188 0 .111-.14.14-.13.047-.656.047-.47-.002-1.407-.015-.937-.001-2.11-.031-.252-.016-.405-.032c-.094-.02-.14-.054-.14-.11q0-.169.233-.187c.07-.007.13-.05.172-.125a.32.32 0 0 0 0-.265l-1.422-3.563q-.045-.124-.187-.125m-3.938-.984h3.547q.125.001.078-.11l-1.734-4.5a.6.6 0 0 1-.031-.109q0-.06-.047-.062c-.031 0-.055.023-.063.062a.4.4 0 0 1-.046.11l-1.766 4.484c-.043.086-.023.125.062.125m14.599-2.188h6.907c.07 0 .11-.039.11-.125v-.375c0-.906-.009-1.601-.017-2.093v-1.141q0-.388-.03-.672-.018-.451-.188-.64-.16-.186-.594-.313a.9.9 0 0 0-.328-.047q-.205-.013-.39-.015c-.212 0-.313-.063-.313-.188q-.002-.17.406-.172.498.002 1.031.016.546.018 1.016.031h1.343q.423-.013.891-.031c.313-.008.586-.016.828-.016q.389.001.391.172 0 .188-.328.188-.189.002-.547.062-.361.065-.5.281c-.086.137-.14.36-.172.672q-.018.282-.031.64-.017.348-.016 1.063v5.187q-.001 1.208.016 2.204.013 1.003.078 1.578.03.376.172.625c.094.156.281.258.562.297q.186.017.453.047.263.016.485.015.28 0 .281.188 0 .187-.375.187-.893 0-1.703-.03a29 29 0 0 0-1.188-.032h-.656q-.44.013-.922.031-.486.03-.843.031-.392 0-.391-.187 0-.188.281-.188.42 0 .672-.062c.195-.04.328-.14.39-.297q.108-.247.157-.64c.039-.376.062-.883.062-1.532q.014-.984.016-2.203v-1.36q-.002-.093-.11-.093h-6.906q-.126 0-.125.094v1.359q-.001 1.22.016 2.203.013.973.078 1.547.045.376.172.625c.094.156.274.258.547.297.125.012.273.027.453.047q.263.016.484.015.282 0 .282.188 0 .187-.375.187-.89 0-1.735-.03c-.562-.024-.98-.032-1.25-.032h-.625q-.408.013-.875.031-.468.03-.843.031c-.243 0-.36-.062-.36-.187q0-.188.297-.188.388 0 .64-.062c.196-.04.329-.14.391-.297q.107-.247.157-.64.06-.562.062-1.563.014-.997.016-2.203v-6.25q-.002-.359-.016-.64-.034-.453-.203-.641-.159-.186-.594-.313a.8.8 0 0 0-.312-.047 7 7 0 0 0-.422-.015q-.315 0-.313-.188-.002-.17.407-.172c.476 0 .984.012 1.515.031q.797.017 1.172.016h.656q.452-.013.938-.031c.32-.008.601-.016.844-.016q.375.001.375.172 0 .188-.329.188-.222.002-.53.062-.376.065-.516.281-.127.205-.172.672-.019.283-.032.672v3.609c0 .086.04.125.125.125m20.984 7.86c-1.336 0-2.48-.211-3.438-.625-.95-.414-1.719-.969-2.312-1.656a7 7 0 0 1-1.328-2.25 7.4 7.4 0 0 1-.422-2.422q0-1.126.422-2.344a6.9 6.9 0 0 1 1.343-2.25q.904-1.043 2.375-1.688 1.466-.656 3.547-.656c1.54 0 2.875.274 4 .813q1.686.814 2.594 2.297.92 1.488.922 3.515-.002 2.034-.953 3.688-.939 1.64-2.657 2.609-1.721.97-4.093.969m.75-.969q.405 0 .937-.094.53-.104 1.094-.422.574-.327 1.078-.953.498-.62.797-1.64.311-1.014.312-2.532-.002-1.968-.718-3.375-.705-1.418-1.922-2.187a4.83 4.83 0 0 0-2.672-.781c-.524 0-1.043.086-1.563.25a3.6 3.6 0 0 0-1.437.843q-.658.598-1.063 1.657-.39 1.066-.39 2.718-.001 1.816.672 3.297.669 1.47 1.906 2.344c.832.586 1.82.875 2.969.875m20.279-8.984v3.672q0 2.003.047 3.093c.03.73.16 1.196.39 1.39q.265.237.782.345.527.11 1.734.109c.55 0 1.031-.023 1.437-.078a1.6 1.6 0 0 0 1-.5q.187-.201.344-.578.169-.374.203-.672.03-.312.219-.313.17 0 .172.36 0 .094-.047.562a14 14 0 0 1-.11 1 11 11 0 0 1-.156.828q-.08.332-.296.438-.206.124-1.016.125-1.125-.001-1.969-.031-.843-.019-1.547-.032c-.48-.03-.918-.054-1.312-.062h-1.735q-.314-.001-.687.016-.363-.002-.75.015-.376.03-.688.031-.42.001-.421-.203 0-.17.328-.172c.156 0 .297-.007.422-.03q.187-.03.328-.048a.53.53 0 0 0 .422-.375q.123-.311.187-.781.076-.656.094-1.828.013-1.17.015-2.61v-6.812q-.002-.452-.015-.734-.02-.281-.031-.532-.017-.543-.204-.812c-.117-.188-.343-.313-.687-.375a3 3 0 0 0-.688-.063q-.361 0-.359-.187c0-.133.148-.203.453-.203q.733 0 1.578.047c.57.023 1 .03 1.282.03q.247.001.765-.015.53-.013 1.094-.031.574-.03.984-.031.436.002.438.203 0 .187-.375.187-.174.002-.406.016-.222 0-.407.047c-.281.055-.476.172-.578.36q-.157.281-.203.827-.018.251-.031.532zm9.582 4.578v-6.25q-.001-.359-.015-.64-.034-.453-.203-.641-.159-.186-.594-.313a.8.8 0 0 0-.312-.047 7 7 0 0 0-.422-.015q-.315 0-.313-.188 0-.17.422-.172.734.001 1.485.031.762.017 1.156.016h5.015q.248-.012.454-.047.2-.029.312-.062a.6.6 0 0 0 .156-.047.4.4 0 0 1 .141-.031q.124 0 .125.171-.001.08-.063.313a8 8 0 0 0-.093.828c0 .055-.008.164-.016.328q-.018.253-.047.5a10 10 0 0 1-.031.344q-.033.065-.078.172-.035.11-.14.11-.142.002-.141-.22-.001-.107-.032-.296a1 1 0 0 0-.093-.36 1.3 1.3 0 0 0-.313-.39q-.205-.187-.89-.25-.128-.013-.532-.032a29 29 0 0 0-.89-.015c-.336-.008-.637-.016-.907-.016-.273-.008-.453-.016-.547-.016q-.126.002-.125.157v4.375q-.001.187.125.187h2.594q.47-.013.61-.031.326-.045.53-.078a.58.58 0 0 0 .345-.203q.106-.094.171-.157.061-.06.125-.062.141 0 .141.187c0 .055-.012.172-.031.36-.024.18-.059.484-.11.922q-.033.282-.062.687a7 7 0 0 0-.031.5q-.001.112-.032.266-.034.14-.156.14-.157 0-.156-.14a1.4 1.4 0 0 1-.031-.313q-.001-.168-.032-.343a1.15 1.15 0 0 0-.296-.454q-.206-.188-.735-.234-.13-.013-.515-.031a29 29 0 0 0-.875-.016q-.486-.013-.907-.015c-.273-.008-.464-.016-.578-.016q-.094 0-.094.187v4.047q.031.893.547 1.188.528.28 1.922.281.357.002.86-.031.512-.047.875-.188.609-.281.796-1.312.062-.281.204-.281.105 0 .14.14.03.141.031.281 0 .189-.046.594l-.094.797a3.4 3.4 0 0 1-.11.563q-.094.343-.28.406-.189.06-.704.062-2.016-.002-3.375-.062-.675-.036-1.203-.047h-1.359a14 14 0 0 1-.61.016q-.328.03-.656.03-.328.015-.61.016-.361 0-.359-.187 0-.188.297-.188.388 0 .64-.062.296-.06.391-.297a2.4 2.4 0 0 0 .157-.64q.06-.562.062-1.563.014-.997.016-2.203m23.197 2v1.953q-.001.363-.031.437-.036.083-.188.188c-.617.305-1.34.508-2.172.625q-1.236.17-2.312.172c-1.125 0-2.2-.133-3.22-.39a8.3 8.3 0 0 1-2.718-1.25 6.1 6.1 0 0 1-1.86-2.157q-.689-1.312-.687-3.156 0-1.407.438-2.532c.3-.75.695-1.398 1.187-1.953q.748-.826 1.578-1.297 1.326-.78 2.563-.968 1.23-.188 2.39-.188c.426 0 .864.024 1.313.063q.685.047 1.219.125c.351.043.594.078.719.109q.28.048.703.11.42.064.75.078c.164.011.25.078.25.203q-.001.111-.032.375-.034.252-.062.843-.033.58-.031 1.704c0 .261-.086.39-.25.39-.094 0-.157-.07-.188-.219a3 3 0 0 0-.14-.687 2 2 0 0 0-.485-.781q-.392-.406-1.422-.875c-.68-.313-1.53-.47-2.562-.47q-.751 0-1.672.142-.91.128-1.86.89-.783.626-1.25 1.656-.455 1.033-.453 2.657-.002 1.908.782 3.406a5.96 5.96 0 0 0 2.218 2.344q1.421.843 3.391.843.341 0 .64-.015.313-.03.641-.172.36-.168.36-.625v-2.797q-.002-.515-.016-.906-.034-.469-.203-.656-.16-.186-.594-.313a.8.8 0 0 0-.312-.047q-.205-.013-.39-.015-.299 0-.298-.188 0-.17.39-.172.482.002 1.032.016.563.018 1.031.031h.75q.436.001 1.063-.016.623-.03 1.094-.03.375 0 .375.171 0 .188-.235.188-.188.002-.5.062c-.25.043-.43.137-.531.281q-.16.206-.172.688-.033.393-.031.922zm10.247-1.313h-4.312c-.086 0-.14.043-.172.125l-.985 2.375c-.093.219-.164.43-.203.625a2 2 0 0 0-.062.453q-.001.235.156.375c.102.086.297.125.578.125h.266c.113 0 .187.024.219.063a.17.17 0 0 1 .046.125q0 .187-.28.187c-.313 0-.665-.011-1.048-.03-.375-.024-.71-.032-1-.032-.093 0-.351.008-.765.031-.418.02-.867.031-1.36.031q-.327 0-.328-.187.002-.188.203-.188h.282c.093-.007.183-.015.265-.015q.621-.107.938-.5.31-.406.578-1.063l4.797-11.156q.294-.703.547-.703c.132 0 .234.047.296.14q.094.13.235.422l.406.954c.207.468.453 1.039.734 1.703l.907 2.156q.498 1.142.984 2.297.498 1.16.922 2.156.421.985.719 1.656.358.785.64 1.188.294.39.516.531c.156.086.289.14.406.172q.42.063.688.062c.164 0 .25.063.25.188q0 .111-.14.14-.13.047-.657.047-.469-.002-1.406-.015-.938-.001-2.11-.031-.252-.016-.406-.032c-.094-.02-.14-.054-.14-.11q0-.169.234-.187.106-.012.172-.125a.32.32 0 0 0 0-.265l-1.422-3.563q-.047-.124-.188-.125m-3.937-.984h3.547q.124.001.078-.11l-1.735-4.5a1 1 0 0 1-.03-.109q0-.06-.048-.062-.048.002-.062.062a.4.4 0 0 1-.047.11l-1.766 4.484c-.043.086-.023.125.063.125m14.474-2.844v3.14q0 1.704.047 2.595.045.877.343 1.125.235.222.797.296.575.08 1.64.079.734 0 1.266-.063.547-.075.875-.437.17-.155.297-.485.14-.327.172-.578.029-.265.203-.266.106.001.141.125.03.113.031.266 0 .111-.047.516-.046.393-.093.828a3.2 3.2 0 0 1-.141.703c-.055.2-.14.328-.266.39q-.176.094-.89.094-1.924-.002-3.297-.062a42 42 0 0 0-1.281-.047h-1.594c-.188.008-.39.016-.61.016q-.327.03-.656.03-.328.015-.61.016-.36 0-.359-.187 0-.188.297-.188.388 0 .641-.062c.195-.04.328-.14.39-.297.07-.164.126-.379.157-.64q.06-.562.062-1.563c.008-.664.016-1.399.016-2.203v-6.25q-.002-.359-.016-.64-.034-.453-.203-.641-.158-.186-.594-.313a2.3 2.3 0 0 0-.609-.062q-.313 0-.312-.188c0-.113.132-.172.406-.172q.64.001 1.39.031.75.017 1.125.016h.72q.497-.013 1.03-.031c.364-.008.665-.016.907-.016q.388.001.39.172 0 .188-.328.188-.158.001-.36.015-.187 0-.359.047-.375.065-.515.281c-.086.137-.14.36-.172.672a21 21 0 0 0-.031.64zm21.201 2.844h-4.656q-.129 0-.187.172l-1.125 2.969q-.14.41-.235.75-.08.344-.078.53-.002.268.172.454.188.187.656.187h.313q.311.001.312.172-.002.204-.343.203-.504 0-1.125-.03a19 19 0 0 0-1.094-.032q-.157-.002-.906.031c-.493.02-1.004.031-1.547.031-.258 0-.391-.066-.391-.203 0-.113.086-.172.25-.172h.328q.188-.011.313-.046c.488-.063.851-.258 1.093-.594q.357-.497.672-1.281l5.235-13.079c.125-.312.226-.53.312-.656q.123-.187.281-.187.217.001.516.672.124.299.453 1.125.342.814.813 2 .467 1.171 1 2.53.544 1.349 1.078 2.688.546 1.347 1.015 2.516.468 1.172.813 1.953.389.938.719 1.406c.226.313.437.528.625.64q.28.177.484.235.233.035.453.063.234.016.422.015.281.001.281.172-.002.128-.203.157c-.125.03-.383.046-.765.046q-.563-.002-1.625-.015-1.066-.001-2.313-.031c-.18-.012-.328-.02-.453-.032q-.174-.03-.172-.125 0-.17.297-.187a.45.45 0 0 0 .172-.172q.092-.124.015-.313l-1.671-4.421q-.064-.141-.204-.141m-4.234-1.047h3.828q.154.001.11-.125l-1.875-5.14a1 1 0 0 0-.047-.126q-.017-.06-.063-.062c-.055 0-.094.062-.125.187l-1.922 5.125q-.035.141.094.141m12.923 1.344v-6.25q-.002-.359-.016-.64-.034-.453-.187-.641a.9.9 0 0 0-.438-.297 2.6 2.6 0 0 0-.671-.078q-.298 0-.297-.204c0-.101.144-.156.437-.156q.359.002.828.016.468.018.922.031h1.359q.435-.013.891-.031c.313-.008.586-.016.828-.016.25 0 .375.055.375.156q-.001.205-.297.204-.236.002-.546.062-.375.065-.516.281c-.086.137-.14.36-.172.672a21 21 0 0 0-.031.64v8.548c.008.68.035 1.203.078 1.578q.047.346.187.562.14.206.547.266.186.017.453.047.263.016.485.015.28 0 .281.188-.002.187-.344.187-.907 0-1.75-.03a31 31 0 0 0-1.218-.032h-.641c-.281.008-.586.02-.906.031q-.47.03-.844.031-.361 0-.36-.187 0-.188.297-.188.388 0 .641-.062c.195-.04.328-.125.39-.25q.109-.2.157-.61.06-.527.062-1.546c.008-.688.016-1.453.016-2.297m8.486 0v-6.25q-.002-.359-.016-.64-.034-.453-.203-.641-.159-.186-.593-.313a.8.8 0 0 0-.313-.047 7 7 0 0 0-.422-.015q-.313 0-.312-.188 0-.17.422-.172.733.001 1.484.031.762.017 1.156.016.42.001 1.281-.016.872-.03 1.704-.03.856 0 1.828.046.984.047 1.968.219a7.6 7.6 0 0 1 1.907.594 5.7 5.7 0 0 1 1.672 1.171q.686.69 1.203 1.797c.351.742.53 1.64.53 2.703q0 1.675-.608 2.922-.597 1.254-1.391 2.016c-.281.281-.688.586-1.219.906q-.797.488-2.015.828-1.22.342-2.907.344-.504 0-1.078-.047-.581-.035-1.11-.047-.55-.047-1.03-.078a12 12 0 0 0-.829-.031h-.437c-.188.008-.39.016-.61.016q-.327.03-.656.03-.328.015-.61.016-.36 0-.358-.187-.001-.188.296-.188.388 0 .641-.062c.195-.04.328-.14.39-.297q.108-.247.157-.64.06-.562.062-1.563c.008-.664.016-1.399.016-2.203m2.469-3.406v4.594q.013.954.031 1.218l.063.734q.045.375.156.516.152.251.734.484c.383.157.938.235 1.656.235.832 0 1.567-.086 2.204-.266a4.7 4.7 0 0 0 1.796-.953q.89-.716 1.22-1.86a9 9 0 0 0 .343-2.53c0-1.126-.188-2.055-.563-2.797q-.55-1.11-1.14-1.625a6 6 0 0 0-1.766-1.11 6.5 6.5 0 0 0-1.781-.469 13 13 0 0 0-1.578-.109q-.281.001-.656.031-.375.036-.47.094c-.155.055-.234.172-.234.36-.011.304-.015.78-.015 1.437zM196.215 338.18q-.89-.001-1.64-.125a6 6 0 0 1-1.407-.422q-.252-.105-.328-.234-.064-.14-.063-.469-.002-.856.032-1.672.043-.81.078-1.062.012-.233.062-.39c.04-.102.102-.157.188-.157q.138.001.172.125.03.111.03.234 0 .207.048.5.059.3.14.563.357 1.143 1.188 1.625.824.485 1.797.484c.625 0 1.144-.117 1.562-.36.414-.25.723-.554.922-.921q.312-.561.313-1.094-.002-.527-.157-1.031c-.093-.332-.289-.688-.578-1.063q-.44-.574-1.312-1.25l-.953-.75q-1.722-1.357-2.407-2.515a4.64 4.64 0 0 1-.687-2.422c0-.758.195-1.438.594-2.031.406-.594.968-1.055 1.687-1.391q1.09-.516 2.531-.516 1.03.001 1.703.125.668.129 1.079.235.28.063.28.25 0 .207-.046.734c-.024.356-.031.945-.031 1.766q0 .626-.235.625-.203 0-.203-.375-.002-.153-.11-.563-.095-.42-.437-.812c-.148-.196-.39-.414-.734-.656q-.517-.375-1.531-.375-1.144 0-1.813.609-.673.61-.672 1.547-.002.703.453 1.36.468.656 1.766 1.64l.578.437q1.264.938 2 1.782.75.844 1.078 1.687.342.846.344 1.844 0 .892-.422 1.89-.422 1.002-1.547 1.735a4.6 4.6 0 0 1-1.625.672 7.8 7.8 0 0 1-1.687.187m9.822-5.437v-6.25q-.002-.359-.016-.641-.034-.452-.203-.64c-.105-.126-.305-.227-.594-.313a.8.8 0 0 0-.312-.047 7 7 0 0 0-.422-.016q-.314 0-.312-.187 0-.17.421-.172.734.001 1.485.031.763.017 1.156.016h5.016q.247-.012.453-.047.2-.029.312-.062a.6.6 0 0 0 .157-.047.4.4 0 0 1 .14-.032q.124.001.125.172-.002.08-.062.313a8 8 0 0 0-.094.828q-.002.082-.016.328-.017.253-.047.5a10 10 0 0 1-.03.344q-.034.065-.079.172-.035.11-.14.109c-.094 0-.141-.07-.141-.219 0-.07-.012-.172-.031-.297a1 1 0 0 0-.094-.359 1.3 1.3 0 0 0-.313-.39q-.204-.188-.89-.25-.128-.013-.532-.032a29 29 0 0 0-.89-.015c-.336-.008-.637-.016-.906-.016-.274-.008-.454-.016-.547-.016-.086 0-.125.055-.125.157v4.375c0 .125.039.187.125.187h2.593q.47-.013.61-.031.327-.045.531-.078a.6.6 0 0 0 .344-.203q.106-.093.172-.157.06-.06.125-.062.14 0 .14.187c0 .055-.011.172-.03.36-.024.18-.06.484-.11.922q-.034.282-.063.687a7 7 0 0 0-.031.5q-.001.112-.031.266-.035.14-.157.14-.157 0-.156-.14a1.4 1.4 0 0 1-.031-.313q-.001-.168-.031-.344a1.15 1.15 0 0 0-.297-.453q-.206-.187-.735-.234-.129-.013-.515-.031a29 29 0 0 0-.875-.016c-.324-.008-.625-.016-.906-.016-.274-.007-.465-.015-.579-.015q-.093 0-.093.187v4.047q.03.893.547 1.188.527.28 1.921.28c.239 0 .524-.007.86-.03q.514-.048.875-.188.61-.281.797-1.312c.039-.188.11-.282.203-.282q.105 0 .14.141.031.141.032.281 0 .189-.047.594-.047.41-.094.797a3.4 3.4 0 0 1-.11.562q-.094.344-.28.407-.189.06-.704.062-2.014-.002-3.375-.062-.674-.036-1.203-.047h-1.359q-.281.013-.61.015-.327.031-.656.032c-.219.007-.422.015-.61.015q-.36 0-.359-.187 0-.188.297-.188.388 0 .64-.062c.196-.04.33-.14.392-.297.07-.164.125-.379.156-.64q.06-.562.062-1.563.014-.996.016-2.203m12.01 0v-6.25q-.002-.359-.016-.641-.035-.452-.203-.64c-.106-.126-.305-.227-.594-.313a.8.8 0 0 0-.312-.047 7 7 0 0 0-.422-.016q-.315 0-.313-.187 0-.17.422-.172.733.001 1.484.031.748.017 1.016.016h.89q.576-.013 1.141-.031c.375-.008.649-.016.828-.016q.874 0 1.813.14a4.25 4.25 0 0 1 1.672.61q.388.282.828.922.452.626.453 1.516-.001.984-.594 1.921c-.398.618-1.043 1.282-1.937 2 .812 1 1.547 1.899 2.203 2.688a32 32 0 0 0 1.812 2.031q.763.767 1.25.953.498.175.704.203c.101.024.187.04.25.047h.187q.234 0 .234.188 0 .187-.359.187h-1.75q-.769 0-1.203-.078a3 3 0 0 1-.797-.281c-.387-.188-.773-.492-1.156-.922a39 39 0 0 1-1.344-1.672q-.345-.48-.703-.984-.363-.515-.625-.906a5 5 0 0 0-.39-.532.48.48 0 0 0-.344-.125l-1.641-.047q-.14 0-.14.141v.266q-.002 1.22.015 2.218.013.985.078 1.547.045.394.172.64c.082.157.266.259.547.298q.2.017.453.047.263.016.437.015.235 0 .235.188 0 .187-.375.187-.535 0-1.156-.031-.612-.019-1.094-.031h-1.188q-.392.013-.843.031-.456.03-.829.031-.361 0-.359-.187 0-.188.297-.188.388 0 .64-.062.296-.06.391-.297c.07-.164.125-.379.156-.64q.061-.562.063-1.563.014-.996.016-2.203m2.343-7.032v5.266q-.001.235.157.313.294.093.671.14c.258.024.504.031.735.031q.527 0 .797-.062.262-.06.484-.234.422-.281.797-.907.388-.622.39-1.718 0-1.248-.468-1.922-.47-.668-1.125-.938-.659-.28-1.188-.281-.346.002-.64.016-.3 0-.453.046-.158.063-.157.25m14.866 11.344-4.64-10.844q-.316-.73-.579-.953c-.18-.156-.434-.273-.766-.36a2 2 0 0 0-.406-.046c-.133-.008-.238-.016-.312-.016q-.201 0-.203-.187 0-.17.453-.172c.492 0 .972.012 1.453.031q.732.017 1.219.016.356.001 1-.016.637-.03 1.328-.031.168.001.297.031.14.036.14.14 0 .188-.281.188-.223.001-.422.032a.6.6 0 0 0-.297.093.41.41 0 0 0-.187.36q-.001.159.11.5.123.346.312.828l3.093 7.937h.063q.216-.529.61-1.468.403-.95.859-2.047.468-1.09.89-2.156.422-1.06.75-1.875.34-.81.469-1.157.06-.17.11-.36c.038-.124.062-.222.062-.296 0-.144-.086-.25-.25-.312a4 4 0 0 0-.36-.047 3 3 0 0 0-.375-.032q-.313 0-.312-.187 0-.17.516-.172.685.001 1.234.031c.375.012.617.016.734.016q.217.001.766-.016.544-.03.953-.031.375.001.375.172 0 .187-.281.187-.158.001-.422.032a1 1 0 0 0-.484.172q-.158.128-.375.421-.222.299-.579 1.141c-.242.563-.468 1.07-.687 1.516l-.672 1.437q-.345.767-.844 1.844a393 393 0 0 0-1.5 3.344q-.627 1.407-.937 2.078-.346.768-.516 1.031c-.117.176-.234.266-.36.266q-.188-.001-.343-.22-.141-.216-.406-.843m10.375-4.312v-6.25q-.002-.359-.016-.641-.035-.452-.187-.64a.9.9 0 0 0-.438-.297 2.6 2.6 0 0 0-.672-.079q-.297.001-.296-.203c0-.101.144-.156.437-.156q.358.002.828.016c.313.011.617.023.922.03h1.359q.434-.012.891-.03c.313-.008.586-.016.828-.016.25 0 .375.055.375.156q-.001.204-.297.203c-.156 0-.34.024-.547.063q-.374.065-.515.281c-.086.137-.14.36-.172.672a21 21 0 0 0-.031.64v8.548c.008.68.035 1.203.078 1.578q.047.346.187.562.14.207.547.266.186.017.453.047.263.016.485.015.28 0 .281.188-.002.187-.344.187-.906 0-1.75-.031a31 31 0 0 0-1.219-.031h-.64c-.281.008-.586.02-.906.031q-.47.03-.844.031-.362 0-.36-.187 0-.188.297-.188.388 0 .641-.062c.195-.04.328-.125.39-.25.07-.133.126-.336.157-.61q.06-.527.062-1.546.014-1.032.016-2.297m15.079 5.375c-1.25 0-2.406-.149-3.468-.438a7.4 7.4 0 0 1-2.828-1.484c-.606-.508-1.074-1.063-1.406-1.656a6.5 6.5 0 0 1-.704-1.797 9 9 0 0 1-.187-1.782c0-.406.055-.882.172-1.437q.186-.826.64-1.734.45-.903 1.329-1.688.996-.872 2.39-1.375 1.387-.499 3.438-.5.841.002 1.437.063.592.047 1.219.125.527.094.984.171c.301.055.586.094.86.125q.264.017.265.204 0 .112-.031.312c-.012.125-.027.352-.047.672q-.035.438-.047 1.047c0 .398-.008.687-.015.875-.032.293-.118.437-.25.437q-.188 0-.188-.375a3 3 0 0 0-.203-.86 2 2 0 0 0-.516-.796q-.456-.452-1.359-.734-.907-.296-2.172-.297c-.812 0-1.492.078-2.031.234a3.6 3.6 0 0 0-1.438.766c-.68.586-1.132 1.281-1.359 2.094a9.6 9.6 0 0 0-.328 2.5q0 1.593.531 2.765a5.8 5.8 0 0 0 1.39 1.938q.874.766 1.876 1.14.995.375 1.922.375c.812 0 1.46-.05 1.953-.156q.748-.17 1.297-.781.215-.265.39-.594.187-.341.235-.594.06-.358.218-.36c.07 0 .125.04.157.11q.06.11.062.203-.002.111-.062.579a25 25 0 0 1-.157.968 5 5 0 0 1-.187.813q-.064.234-.156.328a1 1 0 0 1-.313.187q-.55.218-1.484.313-.938.093-1.828.094m8.105-5.375v-6.25c0-.239-.008-.453-.015-.641q-.034-.452-.204-.64c-.105-.126-.304-.227-.593-.313a.8.8 0 0 0-.313-.047 7 7 0 0 0-.422-.016q-.314 0-.312-.187 0-.17.422-.172.733.001 1.484.031.763.017 1.156.016h5.016q.247-.012.453-.047.2-.029.313-.062a.6.6 0 0 0 .156-.047.4.4 0 0 1 .14-.032q.124.001.125.172-.002.08-.062.313a8 8 0 0 0-.094.828c0 .055-.008.164-.015.328q-.018.253-.047.5a10 10 0 0 1-.032.344c-.023.043-.046.101-.078.172q-.035.11-.14.109c-.094 0-.141-.07-.141-.219 0-.07-.012-.172-.031-.297a1 1 0 0 0-.094-.359 1.3 1.3 0 0 0-.312-.39q-.205-.188-.891-.25-.128-.013-.531-.032a29 29 0 0 0-.891-.015c-.336-.008-.637-.016-.906-.016-.274-.008-.453-.016-.547-.016-.086 0-.125.055-.125.157v4.375c0 .125.039.187.125.187h2.594q.468-.013.609-.031.328-.045.531-.078a.6.6 0 0 0 .344-.203q.106-.093.172-.157.06-.06.125-.062.14 0 .14.187c0 .055-.011.172-.03.36-.024.18-.06.484-.11.922q-.035.282-.063.687a7 7 0 0 0-.03.5q-.002.112-.032.266-.035.14-.156.14-.158 0-.157-.14a1.4 1.4 0 0 1-.03-.313q-.002-.168-.032-.344a1.15 1.15 0 0 0-.297-.453q-.206-.187-.734-.234-.129-.013-.516-.031a29 29 0 0 0-.875-.016c-.324-.008-.625-.016-.906-.016-.274-.007-.465-.015-.578-.015q-.094 0-.094.187v4.047q.03.893.547 1.188.527.28 1.922.28c.238 0 .523-.007.859-.03.344-.032.633-.094.875-.188q.61-.281.797-1.312c.039-.188.11-.282.203-.282q.105 0 .14.141.031.141.032.281 0 .189-.047.594-.046.41-.094.797a3.4 3.4 0 0 1-.11.562q-.093.344-.28.407-.188.06-.703.062-2.017-.002-3.375-.062-.675-.036-1.204-.047h-1.359q-.28.013-.61.015-.327.031-.656.032c-.218.007-.421.015-.609.015q-.362 0-.36-.187-.001-.188.298-.188.387 0 .64-.062c.195-.04.328-.14.39-.297q.108-.247.157-.64.061-.562.063-1.563c.007-.664.015-1.399.015-2.203m13.994 5.375q-.796 0-1.594-.094a4.6 4.6 0 0 1-1.39-.375q-.205-.093-.282-.203c-.054-.07-.078-.203-.078-.39q0-.736.047-1.438.046-.716.063-.922 0-.452.234-.453.122 0 .156.093.031.094.032.188-.002.423.156.922.217.644.687 1.031c.313.262.664.45 1.063.563q.61.157 1.172.156 1.184 0 1.86-.656.686-.658.687-1.594-.001-.388-.125-.781c-.075-.258-.243-.532-.5-.813-.25-.281-.649-.582-1.188-.906l-1.062-.625q-1.629-.968-2.25-1.906a3.8 3.8 0 0 1-.625-2.125q-.001-1.08.625-1.875.622-.81 1.671-1.25a6.1 6.1 0 0 1 2.329-.438q.889 0 1.562.094c.457.062.805.133 1.047.203.164.043.25.121.25.234q-.001.158-.031.625a23 23 0 0 0-.032 1.5q0 .563-.234.563-.187.002-.187-.313 0-.122-.094-.484a1.7 1.7 0 0 0-.39-.688q-.205-.248-.673-.53-.468-.296-1.359-.298c-.656 0-1.242.164-1.75.485q-.767.486-.766 1.406 0 .393.141.75.153.363.562.75.421.376 1.25.828l.75.422q1.811 1.002 2.485 2.047a4.1 4.1 0 0 1 .672 2.25c0 .656-.14 1.258-.422 1.797q-.41.814-1.406 1.515c-.43.305-.922.5-1.485.594q-.844.14-1.578.14m0 0"/><path fill="none" stroke="#1263a0" stroke-width="3.256" d="M131.406 294.574h217.188"/></svg>