<svg xmlns="http://www.w3.org/2000/svg" width="40" height="40" version="1.0" viewBox="0 0 30 30"><defs><clipPath id="403d0e6fd7"><path d="M.484 0h29.032v29.031H.484Zm0 0"/></clipPath></defs><g clip-path="url(#403d0e6fd7)"><path d="M29.516 14.516q-.001 1.43-.278 2.832c-.187.933-.46 1.843-.828 2.722a14.5 14.5 0 0 1-3.144 4.711 15 15 0 0 1-2.2 1.805q-1.188.796-2.511 1.34A14.4 14.4 0 0 1 15 29.03q-1.43 0-2.832-.277a14.4 14.4 0 0 1-2.723-.828 14.2 14.2 0 0 1-2.511-1.34 15 15 0 0 1-2.2-1.805 14.5 14.5 0 0 1-3.145-4.71 14.4 14.4 0 0 1-1.105-5.555q.001-1.431.278-2.832c.187-.934.46-1.844.828-2.723.363-.879.812-1.719 1.34-2.508A15 15 0 0 1 4.734 4.25a15 15 0 0 1 2.2-1.805 14.5 14.5 0 0 1 2.511-1.34A14.4 14.4 0 0 1 15 0q1.43.001 2.832.277c.934.188 1.844.461 2.723.828q1.323.548 2.511 1.34 1.186.797 2.2 1.805 1.008 1.014 1.804 2.203c.528.79.977 1.629 1.34 2.508a14.4 14.4 0 0 1 1.106 5.555m0 0"/></g><path fill="#fff" d="M14.363 10.477v8.203h.934v-8.203a1.67 1.67 0 0 1-.934 0m3.141 9.98v-.46c0-.548-.453-1-1.004-1h-3.336a1 1 0 0 0-.71.292c-.18.184-.294.434-.294.707v.461ZM14.832 7.469a1.38 1.38 0 1 1-.002 2.758 1.38 1.38 0 0 1 .002-2.758m-3.195 6.215c.386-.371.648-.868.715-1.426H7.625a2.38 2.38 0 0 0 2.363 2.09 2.37 2.37 0 0 0 1.649-.664m0 0"/><path fill="#fff" d="M12.742 12.094a2.74 2.74 0 0 1-.844 1.863 2.75 2.75 0 0 1-1.91.77 2.75 2.75 0 0 1-1.91-.77 2.76 2.76 0 0 1-.844-1.883.19.19 0 0 1 .18-.195h5.14a.19.19 0 0 1 .192.187zm0 0"/><path fill="#fff" d="M7.258 11.98a.187.187 0 0 0 .074.254.19.19 0 0 0 .258-.078l2.36-4.394a.196.196 0 0 0-.079-.258.19.19 0 0 0-.258.078Zm3.097-4.41a.19.19 0 0 0-.253-.078.19.19 0 0 0-.079.258l2.368 4.406a.184.184 0 0 0 .254.078.19.19 0 0 0 .078-.254Zm0 0"/><path fill="#fff" d="M9.969 6.258a.81.81 0 0 1 .816.816c0 .223-.09.43-.238.574a.815.815 0 0 1-1.395-.574.81.81 0 0 1 .816-.816m0 0"/><path fill="#fff" d="M10.633 6.953a.196.196 0 0 0-.235.137.19.19 0 0 0 .137.23l3.371.903a.19.19 0 0 0 .235-.133.19.19 0 0 0-.137-.23Zm5.406 1.453a.19.19 0 0 0-.23.133.19.19 0 0 0 .136.23l3.38.907a.19.19 0 0 0 .23-.133.19.19 0 0 0-.133-.234Zm6.336 6.367h-4.727a2.376 2.376 0 0 0 2.364 2.09c.64 0 1.222-.25 1.648-.66a2.4 2.4 0 0 0 .715-1.43m0 0"/><path fill="#fff" d="M17.445 14.398h5.133c.106 0 .188.082.188.188v.023a2.77 2.77 0 0 1-.844 1.864 2.75 2.75 0 0 1-1.91.77 2.75 2.75 0 0 1-1.91-.77 2.73 2.73 0 0 1-.844-1.88h-.004a.19.19 0 0 1 .183-.195Zm0 0"/><path fill="#fff" d="M17.277 14.496a.19.19 0 0 0 .078.258.19.19 0 0 0 .254-.078l2.36-4.399a.185.185 0 0 0-.078-.254.185.185 0 0 0-.254.079Zm3.102-4.406a.185.185 0 0 0-.254-.078.185.185 0 0 0-.078.254l2.363 4.41c.05.09.164.125.258.078a.19.19 0 0 0 .074-.258Zm0 0"/><path fill="#fff" d="M19.992 8.777a.815.815 0 1 1-.816.813c0-.45.367-.813.816-.813M11.8 20.77h6.063c.551 0 1.004.453 1.004 1.003v.813a.19.19 0 0 1-.191.187h-7.692a.19.19 0 0 1-.187-.187v-.813c0-.402.488-1.003 1.004-1.003m0 0"/></svg>