<svg xmlns="http://www.w3.org/2000/svg" width="500" height="500" version="1.2" viewBox="0 0 375 375"><defs><clipPath id="a6dca86960"><path d="M90.227 0h194.25v263.25H90.227Zm0 0"/></clipPath><clipPath id="6a8523ceaf"><path d="M95 198h189.371v65.227H95Zm0 0"/></clipPath></defs><g id="8440ed34e4"><g style="fill:#000;fill-opacity:1"><path d="M5.906-10.328v-11.766c0-.531-.008-.957-.015-1.281a12 12 0 0 0-.063-.922q-.11-1.764-1.219-2.015-.3-.075-.64-.11a7 7 0 0 0-.656-.031c-.387 0-.579-.117-.579-.36q0-.294.86-.296.686 0 1.578.047.904.035 1.75.046.855.017 1.36.016.467.001 1.234-.016.78-.01 1.625-.047.841-.046 1.53-.046.75.002.75.297 0 .361-.562.359-.439 0-1.093.094-.72.159-.985.64-.269.485-.344 1.422-.035.423-.046.922-.017.485-.016 1.281v11.766q-.001 2.625.016 4.687.012 2.052.125 3.188.06.72.343 1.187.296.471 1.094.579c.258.03.563.062.906.093q.529.047.922.047c.383 0 .578.102.578.297q-.002.362-.671.36a90 90 0 0 1-3.344-.063A85 85 0 0 0 8.063 0q-.394-.001-1.204.016-.816.01-1.718.047-.893.046-1.61.046-.72.002-.719-.359c0-.195.192-.297.579-.297q.386 0 .703-.047.326-.046.593-.094.528-.106.75-.546.217-.453.282-1.25.153-1.154.172-3.188c.007-1.351.015-2.906.015-4.656m0 0" style="stroke:none" transform="translate(20.18 301.8)"/></g><g style="fill:#000;fill-opacity:1"><path d="M5.188-8.781v-10.797q0-.622-.047-1.078-.036-.798-.328-1.125-.282-.328-1.032-.532a1.8 1.8 0 0 0-.547-.093c-.242-.008-.48-.016-.718-.016q-.533 0-.532-.328c0-.195.239-.297.72-.297q1.248 0 2.562.047 1.324.033 2 .031.716.002 2.218-.031 1.498-.047 2.938-.047c.976 0 2.031.027 3.156.078q1.7.082 3.406.39 1.717.3 3.297 1.017a9.6 9.6 0 0 1 2.875 2.015q1.202 1.188 2.094 3.11c.602 1.28.906 2.84.906 4.671q-.002 2.876-1.047 5.032-1.048 2.157-2.406 3.5-.738.72-2.125 1.562-1.376.845-3.484 1.438-2.11.592-5.016.593-.862 0-1.86-.078a56 56 0 0 0-1.921-.094Q9.359.107 8.53.047A26 26 0 0 0 7.094 0q-.253-.001-.735.016-.487.012-1.062.014-.58.046-1.14.063-.564.013-1.063.015-.61 0-.61-.328-.002-.327.5-.328.685 0 1.125-.094.497-.105.672-.515c.125-.282.211-.649.266-1.11q.093-.967.11-2.703.03-1.733.03-3.812m4.25-5.875v3.86q-.002 2.408.015 4.062.012 1.657.047 2.125.045.58.11 1.25c.05.437.132.742.25.906q.294.44 1.28.844.985.39 2.86.39c1.438 0 2.707-.148 3.813-.453 1.101-.3 2.14-.848 3.109-1.64q1.546-1.266 2.11-3.235.575-1.98.577-4.36-.002-2.918-.953-4.827-.955-1.905-2-2.813-1.44-1.295-3.015-1.922c-1.055-.414-2.078-.68-3.078-.797q-1.501-.187-2.75-.187-.47.002-1.126.062c-.43.032-.703.086-.828.157q-.39.14-.39.609a64 64 0 0 0-.031 2.484zm0 0" style="stroke:none" transform="translate(36.452 301.8)"/></g><g style="fill:#000;fill-opacity:1"><path d="M14-7.594H6.547q-.205 0-.281.219L4.578-3.281q-.27.579-.375 1.094a4.6 4.6 0 0 0-.094.78q-.002.393.266.626.264.234.984.234h.47q.292 0 .374.094.094.093.094.234-.001.328-.5.328Q5 .107 4.016.047A37 37 0 0 0 2.266 0Q2.014 0 .938.047q-1.079.06-2.344.062-.576 0-.578-.328 0-.327.359-.328.223 0 .469-.015c.168-.008.324-.016.468-.016.72-.113 1.254-.399 1.61-.86q.546-.685 1.015-1.843l8.282-19.25c.344-.82.656-1.235.937-1.235q.358 0 .516.235.17.234.422.75c.125.281.36.836.703 1.656q.514 1.22 1.25 2.953.75 1.723 1.594 3.703a2049 2049 0 0 1 1.687 3.985l1.594 3.703q.731 1.705 1.234 2.86c.407.905.774 1.589 1.11 2.046q.514.689.906.922.406.236.687.312.717.094 1.188.094.435 0 .437.328 0 .19-.234.25c-.156.051-.54.078-1.14.078q-.832-.002-2.454-.015A294 294 0 0 1 17.031.03c-.293-.023-.523-.039-.687-.062q-.251-.047-.25-.188 0-.281.39-.328a.42.42 0 0 0 .297-.219q.105-.2 0-.453l-2.453-6.156q-.082-.218-.328-.219M7.203-9.28h6.11q.215 0 .156-.188l-3-7.781a.4.4 0 0 1-.047-.172c-.012-.07-.043-.11-.094-.11-.043 0-.078.04-.11.11a1 1 0 0 1-.062.172L7.094-9.5q-.113.22.11.219m0 0" style="stroke:none" transform="translate(66.368 301.8)"/></g><g style="fill:#000;fill-opacity:1"><path d="M9.64-13.062h11.954c.125 0 .187-.07.187-.22v-.655c0-1.551-.008-2.754-.015-3.61q-.017-1.277-.016-1.969 0-.685-.047-1.14-.035-.798-.328-1.125-.28-.328-1.031-.532a1.8 1.8 0 0 0-.547-.093c-.242-.008-.469-.016-.688-.016q-.531 0-.53-.328c0-.195.226-.297.687-.297.57 0 1.172.012 1.797.031q.938.019 1.734.032.808.016 1.219.015.387 0 1.109-.015.716-.013 1.531-.032a40 40 0 0 1 1.422-.03q.687.001.688.296c0 .219-.196.328-.578.328-.22 0-.532.04-.938.11q-.609.093-.844.468-.235.362-.312 1.188-.036.456-.047 1.078a71 71 0 0 0-.016 1.828v8.969q-.001 2.079.016 3.812.012 1.737.125 2.735.076.656.312 1.078.234.41.953.515.313.034.782.063.466.033.828.031.516 0 .515.328 0 .328-.656.328Q27.36.107 25.953.047A69 69 0 0 0 23.906 0q-.363-.001-1.125.016-.75.01-1.593.047-.844.046-1.454.046-.689 0-.687-.328-.002-.327.5-.328.715 0 1.156-.094.497-.105.672-.515c.125-.282.21-.649.266-1.11q.106-.966.125-2.656c.007-1.133.015-2.398.015-3.797v-2.328q0-.187-.187-.187H9.64q-.204 0-.203.187v2.328c0 1.399.007 2.664.03 3.797.02 1.125.067 2.024.141 2.688q.078.656.313 1.078c.156.273.46.445.922.515q.312.034.781.063c.313.023.586.031.828.031q.499 0 .5.328-.001.328-.64.328-1.55-.002-3.016-.062A74 74 0 0 0 7.157 0q-.364-.001-1.079.016-.721.01-1.531.047-.797.046-1.453.046-.61 0-.61-.328-.002-.327.5-.328.685 0 1.125-.094.497-.105.672-.515c.125-.282.211-.649.266-1.11q.093-.967.11-2.703.03-1.733.03-3.812v-10.797q0-.622-.046-1.078-.036-.798-.328-1.125-.282-.328-1.032-.532a1.8 1.8 0 0 0-.547-.093c-.242-.008-.48-.016-.718-.016q-.533 0-.532-.328c0-.195.223-.297.672-.297q1.266 0 2.625.047c.914.023 1.594.031 2.032.031.257 0 .64-.004 1.14-.015q.764-.013 1.61-.032.843-.03 1.453-.03.656.001.656.296-.002.328-.578.328c-.242 0-.543.04-.906.11q-.644.093-.876.468-.235.362-.312 1.188-.035.455-.047 1.14-.017.692-.015 1.97v4.265q-.001.22.203.219m0 0" style="stroke:none" transform="translate(89.12 301.8)"/></g><g style="fill:#000;fill-opacity:1"><path d="M14.688.5Q11.23.5 8.766-.578 6.294-1.656 4.75-3.438q-1.548-1.78-2.281-3.89-.736-2.108-.735-4.156-.002-1.936.735-4.047.732-2.108 2.297-3.906 1.577-1.794 4.109-2.907 2.531-1.125 6.14-1.125c2.665 0 4.97.469 6.907 1.407q2.919 1.407 4.484 3.968 1.561 2.548 1.563 6.063-.001 3.503-1.625 6.344-1.613 2.846-4.578 4.515Q18.796.502 14.688.5m1.296-1.656q.686.002 1.594-.172a6.6 6.6 0 0 0 1.906-.734q.998-.563 1.86-1.641.874-1.077 1.39-2.828.516-1.748.516-4.375 0-3.389-1.219-5.828-1.22-2.45-3.312-3.782-2.099-1.342-4.64-1.343-1.33 0-2.688.422-1.348.41-2.485 1.453-1.126 1.05-1.812 2.89-.69 1.83-.688 4.672-.002 3.142 1.157 5.703 1.153 2.55 3.296 4.063 2.138 1.5 5.125 1.5m0 0" style="stroke:none" transform="translate(120.332 301.8)"/></g><g style="fill:#000;fill-opacity:1"><path d="M10.406-16.672v6.344q-.002 3.457.078 5.344.094 1.892.672 2.39.47.394 1.36.594.901.204 3 .203 1.436 0 2.484-.14 1.043-.154 1.734-.875.312-.357.594-1c.195-.438.305-.82.328-1.157q.077-.546.407-.547c.187 0 .28.211.28.625q-.001.177-.077.985a31 31 0 0 1-.188 1.719 14 14 0 0 1-.265 1.437c-.106.375-.278.633-.516.766-.242.132-.824.203-1.75.203q-1.956 0-3.406-.047L12.453.109a41 41 0 0 0-2.25-.093C9.523.004 8.813 0 8.063 0h-.844q-.564-.002-1.203.031c-.407 0-.836.008-1.282.032Q4.06.109 3.531.109q-.72.002-.719-.359c0-.195.192-.297.579-.297q.386 0 .703-.047.326-.046.593-.094.53-.106.72-.64.2-.544.312-1.328.153-1.156.172-3.172c.007-1.344.015-2.844.015-4.5v-11.766c0-.531-.008-.957-.015-1.281a12 12 0 0 0-.063-.922q-.034-.938-.344-1.406-.3-.469-1.203-.656c-.281-.063-.68-.094-1.187-.094q-.61 0-.61-.328t.797-.328q1.249.002 2.719.062A77 77 0 0 0 8.203-27q.437.001 1.328-.016a84 84 0 0 0 1.89-.047 37 37 0 0 1 1.688-.046q.75 0 .75.328 0 .327-.64.328c-.2 0-.434.008-.703.015q-.393.02-.703.079-.72.159-1 .64-.269.485-.344 1.422-.036.423-.047.922-.017.485-.016 1.281zm0 0" style="stroke:none" transform="translate(160.904 301.8)"/></g><g style="fill:#000;fill-opacity:1"><path d="M5.188-8.781v-10.797q0-.622-.047-1.078-.036-.798-.328-1.125-.282-.328-1.032-.532a1.8 1.8 0 0 0-.547-.093c-.242-.008-.48-.016-.718-.016q-.533 0-.532-.328c0-.195.239-.297.72-.297q1.248 0 2.562.047 1.324.033 2 .031h8.64q.434-.03.797-.078.358-.058.547-.094c.094-.03.18-.062.266-.093a.55.55 0 0 1 .234-.063c.145 0 .219.102.219.297q0 .142-.094.547c-.062.262-.117.734-.156 1.422q0 .158-.047.593c-.024.282-.047.563-.078.844a8 8 0 0 1-.063.578q-.033.113-.11.313-.062.204-.25.203-.25.002-.25-.406a4 4 0 0 0-.046-.516 1.5 1.5 0 0 0-.172-.594 2 2 0 0 0-.547-.703q-.363-.311-1.547-.406-.204-.045-.89-.062-.69-.013-1.563-.032a135 135 0 0 1-1.562-.031q-.691-.03-.953-.031-.204.002-.203.297v7.562q-.001.315.203.313h2.781c.625 0 1.195-.004 1.719-.016q.795-.012 1.047-.047.573-.076.937-.14.357-.076.578-.329.188-.186.281-.296c.07-.07.145-.11.22-.11.163 0 .25.11.25.328q0 .14-.048.61-.048.469-.203 1.625-.035.468-.094 1.172-.046.703-.047.874-.002.19-.062.438-.047.251-.266.25-.28.001-.28-.25a4 4 0 0 1-.032-.531q0-.295-.078-.578a1.75 1.75 0 0 0-.5-.797q-.363-.328-1.266-.39-.222-.047-.906-.063-.675-.013-1.5-.032c-.555-.007-1.07-.02-1.547-.03q-.721-.031-1.016-.032c-.117 0-.171.11-.171.328v6.984q.06 1.548.953 2.063c.601.336 1.71.5 3.328.5q.607.002 1.484-.078.891-.076 1.5-.328 1.044-.469 1.375-2.266.107-.468.36-.469.17 0 .218.235c.04.156.063.32.063.484q-.002.329-.078 1.031c-.043.469-.094.93-.157 1.375a6.3 6.3 0 0 1-.203.985q-.14.578-.468.687c-.211.07-.618.11-1.22.11-2.323 0-4.265-.04-5.827-.11A78 78 0 0 0 8.703.016 81 81 0 0 0 7.093 0q-.252-.001-.734.016-.487.012-1.062.014-.58.046-1.14.063-.564.013-1.063.015-.61 0-.61-.328-.002-.327.5-.328.685 0 1.125-.094.497-.105.672-.515c.125-.282.211-.649.266-1.11q.093-.967.11-2.703.03-1.733.03-3.812m0 0" style="stroke:none" transform="translate(182.684 301.8)"/></g><g style="fill:#000;fill-opacity:1"><path d="M24.516-5.328v3.39c0 .407-.024.657-.063.75q-.046.141-.328.329-1.595.783-3.734 1.062A30 30 0 0 1 16.375.5a22.7 22.7 0 0 1-5.562-.672Q8.17-.859 6.14-2.312a10.55 10.55 0 0 1-3.22-3.735q-1.187-2.262-1.187-5.437-.001-2.45.766-4.391.78-1.935 2.047-3.36 1.277-1.418 2.719-2.25 2.279-1.34 4.422-1.656a27 27 0 0 1 4.109-.328q1.125 0 2.297.094 1.17.081 2.078.203.92.128 1.25.203.498.082 1.219.188.715.094 1.297.14c.289.024.437.141.437.36q-.002.175-.062.625-.049.456-.11 1.468a68 68 0 0 0-.047 2.938q-.002.689-.437.688-.253 0-.313-.391a6 6 0 0 0-.265-1.188q-.206-.684-.828-1.328-.674-.733-2.438-1.531c-1.18-.54-2.656-.812-4.437-.812q-1.3 0-2.876.234c-1.054.156-2.132.68-3.234 1.562q-1.346 1.079-2.14 2.86-.784 1.78-.782 4.593-.002 3.282 1.344 5.86a10.2 10.2 0 0 0 3.828 4.047q2.468 1.47 5.844 1.469c.406 0 .781-.008 1.125-.032a3.6 3.6 0 0 0 1.11-.297q.609-.28.609-1.078v-4.828c0-.594-.012-1.117-.032-1.578-.023-.531-.132-.898-.328-1.11-.187-.218-.539-.398-1.047-.546q-.175-.076-.53-.094-.363-.014-.688-.016-.502 0-.5-.328-.002-.28.672-.281.825.002 1.78.016.966.017 1.798.046.826.017 1.297.016.75.002 1.828-.031a44 44 0 0 1 1.875-.047q.639 0 .64.281c0 .219-.133.328-.39.328-.22 0-.508.04-.86.11q-.657.11-.922.469c-.18.242-.28.636-.312 1.187-.024.46-.031.996-.031 1.61zm0 0" style="stroke:none" transform="translate(203.42 301.8)"/></g><g style="fill:#000;fill-opacity:1"><path d="M14-7.594H6.547q-.205 0-.281.219L4.578-3.281q-.27.579-.375 1.094a4.6 4.6 0 0 0-.094.78q-.002.393.266.626.264.234.984.234h.47q.292 0 .374.094.094.093.094.234-.001.328-.5.328Q5 .107 4.016.047A37 37 0 0 0 2.266 0Q2.014 0 .938.047q-1.079.06-2.344.062-.576 0-.578-.328 0-.327.359-.328.223 0 .469-.015c.168-.008.324-.016.468-.016.72-.113 1.254-.399 1.61-.86q.546-.685 1.015-1.843l8.282-19.25c.344-.82.656-1.235.937-1.235q.358 0 .516.235.17.234.422.75c.125.281.36.836.703 1.656q.514 1.22 1.25 2.953.75 1.723 1.594 3.703a2049 2049 0 0 1 1.687 3.985l1.594 3.703q.731 1.705 1.234 2.86c.407.905.774 1.589 1.11 2.046q.514.689.906.922.406.236.687.312.717.094 1.188.094.435 0 .437.328 0 .19-.234.25c-.156.051-.54.078-1.14.078q-.832-.002-2.454-.015A294 294 0 0 1 17.031.03c-.293-.023-.523-.039-.687-.062q-.251-.047-.25-.188 0-.281.39-.328a.42.42 0 0 0 .297-.219q.105-.2 0-.453l-2.453-6.156q-.082-.218-.328-.219M7.203-9.28h6.11q.215 0 .156-.188l-3-7.781a.4.4 0 0 1-.047-.172c-.012-.07-.043-.11-.094-.11-.043 0-.078.04-.11.11a1 1 0 0 1-.062.172L7.094-9.5q-.113.22.11.219m0 0" style="stroke:none" transform="translate(231.608 301.8)"/></g><g style="fill:#000;fill-opacity:1"><path d="M9.438-14.187v5.406c0 1.969.023 3.465.078 4.484.062 1.024.257 1.672.593 1.953q.406.363 1.391.516.984.14 2.828.14c.844 0 1.57-.039 2.188-.125q.937-.123 1.515-.75c.196-.187.375-.46.532-.828q.232-.561.265-1 .077-.468.36-.468.188.002.234.203.047.19.047.484-.002.174-.078.86-.063.69-.157 1.453-.08.75-.218 1.218-.159.504-.47.657-.297.17-1.562.172c-2.199 0-4.093-.04-5.687-.11A80 80 0 0 0 9.078.016Q8.06-.001 7.094 0q-.253-.001-.735.016-.487.012-1.062.014-.58.046-1.14.063-.564.013-1.063.015-.61 0-.61-.328-.002-.327.5-.328.685 0 1.125-.094.497-.105.672-.515c.125-.282.211-.649.266-1.11q.093-.967.11-2.703.03-1.733.03-3.812v-10.797q0-.622-.046-1.078-.036-.798-.328-1.125-.282-.328-1.032-.532-.362-.107-1.047-.109-.531 0-.53-.328c0-.195.222-.297.671-.297q1.123 0 2.422.047 1.294.033 1.937.031a62 62 0 0 0 1.235-.015c.57-.008 1.172-.02 1.797-.032a52 52 0 0 1 1.547-.03q.67.001.671.296 0 .328-.562.328c-.18 0-.383.008-.61.016-.218.011-.43.043-.624.093q-.644.095-.876.47-.235.361-.312 1.187-.035.456-.047 1.078a71 71 0 0 0-.015 1.828zm0 0" style="stroke:none" transform="translate(254.36 301.8)"/></g><g style="fill:#000;fill-opacity:1"><path d="M15.375-9.281H7.344q-.223 0-.328.281L5.078-3.86q-.253.691-.406 1.282-.14.595-.14.922-.001.468.296.797.31.314 1.14.312h.548c.363 0 .547.102.547.297q-.002.362-.625.36C5.863.11 5.223.086 4.516.047Q3.45 0 2.625 0q-.282 0-1.562.047-1.282.06-2.688.062c-.445 0-.672-.117-.672-.359 0-.195.14-.297.422-.297q.252 0 .578-.015.329-.012.547-.047Q.498-.796 1.125-1.656q.638-.855 1.172-2.203l9.047-22.594q.31-.796.531-1.125.217-.328.469-.328.404 0 .906 1.156.218.504.781 1.922.576 1.424 1.39 3.469c.54 1.355 1.126 2.812 1.75 4.375l1.876 4.656a453 453 0 0 1 1.734 4.344q.81 2.015 1.39 3.375.687 1.629 1.267 2.437c.382.531.738.899 1.062 1.094.32.187.602.32.844.39q.388.081.781.11.406.033.734.031c.313 0 .47.102.47.297q0 .222-.329.281-.33.077-1.328.078-.973-.002-2.813-.015a333 333 0 0 1-4-.063c-.312-.023-.574-.039-.78-.062q-.299-.045-.298-.219-.002-.293.5-.328.188-.06.328-.281.141-.218 0-.547l-2.875-7.625q-.112-.248-.359-.25m-7.312-1.813h6.624q.247.001.188-.203l-3.25-8.906q-.033-.093-.078-.203c-.024-.07-.055-.11-.094-.11q-.159.001-.219.313l-3.312 8.86q-.082.25.14.25m0 0" style="stroke:none" transform="translate(285.032 301.8)"/></g><g style="fill:#000;fill-opacity:1"><path d="M5.188-8.781v-10.797q0-.622-.047-1.078-.035-.797-.297-1.14c-.18-.227-.438-.392-.782-.485-.312-.094-.695-.14-1.14-.14q-.516.002-.516-.36-.001-.265.766-.266.608.001 1.422.031.809.019 1.593.032.797.016 1.235.015.387 0 1.125-.015.733-.013 1.531-.032.797-.03 1.406-.03.64 0 .641.265-.001.361-.5.36-.393.002-.937.108-.644.095-.876.47-.235.361-.312 1.187-.035.456-.047 1.078a71 71 0 0 0-.015 1.828v8.969q-.002 2.19.015 3.953.012 1.769.125 2.734.06.627.313.985.262.363.953.468.312.034.781.063c.313.023.586.031.828.031q.499 0 .5.328 0 .328-.61.328a74 74 0 0 1-3-.062A74 74 0 0 0 7.235 0q-.362-.001-1.093.016a59 59 0 0 0-1.563.047 27 27 0 0 1-1.484.046q-.61 0-.61-.328-.002-.327.5-.328.685 0 1.125-.094.497-.106.672-.453.186-.34.266-1.031c.062-.625.098-1.523.11-2.703q.03-1.763.03-3.953m0 0" style="stroke:none" transform="translate(310.232 301.8)"/></g><g style="fill:#000;fill-opacity:1"><path d="M5.188-8.781v-10.797q0-.622-.047-1.078-.036-.798-.328-1.125-.282-.328-1.032-.532a1.8 1.8 0 0 0-.547-.093c-.242-.008-.48-.016-.718-.016q-.533 0-.532-.328c0-.195.239-.297.72-.297q1.248 0 2.562.047 1.324.033 2 .031.716.002 2.218-.031 1.498-.047 2.938-.047c.976 0 2.031.027 3.156.078q1.7.082 3.406.39 1.717.3 3.297 1.017a9.6 9.6 0 0 1 2.875 2.015q1.202 1.188 2.094 3.11c.602 1.28.906 2.84.906 4.671q-.002 2.876-1.047 5.032-1.048 2.157-2.406 3.5-.738.72-2.125 1.562-1.376.845-3.484 1.438-2.11.592-5.016.593-.862 0-1.86-.078a56 56 0 0 0-1.921-.094Q9.359.107 8.53.047A26 26 0 0 0 7.094 0q-.253-.001-.735.016-.487.012-1.062.014-.58.046-1.14.063-.564.013-1.063.015-.61 0-.61-.328-.002-.327.5-.328.685 0 1.125-.094.497-.105.672-.515c.125-.282.211-.649.266-1.11q.093-.967.11-2.703.03-1.733.03-3.812m4.25-5.875v3.86q-.002 2.408.015 4.062.012 1.657.047 2.125.045.58.11 1.25c.05.437.132.742.25.906q.294.44 1.28.844.985.39 2.86.39c1.438 0 2.707-.148 3.813-.453 1.101-.3 2.14-.848 3.109-1.64q1.546-1.266 2.11-3.235.575-1.98.577-4.36-.002-2.918-.953-4.827-.955-1.905-2-2.813-1.44-1.295-3.015-1.922c-1.055-.414-2.078-.68-3.078-.797q-1.501-.187-2.75-.187-.47.002-1.126.062c-.43.032-.703.086-.828.157q-.39.14-.39.609a64 64 0 0 0-.031 2.484zm0 0" style="stroke:none" transform="translate(324.884 301.8)"/></g><g style="fill:#000;fill-opacity:1"><path d="M9.188.61Q7.622.608 6.344.39a9.7 9.7 0 0 1-2.422-.718q-.439-.17-.563-.406-.127-.234-.125-.813-.002-1.481.079-2.875.074-1.404.109-1.844.03-.386.125-.656.092-.28.312-.281c.164 0 .266.07.297.203q.062.206.063.406c0 .242.023.532.078.875q.093.503.234.969c.407 1.324 1.086 2.262 2.047 2.813a6.15 6.15 0 0 0 3.11.828q1.607.001 2.687-.625 1.092-.639 1.61-1.594c.35-.633.53-1.266.53-1.89q-.001-.904-.265-1.766c-.168-.57-.508-1.188-1.016-1.844q-.75-.996-2.25-2.156l-1.656-1.297q-2.955-2.325-4.14-4.328-1.189-2-1.188-4.203 0-1.967 1.031-3.5 1.045-1.528 2.922-2.407 1.875-.89 4.36-.89 1.764.001 2.937.218 1.171.205 1.844.391.515.11.515.438 0 .362-.078 1.28-.08.91-.078 3.032c0 .719-.133 1.078-.39 1.078-.243 0-.36-.21-.36-.64q0-.248-.187-.97-.177-.732-.75-1.405-.392-.515-1.282-1.141-.878-.623-2.64-.625-1.986.002-3.14 1.047-1.143 1.032-1.142 2.656-.002 1.221.782 2.36.795 1.141 3.031 2.828l1.016.75q2.186 1.628 3.468 3.093c.852.969 1.47 1.938 1.844 2.906q.576 1.455.578 3.188-.002 1.547-.718 3.281c-.481 1.149-1.368 2.14-2.657 2.985A8.1 8.1 0 0 1 12.094.297q-1.471.311-2.906.312m0 0" style="stroke:none" transform="translate(102.727 337.8)"/></g><g style="fill:#000;fill-opacity:1"><path d="M5.188-8.781v-10.797q0-.622-.047-1.078-.036-.798-.328-1.125-.282-.328-1.032-.532a1.8 1.8 0 0 0-.547-.093c-.242-.008-.48-.016-.718-.016q-.533 0-.532-.328c0-.195.239-.297.72-.297q1.248 0 2.562.047 1.324.033 2 .031h8.64q.434-.03.797-.078.358-.058.547-.094c.094-.03.18-.062.266-.093a.55.55 0 0 1 .234-.063c.145 0 .219.102.219.297q0 .142-.094.547c-.062.262-.117.734-.156 1.422q0 .158-.047.593c-.024.282-.047.563-.078.844a8 8 0 0 1-.063.578q-.033.113-.11.313-.062.204-.25.203-.25.002-.25-.406a4 4 0 0 0-.046-.516 1.5 1.5 0 0 0-.172-.594 2 2 0 0 0-.547-.703q-.363-.311-1.547-.406-.204-.045-.89-.062-.69-.013-1.563-.032a135 135 0 0 1-1.562-.031q-.691-.03-.953-.031-.204.002-.203.297v7.562q-.001.315.203.313h2.781c.625 0 1.195-.004 1.719-.016q.795-.012 1.047-.047.573-.076.937-.14.357-.076.578-.329.188-.186.281-.296c.07-.07.145-.11.22-.11.163 0 .25.11.25.328q0 .14-.048.61-.048.469-.203 1.625-.035.468-.094 1.172-.046.703-.047.874-.002.19-.062.438-.047.251-.266.25-.28.001-.28-.25a4 4 0 0 1-.032-.531q0-.295-.078-.578a1.75 1.75 0 0 0-.5-.797q-.363-.328-1.266-.39-.222-.047-.906-.063-.675-.013-1.5-.032c-.555-.007-1.07-.02-1.547-.03q-.721-.031-1.016-.032c-.117 0-.171.11-.171.328v6.984q.06 1.548.953 2.063c.601.336 1.71.5 3.328.5q.607.002 1.484-.078.891-.076 1.5-.328 1.044-.469 1.375-2.266.107-.468.36-.469.17 0 .218.235c.04.156.063.32.063.484q-.002.329-.078 1.031c-.043.469-.094.93-.157 1.375a6.3 6.3 0 0 1-.203.985q-.14.578-.468.687c-.211.07-.618.11-1.22.11-2.323 0-4.265-.04-5.827-.11A78 78 0 0 0 8.703.016 81 81 0 0 0 7.093 0q-.252-.001-.734.016-.487.012-1.062.014-.58.046-1.14.063-.564.013-1.063.015-.61 0-.61-.328-.002-.327.5-.328.685 0 1.125-.094.497-.105.672-.515c.125-.282.211-.649.266-1.11q.093-.967.11-2.703.03-1.733.03-3.812m0 0" style="stroke:none" transform="translate(123.679 337.8)"/></g><g style="fill:#000;fill-opacity:1"><path d="M5.188-8.781v-10.797q0-.622-.047-1.078-.036-.798-.328-1.125-.282-.328-1.032-.532a1.8 1.8 0 0 0-.547-.093c-.242-.008-.48-.016-.718-.016q-.533 0-.532-.328c0-.195.239-.297.72-.297q1.246 0 2.546.047 1.296.033 1.766.031.546 0 1.53-.015.997-.013 1.97-.032a54 54 0 0 1 1.437-.03q1.512 0 3.125.233 1.624.236 2.89 1.063.669.47 1.454 1.578.78 1.095.781 2.64 0 1.69-1.031 3.298-1.032 1.593-3.375 3.468l3.812 4.657q1.7 2.05 3.141 3.484c.883.887 1.61 1.434 2.172 1.64q.855.3 1.219.376.247.035.406.046.168.017.344.016c.257 0 .39.11.39.328q0 .328-.61.328h-3.015c-.898 0-1.593-.046-2.093-.14a5.2 5.2 0 0 1-1.36-.469c-.68-.344-1.351-.883-2.015-1.625A45 45 0 0 1 15.875-5a72 72 0 0 1-1.219-1.703c-.406-.594-.765-1.117-1.078-1.578q-.47-.685-.687-.906a.83.83 0 0 0-.578-.204l-2.844-.078c-.168 0-.25.086-.25.25v.438q-.002 2.127.031 3.844.03 1.705.14 2.671.076.69.297 1.11.218.41.938.515.357.034.797.063.45.033.75.031.389 0 .39.328 0 .328-.64.328-.909 0-1.969-.046Q8.888.027 8.063.016A59 59 0 0 0 6.984 0q-.282-.001-.968.016c-.461.007-.953.023-1.485.047q-.783.046-1.437.046-.61 0-.61-.328-.002-.327.5-.328.685 0 1.125-.094.497-.105.672-.515c.125-.282.211-.649.266-1.11q.093-.967.11-2.703.03-1.733.03-3.812m4.03-12.14v9.109q0 .408.282.546.515.141 1.172.22.668.063 1.25.062.937 0 1.375-.11c.3-.07.582-.203.844-.39q.733-.5 1.39-1.578.67-1.08.672-2.954-.002-2.167-.812-3.328-.816-1.172-1.953-1.64-1.125-.47-2.063-.47c-.387 0-.758.009-1.11.017q-.516.017-.765.093-.28.111-.281.422m0 0" style="stroke:none" transform="translate(144.415 337.8)"/></g><g style="fill:#000;fill-opacity:1"><path d="M10.188-1.328 2.202-20.047q-.549-1.264-1.015-1.656-.471-.405-1.329-.61a4.5 4.5 0 0 0-.703-.093c-.226-.008-.406-.016-.531-.016q-.359 0-.36-.328c0-.195.266-.297.798-.297q1.264 0 2.515.047 1.265.033 2.094.031c.406 0 .976-.008 1.719-.031q1.124-.047 2.312-.047c.188 0 .36.024.516.063q.234.046.234.234-.001.328-.5.328-.363.001-.703.031c-.23.024-.402.078-.516.172a.71.71 0 0 0-.328.625q0 .282.188.875.201.597.531 1.422l5.328 13.719h.11q.386-.937 1.078-2.547a605 605 0 0 0 1.468-3.516c.532-1.257 1.04-2.5 1.532-3.718q.749-1.842 1.328-3.25.575-1.407.781-2.016.107-.292.203-.61.094-.327.094-.515c0-.258-.149-.437-.438-.531a3.2 3.2 0 0 0-.609-.11 8 8 0 0 0-.64-.03c-.368 0-.547-.11-.547-.329 0-.195.3-.297.906-.297q1.185 0 2.14.047.951.033 1.235.031.389.002 1.328-.031a34 34 0 0 1 1.656-.047c.438 0 .656.102.656.297q-.001.328-.5.328-.269.001-.718.031-.44.036-.828.328-.299.204-.672.72-.375.502-.985 1.968a72 72 0 0 1-1.187 2.625q-.549 1.16-1.157 2.484-.61 1.314-1.484 3.172-1.502 3.361-2.594 5.797A257 257 0 0 1 13-1.734q-.58 1.348-.89 1.78-.3.454-.627.454c-.218 0-.414-.125-.578-.375q-.25-.375-.719-1.453m0 0" style="stroke:none" transform="translate(169.11 337.8)"/></g><g style="fill:#000;fill-opacity:1"><path d="M5.188-8.781v-10.797q0-.622-.047-1.078-.035-.797-.297-1.14c-.18-.227-.438-.392-.782-.485-.312-.094-.695-.14-1.14-.14q-.516.002-.516-.36-.001-.265.766-.266.608.001 1.422.031.809.019 1.593.032.797.016 1.235.015.387 0 1.125-.015.733-.013 1.531-.032.797-.03 1.406-.03.64 0 .641.265-.001.361-.5.36-.393.002-.937.108-.644.095-.876.47-.235.361-.312 1.187-.035.456-.047 1.078a71 71 0 0 0-.015 1.828v8.969q-.002 2.19.015 3.953.012 1.769.125 2.734.06.627.313.985.262.363.953.468.312.034.781.063c.313.023.586.031.828.031q.499 0 .5.328 0 .328-.61.328a74 74 0 0 1-3-.062A74 74 0 0 0 7.235 0q-.362-.001-1.093.016a59 59 0 0 0-1.563.047 27 27 0 0 1-1.484.046q-.61 0-.61-.328-.002-.327.5-.328.685 0 1.125-.094.497-.106.672-.453.186-.34.266-1.031c.062-.625.098-1.523.11-2.703q.03-1.763.03-3.953m0 0" style="stroke:none" transform="translate(192.043 337.8)"/></g><g style="fill:#000;fill-opacity:1"><path d="M16.563.5q-3.253 0-5.985-.75a13 13 0 0 1-4.89-2.562Q4.14-4.136 3.266-5.672a11 11 0 0 1-1.203-3.11 15 15 0 0 1-.329-3.062q0-1.043.297-2.484.31-1.436 1.094-3 .795-1.576 2.313-2.906 1.717-1.513 4.109-2.375c1.601-.57 3.582-.86 5.937-.86q1.467 0 2.5.094 1.032.082 2.11.234a95 95 0 0 1 1.687.282q.797.141 1.469.218c.313.024.469.141.469.36q-.001.176-.032.515-.034.345-.109 1.172c-.023.5-.039 1.102-.047 1.797q-.016 1.048-.062 1.516-.065.75-.422.75-.328.002-.328-.64a4.8 4.8 0 0 0-.328-1.485 3.44 3.44 0 0 0-.907-1.36q-.784-.793-2.359-1.297-1.564-.499-3.75-.5c-1.398 0-2.562.133-3.5.391a6.3 6.3 0 0 0-2.484 1.328q-1.77 1.517-2.344 3.625a16.8 16.8 0 0 0-.563 4.344q-.001 2.735.907 4.75.919 2.017 2.406 3.344 1.5 1.329 3.234 1.984c1.156.43 2.258.64 3.313.64q2.122 0 3.406-.28 1.278-.295 2.203-1.344.405-.452.703-1.031.31-.575.39-1.016.093-.61.392-.61.17 0 .265.188a.75.75 0 0 1 .094.36c0 .117-.04.437-.11.968a101 101 0 0 1-.25 1.672q-.14.878-.328 1.422-.112.393-.265.562-.159.158-.563.329-.938.374-2.562.53A34 34 0 0 1 16.562.5m0 0" style="stroke:none" transform="translate(206.695 337.8)"/></g><g style="fill:#000;fill-opacity:1"><path d="M5.188-8.781v-10.797q0-.622-.047-1.078-.036-.798-.328-1.125-.282-.328-1.032-.532a1.8 1.8 0 0 0-.547-.093c-.242-.008-.48-.016-.718-.016q-.533 0-.532-.328c0-.195.239-.297.72-.297q1.248 0 2.562.047 1.324.033 2 .031h8.64q.434-.03.797-.078.358-.058.547-.094c.094-.03.18-.062.266-.093a.55.55 0 0 1 .234-.063c.145 0 .219.102.219.297q0 .142-.094.547c-.062.262-.117.734-.156 1.422q0 .158-.047.593c-.024.282-.047.563-.078.844a8 8 0 0 1-.063.578q-.033.113-.11.313-.062.204-.25.203-.25.002-.25-.406a4 4 0 0 0-.046-.516 1.5 1.5 0 0 0-.172-.594 2 2 0 0 0-.547-.703q-.363-.311-1.547-.406-.204-.045-.89-.062-.69-.013-1.563-.032a135 135 0 0 1-1.562-.031q-.691-.03-.953-.031-.204.002-.203.297v7.562q-.001.315.203.313h2.781c.625 0 1.195-.004 1.719-.016q.795-.012 1.047-.047.573-.076.937-.14.357-.076.578-.329.188-.186.281-.296c.07-.07.145-.11.22-.11.163 0 .25.11.25.328q0 .14-.048.61-.048.469-.203 1.625-.035.468-.094 1.172-.046.703-.047.874-.002.19-.062.438-.047.251-.266.25-.28.001-.28-.25a4 4 0 0 1-.032-.531q0-.295-.078-.578a1.75 1.75 0 0 0-.5-.797q-.363-.328-1.266-.39-.222-.047-.906-.063-.675-.013-1.5-.032c-.555-.007-1.07-.02-1.547-.03q-.721-.031-1.016-.032c-.117 0-.171.11-.171.328v6.984q.06 1.548.953 2.063c.601.336 1.71.5 3.328.5q.607.002 1.484-.078.891-.076 1.5-.328 1.044-.469 1.375-2.266.107-.468.36-.469.17 0 .218.235c.04.156.063.32.063.484q-.002.329-.078 1.031c-.043.469-.094.93-.157 1.375a6.3 6.3 0 0 1-.203.985q-.14.578-.468.687c-.211.07-.618.11-1.22.11-2.323 0-4.265-.04-5.827-.11A78 78 0 0 0 8.703.016 81 81 0 0 0 7.093 0q-.252-.001-.734.016-.487.012-1.062.014-.58.046-1.14.063-.564.013-1.063.015-.61 0-.61-.328-.002-.327.5-.328.685 0 1.125-.094.497-.105.672-.515c.125-.282.211-.649.266-1.11q.093-.967.11-2.703.03-1.733.03-3.812m0 0" style="stroke:none" transform="translate(232.075 337.8)"/></g><g style="fill:#000;fill-opacity:1"><path d="M8.61.5C7.69.5 6.772.445 5.86.344Q4.497.186 3.452-.281c-.242-.125-.402-.242-.484-.36-.086-.125-.125-.351-.125-.687q0-1.266.062-2.484.078-1.23.125-1.594 0-.781.39-.782.218.002.267.157.06.157.062.343 0 .722.281 1.579.359 1.127 1.172 1.797.811.657 1.844.953a7.8 7.8 0 0 0 2.031.28q2.046 0 3.219-1.124 1.172-1.137 1.172-2.766-.002-.686-.203-1.343-.207-.669-.875-1.407-.656-.731-2.063-1.562L8.5-10.375q-2.813-1.652-3.89-3.281-1.08-1.641-1.079-3.656 0-1.875 1.078-3.25c.72-.926 1.68-1.641 2.891-2.141 1.219-.508 2.555-.766 4.016-.766q1.546.001 2.718.172 1.172.159 1.782.328.435.11.437.39-.002.298-.062 1.095-.048.784-.047 2.578c0 .656-.133.984-.39.984q-.33.002-.329-.547-.001-.218-.172-.828-.158-.608-.656-1.187-.363-.434-1.172-.938-.813-.499-2.36-.5-1.686 0-3 .844-1.311.844-1.312 2.437-.001.675.25 1.297.247.612.969 1.282.716.655 2.125 1.453l1.297.718q3.124 1.723 4.297 3.532 1.171 1.8 1.172 3.875c0 1.136-.243 2.172-.72 3.109Q15.625-1.98 13.892-.75 12.777.033 11.313.266 9.857.5 8.609.5m0 0" style="stroke:none" transform="translate(252.81 337.8)"/></g><g style="fill:#000;fill-opacity:1"><path d="M-.281-3.812a.7.7 0 0 1-.031-.172.6.6 0 0 1-.016-.125q0-.312.078-.547.083-.234.234-.39.047-.03.204-.11l.421-.188q.187-.093.297-.203a.4.4 0 0 0 .125-.297q.029-.138.11-.312.091-.187.218-.39.03-.061.22-.673.199-.607.562-1.812.094-.358.187-.61.106-.264.172-.453.31-.825.516-1.094c.132-.175.234-.316.297-.421v-.047l-.297-.485.375-.437.484-.094q.153-.03.266-.281.122-.247.437-.547.062-.03.203-.125c.102-.07.235-.172.39-.297q.202-.152.345-.234a.6.6 0 0 1 .234-.078q.263.002.375.109.124.094.125.281 0 .204-.234.625-.222.41-.22.625 0 .096.048.156.045.065.11.079l1.171.64c.063.024.117.125.172.313q.077.268.125.734.058.393.094.656.03.253.03.407-.063.42-.14.843c.07.368.145.75.219 1.157A98 98 0 0 0 7.5-6.437q-.001.063.016.109.03.035.078.047a.42.42 0 0 1 .25.093.26.26 0 0 1 .093.204.6.6 0 0 1-.062.297.4.4 0 0 1-.156.156 3 3 0 0 0-.203.14.4.4 0 0 0-.094.094l.125.594-.172 1.39c0 .118-.012.266-.031.454q-.036.268-.094.625a5 5 0 0 0-.14.453 1.2 1.2 0 0 0-.048.234q.048.158.094.344-.066.268-.125.531l-.125.516q-.111.34-.281.5a.56.56 0 0 1-.406.172.21.21 0 0 1-.203-.125.7.7 0 0 1-.063-.328q-.002-.106.031-.282.047-.186.047-.297A1 1 0 0 0 6-.687a2 2 0 0 1-.016-.22q0-.262.047-.859.062-.608.063-.906L6-3.016q.03-.187.031-.375a3 3 0 0 0 0-.359l.14-.266-.124-.906-.063-.031a.6.6 0 0 0-.187.047 2 2 0 0 0-.266.14c-.086.024-.21.047-.375.079a4.4 4.4 0 0 1-.656.062q-.176.081-.328.156-.223.048-.563.172-.345.11-.796.297-.269.128-.485.203a1.3 1.3 0 0 1-.36.063.25.25 0 0 0-.202.093.55.55 0 0 0-.125.25q-.035.157-.141.438-.11.269-.297.672-.048.11-.11.344l-.155.546q-.064.13-.141.329-.08.19-.172.437-.001.111-.031.281Q.578-.17.53.063a4 4 0 0 1-.14.343q-.08.2-.202.469a.47.47 0 0 1-.22.219.9.9 0 0 1-.39.078.3.3 0 0 1-.25-.11Q-.766.953-.766.72c0-.18.024-.375.063-.594q.048-.327.172-.719.141-.513.234-.828.096-.328.11-.484.034-.059.093-.235.048-.187.14-.437.076-.246.157-.563l-.047-.078-.312.047c-.07 0-.125-.023-.156-.078a.4.4 0 0 1-.047-.203q.001-.075.015-.156.017-.076.063-.203M3.266-5.61q.216 0 .656-.11c.289-.07.515-.11.672-.11q.138.035.265.063c.164-.039.329-.082.485-.125.156-.039.316-.078.484-.109a.24.24 0 0 0 .14-.062.25.25 0 0 0 .048-.157 5 5 0 0 1 0-.797q.03-.233.078-.484l-.11-.437.032-.407q-.035-.217-.063-.406a.7.7 0 0 1 0-.312 1 1 0 0 1-.078-.126 2 2 0 0 0-.11-.187 3 3 0 0 0-.202-.312q-.094-.154-.188-.313a.9.9 0 0 0-.297-.266.64.64 0 0 0-.328-.093c-.125 0-.258.105-.39.312q-.205.317-.391.938a1.5 1.5 0 0 1-.156.328q-.129.253-.376.64c-.023.243-.109.547-.265.922q-.222.549-.625 1.297a.4.4 0 0 0-.063.11v.109c0 .043.008.078.032.11a.17.17 0 0 0 .109.03c.063 0 .164-.003.313-.015q.234-.03.328-.031m0 0" style="stroke:none" transform="translate(68.348 367.75)"/></g><g style="fill:#000;fill-opacity:1"><path d="m-.36-2.906.063-.078.031-.094q.176-.217.297-.328.14-.122.203-.203a1 1 0 0 1 .204-.125q.17-.077.468-.188L1.031-4q.059-.107.235-.312.187-.2.422-.47a.7.7 0 0 1 .14-.124q.107-.077.219-.188.234-.217.469-.453c.156-.164.3-.328.437-.484a8 8 0 0 1 .344-.313q.28-.232.75-.64.075-.048.25-.141.171-.091.453-.219a.38.38 0 0 0 .203-.187.9.9 0 0 0 .063-.344q.075-.122.14-.297.077-.187.14-.437.109-.296.157-.485c.04-.125.067-.21.078-.265q.172-.434.453-1.032.28-.592.672-1.343.2-.405.469-.891a1 1 0 0 1 .36-.36.9.9 0 0 1 .437-.124q.168 0 .25.14.093.128.094.39c0 .282-.024.556-.063.813q-.065.375-.219.704a.5.5 0 0 0-.046.203 5 5 0 0 0-.032.328.9.9 0 0 1-.078.265 1 1 0 0 1-.156.235.6.6 0 0 1-.031.156 3 3 0 0 0-.032.219l-.14.187a.4.4 0 0 0-.016.14v.173a.8.8 0 0 1-.078.219q-.064.174-.203.484l-.25.547a2 2 0 0 0-.094.234.8.8 0 0 0-.11.156q-.064.112-.14.235l.031.218-.625 2.25v.641c.008.168.032.305.063.406a2.8 2.8 0 0 0 .453.922q.107.188.25.281a.6.6 0 0 0 .313.079q.188 0 .375-.11a2 2 0 0 0 .39-.312q.107.251.203.484c.07.149.133.281.188.406Q8.17-1.98 8-1.812a23 23 0 0 0-.422.484.84.84 0 0 1-.39.266 1.7 1.7 0 0 1-.563.078q-.72 0-1.187-.375-.455-.375-.641-1.141a7 7 0 0 1-.078-.266 1.4 1.4 0 0 0-.047-.218 2.5 2.5 0 0 0-.234-.407 1 1 0 0 0-.11.141 1.4 1.4 0 0 0-.266.234 2 2 0 0 0-.28.375q-.035.094-.11.235a3 3 0 0 1-.219.328q-.314.376-.64.734-.314.362-.641.719-.439.485-.813.719Q.998.328.72.328.234.328 0 .094t-.234-.719q0-.217.172-.625c.101-.27.156-.473.156-.61l-.047-.156Zm4.923-2.797a.4.4 0 0 0-.047-.14q-.142.141-.36.343-.205.188-.5.422a5 5 0 0 1-.328.5c-.156.219-.383.496-.672.828a3.5 3.5 0 0 0-.344.5q-.222.361-.53.875a18 18 0 0 0-.22.5q-.002.065.079.125c.195-.062.437-.234.718-.516.282-.28.618-.671 1.016-1.171q.592-.798.89-1.36c.196-.375.298-.676.298-.906m0 0" style="stroke:none" transform="translate(77.163 367.75)"/></g><g style="fill:#000;fill-opacity:1"><path d="M-.36-2.906q.047-.077.188-.266.14-.202.406-.484a4 4 0 0 0 .454-.5c.125-.164.21-.313.265-.438q.106-.216.266-.562.17-.34.36-.797.029-.045.421-.313c.258-.175.422-.265.484-.265q.14 0 .204.187.06.174.062.547c0 .367-.008.672-.016.922q-.018.362-.078.578.013.047.031.125l.063.14q-.036.114-.047.22-.002 1.16.078 1.734.094.562.235.562.186.001.53-.484.342-.498.829-1.5.481-.968.734-1.578.263-.621.297-.938.093-.545.297-.828a.62.62 0 0 1 .531-.281q.106.002.141.063c.031.03.047.085.047.156 0 .261-.04.527-.11.797A3.3 3.3 0 0 1 6-5.297q-.001.253-.125.594-.128.33-.375.734-.094.252-.14.516-.017.128-.438.906-.423.768-.547.89 0 .236-.234.563a4 4 0 0 1-.688.735 3 3 0 0 1-.203.265 4 4 0 0 0-.203.219.7.7 0 0 1-.25.203.57.57 0 0 1-.297.078q-.532 0-.812-.406-.268-.389-.266-1.187.03-.154.047-.266a3 3 0 0 1-.11-.297 2 2 0 0 1-.062-.422v-.5a1 1 0 0 0-.031-.281l.062-.219-.094-.062q-.082.034-.375.343-.282.301-.812.875a5 5 0 0 0-.172-.421q-.093-.217-.234-.47m0 0" style="stroke:none" transform="translate(85.324 367.75)"/></g><g style="fill:#000;fill-opacity:1"><path d="M-.36-2.906q.082-.077.157-.188c.043-.07.094-.156.156-.25l.766-.515a3 3 0 0 1 .406-.422c.195-.176.438-.383.719-.625.031-.07.082-.157.156-.25q.106-.141.266-.282l.265-.234.266-.234q.14-.141.265-.282.141-.152.282-.28a1.4 1.4 0 0 1 .312-.22.9.9 0 0 1 .375-.078.7.7 0 0 1 .313.063q.124.047.125.14c-.063.149-.133.297-.203.454l.062.078q.42-.153.672-.235.247-.077.313-.078c.476 0 .832.149 1.062.438q.359.421.36 1.312 0 .158-.048.39a4 4 0 0 1-.109.485q-.112.3-.219.5-.11.188-.203.266.03.129.078.187.06.047.141.047.075 0 .156-.047a4 4 0 0 0 .203-.14q.094.204.188.437.093.236.187.453l-.343.313a5 5 0 0 1-.344.281 1.7 1.7 0 0 1-.438.266 1 1 0 0 1-.39.078.6.6 0 0 1-.375-.11.8.8 0 0 1-.235-.296 2.7 2.7 0 0 1-.593.593q-.345.27-.75.438-.253.129-.453.187a1.2 1.2 0 0 1-.36.063 1 1 0 0 0-.203.047 1 1 0 0 1-.219.031q-.564 0-1.015-.469Q.952-1.06.953-1.64q0-.234.094-.609c.07-.258.11-.414.11-.469a.15.15 0 0 0-.048-.11Q1.075-2.874 1-2.874c-.031 0-.11.055-.234.156-.125.094-.305.23-.532.406q-.033.049-.078.126a.7.7 0 0 1-.11.171 18 18 0 0 1-.187-.453 2.7 2.7 0 0 0-.218-.437m4.704-1.797a.5.5 0 0 0-.14.11q-.095.093-.173.234-.141.221-.312.484a.9.9 0 0 1-.235.172q-.13.064-.28.094c-.063.011-.134.078-.204.203q-.112.176-.219.515-.11.3-.156.516a2 2 0 0 0-.047.36q0 .281.14.421c.095.086.235.125.423.125q.435.001.812-.25.389-.246.719-.75c.101-.113.203-.226.297-.344A.4.4 0 0 0 5.094-3q.046-.14.093-.328l.172-.563a3 3 0 0 0-.156-.453q-.081-.17-.156-.218a1.3 1.3 0 0 0-.234-.063q-.159-.03-.47-.078m0 0" style="stroke:none" transform="translate(91.757 367.75)"/></g><g style="fill:#000;fill-opacity:1"><path d="m-.36-2.906.094-.078a.55.55 0 0 1 .141-.25 2.6 2.6 0 0 1 .656-.547Q.703-3.887.844-4q.622-.528 1.203-1.016.328-.293.656-.5.328-.215.625-.343.2-.263.766-.532.56-.28.922-.28.122 0 .203.077a.32.32 0 0 1 .11.203v.532a.85.85 0 0 1-.157.5 1.5 1.5 0 0 1-.484.406 4 4 0 0 0-.438.219q-.205.112-.422.218a4 4 0 0 1-.422.36q-.33.269-.906.718-.269.205-.437.376a2.5 2.5 0 0 0-.25.25 2 2 0 0 0-.157.421 2.4 2.4 0 0 0-.047.5c0 .157.02.29.063.391q.077.158.219.266.091.065.265.14.17.065.422.125.141-.06.375-.11.247-.057.547-.14.327-.2.672-.406.34-.218.687-.453a1 1 0 0 0 .125-.047q.075-.045.157-.11.091-.122.265-.296.17-.171.422-.375.388.844.39.89-.375.3-.75.61-.362.3-.843.5a4 4 0 0 0-.266.234q-.485.487-1.14.735a4.1 4.1 0 0 1-1.469.25A2 2 0 0 1 1.406.28a1.2 1.2 0 0 1-.234-.078 6 6 0 0 1-.5-.344 2.5 2.5 0 0 1-.36-.296 1.4 1.4 0 0 1-.218-.266.9.9 0 0 1-.11-.328 2.2 2.2 0 0 1-.046-.485q.002-.074.062-.25.047-.169.047-.25a8 8 0 0 0-.172-.437 4 4 0 0 0-.234-.453m0 0" style="stroke:none" transform="translate(98.815 367.75)"/></g><g style="fill:#000;fill-opacity:1"><path d="m-.047-3.344.89-.578a1 1 0 0 0 .126-.125c.039-.062.094-.144.156-.25a.54.54 0 0 1 .172-.203q.124-.091.266-.172.077-.093.218-.234.153-.155.375-.344.106-.06.266-.172a2.7 2.7 0 0 0 .375-.297q.891-.843 1.547-1.265c.445-.282.828-.422 1.14-.422q.247.002.375.11A.38.38 0 0 1 5.984-7a.8.8 0 0 1-.078.375.63.63 0 0 1-.234.25 9 9 0 0 1-.531.39 5 5 0 0 1-.375.454 4 4 0 0 1-.532.437 2 2 0 0 0-.156.235q-.047.047-.187.172a6 6 0 0 1-.36.296q-.11.206-.437.547-.315.347-.86.828-.08.066-.25.313c-.117.156-.265.371-.453.64l.063.094q.217-.076.453-.234a5 5 0 0 0 .515-.438q.328-.311.532-.5.218-.186.312-.25l.125-.062q.076-.046.156-.11.452-.544.844-.796.389-.265.719-.266.2.001.313.172.106.157.125.484-.017.486-.016.938-.002.316.172.562a.58.58 0 0 0 .468.235.34.34 0 0 0 .172-.047.6.6 0 0 0 .172-.125q.077-.076.14-.156l.126-.157q.045-.03.11-.078a1 1 0 0 0 .14-.11 7 7 0 0 1 .375.891q-.222.206-.438.422-.222.224-.468.422-.299.222-.578.344-.269.11-.532.11-.645.001-.984-.36-.345-.374-.39-1.094a.6.6 0 0 0-.032-.187.4.4 0 0 0-.094-.188 1 1 0 0 0-.125.11l-.125.124a4 4 0 0 1-.328.25 7 7 0 0 0-.437.36l-.578.578q-.235.22-.329.313-.188.175-.453.343-.268.159-.578.328a3 3 0 0 1-.36.172.7.7 0 0 1-.202.063q-.468 0-.688-.219-.234-.234-.234-.719.002-.264.11-.5.11-.234.343-.468.014-.123.016-.204a.2.2 0 0 0-.032-.093.4.4 0 0 0-.062-.125q-.06-.14-.125-.313a10 10 0 0 0-.172-.36 1 1 0 0 0 .125-.155 6 6 0 0 0 .156-.282m0 0" style="stroke:none" transform="translate(104.975 367.75)"/></g><g style="fill:#000;fill-opacity:1"><path d="m-.36-2.906.094-.078a.55.55 0 0 1 .141-.25 2.6 2.6 0 0 1 .656-.547Q.703-3.887.844-4q.622-.528 1.203-1.016.328-.293.656-.5.328-.215.625-.343.2-.263.766-.532.56-.28.922-.28.122 0 .203.077a.32.32 0 0 1 .11.203v.532a.85.85 0 0 1-.157.5 1.5 1.5 0 0 1-.484.406 4 4 0 0 0-.438.219q-.205.112-.422.218a4 4 0 0 1-.422.36q-.33.269-.906.718-.269.205-.437.376a2.5 2.5 0 0 0-.25.25 2 2 0 0 0-.157.421 2.4 2.4 0 0 0-.047.5c0 .157.02.29.063.391q.077.158.219.266.091.065.265.14.17.065.422.125.141-.06.375-.11.247-.057.547-.14.327-.2.672-.406.34-.218.687-.453a1 1 0 0 0 .125-.047q.075-.045.157-.11.091-.122.265-.296.17-.171.422-.375.388.844.39.89-.375.3-.75.61-.362.3-.843.5a4 4 0 0 0-.266.234q-.485.487-1.14.735a4.1 4.1 0 0 1-1.469.25A2 2 0 0 1 1.406.28a1.2 1.2 0 0 1-.234-.078 6 6 0 0 1-.5-.344 2.5 2.5 0 0 1-.36-.296 1.4 1.4 0 0 1-.218-.266.9.9 0 0 1-.11-.328 2.2 2.2 0 0 1-.046-.485q.002-.074.062-.25.047-.169.047-.25a8 8 0 0 0-.172-.437 4 4 0 0 0-.234-.453m0 0" style="stroke:none" transform="translate(112.482 367.75)"/></g><g style="fill:#000;fill-opacity:1"><path d="M-.36-2.906c.157-.156.383-.344.688-.563q.47-.34.703-.562.141-.17.375-.422l.563-.594q.188-.17.375-.266a.8.8 0 0 1 .375-.093.5.5 0 0 1 .36.125q.14.112.14.36c0 .25-.102.663-.297 1.234-.2.562-.297.992-.297 1.28q0 .095.047.141a.17.17 0 0 0 .11.032h.046q.188-.122.422-.297.246-.186.563-.453.264-.235.64-.61l.875-.875q.2-.153.453-.406c.164-.164.352-.36.563-.578a.74.74 0 0 1 .343-.281q.235-.094.563-.094.233 0 .344.078a.3.3 0 0 1 .11.25c0 .043-.009.09-.016.14a.4.4 0 0 0-.016.11c-.055.2-.125.438-.219.719q-.129.423-.328 1a15 15 0 0 0-.344.875l-.39 1.11.078.077c.133-.062.336-.21.61-.453q.405-.375 1.015-.984l.39.89a4 4 0 0 0-.187.204A2 2 0 0 1 8-1.578Q6.952-.841 6.203-.11q-.752.716-1.187 1.437a83 83 0 0 1-1.094 1.75 24 24 0 0 1-.625.953q-.674.874-1.281 1.297-.599.437-1.172.438c-.149 0-.25-.032-.313-.094-.062-.055-.094-.14-.094-.266q0-.095.047-.25a.9.9 0 0 1 .172-.297A6 6 0 0 0 1 4.313l.297-.266a1 1 0 0 0 .031-.172q.046-.047.11-.125.077-.065.171-.14.076-.19.375-.594.295-.393.829-1.032.405-.468.734-.843.328-.364.562-.61c.032-.054.055-.117.079-.187q.043-.112.078-.219a13 13 0 0 0 .28-.61q.155-.356.36-.859.107-.279.172-.64.06-.375.125-.797a.6.6 0 0 1-.031-.11 1 1 0 0 0-.031-.171 1.7 1.7 0 0 0-.391.265q-.207.174-.453.406a5 5 0 0 1-.656.704q-.33.27-.657.421c-.136.282-.32.493-.546.625q-.347.188-.782.188-.314 0-.484-.14Q.998-.747 1-1.064a.7.7 0 0 1 .016-.14c.007-.063.023-.133.046-.219a8 8 0 0 1-.093-.266l.062-.375q0-.294-.047-.437-.035-.14-.14-.14l-.031.015-.313.235q-.188.158-.453.375a3 3 0 0 1-.125-.296 5 5 0 0 1-.156-.407.3.3 0 0 0-.125-.187m0 0" style="stroke:none" transform="translate(118.641 367.75)"/></g><g style="fill:#000;fill-opacity:1"><path d="M2.844-.64a.56.56 0 0 1-.078.265.65.65 0 0 1-.22.234.44.44 0 0 1-.124.22.23.23 0 0 1-.188.077.96.96 0 0 1-.687-.281q-.284-.281-.438-.844l.063-.062-.094-.266c.031-.101.055-.203.078-.297.032-.093.055-.191.078-.297a.5.5 0 0 1 .172-.265.42.42 0 0 1 .25-.078q.263 0 .485.14.215.127.39.406a1.8 1.8 0 0 1 .235.532q.076.252.078.515m0 0" style="stroke:none" transform="translate(127.075 367.75)"/></g><g style="fill:#000;fill-opacity:1"><path d="m8.188-2.906.374.89q-.112.095-.265.22a7 7 0 0 1-.36.234q-.205.063-.5.203-.28.13-.656.28a6 6 0 0 1-.468.266q-.177.094-.235.094c-.086 0-.242.04-.469.11a10 10 0 0 0-.875.312l-.625.235q-.328.105-.687.187L2.828 0l-.375.172c-.125 0-.25-.008-.375-.016-.125 0-.25-.008-.375-.015q-.28-.018-.422-.094c-.093-.043-.14-.102-.14-.188l.062-.375-.062-.062Q.809-.577.703-.656q-.11-.094-.11-.422v-.484q.013-.34.048-.891 0-.046.062-.203a.8.8 0 0 0 .063-.219 1 1 0 0 1-.063-.156v-.11q.013-.386.078-.937.06-.562.172-1.328.105-.451.188-1.032-.019-.419-.032-.875.36-1.623.735-3.265.06-.294.218-.547.17-.264.391-.516a.5.5 0 0 0 .125-.109c.031-.062.07-.133.125-.219q.075-.122.188-.297.058-.044.187-.125c.094-.05.211-.117.36-.203q.091-.076.218-.187a5 5 0 0 0 .297-.25q.373-.234.688-.485.327-.248.797-.296c.156-.008.304-.02.453-.032q.216-.013.422-.031c.132-.031.25-.047.343-.047l.172-.047q.076-.014.14-.015.047.002.157.015l.281.047h.422q.386.11.563.344a.8.8 0 0 1 .187.531q-.001.673-.125 1-.129.328-.422.328c-.136 0-.297-.07-.484-.219q-.269-.217-1.469-.218-.504.094-.984.187a.35.35 0 0 1-.125.125l-.11.063-.343-.14q-.16.063-.36.327c-.125.18-.258.418-.39.719a1.5 1.5 0 0 0-.11.594q-.174.703-.343 1.36-.176.703-.282 1.062-.095.362-.11.437a.8.8 0 0 0-.046.188 1 1 0 0 0-.016.172q0 .127.047.203.047.063.14.062c.063 0 .204-.101.423-.312q.34-.33.5-.375.216-.06.422-.125.2-.06.437-.172c.05-.008.203-.032.453-.063q.388-.06 1.063-.125l.265.078.516-.093.281.125c.063.062.117.14.172.234q.093.142.156.313-.001.58-.125.89-.128.298-.375.297l-.546-.219q-.657.083-1.313.14-.644.067-1.328.126-.816.157-1.25.531-.438.376-.485.969-.018.142-.078.406a12 12 0 0 0-.14.64l.078.298q-.095.421-.14.797-.048.362-.048.656c0 .062.008.11.032.14q.029.048.062.032.47-.046.75-.063c.188-.008.32-.016.406-.016q.246.036.516.047l.61-.046c.07-.008.218-.063.437-.157q.327-.14.578-.14.294 0 .578-.047a3 3 0 0 0 .547-.172q.264-.094.516-.188.262-.107.53-.203c.063-.02.145-.054.25-.11a4 4 0 0 0 .391-.202m0 0" style="stroke:none" transform="translate(136.496 367.75)"/></g><g style="fill:#000;fill-opacity:1"><path d="m-.36-2.906.063-.078.031-.094q.176-.217.297-.328.14-.122.203-.203a1 1 0 0 1 .204-.125q.17-.077.468-.188L1.031-4q.059-.107.235-.312.187-.2.422-.47a.7.7 0 0 1 .14-.124q.107-.077.219-.188.234-.217.469-.453c.156-.164.3-.328.437-.484a8 8 0 0 1 .344-.313q.28-.232.75-.64.075-.048.25-.141.171-.091.453-.219a.38.38 0 0 0 .203-.187.9.9 0 0 0 .063-.344q.075-.122.14-.297.077-.187.14-.437.109-.296.157-.485c.04-.125.067-.21.078-.265q.172-.434.453-1.032.28-.592.672-1.343.2-.405.469-.891a1 1 0 0 1 .36-.36.9.9 0 0 1 .437-.124q.168 0 .25.14.093.128.094.39c0 .282-.024.556-.063.813q-.065.375-.219.704a.5.5 0 0 0-.046.203 5 5 0 0 0-.032.328.9.9 0 0 1-.078.265 1 1 0 0 1-.156.235.6.6 0 0 1-.031.156 3 3 0 0 0-.032.219l-.14.187a.4.4 0 0 0-.016.14v.173a.8.8 0 0 1-.078.219q-.064.174-.203.484l-.25.547a2 2 0 0 0-.094.234.8.8 0 0 0-.11.156q-.064.112-.14.235l.031.218-.625 2.25v.641c.008.168.032.305.063.406a2.8 2.8 0 0 0 .453.922q.107.188.25.281a.6.6 0 0 0 .313.079q.188 0 .375-.11a2 2 0 0 0 .39-.312q.107.251.203.484c.07.149.133.281.188.406Q8.17-1.98 8-1.812a23 23 0 0 0-.422.484.84.84 0 0 1-.39.266 1.7 1.7 0 0 1-.563.078q-.72 0-1.187-.375-.455-.375-.641-1.141a7 7 0 0 1-.078-.266 1.4 1.4 0 0 0-.047-.218 2.5 2.5 0 0 0-.234-.407 1 1 0 0 0-.11.141 1.4 1.4 0 0 0-.266.234 2 2 0 0 0-.28.375q-.035.094-.11.235a3 3 0 0 1-.219.328q-.314.376-.64.734-.314.362-.641.719-.439.485-.813.719Q.998.328.72.328.234.328 0 .094t-.234-.719q0-.217.172-.625c.101-.27.156-.473.156-.61l-.047-.156Zm4.923-2.797a.4.4 0 0 0-.047-.14q-.142.141-.36.343-.205.188-.5.422a5 5 0 0 1-.328.5c-.156.219-.383.496-.672.828a3.5 3.5 0 0 0-.344.5q-.222.361-.53.875a18 18 0 0 0-.22.5q-.002.065.079.125c.195-.062.437-.234.718-.516.282-.28.618-.671 1.016-1.171q.592-.798.89-1.36c.196-.375.298-.676.298-.906m0 0" style="stroke:none" transform="translate(144.969 367.75)"/></g><g style="fill:#000;fill-opacity:1"><path d="M-.36-2.906a.3.3 0 0 0 .08-.064.3.3 0 0 0 .015-.11q.177-.14.375-.374.216-.234.485-.563a8 8 0 0 1 .437-.578c.157-.195.32-.394.5-.593q.2-.294.407-.61.217-.31.453-.625c.257-.125.46-.21.609-.266q.216-.077.297-.078c.094 0 .164.032.219.094q.076.094.078.281a.7.7 0 0 1-.031.157A3 3 0 0 0 3.5-6q-.081.206-.156.406-.082.346-.188.688c-.074.218-.14.445-.203.672-.062.28-.117.543-.156.78q-.047.345-.047.626 0 .55.047.812c.039.18.094.258.156.235q.094-.06.235-.14.154-.078.343-.188.186-.186.406-.453.216-.282.532-.657.17-.263.36-.531c.038-.05.093-.113.155-.187q.093-.106.172-.22c.125-.312.258-.538.407-.687a.72.72 0 0 1 .515-.234q.265.002.406.062a.42.42 0 0 1 .22.188q.028.082.046.25c.008.105.016.246.016.422q0 .113.046.312.047.206.047.313-.001.361.125.547.122.174.391.172.075.002.188-.032.106-.029.218-.062l.39.89a14 14 0 0 1-.968.547q-.375.174-.562.172-.487.001-.797-.25-.316-.263-.469-.766a.7.7 0 0 0-.078-.218 2 2 0 0 0-.156-.25q-.096.11-.203.25l-.235.265q-.269.33-.531.641l-.531.594c-.23.273-.465.468-.703.593a1.4 1.4 0 0 1-.641.172c-.305 0-.547-.086-.735-.265q-.268-.264-.343-.797-.081-.516-.11-.797-.034-.28-.015-.344a1.8 1.8 0 0 0-.063-.422q-.034-.14-.093-.14l-.063.015-.547.579a1 1 0 0 1-.11.187q-.064.094-.171.234a5 5 0 0 0-.14-.359Q-.2-2.591-.36-2.906m0 0" style="stroke:none" transform="translate(153.13 367.75)"/></g><g style="fill:#000;fill-opacity:1"><path d="m-.36-2.906.094-.078a.55.55 0 0 1 .141-.25 2.6 2.6 0 0 1 .656-.547Q.703-3.887.844-4q.622-.528 1.203-1.016.328-.293.656-.5.328-.215.625-.343.2-.263.766-.532.56-.28.922-.28.122 0 .203.077a.32.32 0 0 1 .11.203v.532a.85.85 0 0 1-.157.5 1.5 1.5 0 0 1-.484.406 4 4 0 0 0-.438.219q-.205.112-.422.218a4 4 0 0 1-.422.36q-.33.269-.906.718-.269.205-.437.376a2.5 2.5 0 0 0-.25.25 2 2 0 0 0-.157.421 2.4 2.4 0 0 0-.047.5c0 .157.02.29.063.391q.077.158.219.266.091.065.265.14.17.065.422.125.141-.06.375-.11.247-.057.547-.14.327-.2.672-.406.34-.218.687-.453a1 1 0 0 0 .125-.047q.075-.045.157-.11.091-.122.265-.296.17-.171.422-.375.388.844.39.89-.375.3-.75.61-.362.3-.843.5a4 4 0 0 0-.266.234q-.485.487-1.14.735a4.1 4.1 0 0 1-1.469.25A2 2 0 0 1 1.406.28a1.2 1.2 0 0 1-.234-.078 6 6 0 0 1-.5-.344 2.5 2.5 0 0 1-.36-.296 1.4 1.4 0 0 1-.218-.266.9.9 0 0 1-.11-.328 2.2 2.2 0 0 1-.046-.485q.002-.074.062-.25.047-.169.047-.25a8 8 0 0 0-.172-.437 4 4 0 0 0-.234-.453m0 0" style="stroke:none" transform="translate(161.252 367.75)"/></g><g style="fill:#000;fill-opacity:1"><path d="m-.047-3.344.89-.578a1 1 0 0 0 .126-.125c.039-.062.094-.144.156-.25a.54.54 0 0 1 .172-.203q.124-.091.266-.172.077-.093.218-.234.153-.155.375-.344.106-.06.266-.172a2.7 2.7 0 0 0 .375-.297q.891-.843 1.547-1.265c.445-.282.828-.422 1.14-.422q.247.002.375.11A.38.38 0 0 1 5.984-7a.8.8 0 0 1-.078.375.63.63 0 0 1-.234.25 9 9 0 0 1-.531.39 5 5 0 0 1-.375.454 4 4 0 0 1-.532.437 2 2 0 0 0-.156.235q-.047.047-.187.172a6 6 0 0 1-.36.296q-.11.206-.437.547-.315.347-.86.828-.08.066-.25.313c-.117.156-.265.371-.453.64l.063.094q.217-.076.453-.234a5 5 0 0 0 .515-.438q.328-.311.532-.5.218-.186.312-.25l.125-.062q.076-.046.156-.11.452-.544.844-.796.389-.265.719-.266.2.001.313.172.106.157.125.484-.017.486-.016.938-.002.316.172.562a.58.58 0 0 0 .468.235.34.34 0 0 0 .172-.047.6.6 0 0 0 .172-.125q.077-.076.14-.156l.126-.157q.045-.03.11-.078a1 1 0 0 0 .14-.11 7 7 0 0 1 .375.891q-.222.206-.438.422-.222.224-.468.422-.299.222-.578.344-.269.11-.532.11-.645.001-.984-.36-.345-.374-.39-1.094a.6.6 0 0 0-.032-.187.4.4 0 0 0-.094-.188 1 1 0 0 0-.125.11l-.125.124a4 4 0 0 1-.328.25 7 7 0 0 0-.437.36l-.578.578q-.235.22-.329.313-.188.175-.453.343-.268.159-.578.328a3 3 0 0 1-.36.172.7.7 0 0 1-.202.063q-.468 0-.688-.219-.234-.234-.234-.719.002-.264.11-.5.11-.234.343-.468.014-.123.016-.204a.2.2 0 0 0-.032-.093.4.4 0 0 0-.062-.125q-.06-.14-.125-.313a10 10 0 0 0-.172-.36 1 1 0 0 0 .125-.155 6 6 0 0 0 .156-.282m0 0" style="stroke:none" transform="translate(167.411 367.75)"/></g><g style="fill:#000;fill-opacity:1"><path d="m-.36-2.906.047-.078.157-.188q.094-.123.219-.281Q.75-4.11 1.406-5c.446-.594.883-1.273 1.313-2.047q.077-.105.172-.281.091-.186.218-.453a.12.12 0 0 0-.03-.078.14.14 0 0 0-.095-.032q-.063.001-.203.032a.8.8 0 0 1-.187.03H1.109c-.125-.007-.214-.015-.265-.015-.063-.031-.121-.054-.172-.078A1 1 0 0 1 .516-8a.35.35 0 0 1-.188-.094.24.24 0 0 1-.062-.156c0-.414.039-.734.125-.953q.138-.342.406-.344.281.001.516.031.234.017.421.063.153-.03.282-.063.262.001.437.032a2 2 0 0 1 .297.046q.123-.029.234-.046.123-.03.282-.063l.312.094q.341-.046.735-.953.387-.922.828-.922c.156 0 .273.055.359.156q.124.141.125.422 0 .22-.14.594-.13.361-.141.547a.3.3 0 0 0 .047.078q.045.048.109.11.06.033.078.124.03.094.031.235-.002.578-.062.906-.048.316-.172.328l-.656.125a5 5 0 0 1-.047.25c-.024.094-.047.203-.078.328a15 15 0 0 0-.375 1.234q-.207.75-.453 1.782-.158.813-.25 1.328a5 5 0 0 0-.079.687q0 .159.047.235.046.08.157.078.044 0 .406-.282.375-.292 1.031-.843l.375.89a3 3 0 0 1-.266.266 4 4 0 0 1-.421.297 3 3 0 0 1-.25.25q-.142.128-.313.297L3.859-.5q-.173.188-.359.375a1.8 1.8 0 0 1-.453.36.9.9 0 0 1-.422.124q-.423-.001-.64-.265-.206-.248-.205-.766c0-.375.008-.703.032-.984q.044-.421.125-.672A.5.5 0 0 0 2-2.468q-.002-.094.031-.25.03-.17.063-.391.059-.389.14-.766c.063-.156.133-.32.22-.5q-.001-.046-.079-.094l-.094.063a5 5 0 0 1-.39.5q-.236.251-.547.531a85 85 0 0 1-1.016.969c-.023.031-.058.086-.11.156a2 2 0 0 0-.171.234 1.6 1.6 0 0 1-.125-.28 9 9 0 0 1-.156-.423.3.3 0 0 0-.125-.187m0 0" style="stroke:none" transform="translate(174.918 367.75)"/></g><g style="fill:#000;fill-opacity:1"><path d="m-.36-2.906.063-.078.031-.094q.268-.356.922-.938c.446-.382.754-.703.922-.953a.65.65 0 0 1 .234-.218.6.6 0 0 1 .25-.063q.342.001.579.172a.85.85 0 0 1 .312.5q.06.315.125.625.059.299.094.61c.05.136.11.335.172.593q.094.394.14.453.048.095.141.14a.6.6 0 0 0 .25.048q.17 0 .36-.063.185-.06.39-.219.14-.122.297-.25.17-.139.328-.265l.39.89a4 4 0 0 1-.421.36q-.251.205-.625.468a7 7 0 0 1-.672.438q-.283.14-.438.14-.89.001-1.156-.202-.252-.219-.578-1.157a2 2 0 0 0-.125-.172q-.08-.106-.172-.265a2 2 0 0 0-.203-.328q-.094-.124-.14-.125-.159.001-.423.218a5 5 0 0 0-.64.625 3 3 0 0 1-.125-.296 5 5 0 0 1-.156-.407.3.3 0 0 0-.125-.187m4.094-7.703q.234 0 .344.093.124.095.125.282a6 6 0 0 0-.094.453c-.074.242-.136.437-.187.594q-.063.22-.11.312a1 1 0 0 1-.234.375q-.158.159-.36.281c-.155.106-.288.18-.39.219a.6.6 0 0 1-.203.063 8 8 0 0 1-.312-.032q-.158-.013-.297-.015a.52.52 0 0 1-.203-.266q-.08-.201-.079-.531-.002-.295.36-.735.356-.45.625-.468.169-.217.39-.47.106-.074.266-.108.154-.047.36-.047m0 0" style="stroke:none" transform="translate(180.326 367.75)"/></g><g style="fill:#000;fill-opacity:1"><path d="M-.36-2.906q.082-.077.157-.188c.043-.07.094-.156.156-.25l.766-.515a3 3 0 0 1 .406-.422c.195-.176.438-.383.719-.625.031-.07.082-.157.156-.25q.106-.141.266-.282l.265-.234.266-.234q.14-.141.265-.282.141-.152.282-.28a1.4 1.4 0 0 1 .312-.22.9.9 0 0 1 .375-.078.7.7 0 0 1 .313.063q.124.047.125.14c-.063.149-.133.297-.203.454l.062.078q.42-.153.672-.235.247-.077.313-.078c.476 0 .832.149 1.062.438q.359.421.36 1.312 0 .158-.048.39a4 4 0 0 1-.109.485q-.112.3-.219.5-.11.188-.203.266.03.129.078.187.06.047.141.047.075 0 .156-.047a4 4 0 0 0 .203-.14q.094.204.188.437.093.236.187.453l-.343.313a5 5 0 0 1-.344.281 1.7 1.7 0 0 1-.438.266 1 1 0 0 1-.39.078.6.6 0 0 1-.375-.11.8.8 0 0 1-.235-.296 2.7 2.7 0 0 1-.593.593q-.345.27-.75.438-.253.129-.453.187a1.2 1.2 0 0 1-.36.063 1 1 0 0 0-.203.047 1 1 0 0 1-.219.031q-.564 0-1.015-.469Q.952-1.06.953-1.64q0-.234.094-.609c.07-.258.11-.414.11-.469a.15.15 0 0 0-.048-.11Q1.075-2.874 1-2.874c-.031 0-.11.055-.234.156-.125.094-.305.23-.532.406q-.033.049-.078.126a.7.7 0 0 1-.11.171 18 18 0 0 1-.187-.453 2.7 2.7 0 0 0-.218-.437m4.704-1.797a.5.5 0 0 0-.14.11q-.095.093-.173.234-.141.221-.312.484a.9.9 0 0 1-.235.172q-.13.064-.28.094c-.063.011-.134.078-.204.203q-.112.176-.219.515-.11.3-.156.516a2 2 0 0 0-.047.36q0 .281.14.421c.095.086.235.125.423.125q.435.001.812-.25.389-.246.719-.75c.101-.113.203-.226.297-.344A.4.4 0 0 0 5.094-3q.046-.14.093-.328l.172-.563a3 3 0 0 0-.156-.453q-.081-.17-.156-.218a1.3 1.3 0 0 0-.234-.063q-.159-.03-.47-.078m0 0" style="stroke:none" transform="translate(185.91 367.75)"/></g><g style="fill:#000;fill-opacity:1"><path d="M-.36-2.906q.049-.076.11-.156.064-.076.156-.204.094-.077.25-.218c.102-.102.223-.22.36-.344q.17-.201.422-.485.246-.28.609-.703c.101-.101.234-.238.39-.406q.235-.264.563-.64c.188-.208.383-.364.594-.47.207-.1.426-.155.656-.155q.357.001.516.218.17.222.172.64c0 .15-.06.434-.172.86a22 22 0 0 1-.516 1.672l-.172.375a3 3 0 0 0-.078.235 1 1 0 0 0-.016.14q-.002.065.079.14a.3.3 0 0 0 .078-.077q.045-.047.109-.11a1.2 1.2 0 0 1 .234-.312q.17-.154.391-.36.094-.153.234-.312.14-.17.313-.313a.5.5 0 0 0 .11-.125q.057-.093.14-.187a3 3 0 0 1 .297-.25q.187-.14.422-.297c.175-.094.332-.164.468-.219q.217-.077.375-.078a.97.97 0 0 1 .532.156q.232.142.406.454c.125.406.242.78.36 1.125q.105.3.234.453.138.14.312.14a.5.5 0 0 0 .219-.047.7.7 0 0 0 .203-.14l.39.89c-.117.094-.23.196-.343.297q-.174.142-.344.266-.222.221-.422.297a1 1 0 0 1-.39.078q-.222 0-.438-.094a.83.83 0 0 1-.344-.297 1.4 1.4 0 0 1-.203-.281q-.112-.216-.265-.531a4 4 0 0 1-.297-.328 44 44 0 0 1-.36-.5l-.093-.032q-.187.065-.375.188a2.5 2.5 0 0 0-.375.297q-.44.391-.641.484a.6.6 0 0 0-.266.235q-.129.234-.468.609c-.22.242-.496.531-.828.875l-.25.25a5 5 0 0 0-.25.234.7.7 0 0 1-.297.14 1.3 1.3 0 0 1-.36.048Q1.39.218 1.36-.047q-.034-.265-.062-.547.151-.406.328-1.015.187-.622.438-1.438c0-.031.007-.07.03-.125l.079-.234a1 1 0 0 0 .078-.219c.008-.062.016-.113.016-.156q0-.059-.047-.094c-.031-.031-.086-.047-.156-.047q-.095.001-.266.125-.158.112-.375.36-.283.298-.453.468-.16.159-.219.188-.093.064-.234.187-.128.13-.297.281a1 1 0 0 1-.063.126.7.7 0 0 1-.11.171 5 5 0 0 0-.14-.359q-.106-.216-.265-.531m0 0" style="stroke:none" transform="translate(192.968 367.75)"/></g><g style="fill:#000;fill-opacity:1"><path d="M2.844-.64a.56.56 0 0 1-.078.265.65.65 0 0 1-.22.234.44.44 0 0 1-.124.22.23.23 0 0 1-.188.077.96.96 0 0 1-.687-.281q-.284-.281-.438-.844l.063-.062-.094-.266c.031-.101.055-.203.078-.297.032-.093.055-.191.078-.297a.5.5 0 0 1 .172-.265.42.42 0 0 1 .25-.078q.263 0 .485.14.215.127.39.406a1.8 1.8 0 0 1 .235.532q.076.252.078.515m0 0" style="stroke:none" transform="translate(202.3 367.75)"/></g><g style="fill:#000;fill-opacity:1"><path d="M3.39-5.484q0 .204.282.53c.187.22.46.485.828.798q.357.316.75.61c.258.187.516.374.766.562q.17.14.422.359.261.222.625.516.248.189.53.39c.188.125.384.258.595.39q.215.177.484.376.264.189.61.406.185.111.296.422.106.31.125.797l-.078.25-.11.062a.5.5 0 0 1-.25-.093A6 6 0 0 1 8.86.656Q8.813.623 8.406.437C8.145.314 7.77.134 7.281-.093a4.4 4.4 0 0 1-1.375-.86 6 6 0 0 0-.437-.313 6 6 0 0 0-.61-.39 6 6 0 0 1-.625-.39 6 6 0 0 1-.421-.313A10 10 0 0 0 2.953-3q-.33-.234-.453-.234a.6.6 0 0 0-.11.28q-.11.47-.25 1.173-.129.69-.28 1.61a.4.4 0 0 1-.063.25.2.2 0 0 1-.172.093q-.393 0-.594-.188Q.844-.203.844-.578q0-.497.062-1.047.077-.546.219-1.156a5 5 0 0 0 .063-.453q.03-.219.03-.407-.002-.435-.39-.765c-.25-.219-.375-.367-.375-.453q0-.217.063-.375A.53.53 0 0 1 .703-5.5c.219-.133.414-.266.594-.39q.076-.03.094-.126a1 1 0 0 0 .03-.265v-.423q.03-.857.048-1.796v-.219c0-.101-.008-.234-.016-.39a1 1 0 0 1-.016-.313c.008-.101.016-.195.016-.281q-.063-.201-.11-.344a.8.8 0 0 1-.046-.265q-.001-.125.016-.36.03-.247.03-.36 0-.14-.03-.374a5 5 0 0 1-.016-.375q-.001-.357.156-.672a2.2 2.2 0 0 1 .484-.64q.33-.282.657-.423.339-.14.703-.14.154 0 .484.031.328.017.516.016.124.001.687.218.234.017.407.063.17.034.28.062.247.13.376.188.14.063.203.062.17.064.281.11a.7.7 0 0 1 .203.094q.122.064.297.14.17.08.39.172.36.174.657.406.31.234.578.516.311.346.469.687.155.332.156.672c0 .063-.008.156-.015.281q0 .176-.047.391-.034.281-.297.61c-.18.218-.43.46-.75.718-.305.23-.578.422-.828.578q-.376.235-.703.329a.7.7 0 0 0-.188.156 2 2 0 0 1-.422.281q-.316.175-.843.438-.986.487-1.391.64c-.274.094-.406.2-.406.313m-1.03-4.703q.186-.139.343-.266a.66.66 0 0 1 .438-.14q.122.001.297.265.17.268.171.39-.002.066-.062.313-.047.234-.14.656-.236.954-.266 1.188-.034.234-.125.75c-.024.086-.047.195-.079.328q-.002.094.032.14a.15.15 0 0 0 .094.032c1.3-.657 1.972-.992 2.015-1.016a.6.6 0 0 0 .156-.047c.063-.031.118-.054.172-.078l.157-.187q.562-.359 1.171-.782.375-.281.563-.562.187-.294.187-.578 0-.358-.421-.703-.423-.357-1.266-.672a7.6 7.6 0 0 0-1.297-.422 5 5 0 0 0-1.062-.125q-.626 0-.954.219-.314.22-.312.64 0 .33.047.5.059.175.14.156m0 0" style="stroke:none" transform="translate(211.72 367.75)"/></g><g style="fill:#000;fill-opacity:1"><path d="M-.36-2.906a4 4 0 0 1 .781-.86q.03-.187.063-.375a3 3 0 0 0 .032-.39q.03-.14.093-.328.06-.186.141-.391l.234-.531a7 7 0 0 1 .407-.735q.198-.215.422-.484l.453-.547q.105-.091.234-.172c.082-.05.164-.11.25-.172q.124-.044.266-.062a1.7 1.7 0 0 1 .718.016.55.55 0 0 1 .25.156q.06.082.125.234.078.157.125.39.03.188.079.423c0-.032-.016-.008-.047.062a4 4 0 0 0-.094.328l-.094.313c-.086.312-.289.68-.61 1.093q-.486.61-1.296 1.407a.6.6 0 0 0-.11.172.5.5 0 0 0-.046.218q0 .206.062.36.077.157.219.234.075.066.25.125.17.047.406.094.373-.031.688-.125.31-.094.562-.235.046-.03.156-.078.106-.059.22-.14.123.281.218.515l.156.375a6 6 0 0 1-1.016.829q-.454.28-.828.28-.159.095-.359.141a2 2 0 0 1-.469.047 1.7 1.7 0 0 1-.64-.11 1.2 1.2 0 0 1-.47-.312 1.3 1.3 0 0 1-.202-.28 8 8 0 0 1-.203-.47 2 2 0 0 0-.157-.312c-.054-.07-.109-.11-.171-.11q-.083.001-.188.079a1.4 1.4 0 0 0-.203.218 5 5 0 0 0-.14-.359Q-.2-2.591-.36-2.906m3.141-3.172q-.222 0-.578.562-.361.55-.36.813 0 .064.016.094.029.016.11.015.106.001.172-.11.06-.107.125-.202.107-.106.203-.219.107-.106.203-.219a.87.87 0 0 0 .234-.547.3.3 0 0 0-.031-.14.11.11 0 0 0-.094-.047m0 0" style="stroke:none" transform="translate(220.955 367.75)"/></g><g style="fill:#000;fill-opacity:1"><path d="M-.36-2.906q.207-.265.5-.61.311-.358.766-.828.014-.074.063-.203c.039-.082.094-.187.156-.312.344-.508.648-1 .922-1.47q.421-.715.703-1.39.094-.17.188-.422.106-.246.265-.562.139-.233.266-.36.14-.123.265-.124.188 0 .282.171.093.159.093.516-.002.188-.343 1.266-.329 1.065-.985 3-.188.468-.406 1.312-.204.844-.484 2.11c-.024.125-.047.273-.079.437q-.034.234-.093.563a9 9 0 0 0-.235.984q-.063.374-.062.484l.047.078q.045-.035.11-.187a2.6 2.6 0 0 0 .109-.438c.039-.18.07-.328.093-.453a.8.8 0 0 0 0-.297c.145-.375.317-.851.516-1.437q.294-.89.687-2.063c.102-.187.22-.414.344-.687q.201-.406.438-.969.215-.217.39-.312c.125-.07.227-.11.313-.11a.93.93 0 0 1 .515.157q.235.14.422.421c.032.043.086.157.172.344q.141.283.375.766.122.282.25.453c.094.105.18.164.266.172l.422.89q-.048.02-.266.079-.206.047-.594.125l-.672-.25q-.235-.06-.593-.47-.345-.419-.563-.484c-.137.094-.281.29-.437.579a7 7 0 0 0-.47 1.109 5 5 0 0 1-.155.344q-.094.174-.188.406-.065.377-.14.719-.129.293-.282.75-.142.45-.297 1.078a6 6 0 0 1-.265.625q-.187.435-.235.672-.018.138-.078.359a7 7 0 0 1-.187.531 3.2 3.2 0 0 1-.422.578c-.117.133-.215.204-.297.204a.49.49 0 0 1-.453-.282q-.14-.28-.14-.843 0-.831.093-1.844C.32 1.3.422.582.547-.188l.125-.671q.076-.341.14-.688c.063-.281.102-.531.125-.75q.029-.341.016-.625-.11.035-.344.25a8 8 0 0 0-.562.656 5 5 0 0 0-.14-.359Q-.2-2.591-.36-2.906m0 0" style="stroke:none" transform="translate(225.865 367.75)"/></g><g style="fill:#000;fill-opacity:1"><path d="M-.36-2.906q.16-.201.313-.438a8 8 0 0 0 1.172-1.125q.451-.546.656-1.015l-.093-.47q.122-.233.625-.562.513-.341.828-.343.325.002.547.203c.156.125.304.261.453.406.07.043.125.078.156.11q.389.297.578.812.201.517.203 1.25 0 .393-.312 1.125-.298.72-.297 1.094-.002.046.031.078a.15.15 0 0 0 .094.031.6.6 0 0 0 .312-.11q.171-.106.375-.312.515-.498.625-.547.106-.058.266-.187.075.187.187.422c.07.148.141.304.204.468a4 4 0 0 0-.204.188q-.112.11-.265.25a45 45 0 0 1-.86.594q-.531.347-1.28.78a1.4 1.4 0 0 1-.454.22q-.41.001-.61-.125-.204-.125-.203-.407 0-.093.047-.234c.032-.102.07-.207.125-.312q.047-.123.11-.25.077-.141.125-.282.217-.608.328-1.14c.07-.352.11-.672.11-.953 0-.344-.055-.602-.157-.782a.6.6 0 0 0-.484-.312 2.2 2.2 0 0 0-.47.328q-.25.221-.515.531-.281.361-.515.594a1.8 1.8 0 0 1-.36.297 2 2 0 0 1-.297.328 2.8 2.8 0 0 1-.515.39 1 1 0 0 1-.063.126.7.7 0 0 1-.11.171l-.187-.437a5 5 0 0 0-.218-.453m0 0" style="stroke:none" transform="translate(232.689 367.75)"/></g><g style="fill:#000;fill-opacity:1"><path d="M-.36-2.906a4 4 0 0 1 .781-.86q.03-.187.063-.375a3 3 0 0 0 .032-.39q.03-.14.093-.328.06-.186.141-.391l.234-.531a7 7 0 0 1 .407-.735q.198-.215.422-.484l.453-.547q.105-.091.234-.172c.082-.05.164-.11.25-.172q.124-.044.266-.062a1.7 1.7 0 0 1 .718.016.55.55 0 0 1 .25.156q.06.082.125.234.078.157.125.39.03.188.079.423c0-.032-.016-.008-.047.062a4 4 0 0 0-.094.328l-.094.313c-.086.312-.289.68-.61 1.093q-.486.61-1.296 1.407a.6.6 0 0 0-.11.172.5.5 0 0 0-.046.218q0 .206.062.36.077.157.219.234.075.066.25.125.17.047.406.094.373-.031.688-.125.31-.094.562-.235.046-.03.156-.078.106-.059.22-.14.123.281.218.515l.156.375a6 6 0 0 1-1.016.829q-.454.28-.828.28-.159.095-.359.141a2 2 0 0 1-.469.047 1.7 1.7 0 0 1-.64-.11 1.2 1.2 0 0 1-.47-.312 1.3 1.3 0 0 1-.202-.28 8 8 0 0 1-.203-.47 2 2 0 0 0-.157-.312c-.054-.07-.109-.11-.171-.11q-.083.001-.188.079a1.4 1.4 0 0 0-.203.218 5 5 0 0 0-.14-.359Q-.2-2.591-.36-2.906m3.141-3.172q-.222 0-.578.562-.361.55-.36.813 0 .064.016.094.029.016.11.015.106.001.172-.11.06-.107.125-.202.107-.106.203-.219.107-.106.203-.219a.87.87 0 0 0 .234-.547.3.3 0 0 0-.031-.14.11.11 0 0 0-.094-.047m0 0" style="stroke:none" transform="translate(239.2 367.75)"/></g><g style="fill:#000;fill-opacity:1"><path d="m-.36-2.906.063-.078a1 1 0 0 1 .188-.282q.127-.153.359-.312c.219-.145.383-.258.5-.344q.188-.123.234-.187.075-.093.11-.157.106-.077.265-.218c.102-.094.22-.203.344-.328a.6.6 0 0 0 .156-.157q.075-.107.157-.25.123-.077.28-.218c.114-.094.24-.211.376-.36q.247-.263.547-.578.31-.31.703-.656.123-.059.234-.094a.8.8 0 0 1 .219-.031q.435.001.656.218.218.206.219.594-.001.094-.031.328c-.024.149-.047.336-.078.563q-.13.985-.188 1.203-.066.206-.406 1.344-.08.187-.172.469-.082.27-.187.656.011.033.093.078.059.001.235-.125.187-.14.468-.406.343-.31.532-.47.2-.168.25-.202.124.269.218.484l.172.406a1.4 1.4 0 0 0-.234.188c-.063.062-.125.133-.188.203q-.203.142-.484.313-.269.175-.578.39l-.406.36q-.236.204-.547.468l-.188.032a1.4 1.4 0 0 1-.265.28.8.8 0 0 1-.22.141q-.158.062-.312.11l-.328.125a.24.24 0 0 1-.156-.14.6.6 0 0 1-.047-.25 3 3 0 0 1-.234-.61 3.2 3.2 0 0 1-.078-.75v-.172c.007-.063.02-.113.03-.156a1.5 1.5 0 0 1-.077-.297c0-.196.07-.36.218-.485a.78.78 0 0 1 .516-.203c.094 0 .16.055.203.156q.077.158.14.157c.04 0 .087-.086.142-.266q.075-.28.14-.797c.04-.289.067-.547.078-.765q.03-.34.031-.516a.27.27 0 0 0-.062-.187q-.048-.062-.172-.063-.127.002-.828.594-.691.58-1.922 1.734l-.125.172-.156.234a5 5 0 0 0-.14-.359Q-.2-2.591-.36-2.906m0 0" style="stroke:none" transform="translate(244.11 367.75)"/></g><g style="fill:#000;fill-opacity:1"><path d="M-.36-2.906a4 4 0 0 1 .781-.86q.03-.187.063-.375a3 3 0 0 0 .032-.39q.03-.14.093-.328.06-.186.141-.391l.234-.531a7 7 0 0 1 .407-.735q.198-.215.422-.484l.453-.547q.105-.091.234-.172c.082-.05.164-.11.25-.172q.124-.044.266-.062a1.7 1.7 0 0 1 .718.016.55.55 0 0 1 .25.156q.06.082.125.234.078.157.125.39.03.188.079.423c0-.032-.016-.008-.047.062a4 4 0 0 0-.094.328l-.094.313c-.086.312-.289.68-.61 1.093q-.486.61-1.296 1.407a.6.6 0 0 0-.11.172.5.5 0 0 0-.046.218q0 .206.062.36.077.157.219.234.075.066.25.125.17.047.406.094.373-.031.688-.125.31-.094.562-.235.046-.03.156-.078.106-.059.22-.14.123.281.218.515l.156.375a6 6 0 0 1-1.016.829q-.454.28-.828.28-.159.095-.359.141a2 2 0 0 1-.469.047 1.7 1.7 0 0 1-.64-.11 1.2 1.2 0 0 1-.47-.312 1.3 1.3 0 0 1-.202-.28 8 8 0 0 1-.203-.47 2 2 0 0 0-.157-.312c-.054-.07-.109-.11-.171-.11q-.083.001-.188.079a1.4 1.4 0 0 0-.203.218 5 5 0 0 0-.14-.359Q-.2-2.591-.36-2.906m3.141-3.172q-.222 0-.578.562-.361.55-.36.813 0 .064.016.094.029.016.11.015.106.001.172-.11.06-.107.125-.202.107-.106.203-.219.107-.106.203-.219a.87.87 0 0 0 .234-.547.3.3 0 0 0-.031-.14.11.11 0 0 0-.094-.047m0 0" style="stroke:none" transform="translate(250.22 367.75)"/></g><g style="fill:#000;fill-opacity:1"><path d="M-.36-2.906q.049-.076.11-.156.064-.076.156-.204.094-.077.25-.218c.102-.102.223-.22.36-.344q.17-.201.422-.485.246-.28.609-.703c.101-.101.234-.238.39-.406q.235-.264.563-.64c.188-.208.383-.364.594-.47.207-.1.426-.155.656-.155q.357.001.516.218.17.222.172.64c0 .15-.06.434-.172.86a22 22 0 0 1-.516 1.672l-.172.375a3 3 0 0 0-.078.235 1 1 0 0 0-.016.14q-.002.065.079.14a.3.3 0 0 0 .078-.077q.045-.047.109-.11a1.2 1.2 0 0 1 .234-.312q.17-.154.391-.36.094-.153.234-.312.14-.17.313-.313a.5.5 0 0 0 .11-.125q.057-.093.14-.187a3 3 0 0 1 .297-.25q.187-.14.422-.297c.175-.094.332-.164.468-.219q.217-.077.375-.078a.97.97 0 0 1 .532.156q.232.142.406.454c.125.406.242.78.36 1.125q.105.3.234.453.138.14.312.14a.5.5 0 0 0 .219-.047.7.7 0 0 0 .203-.14l.39.89c-.117.094-.23.196-.343.297q-.174.142-.344.266-.222.221-.422.297a1 1 0 0 1-.39.078q-.222 0-.438-.094a.83.83 0 0 1-.344-.297 1.4 1.4 0 0 1-.203-.281q-.112-.216-.265-.531a4 4 0 0 1-.297-.328 44 44 0 0 1-.36-.5l-.093-.032q-.187.065-.375.188a2.5 2.5 0 0 0-.375.297q-.44.391-.641.484a.6.6 0 0 0-.266.235q-.129.234-.468.609c-.22.242-.496.531-.828.875l-.25.25a5 5 0 0 0-.25.234.7.7 0 0 1-.297.14 1.3 1.3 0 0 1-.36.048Q1.39.218 1.36-.047q-.034-.265-.062-.547.151-.406.328-1.015.187-.622.438-1.438c0-.031.007-.07.03-.125l.079-.234a1 1 0 0 0 .078-.219c.008-.062.016-.113.016-.156q0-.059-.047-.094c-.031-.031-.086-.047-.156-.047q-.095.001-.266.125-.158.112-.375.36-.283.298-.453.468-.16.159-.219.188-.093.064-.234.187-.128.13-.297.281a1 1 0 0 1-.063.126.7.7 0 0 1-.11.171 5 5 0 0 0-.14-.359q-.106-.216-.265-.531m0 0" style="stroke:none" transform="translate(255.13 367.75)"/></g><g style="fill:#000;fill-opacity:1"><path d="m-.36-2.906.047-.078.157-.188q.094-.123.219-.281Q.75-4.11 1.406-5c.446-.594.883-1.273 1.313-2.047q.077-.105.172-.281.091-.186.218-.453a.12.12 0 0 0-.03-.078.14.14 0 0 0-.095-.032q-.063.001-.203.032a.8.8 0 0 1-.187.03H1.109c-.125-.007-.214-.015-.265-.015-.063-.031-.121-.054-.172-.078A1 1 0 0 1 .516-8a.35.35 0 0 1-.188-.094.24.24 0 0 1-.062-.156c0-.414.039-.734.125-.953q.138-.342.406-.344.281.001.516.031.234.017.421.063.153-.03.282-.063.262.001.437.032a2 2 0 0 1 .297.046q.123-.029.234-.046.123-.03.282-.063l.312.094q.341-.046.735-.953.387-.922.828-.922c.156 0 .273.055.359.156q.124.141.125.422 0 .22-.14.594-.13.361-.141.547a.3.3 0 0 0 .047.078q.045.048.109.11.06.033.078.124.03.094.031.235-.002.578-.062.906-.048.316-.172.328l-.656.125a5 5 0 0 1-.047.25c-.024.094-.047.203-.078.328a15 15 0 0 0-.375 1.234q-.207.75-.453 1.782-.158.813-.25 1.328a5 5 0 0 0-.079.687q0 .159.047.235.046.08.157.078.044 0 .406-.282.375-.292 1.031-.843l.375.89a3 3 0 0 1-.266.266 4 4 0 0 1-.421.297 3 3 0 0 1-.25.25q-.142.128-.313.297L3.859-.5q-.173.188-.359.375a1.8 1.8 0 0 1-.453.36.9.9 0 0 1-.422.124q-.423-.001-.64-.265-.206-.248-.205-.766c0-.375.008-.703.032-.984q.044-.421.125-.672A.5.5 0 0 0 2-2.468q-.002-.094.031-.25.03-.17.063-.391.059-.389.14-.766c.063-.156.133-.32.22-.5q-.001-.046-.079-.094l-.094.063a5 5 0 0 1-.39.5q-.236.251-.547.531a85 85 0 0 1-1.016.969c-.023.031-.058.086-.11.156a2 2 0 0 0-.171.234 1.6 1.6 0 0 1-.125-.28 9 9 0 0 1-.156-.423.3.3 0 0 0-.125-.187m0 0" style="stroke:none" transform="translate(264.463 367.75)"/></g><g style="fill:#000;fill-opacity:1"><path d="m-.047-3.344.89-.578a1 1 0 0 0 .126-.125c.039-.062.094-.144.156-.25a.54.54 0 0 1 .172-.203q.124-.091.266-.172.077-.093.218-.234.153-.155.375-.344.106-.06.266-.172a2.7 2.7 0 0 0 .375-.297q.891-.843 1.547-1.265c.445-.282.828-.422 1.14-.422q.247.002.375.11A.38.38 0 0 1 5.984-7a.8.8 0 0 1-.078.375.63.63 0 0 1-.234.25 9 9 0 0 1-.531.39 5 5 0 0 1-.375.454 4 4 0 0 1-.532.437 2 2 0 0 0-.156.235q-.047.047-.187.172a6 6 0 0 1-.36.296q-.11.206-.437.547-.315.347-.86.828-.08.066-.25.313c-.117.156-.265.371-.453.64l.063.094q.217-.076.453-.234a5 5 0 0 0 .515-.438q.328-.311.532-.5.218-.186.312-.25l.125-.062q.076-.046.156-.11.452-.544.844-.796.389-.265.719-.266.2.001.313.172.106.157.125.484-.017.486-.016.938-.002.316.172.562a.58.58 0 0 0 .468.235.34.34 0 0 0 .172-.047.6.6 0 0 0 .172-.125q.077-.076.14-.156l.126-.157q.045-.03.11-.078a1 1 0 0 0 .14-.11 7 7 0 0 1 .375.891q-.222.206-.438.422-.222.224-.468.422-.299.222-.578.344-.269.11-.532.11-.645.001-.984-.36-.345-.374-.39-1.094a.6.6 0 0 0-.032-.187.4.4 0 0 0-.094-.188 1 1 0 0 0-.125.11l-.125.124a4 4 0 0 1-.328.25 7 7 0 0 0-.437.36l-.578.578q-.235.22-.329.313-.188.175-.453.343-.268.159-.578.328a3 3 0 0 1-.36.172.7.7 0 0 1-.202.063q-.468 0-.688-.219-.234-.234-.234-.719.002-.264.11-.5.11-.234.343-.468.014-.123.016-.204a.2.2 0 0 0-.032-.093.4.4 0 0 0-.062-.125q-.06-.14-.125-.313a10 10 0 0 0-.172-.36 1 1 0 0 0 .125-.155 6 6 0 0 0 .156-.282m0 0" style="stroke:none" transform="translate(269.871 367.75)"/></g><g style="fill:#000;fill-opacity:1"><path d="m-.36-2.906.047-.078.157-.188q.094-.123.219-.281Q.75-4.11 1.406-5c.446-.594.883-1.273 1.313-2.047q.077-.105.172-.281.091-.186.218-.453a.12.12 0 0 0-.03-.078.14.14 0 0 0-.095-.032q-.063.001-.203.032a.8.8 0 0 1-.187.03H1.109c-.125-.007-.214-.015-.265-.015-.063-.031-.121-.054-.172-.078A1 1 0 0 1 .516-8a.35.35 0 0 1-.188-.094.24.24 0 0 1-.062-.156c0-.414.039-.734.125-.953q.138-.342.406-.344.281.001.516.031.234.017.421.063.153-.03.282-.063.262.001.437.032a2 2 0 0 1 .297.046q.123-.029.234-.046.123-.03.282-.063l.312.094q.341-.046.735-.953.387-.922.828-.922c.156 0 .273.055.359.156q.124.141.125.422 0 .22-.14.594-.13.361-.141.547a.3.3 0 0 0 .047.078q.045.048.109.11.06.033.078.124.03.094.031.235-.002.578-.062.906-.048.316-.172.328l-.656.125a5 5 0 0 1-.047.25c-.024.094-.047.203-.078.328a15 15 0 0 0-.375 1.234q-.207.75-.453 1.782-.158.813-.25 1.328a5 5 0 0 0-.079.687q0 .159.047.235.046.08.157.078.044 0 .406-.282.375-.292 1.031-.843l.375.89a3 3 0 0 1-.266.266 4 4 0 0 1-.421.297 3 3 0 0 1-.25.25q-.142.128-.313.297L3.859-.5q-.173.188-.359.375a1.8 1.8 0 0 1-.453.36.9.9 0 0 1-.422.124q-.423-.001-.64-.265-.206-.248-.205-.766c0-.375.008-.703.032-.984q.044-.421.125-.672A.5.5 0 0 0 2-2.468q-.002-.094.031-.25.03-.17.063-.391.059-.389.14-.766c.063-.156.133-.32.22-.5q-.001-.046-.079-.094l-.094.063a5 5 0 0 1-.39.5q-.236.251-.547.531a85 85 0 0 1-1.016.969c-.023.031-.058.086-.11.156a2 2 0 0 0-.171.234 1.6 1.6 0 0 1-.125-.28 9 9 0 0 1-.156-.423.3.3 0 0 0-.125-.187m0 0" style="stroke:none" transform="translate(277.378 367.75)"/></g><g style="fill:#000;fill-opacity:1"><path d="m-.36-2.906.063-.078.031-.094q.268-.356.922-.938c.446-.382.754-.703.922-.953a.65.65 0 0 1 .234-.218.6.6 0 0 1 .25-.063q.342.001.579.172a.85.85 0 0 1 .312.5q.06.315.125.625.059.299.094.61c.05.136.11.335.172.593q.094.394.14.453.048.095.141.14a.6.6 0 0 0 .25.048q.17 0 .36-.063.185-.06.39-.219.14-.122.297-.25.17-.139.328-.265l.39.89a4 4 0 0 1-.421.36q-.251.205-.625.468a7 7 0 0 1-.672.438q-.283.14-.438.14-.89.001-1.156-.202-.252-.219-.578-1.157a2 2 0 0 0-.125-.172q-.08-.106-.172-.265a2 2 0 0 0-.203-.328q-.094-.124-.14-.125-.159.001-.423.218a5 5 0 0 0-.64.625 3 3 0 0 1-.125-.296 5 5 0 0 1-.156-.407.3.3 0 0 0-.125-.187m4.094-7.703q.234 0 .344.093.124.095.125.282a6 6 0 0 0-.094.453c-.074.242-.136.437-.187.594q-.063.22-.11.312a1 1 0 0 1-.234.375q-.158.159-.36.281c-.155.106-.288.18-.39.219a.6.6 0 0 1-.203.063 8 8 0 0 1-.312-.032q-.158-.013-.297-.015a.52.52 0 0 1-.203-.266q-.08-.201-.079-.531-.002-.295.36-.735.356-.45.625-.468.169-.217.39-.47.106-.074.266-.108.154-.047.36-.047m0 0" style="stroke:none" transform="translate(282.786 367.75)"/></g><g style="fill:#000;fill-opacity:1"><path d="M-.36-2.906q.082-.077.157-.188c.043-.07.094-.156.156-.25l.766-.515a3 3 0 0 1 .406-.422c.195-.176.438-.383.719-.625.031-.07.082-.157.156-.25q.106-.141.266-.282l.265-.234.266-.234q.14-.141.265-.282.141-.152.282-.28a1.4 1.4 0 0 1 .312-.22.9.9 0 0 1 .375-.078.7.7 0 0 1 .313.063q.124.047.125.14c-.063.149-.133.297-.203.454l.062.078q.42-.153.672-.235.247-.077.313-.078c.476 0 .832.149 1.062.438q.359.421.36 1.312 0 .158-.048.39a4 4 0 0 1-.109.485q-.112.3-.219.5-.11.188-.203.266.03.129.078.187.06.047.141.047.075 0 .156-.047a4 4 0 0 0 .203-.14q.094.204.188.437.093.236.187.453l-.343.313a5 5 0 0 1-.344.281 1.7 1.7 0 0 1-.438.266 1 1 0 0 1-.39.078.6.6 0 0 1-.375-.11.8.8 0 0 1-.235-.296 2.7 2.7 0 0 1-.593.593q-.345.27-.75.438-.253.129-.453.187a1.2 1.2 0 0 1-.36.063 1 1 0 0 0-.203.047 1 1 0 0 1-.219.031q-.564 0-1.015-.469Q.952-1.06.953-1.64q0-.234.094-.609c.07-.258.11-.414.11-.469a.15.15 0 0 0-.048-.11Q1.075-2.874 1-2.874c-.031 0-.11.055-.234.156-.125.094-.305.23-.532.406q-.033.049-.078.126a.7.7 0 0 1-.11.171 18 18 0 0 1-.187-.453 2.7 2.7 0 0 0-.218-.437m4.704-1.797a.5.5 0 0 0-.14.11q-.095.093-.173.234-.141.221-.312.484a.9.9 0 0 1-.235.172q-.13.064-.28.094c-.063.011-.134.078-.204.203q-.112.176-.219.515-.11.3-.156.516a2 2 0 0 0-.047.36q0 .281.14.421c.095.086.235.125.423.125q.435.001.812-.25.389-.246.719-.75c.101-.113.203-.226.297-.344A.4.4 0 0 0 5.094-3q.046-.14.093-.328l.172-.563a3 3 0 0 0-.156-.453q-.081-.17-.156-.218a1.3 1.3 0 0 0-.234-.063q-.159-.03-.47-.078m0 0" style="stroke:none" transform="translate(288.37 367.75)"/></g><g style="fill:#000;fill-opacity:1"><path d="M-.36-2.906q.049-.076.11-.156.064-.076.156-.204.094-.077.25-.218c.102-.102.223-.22.36-.344q.17-.201.422-.485.246-.28.609-.703c.101-.101.234-.238.39-.406q.235-.264.563-.64c.188-.208.383-.364.594-.47.207-.1.426-.155.656-.155q.357.001.516.218.17.222.172.64c0 .15-.06.434-.172.86a22 22 0 0 1-.516 1.672l-.172.375a3 3 0 0 0-.078.235 1 1 0 0 0-.016.14q-.002.065.079.14a.3.3 0 0 0 .078-.077q.045-.047.109-.11a1.2 1.2 0 0 1 .234-.312q.17-.154.391-.36.094-.153.234-.312.14-.17.313-.313a.5.5 0 0 0 .11-.125q.057-.093.14-.187a3 3 0 0 1 .297-.25q.187-.14.422-.297c.175-.094.332-.164.468-.219q.217-.077.375-.078a.97.97 0 0 1 .532.156q.232.142.406.454c.125.406.242.78.36 1.125q.105.3.234.453.138.14.312.14a.5.5 0 0 0 .219-.047.7.7 0 0 0 .203-.14l.39.89c-.117.094-.23.196-.343.297q-.174.142-.344.266-.222.221-.422.297a1 1 0 0 1-.39.078q-.222 0-.438-.094a.83.83 0 0 1-.344-.297 1.4 1.4 0 0 1-.203-.281q-.112-.216-.265-.531a4 4 0 0 1-.297-.328 44 44 0 0 1-.36-.5l-.093-.032q-.187.065-.375.188a2.5 2.5 0 0 0-.375.297q-.44.391-.641.484a.6.6 0 0 0-.266.235q-.129.234-.468.609c-.22.242-.496.531-.828.875l-.25.25a5 5 0 0 0-.25.234.7.7 0 0 1-.297.14 1.3 1.3 0 0 1-.36.048Q1.39.218 1.36-.047q-.034-.265-.062-.547.151-.406.328-1.015.187-.622.438-1.438c0-.031.007-.07.03-.125l.079-.234a1 1 0 0 0 .078-.219c.008-.062.016-.113.016-.156q0-.059-.047-.094c-.031-.031-.086-.047-.156-.047q-.095.001-.266.125-.158.112-.375.36-.283.298-.453.468-.16.159-.219.188-.093.064-.234.187-.128.13-.297.281a1 1 0 0 1-.063.126.7.7 0 0 1-.11.171 5 5 0 0 0-.14-.359q-.106-.216-.265-.531m0 0" style="stroke:none" transform="translate(295.428 367.75)"/></g><g style="fill:#000;fill-opacity:1"><path d="M2.844-.64a.56.56 0 0 1-.078.265.65.65 0 0 1-.22.234.44.44 0 0 1-.124.22.23.23 0 0 1-.188.077.96.96 0 0 1-.687-.281q-.284-.281-.438-.844l.063-.062-.094-.266c.031-.101.055-.203.078-.297.032-.093.055-.191.078-.297a.5.5 0 0 1 .172-.265.42.42 0 0 1 .25-.078q.263 0 .485.14.215.127.39.406a1.8 1.8 0 0 1 .235.532q.076.252.078.515m0 0" style="stroke:none" transform="translate(304.76 367.75)"/></g><path d="M.001 2h30" style="fill:none;stroke-width:4;stroke-linecap:butt;stroke-linejoin:miter;stroke:#000;stroke-opacity:1;stroke-miterlimit:4" transform="matrix(.75 0 0 .75 38.925 361.75)"/><path d="M-.001 2h30" style="fill:none;stroke-width:4;stroke-linecap:butt;stroke-linejoin:miter;stroke:#000;stroke-opacity:1;stroke-miterlimit:4" transform="matrix(.75 0 0 .75 313.575 361.75)"/><g clip-path="url(#a6dca86960)"><path d="m97.25.105 30.113.125.422 38.344c1.278 1.469 2.48 3.137 4.125 4.656.574.528 1.844.782 2.309 1.356.484.602-.297 1.707.219 2.281.328.367 1.375-.066 1.683.317.297.363.113.949.402 1.328.352.449 1.02-.309 1.348.207.293.46-.176 1.281.012 1.965.191.68 1.027.656 1.265 1.398.258.8-2.214 2.086-2.039 2.996.082.434.703.156 1.282.484.375.22.3.743.66 1.055.523.457 1.441.707 1.613.926.14.176.047.61-.676.852-.523.171-1.324-.04-1.945.093-.879.188-1.5.711-1.348.89.211.247.914.083 1.64.267.747.187 1.602 1.085 2.313 1.37.59.235.512-.628 1.332.055.52.434 1.083.88 1.489 1.532.433.687.71 1.582 1.273 2.011.363.278 1.164.27 1.832.39.715.134 1.305.392 1.88.372.968-.027 1.198-.312 1.89.078.254.145.285.656.62.992.349.344 1 .512 1.024.88.024.398-1.039.663-.863.987.137.247 1.398-.144 1.516.106.125.266-.176.75-.012.973.324.437 1.242.367 1.7.629.753.433 1.105 1.113 1.718 1.59.348.273-.008 1.085.324 1.402.461.433 1.102.437 1.606.886.566.504.332 1.485.898 2.079.348.363 1.531.175 1.996.488.395.27.11.644.352 1.015.328.493 1.386-.199 1.539 1.375.039.438-.242.754-.223 1.63.012.456.223.523.484.906.16.242.582.386.747.664.136.238.027.625.113.707.215.21.644-.356.883-.196.289.196.351.934.66 1.094.57.293 1.187.047 1.816.195.29.07.942.465.89.957-.062.594-.972 1.723-.628 1.833.191.062.586.39.86.242.25-.14.366-.754.683-.871.387-.141.52.316.914.156.527-.219.223-1.102 1.516-.91.171.023.87.539.976 1.297.04.285-.45.546-.5.859-.086.488.266 1.008.512 1.277.703.762 2.414-.05 2.695-.035 1.106.059 1.535.906 2.297.55.832-.386.234-.464.914-.866.422-.246 1.238-.262 1.961-.293.578-.028 1.098-.176 1.324.36.125.3.606 1.206.512 1.628-.086.39-.734.297-.773.684-.032.293.41.543.296.773-.125.262-.457.473-.511.797-.075.437.129 1.008-.102 1.465-.215.437-1.516-.043-1.574.465-.05.425-.008 1.101.309 1.437.308.328.894.313.812.746-.05.281-.5.946-.996 1.375-.246.215-.613.13-.73.399-.274.632.402 1.55.32 1.894-.094.383-.547 1.031-.625 1.465-.067.36.265.512.047.809-.258.347-1.176.43-1.286.8-.085.309.547.383.727.95.242.78.063 2.086-.062 2.511-.098.344-1.958-.261-2.06.082-.038.118.165.254.13.371-.059.196-.5 0-.559.196-.02.07.098 1.055.563 1.324.312.184.937-.394 1.215-.144.437.402.558 1.074.535 1.148-.043.148-.324.11-.426.36-.094.23.004.75-.16.89-.395.336-.977.289-1.074.598-.059.18.75.207.93.691.124.328-.481 1.125-.126 1.332.239.137.606-.078.989-.086.558-.012 1.148.172 1.398.5.352.461-.508 1.059-.45 1.637.09.867.97 1.687.895 1.926-.078.242-.257.765-.449.98-.226.262-1.309-.398-1.644-.184-.157.098-.114.387-.27.5-.2.141-1.203-.113-1.402.032-.246.183-.118.406-.29.62-.574.731-1.128 1.563-1.495 2.06-.235.312.32.242.53.464.212.219.305.875.583 1.114.488.418 1.144.44 1.097.898-.015.195-.285.516-.332.86-.046.331.125.683 0 .898-.113.191-.378.453-.773.597-.312.118-.766.118-.879.258-.324.406.613.754.598 1.172-.024.57-.887 1.211-.52 1.793.164.258.766-.543 1.051-.434.23.09.176.524.473.536.238.007.496.093.75-.047.195-.113.379-.446.617-.496.226-.055-.3.246.426.988.203.207.625 1.219 1.066 1.5.64.41 1.336.102 1.582.434.555.75.36 1.515.918 1.617.23.043.36-.254.57-.41.38-.286 1.203-.27 1.543-.813.313-.508.614-.945.743-1.488.105-.45.046-1.055.199-1.117.351-.149.59.355.996.453.304.074.773-.246 1.062-.317.348-.086.914-.043 1.223-.359.207-.215.16-.805.375-.914.352-.184.918 0 1.227-.3.355-.352.44-1.196.734-1.434.375-.31 1.207-.434 1.516-.73.261-.25-.368-1.337-.168-1.567s.418.02.617-.125c.238-.168.21-.438.433-.535.254-.114.543.542.817.585.363.063.703-.43.898-.078.156.285-.054.825.192 1.133.222.274.91.313.98.652.074.348-.629 1.07-.351 1.247.335.207.667-.348 1.207-.329.304.012.367.329.687.434.652.215 1.031.344 1.215.711.129.25.02.352-.3.793-.407.55-.563 1.457-.403 1.773.261.532 1.176-.117 1.703.04.133.042-.008.308.039.535.047.242.281.445.348.586.101.214-.555.507-.68 1.02-.113.448.527.917.617 1.358.066.329-.441.68-.379.817.14.297.961.363 1.098.664.262.582-.172 1.601.086 2.187.312.711 1.57 1.223 1.87 1.938.11.262-.573.504-.386.789.203.305.692.219.985.543.23.262.21.621.476.898.305.317 1.145.766 1.484 1.094.391.375-.183.973.196 1.352.215.21.59.191.785.558.078.149-.258.149-.211.36.063.289.512.785.668.851.336.14.96-.633 1.246-.406.2.164-.508.941-.336 1.129.184.2.79.117 1.024.273.3.196-.239.414-.04.633.141.156.836-.101 1.137.055.258.133.14.68.18.8.082.239.398.61.469 1.29.027.242-.22.398-.25.68-.043.433.105.98.035 1.187-.192.574-1.348.324-1.621.613-.364.387.199 1.246.55 1.633.336.375-.039.95.598 1.418.23.168.676.023 1.137.168.23.074.101.328.316.465.27.172.871.23 1.016.332.414.289.512.754.934.883.167.046-.16.718-.004.734.414.043.765.203 1.254 0 .316-.133.59-.649.925-.84.371-.215.797-.098 1.082-.086.594.028 1.2.813 1.762 1.094.531.27 1.023.027 1.371.371.32.313.168.82.399 1.18.171.27.73.394.941.644.187.23.008.844.125 1.113.125.293.555.25.723.516.203.313-.094.711.097 1.016.125.203.492.695.5.953.024.578-1.175.707-1.074 1.266.059.332.988.476 1.492.933.332.3-.414.684-.238 1.05.176.368 1.277.72 1.363.958.164.469-.476.746-.554 1.11-.145.69.171 1.347.89 1.847.285.191 1.14.793 2.067 1.105.43.149.875-.152 1.285.118.285.183.207.746.402 1.117.297.554.848.91 1.246.765.266-.093.93-.824.766-1.421-.11-.407-1.074-.606-.973-1.067.102-.45.735-.781 1.078-1.156.496-.535.762-1.043 1.008-1.137.328-.129.766-.039 1.035-.191.23-.133.29-.508.54-.578.761-.223 1.132.445 1.523.597.332.13.719-.285.992-.117.328.2 1.355.176 3.016.262.32.015.859.84 1.28.867.54.035.966-.723 1.372-.66.437.066.758.722 1.152.965.574.355 1.188.3 1.547.18.563-.188-.05-.618.082-1.098.102-.375.778-.543.824-.91.09-.758-.605-.848-.394-1.16.441-.657 1.187.03 1.816-.282.778-.383 1.598-1.176 2.04-.933.284.152.32 1.054.863 1.191.714.176 1.96-.418 2.343-.219.239.125.664 1.004.98 1.028.427.03.774-.817 1.321-.817.215 0 .512.313.734.285.25-.03.504-.52.754-.543.336-.035.723.457 1.043.387.567-.129.688-.797 1.258-.91.723-.149 1.192-.246 1.926-.27.836-.03 1.144 2.446 2.05 2.243.356-.079.555-.618.973-.832.872-.446 2.016-.704 2.77-.993.523-.203 1.14.114 1.656-.144.117-.055.5.383.88.324.327-.047.628-.61 1.085-.52.344.07.98.083 1.336.293.316.188.355.579.644.668.68.215 1.247-.03 1.465-.144.344-.184-.586-.309-1.093-.906-.551-.645-.684-1.77-.422-2.078.5-.583 1.328-1.137 1.386-1.805.043-.453-.703-1.04-.468-1.414.156-.246.789-.344 1.172-.461.32-.102.378-.246.664-.192.453.082.613.594.925.477.493-.18.262-1.703.528-1.582.781.355 2.433 1.45 3.148 2.32.555.676.164 1.086.77 1.75.449.492 1.093.457 1.562.965.258.277-1.402.16-1.199.45.164.23.305.753.672 1.03.297.227.832-.078 1.195.122.274.148.254.68.488.902.426.402 1.051.531 1.286.777.16.164-.172.485-.137.801.031.32.426.637.648.793.258.176.746.567 1.149.59.437.031.785-.305.96-.082l.59 93.625-188.07-.707-.148-65.559c-.008-1.207-.332-1.746.281-3.312.121-.309.64-.242 1.012-.758.281-.387.43-1.36.515-1.64.079-.266.532-.68.489-1.215-.035-.418-.578-.973-.512-1.18.25-.762 1.066-1.34 1.23-2.09.141-.633-1.316-1.355-1.164-1.953.164-.652 1.141-.856 1.684-1.332.309-.27-.113-.613.02-.945.175-.43.843-.86.699-1.266-.176-.496-1.364-.54-2.035-.887-.442-.23-.09-2.297-.622-2.504-.738-.285-1.546.793-2.41.719-.62-.05-1.246-1.86-1.832-2.016-.46-.117-.898 1.11-1.289 1.141-.988.074-1.707-.844-1.832-1.437-.097-.477.735-1.434.578-1.825-.285-.73-1.574-.82-1.593-1.562-.016-.516.757-.77.957-1.363.183-.536-.22-1.407-.055-1.899.371-1.098 1.738-1.437 2.219-2.394.195-.391-.07-.692.09-1.102.132-.336.742-.617.867-1.008.136-.441-.207-.996-.035-1.398.144-.324.605.156.761-.149.176-.34-.074-.785.063-1.254.11-.382.672-.472.89-.84.215-.359.079-1.003.239-1.261.37-.59 1.285-.93 1.953-1.125.808-.238 1.375-.328 1.828-1.09.785-1.32 2.277-2.46 2.691-4.293.102-.45.094-1.254.29-1.984.1-.403.57-.786.538-1.075-.082-.82-1.011-.93-.722-1.398.562-.918 1.39-1.016 1.89-1.793.204-.316.106-1.168.293-1.574.293-.621 1.082-.594 1.36-1.278.379-.953.52-2.496.926-3.468.355-.848.988-1.121 1.257-1.985.149-.472-.234-1.46-.047-1.851.477-.98 1.465-1.637 2.293-2.863.168-.25.047-1.079.227-1.325.254-.347.895-.418 1.105-.789.344-.597-.078-1.851.27-2.347 1.02-1.465 2.27-1.727 2.277-3.122.008-1.332-1.078-1.546-1.812-2.433-.461-.555.031-2.149-.5-2.777-.344-.41-1.024-1.094-1.684-1.227-.68-.137-1.344.277-1.914.008-.457-.215-1.113-1.524-1.633-1.664-.754-.207-1.379.75-2.043.308-.468-.312-.421-1.242-.804-1.77-.399-.55-1.223-.702-1.664-1.14-.364-.36-.282-1.234-.45-1.933-.105-.446-.476-.75-.597-1.043-.27-.653-.723-.422-1.04-1.075-.206-.43-.132-1.375-.433-1.777-.234-.309-.402-.59-.719-.766-.218-.117-.617-.097-.73-.347-.219-.496.176-.66.523-.957.41-.352.817-.825.985-1.309.09-.27.363-.96.078-1.39-.262-.403-1.07-.543-1.164-.856-.117-.394.226-.7.21-1.148-.023-.508-.417-1.164-.773-1.676-.343-.496-.836-1.707-1.32-2.168-.645-.617-1.242-.457-1.176-.95.031-.222.336-.203.528-.535.164-.285.21-.925.257-1.105-.316-32.781-.37-65.437.473-97.64Zm0 0" style="stroke:none;fill-rule:nonzero;fill:#000;fill-opacity:1"/></g><g clip-path="url(#6a8523ceaf)"><path d="M96.102 263.152s17.09-13.023 23.875-16.277c6.78-3.258 5.695-2.715 14.648-11.668s9.496-5.426 16.277-13.293 7.594-15.191 13.02-7.594c5.426 7.594 6.785 13.293 11.125 5.696 4.34-7.594 13.293-22.79 16.547-20.891 3.258 1.902 10.363 12.875 13.617 16.977 3.258 4.097 3.86 2.168 6.148 5.664 2.293 3.5 4.461 3.859 6.875 6.875 2.41 3.015 12.418-7.114 14.828-9.407 2.415-2.289 14.231 13.746 20.016 16.883 5.79 3.137 5.668 6.39 9.168 8.078 3.496 1.688 27.008 20.547 23.633 18.957-3.379-1.593-4.945-4.968-7.836-4.609-2.895.363-3.5 3.86-5.91.363-2.414-3.496-.485-5.304-7.84-9.527-7.352-4.219-9.766-7.113-12.418-5.664-2.652 1.445 2.652 5.305 3.738 9.16 1.086 3.86 3.98 11.094 1.207 6.273-2.773-4.824-2.773-6.39-6.754-9.648-3.98-3.254-3.136-2.773-5.183-4.941-2.051-2.172-3.258-5.668-5.309-9.528-2.047-3.86-1.566-8.441-3.012-6.39l-1.449 2.05s2.172 2.532 1.567 5.063c-.602 2.535 2.172 6.152 2.894 8.562.727 2.41 5.188 9.164 5.91 11.817.723 2.652 1.809 5.906-2.53-1.688-4.345-7.597-3.017-3.738-5.79-6.511s-1.445-7.356-2.773-5.426-1.93 2.894-3.618 6.27c-1.687 3.374-6.87 2.894-7.355 5.91-.48 3.011-4.582 5.785-3.617 3.132s-1.086 2.774 3.617-6.992c4.703-9.77 5.187-7.113 4.945-11.695s1.867-7.117.301-6.696-2.535 2.473-4.402 4.583c-1.867 2.113-3.797 3.921-3.977 5.789-.183 1.87-1.508 4.945-1.148 2.652.363-2.29.484-2.23.242-3.918s1.328-1.871 1.809-4.582c.484-2.715 6.269-6.45 6.03-6.934-.241-.48-3.5.243-5.429 1.93-1.93 1.688-2.348 4.461-5.305 6.45-2.953 1.991-6.812 4.644-9.222 7.175s-5.91 1.266-6.27 6.934c-.363 5.668.48 12.297-.605 8.32-1.082-3.98-.844-6.149-1.688-4.945-.844 1.207-1.324 2.53-3.86 4.343-2.53 1.805-6.148 4.34-4.218 1.446s0 1.566 4.219-4.22c4.222-5.788-1.445-4.585 3.379-8.925 4.82-4.34 17.484-13.504 17.363-14.953-.121-1.445 0-.602-3.86 1.934-3.859 2.53-8.44 3.375-11.816 7.23-3.375 3.86-11.574 4.344-10.972 9.649.601 5.304 1.93 4.945-3.016 1.93-4.941-3.016.844-3.86-6.992.363-7.84 4.218-10.73 1.687-10.73 4.582 0 2.89-7.962 8.316-9.77 7.835-1.809-.48-.965.301 1.328-1.027 2.289-1.324 1.988-1.926 3.316-2.89 1.325-.965 2.41-2.774 1.989-3.317s-1.508-.965-3.559-.422c-2.047.543-4.156.844-5.363-.3-1.207-1.149-2.11-2.172.965-1.329s1.023-1.445 6.75-2.472c5.73-1.024 3.074-2.41 10.128-5.543 7.055-3.137 8.864-2.957 11.395-4.344s3.559-2.29 5.125-5.668c1.57-3.375 2.895-1.805 2.414-5.305-.484-3.496.48-3.195-2.473-2.05-2.957 1.144-2.05-2.11-5.125 1.87-3.074 3.981-3.68 1.508-6.996 5.067-3.312 3.555-8.86 8.922-8.136 6.75.722-2.172 3.316-1.566 3.859-4.46s4.219-6.317 6.512-8.614c2.289-2.301 2.468-1.637 6.39-6.64 3.918-5.005 8.86-8.321 6.75-8.38-2.11-.062-2.11-2.113-3.011-.422-.907 1.688-1.329 1.446-3.258 3.496-1.93 2.047-3.738 1.63-4.762 4.34-1.027 2.715.48 1.328-3.496 5.184-3.98 3.86-6.934 8.684-6.332 5.969.601-2.711 1.387-1.387 2.351-5.184.965-3.797 3.56-3.98 5.848-7.176 2.293-3.191 9.828-8.078 9.707-11.273s.785-3.254-.058-4.582c-.848-1.324-.543-4.399-1.993-2.774-1.445 1.63-1.988 2.11-4.64 6.032-2.653 3.918-2.23 1.324-5.067 5.785-2.832 4.46-4.46 5.004-7.054 9.226 0 0 .03 1.703-4.762 6.399-4.793 4.695-4.25 3.61-7.324 9.304-3.074 5.7-4.25 4.524-4.25 7.961 0 0 .031.118.148 1.325.121 1.207 1.328 3.285.938 3.375-.395.093-.453-1.446-1.54-1.899-1.085-.453.063-1.355-2.32-.39-2.382.964-.843-.364-2.41-1.356-1.57-.996 2.078-3.648 1.746-5.125s1.387-1.871.754-3.316c-.633-1.45.332-1.72-.722-2.172s-6.723 7.207-9.708 7.476c-2.984.27-6.964 6.512-7.867 6.782-.906.273-3.258 2.804-2.804 1.48.453-1.328 1.898-1.57 3.347-3.527 1.446-1.961 2.11-4.914 4.07-5.852 1.958-.933 5.395-2.531 7.172-5.152s3.918-4.219 3.86-5.88c-.059-1.655 5.969-4.94 7.777-8.108 1.809-3.165 4.52-2.168 4.613-4.883.09-2.711.18-3.707-.816-4.16-.992-.454-.18 2.535-1.898 3.074-1.72.543-2.168 1.719-3.344 2.625-1.176.902-1.63 2.71-2.625 3.887-.996 1.175-2.895 1.085-3.797 3.074-.906 1.988-1.238.511.543-2.168 1.777-2.684 2.351-2.653 3.976-4.25 1.63-1.598 3.59-5.035 4.946-5.848 1.355-.816 1.355-.758 1.023-2.172-.332-1.418-.449-2.05-1.023-2.261s-1.297-.18-2.563 1.96c-1.265 2.141-4.129 4.852-5.937 6.239s-.485 1.144-4.824 4.039c-4.34 2.894-2.473 3.258-7.055 6.39-4.582 3.137-5.637 3.59-5.363 7.204.27 3.62-3.618 5.156-3.348 9.136.273 3.98-.453 11.938-1.176 7.867-.722-4.07-1.355-3.886-1.629-6.87-.27-2.989.09-5.61-2.258-4.344-2.351 1.27-1.539-.09-6.152 2.984-4.61 3.074-3.617.816-8.41 4.703-4.793 3.89-16.16 11.203-14.816 8.95" style="stroke:none;fill-rule:nonzero;fill:#fff;fill-opacity:1"/></g><path d="M0 4h500" style="fill:none;stroke-width:8;stroke-linecap:butt;stroke-linejoin:miter;stroke:#000;stroke-opacity:1;stroke-miterlimit:4" transform="matrix(.75 0 0 .75 0 260.132)"/></g></svg>