<svg xmlns="http://www.w3.org/2000/svg" width="40" height="40" version="1.0" viewBox="0 0 30 30"><defs><clipPath id="8a4ab7fd3d"><path d="M.484 0h29.032v29.031H.484Zm0 0"/></clipPath><clipPath id="1db5f47c8a"><path d="M.484 14.516C.484 22.53 6.984 29.03 15 29.03s14.516-6.5 14.516-14.515S23.016 0 15 0 .484 6.5.484 14.516m0 0"/></clipPath><clipPath id="1af1564dc8"><path d="M8 6h7v9H8Zm0 0"/></clipPath><clipPath id="9f8ac46e2b"><path d="M.484 14.516C.484 22.53 6.984 29.03 15 29.03s14.516-6.5 14.516-14.515S23.016 0 15 0 .484 6.5.484 14.516m0 0"/></clipPath><clipPath id="43605eb2c6"><path d="M4 13h12v10H4Zm0 0"/></clipPath><clipPath id="4c5b4ef0cd"><path d="M.484 14.516C.484 22.53 6.984 29.03 15 29.03s14.516-6.5 14.516-14.515S23.016 0 15 0 .484 6.5.484 14.516m0 0"/></clipPath><clipPath id="c828d32223"><path d="M8 15h6v3H8Zm0 0"/></clipPath><clipPath id="bf1a1ea5a8"><path d="M.484 14.516C.484 22.53 6.984 29.03 15 29.03s14.516-6.5 14.516-14.515S23.016 0 15 0 .484 6.5.484 14.516m0 0"/></clipPath><clipPath id="f3179d6439"><path d="M8 11h7v2H8Zm0 0"/></clipPath><clipPath id="5bdc8c7a54"><path d="M.484 14.516C.484 22.53 6.984 29.03 15 29.03s14.516-6.5 14.516-14.515S23.016 0 15 0 .484 6.5.484 14.516m0 0"/></clipPath><clipPath id="6e7d5d15f4"><path d="M9 11h4v3H9Zm0 0"/></clipPath><clipPath id="69f3596457"><path d="M9 8h3v3H9Zm0 0"/></clipPath><clipPath id="f957ca7423"><path d="M.484 14.516C.484 22.53 6.984 29.03 15 29.03s14.516-6.5 14.516-14.515S23.016 0 15 0 .484 6.5.484 14.516m0 0"/></clipPath><clipPath id="e907899b9a"><path d="M11 8h3v3h-3Zm0 0"/></clipPath><clipPath id="bf6a07b141"><path d="M.484 14.516C.484 22.53 6.984 29.03 15 29.03s14.516-6.5 14.516-14.515S23.016 0 15 0 .484 6.5.484 14.516m0 0"/></clipPath><clipPath id="5aaa41a555"><path d="M10 9h3v2h-3Zm0 0"/></clipPath><clipPath id="076013afa2"><path d="M.484 14.516C.484 22.53 6.984 29.03 15 29.03s14.516-6.5 14.516-14.515S23.016 0 15 0 .484 6.5.484 14.516m0 0"/></clipPath><clipPath id="a2ebe2a931"><path d="M8 9h2v2H8Zm0 0"/></clipPath><clipPath id="c1767f26cf"><path d="M.484 14.516C.484 22.53 6.984 29.03 15 29.03s14.516-6.5 14.516-14.515S23.016 0 15 0 .484 6.5.484 14.516m0 0"/></clipPath><clipPath id="035147313d"><path d="M12 9h3v2h-3Zm0 0"/></clipPath><clipPath id="259b7ab9f4"><path d="M.484 14.516C.484 22.53 6.984 29.03 15 29.03s14.516-6.5 14.516-14.515S23.016 0 15 0 .484 6.5.484 14.516m0 0"/></clipPath><clipPath id="7d86b09322"><path d="M7 9h2v3H7Zm0 0"/></clipPath><clipPath id="af5d269fbd"><path d="M.484 14.516C.484 22.53 6.984 29.03 15 29.03s14.516-6.5 14.516-14.515S23.016 0 15 0 .484 6.5.484 14.516m0 0"/></clipPath><clipPath id="ae75073d16"><path d="M6 18h2v5H6Zm0 0"/></clipPath><clipPath id="58b0a49cb9"><path d="M.484 14.516C.484 22.53 6.984 29.03 15 29.03s14.516-6.5 14.516-14.515S23.016 0 15 0 .484 6.5.484 14.516m0 0"/></clipPath><clipPath id="10c06a8a02"><path d="M17 10h6v7h-6Zm0 0"/></clipPath><clipPath id="7801ed2091"><path d="M.484 14.516C.484 22.53 6.984 29.03 15 29.03s14.516-6.5 14.516-14.515S23.016 0 15 0 .484 6.5.484 14.516m0 0"/></clipPath><clipPath id="4b073181cf"><path d="M14 15h12v8H14Zm0 0"/></clipPath><clipPath id="e9b60958ab"><path d="M.484 14.516C.484 22.53 6.984 29.03 15 29.03s14.516-6.5 14.516-14.515S23.016 0 15 0 .484 6.5.484 14.516m0 0"/></clipPath><clipPath id="5167a39232"><path d="M17 16h4v4h-4Zm0 0"/></clipPath><clipPath id="9a2f3fa49c"><path d="M.484 14.516C.484 22.53 6.984 29.03 15 29.03s14.516-6.5 14.516-14.515S23.016 0 15 0 .484 6.5.484 14.516m0 0"/></clipPath><clipPath id="88dacf8c2c"><path d="M19 16h4v4h-4Zm0 0"/></clipPath><clipPath id="5d8d9ed570"><path d="M.484 14.516C.484 22.53 6.984 29.03 15 29.03s14.516-6.5 14.516-14.515S23.016 0 15 0 .484 6.5.484 14.516m0 0"/></clipPath><clipPath id="787f613573"><path d="M14 8h12v11H14Zm0 0"/></clipPath><clipPath id="6870fa7201"><path d="M.484 14.516C.484 22.53 6.984 29.03 15 29.03s14.516-6.5 14.516-14.515S23.016 0 15 0 .484 6.5.484 14.516m0 0"/></clipPath><clipPath id="4455974cf6"><path d="M18 7h4v3h-4Zm0 0"/></clipPath><clipPath id="56f4c34272"><path d="M.484 14.516C.484 22.53 6.984 29.03 15 29.03s14.516-6.5 14.516-14.515S23.016 0 15 0 .484 6.5.484 14.516m0 0"/></clipPath><clipPath id="d02af353ad"><path d="M19 17h2v6h-2Zm0 0"/></clipPath><clipPath id="b6e5299750"><path d="M.484 14.516C.484 22.53 6.984 29.03 15 29.03s14.516-6.5 14.516-14.515S23.016 0 15 0 .484 6.5.484 14.516m0 0"/></clipPath><clipPath id="3b454398a8"><path d="M13 9h3v3h-3Zm0 0"/></clipPath><clipPath id="1d7f208aed"><path d="M.484 14.516C.484 22.53 6.984 29.03 15 29.03s14.516-6.5 14.516-14.515S23.016 0 15 0 .484 6.5.484 14.516m0 0"/></clipPath></defs><g clip-path="url(#8a4ab7fd3d)"><g clip-path="url(#1db5f47c8a)"><path d="M.484 23.672V5.359C.484 2.41 2.894 0 5.844 0h18.312c2.95 0 5.36 2.41 5.36 5.36v18.312c0 2.95-2.41 5.36-5.36 5.36H5.844c-2.95 0-5.36-2.41-5.36-5.36m0 0"/></g></g><g clip-path="url(#1af1564dc8)"><g clip-path="url(#9f8ac46e2b)"><path fill="#fff" d="M11.445 14.93h-.097c-.84 0-1.598-.332-2.196-.961-.734-.774-1.172-1.977-1.117-3.074-.078-1.563.524-2.844 1.649-3.524a3.37 3.37 0 0 1 3.43 0c1.124.676 1.722 1.961 1.648 3.524.05 1.093-.387 2.3-1.117 3.074-.598.625-1.36.96-2.2.96m-.047-7.344a2.7 2.7 0 0 0-1.363.371c-.922.555-1.383 1.59-1.316 2.914v.04c-.051.917.316 1.933.93 2.577a2.3 2.3 0 0 0 1.695.754h.097c.657 0 1.23-.25 1.7-.746.609-.648.976-1.664.93-2.582v-.035c.07-1.332-.4-2.367-1.321-2.918a2.6 2.6 0 0 0-1.352-.375m0 0"/></g></g><g clip-path="url(#43605eb2c6)"><g clip-path="url(#4c5b4ef0cd)"><path fill="#fff" d="M14.418 22.207H4.84a.34.34 0 0 1-.344-.344v-1.625c0-1.41.352-2.453 1.078-3.175.63-.63 1.434-.915 2.145-1.168 1.183-.426 1.797-.7 1.781-1.778a.35.35 0 0 1 .336-.351.343.343 0 0 1 .348.336c.03 1.625-1.121 2.039-2.239 2.433-1.36.488-2.765.988-2.765 3.703v1.282h9.238a.344.344 0 0 1 0 .687m.633-5.617a.3.3 0 0 1-.117-.024l-.09-.03c-1.114-.395-2.266-.813-2.235-2.434a.343.343 0 0 1 .348-.336.35.35 0 0 1 .336.351c-.023 1.078.598 1.352 1.781 1.778l.09.03c.176.063.27.259.203.438a.33.33 0 0 1-.316.227m0 0"/></g></g><g clip-path="url(#c828d32223)"><g clip-path="url(#bf1a1ea5a8)"><path fill="#fff" d="M11.355 17.41c-.66 0-1.195-.504-2.164-1.41l-.207-.191a.35.35 0 0 1-.015-.489.344.344 0 0 1 .484-.015l.207.191c.84.785 1.309 1.223 1.695 1.223h.012c.422-.008 1.055-.567 1.965-1.414a.344.344 0 0 1 .469.504c-1.18 1.101-1.766 1.59-2.418 1.597q-.011.005-.028.004m0 0"/></g></g><g clip-path="url(#f3179d6439)"><g clip-path="url(#5bdc8c7a54)"><path fill="#fff" d="M10.43 12.664a.35.35 0 0 1-.297-.168c-.106-.191-.242-.3-.403-.336-.253-.062-.617.043-1.011.293a.343.343 0 1 1-.367-.578c.398-.25.988-.52 1.546-.387q.523.129.829.657a.34.34 0 0 1-.125.468.3.3 0 0 1-.172.051m1.937 0a.4.4 0 0 1-.176-.043.347.347 0 0 1-.125-.473q.311-.527.832-.656c.559-.137 1.149.137 1.547.387.16.101.207.312.106.473a.34.34 0 0 1-.473.105c-.402-.254-.762-.355-1.015-.293-.16.04-.29.149-.403.336a.35.35 0 0 1-.293.164m0 0"/></g></g><g clip-path="url(#6e7d5d15f4)"><g clip-path="url(#9757e71716)"><path fill="#fff" d="M10.754 13.45c-.309 0-.582-.118-.746-.231a.35.35 0 0 1-.14-.332c.144-1 .874-1.45 1.53-1.45.657 0 1.383.446 1.532 1.45a.35.35 0 0 1-.145.332c-.27.191-.863.39-1.383.027a1.1 1.1 0 0 1-.648.203m-.152-.704a.49.49 0 0 0 .53-.184.33.33 0 0 1 .266-.124.33.33 0 0 1 .262.124c.18.215.38.223.531.184-.152-.457-.504-.629-.793-.629-.293 0-.644.172-.796.63m0 0"/></g></g><g clip-path="url(#69f3596457)"><g clip-path="url(#f957ca7423)"><path fill="#fff" d="M10.16 10.762a.938.938 0 1 1 0-1.876.938.938 0 0 1 0 1.876m0-1.188a.25.25 0 0 0-.25.25c0 .137.113.25.25.25s.25-.113.25-.25a.25.25 0 0 0-.25-.25m0 0"/></g></g><g clip-path="url(#e907899b9a)"><g clip-path="url(#bf6a07b141)"><path fill="#fff" d="M12.629 10.762a.938.938 0 1 1 0-1.875.938.938 0 0 1 0 1.875m0-1.188a.25.25 0 0 0-.25.25c0 .137.113.25.25.25a.25.25 0 0 0 .25-.25.25.25 0 0 0-.25-.25m0 0"/></g></g><g clip-path="url(#5aaa41a555)"><g clip-path="url(#076013afa2)"><path fill="#fff" d="M10.754 10.172a.34.34 0 0 1-.219-.082.34.34 0 0 1-.043-.48c.25-.305.715-.337.903-.337.187 0 .652.032.902.336a.34.34 0 0 1-.047.48.337.337 0 0 1-.48-.042c-.028-.031-.168-.09-.375-.09-.211 0-.352.059-.375.09a.36.36 0 0 1-.266.125m0 0"/></g></g><g clip-path="url(#a2ebe2a931)"><g clip-path="url(#c1767f26cf)"><path fill="#fff" d="M9.566 10.168a.35.35 0 0 1-.265-.125c-.07-.078-.461-.14-.7-.031a.344.344 0 0 1-.453-.176.34.34 0 0 1 .176-.45c.457-.206 1.2-.152 1.512.22a.34.34 0 0 1-.047.48.32.32 0 0 1-.223.082m0 0"/></g></g><g clip-path="url(#035147313d)"><g clip-path="url(#259b7ab9f4)"><path fill="#fff" d="M13.223 10.172a.34.34 0 0 1-.22-.082.34.34 0 0 1-.042-.48c.309-.372 1.055-.426 1.508-.22a.34.34 0 1 1-.274.626c-.238-.11-.633-.047-.703.03a.37.37 0 0 1-.27.126m0 0"/></g></g><g clip-path="url(#7d86b09322)"><g clip-path="url(#af5d269fbd)"><path fill="#fff" d="M8.258 11.95c-.445 0-.82-.2-1.047-.567a1.45 1.45 0 0 1 .043-1.508c.277-.398.734-.578 1.258-.484a.34.34 0 0 1 .277.398.334.334 0 0 1-.398.274c-.258-.043-.453.023-.575.203a.74.74 0 0 0-.023.761c.113.184.305.266.562.235a.34.34 0 0 1 .38.3.34.34 0 0 1-.297.38c-.055.007-.118.007-.18.007m0 0"/></g></g><g clip-path="url(#ae75073d16)"><g clip-path="url(#58b0a49cb9)"><path fill="#fff" d="M7.246 22.207a.34.34 0 0 1-.344-.344v-2.98c0-.188.153-.344.344-.344a.34.34 0 0 1 .348.344v2.98a.35.35 0 0 1-.348.344m0 0"/></g></g><g clip-path="url(#10c06a8a02)"><g clip-path="url(#7801ed2091)"><path fill="#fff" d="M19.852 16.434h-.079c-.804 0-1.48-.399-1.957-1.145-.671-1.055-.812-2.687-.332-3.719a.34.34 0 0 1 .203-.18.33.33 0 0 1 .27.024c.867.465 2.004-.02 3.102-.613a.33.33 0 0 1 .285-.016c.468.176.808.606.984 1.235.152.535.164 1.18.047 1.816-.29 1.578-1.281 2.598-2.523 2.598m-1.856-4.262c-.21.77-.117 1.937.399 2.754.351.547.816.824 1.378.824h.079c1.09 0 1.671-1.055 1.855-2.04.184-.987-.027-1.913-.48-2.222-1.09.578-2.22 1.02-3.23.684m0 0"/></g></g><g clip-path="url(#4b073181cf)"><g clip-path="url(#e9b60958ab)"><path fill="#fff" d="M25.207 22.207H14.418a.34.34 0 0 1-.344-.344v-1.285c0-2.637 1.563-3.183 2.707-3.582.946-.332 1.438-.539 1.426-1.351 0-.188.152-.344.34-.344h.008c.187 0 .336.148.343.336.012 1.34-1.003 1.695-1.89 2.008-1.156.406-2.246.785-2.246 2.933v.942h10.101v-.942c0-2.148-1.09-2.531-2.246-2.933-.894-.313-1.902-.668-1.89-2.008 0-.188.156-.336.351-.336a.34.34 0 0 1 .336.347c-.008.813.488 1.024 1.43 1.352 1.144.402 2.707.95 2.707 3.582v1.29a.34.34 0 0 1-.344.335m0 0"/></g></g><g clip-path="url(#5167a39232)"><g clip-path="url(#9a2f3fa49c)"><path fill="#fff" d="M18.652 19.3a.34.34 0 0 1-.28-.14l-1.29-1.805a.345.345 0 0 1 .082-.48.34.34 0 0 1 .477.082l1.09 1.527.511-.355-1.363-1.11a.343.343 0 1 1 .433-.53l1.715 1.398a.33.33 0 0 1 .125.273.34.34 0 0 1-.148.27l-1.16.808a.35.35 0 0 1-.192.063m0 0"/></g></g><g clip-path="url(#88dacf8c2c)"><g clip-path="url(#5d8d9ed570)"><path fill="#fff" d="M20.973 19.3a.3.3 0 0 1-.196-.062l-1.16-.808a.34.34 0 0 1-.023-.543l1.715-1.399a.342.342 0 1 1 .434.531l-1.364 1.114.512.351 1.086-1.527a.345.345 0 0 1 .48-.082.34.34 0 0 1 .078.48L21.25 19.16a.33.33 0 0 1-.277.14m0 0"/></g></g><g clip-path="url(#787f613573)"><g clip-path="url(#6870fa7201)"><path fill="#fff" d="M24.04 18.258a.32.32 0 0 1-.212-.074.34.34 0 0 1-.058-.48c.156-.2.156-.345-.004-.79a.34.34 0 0 1 .168-.422c.32-.156.414-.531.39-.836-.023-.34-.203-.73-.547-.844a.35.35 0 0 1-.222-.414c.144-.539-.04-.957-.453-1.597-.137-.207-.211-.504-.301-.883-.281-1.148-.672-2.715-2.934-2.715h-.058c-2.313-.023-2.704 1.559-2.985 2.715-.094.375-.164.676-.3.883-.407.625-.598 1.066-.454 1.597a.35.35 0 0 1-.222.415c-.344.117-.52.507-.547.843-.024.301.07.68.39.836.157.074.23.258.168.422-.16.445-.16.59-.004.79a.343.343 0 0 1-.539.421c-.324-.41-.3-.797-.187-1.184-.36-.296-.55-.78-.516-1.328.04-.574.317-1.066.735-1.32-.09-.723.242-1.313.597-1.863.07-.11.137-.383.211-.672.274-1.137.793-3.238 3.598-3.238h.109c2.805 0 3.32 2.101 3.598 3.238.07.289.14.562.21.672.352.547.688 1.14.599 1.863.414.262.69.746.734 1.32.035.547-.156 1.032-.516 1.328.114.391.133.778-.187 1.184a.33.33 0 0 1-.262.133m0 0"/></g></g><g clip-path="url(#4455974cf6)"><g clip-path="url(#56f4c34272)"><path fill="#fff" d="M20.727 9.281a.344.344 0 0 1-.328-.434.6.6 0 0 0-.106-.523.59.59 0 0 0-.477-.238.59.59 0 0 0-.476.238.6.6 0 0 0-.106.524.34.34 0 0 1-.238.422.343.343 0 0 1-.422-.243 1.28 1.28 0 0 1 .223-1.125c.246-.32.621-.504 1.023-.504a1.29 1.29 0 0 1 1.246 1.629.354.354 0 0 1-.34.254m0 0"/></g></g><g clip-path="url(#d02af353ad)"><g clip-path="url(#b6e5299750)"><path fill="#fff" d="M19.813 22.207a.34.34 0 0 1-.344-.344v-3.715a.344.344 0 0 1 .687 0v3.715a.34.34 0 0 1-.343.344m0 0"/></g></g><g clip-path="url(#3b454398a8)"><g clip-path="url(#1d7f208aed)"><path fill="#fff" d="M14.531 11.95a2 2 0 0 1-.187-.012.343.343 0 0 1-.297-.383.337.337 0 0 1 .379-.297q.392.047.562-.235a.74.74 0 0 0-.023-.761c-.121-.18-.317-.246-.574-.203a.346.346 0 0 1-.399-.278.34.34 0 0 1 .278-.394c.527-.094.988.082 1.257.484.301.434.313 1.055.043 1.508-.215.371-.59.57-1.039.57m0 0"/></g></g></svg>