<svg xmlns="http://www.w3.org/2000/svg" width="500" height="500" version="1.0" viewBox="0 0 375 375"><defs><clipPath id="a2c16edad3"><path d="M83.348 0h207.984v281.86H83.348Zm0 0"/></clipPath><clipPath id="2be14b93a8"><path d="M89 213h202.219v68.832H89Zm0 0"/></clipPath></defs><g clip-path="url(#a2c16edad3)"><path fill="#1263a0" d="m90.86.113 32.18.133.452 41.11c1.36 1.574 2.645 3.363 4.406 4.992.614.57 1.97.84 2.465 1.457.52.644-.312 1.828.239 2.445.343.39 1.468-.07 1.796.34.317.387.122 1.02.43 1.422.375.484 1.09-.328 1.442.222.312.493-.192 1.375.011 2.106s1.098.703 1.352 1.5c.273.86-2.367 2.238-2.18 3.21.09.47.75.169 1.367.524.407.23.325.797.707 1.13.563.487 1.543.757 1.727.991.148.188.047.653-.723.91-.562.188-1.418-.039-2.078.102-.941.203-1.605.766-1.441.957.226.262.976.09 1.754.285.797.203 1.71 1.164 2.468 1.469.63.254.547-.676 1.426.059.555.464 1.153.941 1.59 1.64.46.738.758 1.7 1.36 2.16.39.297 1.245.285 1.96.418.762.14 1.395.418 2.004.399 1.035-.031 1.285-.336 2.024.086.273.152.3.699.664 1.058.37.367 1.066.551 1.093.946.028.425-1.109.71-.921 1.058.144.266 1.492-.156 1.617.113.137.286-.184.805-.008 1.043.344.47 1.324.391 1.812.676.81.465 1.18 1.192 1.836 1.703.371.293-.007 1.164.348 1.504.492.465 1.18.469 1.719.95.601.539.351 1.59.957 2.226.37.39 1.637.188 2.133.523.422.29.117.696.379 1.09.347.528 1.48-.21 1.64 1.477.043.469-.258.808-.234 1.742.008.492.234.566.512.977.175.257.625.41.8.71.149.254.028.669.121.758.23.227.688-.379.942-.21.312.206.379 1 .71 1.171.61.317 1.266.055 1.942.215.305.07 1.004.496.95 1.024-.067.636-1.04 1.843-.676 1.964.207.063.629.418.918.258.27-.148.394-.808.734-.933.414-.153.555.34.976.168.563-.235.239-1.184 1.622-.977.183.027.93.578 1.043 1.39.043.305-.48.59-.536.923-.09.523.286 1.082.547 1.367.75.816 2.582-.051 2.88-.035 1.183.062 1.64.972 2.456.59.89-.419.246-.5.977-.93.449-.266 1.32-.281 2.097-.317.614-.027 1.172-.183 1.415.387.132.324.644 1.297.546 1.746-.093.422-.785.32-.828.735-.035.312.438.582.317.832-.133.277-.485.503-.547.851-.078.469.14 1.078-.106 1.57-.234.47-1.62-.046-1.683.5-.055.457-.008 1.18.332 1.543.328.348.953.332.867.797-.055.301-.54 1.012-1.066 1.477-.266.23-.657.137-.782.422-.289.683.434 1.664.344 2.031-.102.41-.586 1.105-.672 1.574-.066.383.29.547.05.867-.276.375-1.257.461-1.37.86-.094.328.586.406.773 1.015.262.84.07 2.239-.062 2.692-.106.37-2.094-.278-2.203.09-.04.125.175.273.136.398-.058.207-.53 0-.593.207-.024.074.101 1.133.601 1.422.336.195 1-.426 1.297-.152.469.43.598 1.148.574 1.23-.047.156-.351.113-.457.383-.097.25.004.805-.172.957-.422.36-1.043.305-1.148.64-.063.192.8.22.996.739.133.351-.516 1.207-.133 1.43.25.144.645-.086 1.055-.094.598-.012 1.226.183 1.492.535.379.496-.543 1.137-.48 1.754.097.933 1.039 1.812.957 2.066-.082.262-.274.82-.477 1.055-.246.277-1.402-.43-1.758-.2-.172.106-.125.419-.289.536-.21.152-1.285-.121-1.5.035-.262.195-.125.434-.308.668-.614.781-1.207 1.676-1.598 2.203-.25.336.34.262.57.5.223.234.32.938.621 1.192.52.449 1.22.476 1.172.964-.02.207-.304.555-.355.922-.051.356.129.73 0 .961-.121.211-.406.488-.828.645-.336.12-.82.12-.938.273-.347.438.653.809.637 1.262-.024.605-.95 1.293-.555 1.918.176.277.82-.582 1.121-.465.25.098.188.563.508.574.254.008.527.098.8-.05.212-.118.407-.477.661-.532.242-.054-.324.262.453 1.059.219.222.672 1.308 1.14 1.61.684.437 1.427.109 1.688.464.598.805.387 1.625.985 1.734.246.047.382-.27.609-.441.406-.305 1.285-.285 1.648-.871.336-.543.657-1.012.793-1.594.114-.484.051-1.133.211-1.2.38-.155.637.384 1.07.49.325.077.825-.266 1.133-.34.372-.094.977-.048 1.31-.387.218-.23.167-.86.398-.98.375-.196.98 0 1.308-.321.383-.38.477-1.281.79-1.54.398-.331 1.288-.464 1.616-.78.282-.27-.394-1.434-.18-1.684.212-.246.45.023.665-.133.25-.18.222-.465.46-.574.27-.121.579.586.872.633.39.062.75-.461.96-.086.169.304-.058.883.208 1.215.234.293.969.332 1.043.695.082.379-.672 1.152-.371 1.336.355.223.71-.371 1.285-.348.328.012.394.352.738.465.695.23 1.098.367 1.3.762.138.27.02.375-.327.851-.43.59-.598 1.563-.43 1.903.281.566 1.258-.13 1.824.039.14.047-.008.332.04.574.05.258.3.477.374.629.11.226-.593.543-.73 1.09-.117.484.566.984.66 1.46.07.352-.469.727-.402.876.148.32 1.023.39 1.168.71.285.626-.184 1.72.093 2.348.336.762 1.68 1.309 2 2.074.121.286-.613.54-.41.848.215.328.738.234 1.047.582.25.281.227.668.516.965.324.336 1.218.82 1.582 1.168.422.406-.196 1.047.21 1.45.227.23.633.206.84.6.083.16-.277.16-.23.387.07.31.55.84.715.91.363.153 1.027-.675 1.332-.433.215.172-.54 1.008-.356 1.211.196.215.844.125 1.094.289.32.211-.258.445-.047.68.157.172.895-.106 1.22.058.276.145.148.73.19.86.086.254.426.656.504 1.386.028.254-.238.426-.27.727-.046.465.114 1.047.04 1.27-.207.617-1.441.347-1.73.66-.395.414.21 1.336.582 1.75.363.402-.04 1.015.64 1.52.246.183.723.027 1.215.179.25.078.11.355.34.5.289.183.93.246 1.082.355.445.309.55.809 1.004.946.176.054-.176.77-.008.789.441.043.816.215 1.34 0 .336-.145.629-.696.992-.903.394-.226.852-.105 1.152-.09.637.028 1.285.868 1.883 1.172.567.29 1.098.032 1.465.399.344.336.18.879.43 1.265.183.29.777.422 1.004.692.203.246.007.902.132 1.191.137.317.59.27.774.555.215.336-.098.762.105 1.09.133.215.524.742.535 1.02.024.617-1.257.757-1.152 1.355.063.36 1.059.512 1.598 1 .355.324-.446.734-.254 1.129.187.394 1.363.77 1.453 1.027.18.5-.508.8-.59 1.188-.156.742.184 1.449.953 1.98.301.207 1.219.852 2.203 1.188.461.156.938-.165 1.375.125.305.199.223.8.434 1.195.316.594.902.976 1.328.824.285-.101.996-.887.82-1.527-.12-.434-1.152-.645-1.039-1.14.11-.481.782-.84 1.153-1.24.53-.573.812-1.12 1.074-1.222.351-.137.82-.039 1.105-.203.25-.14.313-.543.578-.621.813-.238 1.211.48 1.63.64.355.141.765-.304 1.058-.124.352.214 1.45.187 3.227.28.34.02.918.9 1.367.93.574.036 1.031-.773 1.465-.707.468.07.808.774 1.23 1.036.613.379 1.27.324 1.656.191.602-.203-.058-.664.082-1.176.114-.406.836-.586.883-.976.098-.813-.644-.91-.418-1.246.473-.704 1.266.035 1.938-.297.832-.414 1.707-1.262 2.18-1.004.304.164.343 1.133.925 1.277.766.188 2.094-.45 2.504-.234.254.133.711 1.074 1.047 1.101.457.032.824-.875 1.41-.879.23 0 .547.34.785.309.266-.035.535-.555.805-.582.36-.04.773.492 1.117.414.606-.14.735-.851 1.34-.976.777-.157 1.273-.262 2.062-.29.895-.035 1.223 2.625 2.192 2.407.379-.086.59-.66 1.039-.89.93-.481 2.156-.759 2.957-1.067.562-.22 1.219.12 1.773-.153.125-.062.532.41.938.348.351-.055.672-.652 1.16-.559.367.075 1.047.086 1.43.317.336.199.375.617.687.715a2.04 2.04 0 0 0 1.563-.16c.37-.196-.625-.325-1.168-.97-.586-.69-.73-1.898-.446-2.226.532-.62 1.415-1.219 1.48-1.937.044-.485-.753-1.114-.503-1.516.168-.266.844-.367 1.25-.492.344-.11.406-.266.715-.207.484.09.652.637.988.512.527-.196.281-1.825.563-1.696.836.38 2.601 1.555 3.367 2.488.59.723.172 1.165.816 1.875.485.532 1.172.493 1.676 1.036.273.297-1.5.172-1.285.48.176.25.324.809.719 1.11.316.238.89-.086 1.277.125.293.16.273.73.523.968.457.434 1.122.57 1.375.832.168.176-.183.52-.148.86.035.343.457.683.695.851.274.188.797.606 1.223.633.469.031.84-.328 1.027-.09l.63 100.38-200.985-.755-.16-70.289c-.008-1.297-.356-1.871.3-3.55.13-.333.684-.262 1.082-.817.297-.414.457-1.457.551-1.758.082-.281.567-.726.52-1.3-.04-.45-.617-1.044-.543-1.266.265-.817 1.137-1.438 1.312-2.242.149-.676-1.406-1.454-1.242-2.094.176-.7 1.215-.918 1.797-1.43.328-.289-.121-.656.02-1.008.187-.465.902-.922.75-1.36-.188-.534-1.457-.581-2.176-.952-.473-.246-.098-2.461-.664-2.684-.79-.304-1.653.852-2.578.774-.66-.059-1.329-1.996-1.957-2.16-.489-.13-.957 1.187-1.38 1.218-1.054.082-1.824-.902-1.953-1.539-.109-.508.782-1.539.618-1.957-.309-.781-1.684-.883-1.707-1.676-.016-.554.812-.824 1.027-1.46.191-.575-.238-1.508-.059-2.036.399-1.176 1.856-1.539 2.371-2.57.208-.418-.078-.738.094-1.18.14-.36.793-.66.926-1.078.148-.473-.219-1.066-.035-1.5.152-.348.644.168.816-.16.184-.363-.082-.844.063-1.344.117-.41.722-.504.953-.898.23-.39.086-1.078.258-1.356.39-.632 1.37-.996 2.086-1.207.859-.254 1.468-.347 1.953-1.168.836-1.414 2.433-2.636 2.875-4.601.11-.485.101-1.344.308-2.13.11-.429.61-.839.579-1.151-.09-.88-1.083-.993-.774-1.5.602-.981 1.488-1.086 2.02-1.918.214-.34.113-1.254.316-1.688.309-.668 1.156-.637 1.45-1.375.405-1.02.554-2.676.991-3.719.38-.906 1.051-1.195 1.344-2.12.156-.513-.254-1.571-.05-1.99.511-1.05 1.562-1.753 2.449-3.07.18-.265.05-1.156.242-1.421.27-.371.957-.446 1.183-.844.364-.64-.086-1.988.286-2.52 1.09-1.57 2.425-1.847 2.433-3.343.008-1.43-1.152-1.66-1.933-2.61-.493-.593.03-2.304-.536-2.976-.37-.442-1.093-1.172-1.8-1.317-.727-.148-1.438.297-2.043.012-.493-.234-1.192-1.637-1.746-1.789-.805-.219-1.473.809-2.188.332-.5-.332-.45-1.332-.855-1.898-.43-.59-1.309-.75-1.782-1.223-.386-.387-.3-1.32-.48-2.07-.113-.48-.508-.805-.637-1.121-.289-.696-.773-.45-1.11-1.149-.222-.465-.144-1.476-.464-1.906-.25-.332-.43-.637-.77-.82-.234-.13-.66-.11-.777-.375-.238-.532.188-.707.559-1.028.437-.379.87-.883 1.05-1.398.098-.293.387-1.035.086-1.496-.28-.43-1.148-.578-1.246-.914-.125-.422.242-.75.223-1.23-.024-.548-.445-1.25-.824-1.798-.368-.531-.895-1.832-1.41-2.328-.692-.656-1.332-.488-1.258-1.016.035-.242.36-.218.562-.574.176-.308.227-.992.278-1.183-.34-35.149-.399-70.16.503-104.688Zm0 0"/></g><g clip-path="url(#2be14b93a8)"><path fill="#fff" d="M89.64 281.754s18.301-13.945 25.563-17.43 6.098-2.906 15.684-12.492c9.586-9.582 10.168-5.809 17.43-14.23 7.261-8.422 8.132-16.266 13.94-8.133 5.81 8.133 7.263 14.234 11.911 6.097 4.644-8.132 14.23-24.398 17.715-22.363 3.488 2.031 11.094 13.785 14.582 18.172 3.484 4.39 4.129 2.324 6.582 6.07 2.453 3.743 4.777 4.13 7.36 7.36 2.581 3.226 13.296-7.618 15.878-10.07 2.582-2.454 15.235 14.714 21.43 18.074 6.2 3.355 6.07 6.84 9.812 8.648 3.746 1.809 28.918 22 25.305 20.297-3.617-1.707-5.293-5.32-8.39-4.934s-3.747 4.133-6.325.387c-2.586-3.746-.52-5.68-8.394-10.2s-10.457-7.616-13.297-6.066c-2.84 1.547 2.84 5.68 4 9.809 1.164 4.133 4.262 11.879 1.293 6.715s-2.969-6.844-7.23-10.328c-4.262-3.485-3.356-2.969-5.552-5.293s-3.484-6.067-5.68-10.2c-2.195-4.128-1.679-9.035-3.23-6.84l-1.547 2.192s2.325 2.715 1.676 5.426c-.644 2.71 2.328 6.582 3.102 9.164.773 2.582 5.55 9.812 6.324 12.652.773 2.84 1.938 6.325-2.71-1.808-4.65-8.133-3.227-4-6.196-6.97-2.969-2.972-1.551-7.878-2.969-5.812-1.422 2.067-2.066 3.102-3.875 6.715s-7.36 3.098-7.875 6.328c-.516 3.227-4.906 6.196-3.871 3.352 1.031-2.84-1.164 2.973 3.871-7.484s5.55-7.618 5.293-12.524c-.258-4.906 2-7.617.32-7.168-1.675.453-2.71 2.649-4.71 4.91-2 2.258-4.063 4.196-4.258 6.196s-1.614 5.293-1.227 2.84.516-2.391.258-4.196c-.258-1.808 1.422-2 1.937-4.906s6.711-6.906 6.453-7.422c-.257-.52-3.742.258-5.808 2.063-2.067 1.808-2.516 4.777-5.68 6.91-3.164 2.129-7.297 4.968-9.875 7.68-2.582 2.71-6.328 1.355-6.715 7.421-.386 6.07.516 13.168-.644 8.91-1.164-4.261-.906-6.582-1.809-5.293-.902 1.29-1.422 2.711-4.133 4.649-2.71 1.933-6.582 4.644-4.515 1.547 2.062-3.098 0 1.68 4.515-4.516 4.52-6.2-1.547-4.91 3.618-9.555 5.164-4.648 18.718-14.46 18.59-16.011-.13-1.547 0-.645-4.13 2.066-4.132 2.711-9.039 3.617-12.656 7.746-3.613 4.133-12.39 4.649-11.746 10.328.645 5.684 2.067 5.297-3.226 2.067-5.293-3.227.902-4.13-7.489.39-8.394 4.516-11.492 1.805-11.492 4.903s-8.52 8.91-10.457 8.39c-1.937-.515-1.031.325 1.422-1.097 2.453-1.418 2.129-2.063 3.55-3.098 1.419-1.031 2.583-2.969 2.13-3.547-.453-.582-1.614-1.035-3.809-.453s-4.453.902-5.746-.324c-1.29-1.227-2.258-2.324 1.035-1.422 3.29.906 1.098-1.547 7.227-2.645 6.132-1.097 3.293-2.582 10.847-5.937 7.551-3.356 9.489-3.164 12.2-4.649s3.808-2.453 5.484-6.066c1.68-3.617 3.101-1.937 2.586-5.68-.52-3.746.516-3.421-2.649-2.199-3.164 1.227-2.195-2.258-5.488 2.004-3.289 4.262-3.937 1.613-7.488 5.422-3.55 3.809-9.488 9.555-8.711 7.23.773-2.324 3.547-1.68 4.129-4.777s4.52-6.762 6.972-9.223c2.454-2.46 2.645-1.75 6.844-7.109 4.196-5.355 9.489-8.906 7.227-8.973-2.258-.062-2.258-2.257-3.227-.449-.969 1.805-1.422 1.547-3.484 3.742-2.067 2.196-4.004 1.743-5.102 4.649-1.097 2.902.516 1.418-3.742 5.55-4.262 4.133-7.426 9.294-6.777 6.391.644-2.906 1.484-1.488 2.515-5.55 1.036-4.067 3.809-4.262 6.262-7.684 2.453-3.418 10.524-8.649 10.395-12.07-.13-3.422.84-3.485-.067-4.907-.902-1.418-.582-4.71-2.129-2.968-1.55 1.742-2.132 2.257-4.972 6.457-2.84 4.195-2.387 1.418-5.422 6.195-3.031 4.777-4.778 5.36-7.551 9.875 0 0 .031 1.824-5.102 6.851-5.128 5.028-4.55 3.864-7.843 9.965-3.29 6.102-4.551 4.84-4.551 8.52 0 0 .035.129.164 1.422.129 1.289 1.418 3.515 1 3.613s-.484-1.547-1.645-2.031c-1.164-.485.063-1.453-2.488-.422-2.547 1.035-.902-.387-2.582-1.453-1.676-1.063 2.227-3.903 1.875-5.485-.355-1.582 1.485-2.004.805-3.55-.676-1.551.355-1.84-.774-2.325-1.129-.484-7.199 7.715-10.394 8.004-3.195.29-7.453 6.973-8.422 7.262s-3.488 3-3.004 1.582c.484-1.422 2.035-1.68 3.586-3.777 1.547-2.098 2.258-5.258 4.356-6.262 2.097-1 5.777-2.711 7.68-5.52 1.905-2.804 4.198-4.515 4.132-6.293-.062-1.773 6.39-5.293 8.328-8.68 1.934-3.39 4.84-2.323 4.938-5.23.097-2.902.195-3.968-.871-4.453-1.067-.484-.196 2.711-2.036 3.293-1.84.578-2.324 1.84-3.582 2.809-1.257.965-1.742 2.902-2.808 4.16-1.063 1.262-3.098 1.164-4.067 3.293-.968 2.129-1.32.55.582-2.324 1.903-2.871 2.516-2.84 4.262-4.551 1.742-1.707 3.84-5.387 5.293-6.262 1.453-.871 1.453-.805 1.098-2.324-.356-1.516-.485-2.195-1.098-2.418-.613-.227-1.39-.195-2.746 2.098s-4.422 5.195-6.356 6.68c-1.937 1.484-.519 1.226-5.164 4.323-4.648 3.102-2.648 3.489-7.554 6.844s-6.035 3.84-5.746 7.715c.293 3.871-3.871 5.52-3.582 9.777.293 4.262-.48 12.782-1.258 8.426-.774-4.36-1.453-4.164-1.742-7.36-.29-3.194.097-6.003-2.422-4.648-2.516 1.356-1.645-.097-6.582 3.196-4.938 3.293-3.875.87-9.008 5.035-5.129 4.164-17.3 11.996-15.863 9.582"/></g><path d="M26.086 310.072v-11.766c0-.531-.008-.957-.016-1.281a12 12 0 0 0-.062-.922q-.11-1.764-1.219-2.016-.3-.074-.64-.109a7 7 0 0 0-.657-.031c-.387 0-.578-.117-.578-.36q-.001-.294.86-.296.686 0 1.578.046.904.036 1.75.047.855.017 1.359.016.468.001 1.234-.016.781-.01 1.625-.047c.563-.03 1.07-.046 1.532-.046q.75.002.75.296c0 .243-.188.36-.563.36q-.438 0-1.094.094-.72.159-.984.64-.269.485-.344 1.422-.035.423-.047.922-.016.485-.015 1.281v11.766q0 2.625.015 4.687.013 2.051.125 3.188.062.72.344 1.187c.195.313.563.508 1.094.578q.389.048.906.094.529.047.922.047c.383 0 .578.102.578.297q-.001.362-.672.36a90 90 0 0 1-3.344-.063 85 85 0 0 0-2.28-.047q-.395-.001-1.204.016-.815.011-1.719.046-.891.047-1.61.047-.719.002-.718-.359c0-.195.192-.297.578-.297q.387 0 .703-.047c.22-.031.415-.062.594-.094q.528-.106.75-.546.217-.453.281-1.25.154-1.154.172-3.188c.008-1.351.016-2.906.016-4.656m15.554 1.547v-10.797q0-.622-.048-1.078-.034-.798-.328-1.125-.28-.328-1.031-.532a1.8 1.8 0 0 0-.547-.093c-.242-.008-.48-.016-.719-.016q-.531 0-.53-.328c0-.195.237-.297.718-.297q1.249 0 2.562.047 1.326.033 2 .031c.477 0 1.22-.008 2.22-.031 1-.031 1.976-.047 2.937-.047q1.466 0 3.156.078 1.7.082 3.406.39 1.716.301 3.297 1.016a9.6 9.6 0 0 1 2.875 2.016q1.201 1.188 2.094 3.11c.601 1.28.906 2.84.906 4.671 0 1.918-.352 3.594-1.047 5.032q-1.049 2.156-2.406 3.5-.738.72-2.125 1.562-1.376.845-3.485 1.438-2.11.592-5.015.593-.862 0-1.86-.078a56 56 0 0 0-1.921-.094q-.939-.081-1.766-.14a26 26 0 0 0-1.438-.047q-.252-.001-.734.016c-.324.007-.68.015-1.062.015q-.58.046-1.141.063-.563.014-1.063.015-.609 0-.609-.328-.002-.328.5-.328.685 0 1.125-.094.497-.105.672-.515c.125-.282.21-.649.266-1.11q.092-.968.109-2.703.03-1.733.031-3.812m4.25-5.875v3.86q-.002 2.408.015 4.062.012 1.656.047 2.125.045.58.11 1.25c.05.437.132.742.25.906.194.293.624.574 1.28.844q.985.39 2.86.39c1.437 0 2.707-.148 3.812-.453q1.654-.451 3.11-1.64 1.546-1.266 2.109-3.235.576-1.98.578-4.36-.002-2.917-.953-4.827-.957-1.904-2-2.813-1.44-1.295-3.016-1.922-1.58-.621-3.078-.797-1.501-.187-2.75-.187-.468.002-1.125.062c-.43.032-.703.086-.828.157q-.392.14-.39.609a64 64 0 0 0-.032 2.484zm34.479 7.062h-7.453q-.205 0-.282.219l-1.687 4.094q-.27.579-.375 1.093a4.6 4.6 0 0 0-.094.782q-.002.39.266.625.264.234.984.234h.469q.293 0 .375.094.094.093.094.234-.001.328-.5.328-.797-.002-1.782-.062a37 37 0 0 0-1.75-.047q-.25 0-1.328.047-1.078.06-2.343.062c-.383 0-.579-.109-.579-.328q0-.328.36-.328.222.001.469-.016c.167-.007.324-.015.468-.015q1.077-.169 1.61-.86.546-.685 1.015-1.843l8.282-19.25c.343-.82.656-1.235.937-1.235q.357 0 .516.235.17.234.422.75c.125.281.359.836.703 1.656q.513 1.219 1.25 2.953.75 1.723 1.593 3.703a2049 2049 0 0 1 1.688 3.985l1.594 3.703q.731 1.704 1.234 2.86c.406.905.773 1.589 1.11 2.046q.514.689.906.922.406.236.687.312.717.094 1.188.094.435 0 .437.328c0 .125-.078.211-.234.25-.156.051-.54.078-1.14.078q-.832-.002-2.454-.015a294 294 0 0 1-3.625-.063c-.293-.023-.523-.039-.687-.062q-.251-.047-.25-.188-.001-.281.39-.328a.42.42 0 0 0 .297-.219q.105-.2 0-.453l-2.453-6.156q-.082-.218-.328-.219m-6.797-1.687h6.11q.215 0 .156-.188l-3-7.781a.4.4 0 0 1-.047-.172c-.012-.07-.043-.11-.094-.11-.043 0-.078.04-.11.11a1 1 0 0 1-.062.172l-3.062 7.75q-.114.22.109.219m25.189-3.782h11.954c.125 0 .187-.07.187-.218v-.657q-.002-2.325-.016-3.609-.016-1.277-.015-1.969 0-.685-.047-1.14-.035-.798-.328-1.125-.282-.328-1.031-.532a1.8 1.8 0 0 0-.547-.093c-.242-.008-.47-.016-.688-.016q-.532 0-.531-.328c0-.195.227-.297.687-.297.57 0 1.172.012 1.797.031q.937.019 1.735.032.808.016 1.218.015.388 0 1.11-.015.715-.013 1.531-.032a40 40 0 0 1 1.422-.03q.686.001.687.296-.002.328-.578.328c-.218 0-.53.04-.937.11q-.61.093-.844.468-.236.362-.312 1.188-.036.456-.047 1.078a71 71 0 0 0-.016 1.828v8.969q-.001 2.079.016 3.812.012 1.736.125 2.735.076.655.312 1.078.233.41.953.515.312.035.782.063.466.033.828.031.515 0 .515.328t-.656.328q-1.547-.002-2.953-.062a69 69 0 0 0-2.047-.047q-.363-.001-1.125.016-.75.011-1.594.046-.843.047-1.453.047-.688 0-.687-.328-.002-.328.5-.328.715 0 1.156-.094.497-.105.672-.515c.125-.282.21-.649.265-1.11q.107-.967.125-2.656.014-1.699.016-3.797v-2.328q0-.187-.187-.187H98.76q-.204 0-.203.187v2.328q-.002 2.098.032 3.797c.02 1.125.066 2.024.14 2.688q.077.655.313 1.078c.156.273.46.445.922.515q.311.035.78.063.468.033.829.031.499 0 .5.328-.001.328-.64.328-1.55-.002-3.016-.062a74 74 0 0 0-2.14-.047q-.364-.001-1.08.016-.72.011-1.53.046-.798.047-1.453.047-.61 0-.61-.328-.002-.328.5-.328.685 0 1.125-.094.497-.105.672-.515c.125-.282.211-.649.266-1.11q.092-.968.11-2.703.03-1.733.03-3.812v-10.797q0-.622-.047-1.078-.034-.798-.328-1.125-.28-.328-1.03-.532a1.8 1.8 0 0 0-.548-.093c-.242-.008-.48-.016-.719-.016q-.531 0-.53-.328c0-.195.222-.297.671-.297q1.266 0 2.625.047c.914.023 1.594.031 2.031.031q.389 0 1.14-.015.765-.013 1.61-.032.844-.03 1.453-.03.657.001.657.296c0 .219-.196.328-.578.328-.243 0-.543.04-.907.11-.43.062-.718.218-.875.468q-.235.362-.312 1.188-.036.455-.047 1.14-.017.692-.016 1.97v4.265c0 .148.067.218.203.218m36.26 13.563q-3.457 0-5.922-1.078c-1.649-.719-2.985-1.672-4.016-2.86q-1.548-1.78-2.281-3.89c-.493-1.406-.735-2.79-.735-4.156 0-1.29.242-2.641.735-4.047q.732-2.109 2.297-3.907 1.576-1.793 4.109-2.906 2.53-1.125 6.14-1.125 4 0 6.907 1.406 2.918 1.407 4.484 3.97 1.561 2.546 1.563 6.062-.001 3.503-1.625 6.343-1.613 2.848-4.578 4.516-2.971 1.674-7.079 1.672m1.296-1.656q.686.002 1.594-.172a6.6 6.6 0 0 0 1.906-.735q.997-.562 1.86-1.64.874-1.077 1.39-2.828c.344-1.164.516-2.625.516-4.375q0-3.389-1.219-5.828-1.22-2.45-3.312-3.782-2.099-1.342-4.641-1.343-1.33 0-2.687.421-1.348.41-2.485 1.454-1.126 1.05-1.812 2.89-.69 1.83-.688 4.672-.002 3.142 1.156 5.703 1.154 2.55 3.297 4.063 2.138 1.5 5.125 1.5m34.995-15.516v6.344q-.001 3.457.078 5.344.093 1.892.672 2.39.47.394 1.36.594.901.204 3 .203 1.435 0 2.484-.14 1.042-.154 1.734-.876.312-.356.594-1 .293-.654.328-1.156.078-.546.406-.547c.188 0 .282.211.282.625q-.001.177-.078.985a31 31 0 0 1-.188 1.718 14 14 0 0 1-.266 1.438q-.158.565-.515.766c-.242.132-.824.203-1.75.203q-1.956 0-3.406-.047l-2.688-.063a41 41 0 0 0-2.25-.093c-.68-.012-1.39-.016-2.14-.016h-.844q-.564-.002-1.203.031-.612-.002-1.282.031-.674.047-1.203.047c-.48 0-.719-.117-.719-.359 0-.195.192-.297.579-.297q.386 0 .703-.047.326-.046.593-.094.53-.106.72-.64.199-.544.312-1.328.153-1.156.172-3.172c.007-1.344.015-2.844.015-4.5v-11.766c0-.531-.008-.957-.015-1.281a12 12 0 0 0-.063-.922q-.034-.938-.344-1.406-.3-.469-1.203-.656c-.281-.063-.68-.094-1.187-.094q-.61 0-.61-.328t.797-.328q1.248.002 2.719.062a77 77 0 0 0 2.203.047q.436.001 1.328-.016a84 84 0 0 0 1.89-.047 37 37 0 0 1 1.688-.046q.75 0 .75.328-.001.327-.64.328c-.2 0-.434.008-.703.015q-.393.02-.704.079-.719.159-1 .64-.269.485-.343 1.422-.036.423-.047.922-.017.485-.016 1.281zm16.561 7.891v-10.797q0-.622-.046-1.078-.035-.798-.329-1.125-.28-.328-1.03-.532a1.8 1.8 0 0 0-.548-.093c-.242-.008-.48-.016-.718-.016q-.533 0-.532-.328c0-.195.239-.297.72-.297q1.248 0 2.562.047 1.324.033 2 .031h8.64q.435-.03.797-.078.358-.058.547-.094.139-.046.266-.093a.55.55 0 0 1 .234-.063c.145 0 .219.102.219.297q0 .142-.094.547-.096.391-.156 1.422 0 .158-.047.593c-.024.282-.047.563-.078.844a8 8 0 0 1-.063.578q-.033.113-.11.313-.062.204-.25.203-.25.002-.25-.406a4 4 0 0 0-.046-.516 1.5 1.5 0 0 0-.172-.594 2 2 0 0 0-.547-.703q-.363-.312-1.547-.406-.204-.045-.89-.063c-.461-.007-.98-.02-1.563-.03a135 135 0 0 1-1.562-.032q-.691-.03-.953-.031-.205.001-.204.297v7.562q0 .315.204.313h2.781c.625 0 1.195-.004 1.719-.016q.795-.012 1.046-.047.575-.076.938-.14.357-.076.578-.329.188-.186.281-.297.106-.107.22-.109c.163 0 .25.11.25.328q0 .14-.048.61-.048.469-.203 1.625-.035.469-.094 1.171-.046.705-.047.875c0 .125-.023.274-.062.438q-.048.251-.266.25-.28.001-.28-.25a4 4 0 0 1-.032-.531q0-.295-.078-.578a1.75 1.75 0 0 0-.5-.797q-.363-.328-1.266-.39-.222-.047-.906-.063-.675-.013-1.5-.032c-.555-.007-1.07-.02-1.547-.03q-.721-.031-1.016-.032-.174 0-.172.328v6.984q.062 1.548.954 2.063c.601.336 1.71.5 3.328.5q.607.001 1.484-.078.891-.076 1.5-.328c.695-.313 1.156-1.067 1.375-2.266q.107-.47.36-.469.17 0 .218.235c.04.156.063.32.063.484q-.001.328-.078 1.031c-.043.469-.094.93-.157 1.375a6.3 6.3 0 0 1-.203.985q-.14.577-.469.687c-.21.07-.617.11-1.218.11-2.324 0-4.266-.04-5.828-.11a78 78 0 0 0-2.063-.062 81 81 0 0 0-1.61-.016q-.251-.001-.734.016c-.324.007-.68.015-1.062.015q-.58.046-1.14.063-.564.014-1.063.015-.61 0-.61-.328c0-.219.164-.328.5-.328q.686 0 1.125-.094.497-.105.672-.515c.125-.282.211-.649.266-1.11q.093-.968.11-2.703.03-1.733.03-3.812m40.065 3.453v3.39c0 .407-.024.657-.063.75q-.046.141-.328.329-1.595.783-3.734 1.062c-1.43.195-2.766.297-4.016.297a22.7 22.7 0 0 1-5.562-.672q-2.643-.687-4.672-2.14a10.55 10.55 0 0 1-3.22-3.735q-1.187-2.262-1.187-5.437-.001-2.45.766-4.391.78-1.935 2.047-3.36 1.277-1.417 2.719-2.25 2.278-1.34 4.422-1.656a27 27 0 0 1 4.109-.328q1.125 0 2.297.094 1.17.081 2.078.203.92.128 1.25.203.498.082 1.219.188.715.094 1.297.14c.289.024.437.141.437.36q-.002.175-.062.625-.049.456-.11 1.468a68 68 0 0 0-.047 2.938q-.002.689-.437.687-.253.001-.313-.39a6 6 0 0 0-.265-1.188q-.206-.684-.828-1.328-.674-.733-2.438-1.531c-1.18-.54-2.656-.813-4.437-.813q-1.301 0-2.875.235c-1.055.156-2.133.68-3.235 1.562q-1.346 1.079-2.14 2.86-.784 1.78-.782 4.593-.001 3.282 1.344 5.86a10.2 10.2 0 0 0 3.828 4.047q2.468 1.469 5.844 1.468c.406 0 .781-.007 1.125-.03a3.6 3.6 0 0 0 1.11-.298q.609-.281.609-1.078v-4.828c0-.594-.012-1.117-.032-1.578-.023-.531-.132-.898-.328-1.11-.187-.218-.539-.398-1.047-.546q-.175-.076-.53-.094c-.243-.008-.47-.016-.688-.016-.336 0-.5-.109-.5-.328q-.001-.28.672-.281.826.002 1.78.016.966.017 1.798.046.826.017 1.297.016.75.002 1.828-.031a44 44 0 0 1 1.875-.047q.639 0 .64.281c0 .219-.133.328-.39.328-.22 0-.508.04-.86.11q-.657.111-.922.468c-.18.243-.28.637-.312 1.188-.024.46-.031.996-.031 1.61zm17.672-2.266h-7.453q-.205 0-.281.219l-1.688 4.094q-.27.579-.375 1.093a4.6 4.6 0 0 0-.094.782q-.002.39.266.625.264.234.984.234h.47q.293 0 .374.094.094.093.094.234-.001.328-.5.328-.797-.002-1.781-.062a37 37 0 0 0-1.75-.047q-.251 0-1.328.047-1.079.06-2.344.062-.576 0-.578-.328 0-.328.36-.328.222.001.468-.016c.168-.007.324-.015.469-.015q1.076-.169 1.609-.86.545-.685 1.016-1.843l8.28-19.25c.345-.82.657-1.235.938-1.235q.358 0 .516.235.17.234.422.75c.125.281.36.836.703 1.656q.514 1.219 1.25 2.953.75 1.723 1.594 3.703a2049 2049 0 0 1 1.687 3.985l1.594 3.703q.731 1.704 1.234 2.86c.407.905.774 1.589 1.11 2.046q.514.689.906.922.406.236.687.312.717.094 1.188.094.435 0 .437.328c0 .125-.078.211-.234.25-.156.051-.539.078-1.14.078q-.832-.002-2.454-.015a294 294 0 0 1-3.625-.063c-.293-.023-.523-.039-.687-.062q-.251-.047-.25-.188 0-.281.39-.328a.42.42 0 0 0 .297-.219q.105-.2 0-.453l-2.453-6.156q-.081-.218-.328-.219m-6.797-1.687h6.11q.215 0 .156-.188l-3-7.781a.4.4 0 0 1-.047-.172c-.012-.07-.043-.11-.094-.11-.043 0-.078.04-.11.11a1 1 0 0 1-.062.172l-3.062 7.75q-.113.22.11.219m24.986-4.907v5.407c0 1.968.023 3.465.078 4.484.062 1.024.258 1.672.594 1.953q.405.363 1.39.516.984.14 2.828.14c.844 0 1.57-.039 2.188-.125q.937-.123 1.515-.75c.196-.187.375-.46.532-.828q.232-.562.265-1 .077-.468.36-.468.188.002.234.203.047.19.047.484 0 .174-.078.86-.064.69-.156 1.453c-.055.5-.125.906-.22 1.218q-.158.504-.468.657-.299.17-1.562.171-3.298-.002-5.688-.109a80 80 0 0 0-2.219-.062q-1.019-.017-1.984-.016-.253-.001-.734.016c-.325.007-.68.015-1.063.015q-.58.046-1.14.063-.564.014-1.063.015-.61 0-.61-.328-.001-.328.5-.328.687 0 1.126-.094.497-.105.671-.515c.125-.282.211-.649.266-1.11q.093-.968.11-2.703.03-1.733.03-3.812v-10.797q0-.622-.046-1.078-.036-.798-.328-1.125-.282-.328-1.032-.532c-.242-.07-.59-.109-1.046-.109q-.533 0-.532-.328c0-.195.223-.297.672-.297q1.123 0 2.422.047 1.294.033 1.938.031a62 62 0 0 0 1.234-.015c.57-.008 1.172-.02 1.797-.032a52 52 0 0 1 1.547-.03c.445 0 .672.1.672.296q0 .328-.563.328-.27.002-.61.016c-.218.011-.43.043-.624.093q-.644.095-.875.47-.236.361-.313 1.187-.035.456-.047 1.078a71 71 0 0 0-.015 1.828zm36.609 4.907h-8.031q-.223 0-.328.281l-1.938 5.14q-.252.691-.406 1.282-.14.595-.14.922-.001.468.296.797.31.314 1.14.312h.548c.363 0 .547.102.547.297 0 .242-.211.36-.625.36-.575 0-1.215-.024-1.922-.063q-1.066-.047-1.89-.047c-.188 0-.712.016-1.563.047q-1.283.06-2.688.062c-.445 0-.672-.117-.672-.359 0-.195.14-.297.422-.297q.252.001.578-.016.33-.011.547-.046 1.248-.187 1.875-1.047.64-.856 1.172-2.203l9.047-22.594q.31-.796.531-1.125.216-.328.469-.328.403 0 .906 1.156.218.504.781 1.922.575 1.424 1.391 3.469.811 2.031 1.75 4.375l1.875 4.656a453 453 0 0 1 1.734 4.344q.81 2.015 1.391 3.375.685 1.629 1.266 2.437c.382.531.738.899 1.062 1.094.32.187.602.32.844.39q.388.081.781.11.406.033.735.031c.312 0 .468.102.468.297q0 .222-.328.281-.33.077-1.328.078-.973-.002-2.812-.015a333 333 0 0 1-4-.063c-.313-.023-.575-.039-.782-.062-.199-.032-.297-.102-.297-.219 0-.195.164-.305.5-.328q.188-.06.329-.281.14-.219 0-.547l-2.875-7.625c-.075-.164-.196-.25-.36-.25m-7.312-1.813h6.625q.246.001.187-.203l-3.25-8.906q-.033-.094-.078-.203c-.023-.07-.055-.11-.094-.11q-.16.001-.218.313l-3.313 8.86q-.082.25.14.25m22.326 2.312v-10.797q0-.622-.047-1.078-.034-.796-.297-1.14c-.18-.227-.438-.392-.781-.485-.313-.094-.696-.14-1.14-.14q-.517.001-.517-.36-.001-.265.766-.266.608.001 1.422.031.808.019 1.594.032.795.016 1.234.015.387 0 1.125-.015.733-.013 1.531-.032.797-.03 1.407-.03.639 0 .64.265-.001.362-.5.36-.393.001-.937.108c-.43.063-.719.22-.875.47q-.236.361-.313 1.187-.035.456-.047 1.078a71 71 0 0 0-.015 1.828v8.969q0 2.19.015 3.953.013 1.769.125 2.734.06.627.313.985.263.363.953.468.312.035.781.063c.313.023.586.031.828.031q.499 0 .5.328 0 .328-.609.328a74 74 0 0 1-3-.062 74 74 0 0 0-2.11-.047q-.362-.001-1.093.016a59 59 0 0 0-1.563.046 27 27 0 0 1-1.484.047q-.61 0-.61-.328-.001-.328.5-.328.687 0 1.126-.094.497-.106.671-.453.185-.34.266-1.031c.063-.625.098-1.523.11-2.703q.03-1.763.03-3.953m14.653 0v-10.797q0-.622-.047-1.078-.036-.798-.328-1.125-.282-.328-1.032-.532a1.8 1.8 0 0 0-.546-.093c-.243-.008-.48-.016-.72-.016q-.531 0-.53-.328c0-.195.238-.297.718-.297q1.25 0 2.563.047 1.325.033 2 .031c.476 0 1.219-.008 2.219-.031 1-.031 1.976-.047 2.937-.047q1.467 0 3.156.078 1.7.082 3.407.39 1.715.301 3.296 1.016a9.6 9.6 0 0 1 2.875 2.016q1.202 1.188 2.094 3.11c.602 1.28.906 2.84.906 4.671q-.002 2.876-1.046 5.032-1.048 2.156-2.407 3.5-.737.72-2.125 1.562-1.376.845-3.484 1.438-2.109.592-5.016.593-.862 0-1.859-.078a56 56 0 0 0-1.922-.094q-.939-.081-1.766-.14a26 26 0 0 0-1.437-.047q-.253-.001-.734.016c-.325.007-.68.015-1.063.015q-.58.046-1.14.063-.565.014-1.063.015-.61 0-.61-.328-.001-.328.5-.328.687 0 1.126-.094.497-.105.671-.515c.125-.282.211-.649.266-1.11q.093-.968.11-2.703.03-1.733.03-3.812m4.25-5.875v3.86q0 2.408.015 4.062.012 1.656.047 2.125.046.58.11 1.25c.05.437.132.742.25.906.195.293.625.574 1.28.844q.985.39 2.86.39c1.438 0 2.707-.148 3.813-.453q1.653-.451 3.11-1.64 1.545-1.266 2.108-3.235c.383-1.32.579-2.773.579-4.36q-.002-2.917-.954-4.827-.955-1.904-2-2.813-1.44-1.295-3.015-1.922c-1.055-.414-2.078-.68-3.078-.797q-1.501-.187-2.75-.187-.47.002-1.125.062c-.43.032-.703.086-.828.157q-.392.14-.391.609a64 64 0 0 0-.031 2.484zM111.914 357.01q-1.565-.001-2.844-.22a9.7 9.7 0 0 1-2.422-.718q-.44-.17-.562-.406-.127-.234-.125-.813c0-.988.023-1.945.078-2.875q.074-1.404.11-1.844.03-.386.124-.656c.063-.187.164-.281.313-.281.164 0 .266.07.297.203q.06.206.062.406c0 .242.024.531.078.875.063.336.141.656.235.969q.607 1.986 2.047 2.812a6.15 6.15 0 0 0 3.11.829q1.607.001 2.687-.625c.726-.426 1.265-.957 1.609-1.594.351-.633.531-1.266.531-1.89q-.001-.904-.265-1.766c-.168-.57-.508-1.188-1.016-1.844q-.75-.996-2.25-2.156l-1.656-1.297q-2.957-2.325-4.14-4.328-1.19-2-1.188-4.204c0-1.312.343-2.476 1.03-3.5q1.046-1.529 2.923-2.406 1.875-.89 4.36-.89 1.763.001 2.937.218 1.17.204 1.843.391.516.11.516.437 0 .363-.078 1.282c-.055.605-.078 1.617-.078 3.031 0 .719-.133 1.078-.39 1.078-.243 0-.36-.21-.36-.64q0-.248-.188-.97-.175-.732-.75-1.406-.391-.514-1.281-1.14c-.586-.414-1.465-.625-2.64-.625q-1.987.001-3.141 1.047-1.142 1.032-1.14 2.656c0 .812.257 1.602.78 2.36q.796 1.14 3.032 2.827l1.015.75q2.185 1.63 3.469 3.094c.851.969 1.469 1.938 1.844 2.906.382.97.578 2.032.578 3.188q-.002 1.547-.719 3.281c-.48 1.149-1.367 2.14-2.656 2.985a8.1 8.1 0 0 1-2.813 1.156q-1.47.311-2.906.312m16.952-9.39v-10.797q0-.622-.047-1.078-.035-.798-.328-1.125-.28-.328-1.031-.532a1.8 1.8 0 0 0-.547-.093c-.242-.008-.48-.016-.719-.016q-.532 0-.531-.328c0-.195.238-.297.719-.297q1.249 0 2.562.047 1.326.033 2 .031h8.641q.434-.03.797-.078.358-.058.547-.094.138-.046.265-.093a.55.55 0 0 1 .235-.063c.144 0 .218.102.218.297q0 .142-.093.547-.096.392-.157 1.422 0 .158-.047.593c-.023.282-.046.563-.078.844a8 8 0 0 1-.062.578q-.035.113-.11.313-.063.204-.25.203-.25.002-.25-.406a4 4 0 0 0-.046-.516 1.5 1.5 0 0 0-.172-.594 2 2 0 0 0-.547-.703q-.363-.312-1.547-.406-.206-.045-.89-.063c-.462-.007-.981-.02-1.563-.03a135 135 0 0 1-1.563-.032q-.69-.03-.953-.031-.203.001-.203.297v7.562q0 .315.203.313h2.781q.936.001 1.72-.016.794-.012 1.046-.047.574-.076.938-.14.357-.076.578-.329.187-.186.281-.297.107-.107.219-.109c.164 0 .25.11.25.328q0 .14-.047.61c-.031.312-.102.855-.203 1.625q-.036.469-.094 1.171-.047.705-.047.875c0 .125-.023.274-.062.438q-.048.251-.266.25-.281.001-.281-.25a4 4 0 0 1-.032-.531q0-.295-.078-.578a1.75 1.75 0 0 0-.5-.797q-.363-.328-1.265-.39-.222-.047-.907-.063-.674-.013-1.5-.032c-.554-.007-1.07-.02-1.546-.03q-.721-.031-1.016-.032-.174 0-.172.328v6.984q.062 1.548.953 2.063c.602.336 1.711.5 3.328.5.407 0 .899-.024 1.485-.078q.89-.076 1.5-.328c.695-.313 1.156-1.067 1.375-2.266q.106-.47.36-.469.17 0 .218.235c.039.156.062.32.062.484q0 .328-.078 1.031c-.043.469-.094.93-.156 1.375a6.3 6.3 0 0 1-.203.985q-.14.578-.469.687c-.21.07-.617.11-1.219.11-2.324 0-4.265-.04-5.828-.11a78 78 0 0 0-2.062-.062 81 81 0 0 0-1.61-.016q-.253-.001-.734.016c-.324.007-.68.015-1.063.015q-.578.046-1.14.063-.563.014-1.063.015-.609 0-.609-.328-.002-.328.5-.328.686 0 1.125-.094.497-.105.672-.515c.125-.282.21-.649.265-1.11q.093-.968.11-2.703.03-1.734.031-3.812m20.736 0v-10.797q0-.622-.047-1.078-.035-.798-.328-1.125-.28-.328-1.031-.532a1.8 1.8 0 0 0-.547-.093c-.242-.008-.48-.016-.719-.016q-.532 0-.531-.328c0-.195.238-.297.719-.297q1.247 0 2.547.047 1.296.033 1.765.031.546 0 1.532-.015.996-.013 1.968-.032a54 54 0 0 1 1.438-.03q1.512 0 3.125.233 1.624.236 2.89 1.063.668.47 1.454 1.578.78 1.095.78 2.64 0 1.69-1.03 3.298-1.032 1.593-3.375 3.468l3.812 4.657q1.7 2.05 3.14 3.484 1.327 1.33 2.173 1.64.855.3 1.218.376.247.035.407.046.169.017.343.016.389 0 .39.328 0 .328-.608.328h-3.016c-.899 0-1.594-.047-2.094-.14a5.2 5.2 0 0 1-1.36-.469q-1.018-.514-2.015-1.625a45 45 0 0 1-2.312-2.875 72 72 0 0 1-1.22-1.703c-.405-.594-.765-1.117-1.077-1.578q-.47-.685-.688-.907a.83.83 0 0 0-.578-.203l-2.844-.078c-.168 0-.25.086-.25.25v.438c0 1.418.008 2.699.032 3.843q.03 1.706.14 2.672c.051.461.149.828.297 1.11q.217.41.938.515.357.035.797.063.45.033.75.031c.257 0 .39.11.39.328q-.001.328-.64.328-.908 0-1.97-.047-1.065-.035-1.89-.046a59 59 0 0 0-1.078-.016q-.282-.001-.969.016-.689.011-1.484.046c-.524.032-1 .047-1.438.047q-.609 0-.609-.328c0-.219.164-.328.5-.328q.686 0 1.125-.094.497-.105.672-.515c.125-.282.21-.649.266-1.11q.092-.968.109-2.703.03-1.734.031-3.812m4.031-12.14v9.108q0 .41.282.547.515.141 1.172.22.668.063 1.25.062.937 0 1.375-.11c.3-.07.582-.203.843-.39q.734-.5 1.39-1.579.671-1.078.673-2.953c0-1.445-.274-2.554-.813-3.328q-.815-1.172-1.953-1.64-1.125-.47-2.062-.47c-.387 0-.758.009-1.11.016-.343.012-.601.043-.765.094q-.282.111-.282.422m25.665 19.594-7.984-18.719q-.548-1.265-1.016-1.656c-.312-.27-.758-.473-1.328-.61a4.5 4.5 0 0 0-.703-.093c-.227-.008-.406-.016-.531-.016q-.36 0-.36-.328c0-.195.266-.297.797-.297q1.264 0 2.516.047c.844.023 1.539.031 2.094.031q.607.002 1.718-.031 1.124-.047 2.313-.047c.187 0 .36.024.515.063q.235.046.235.234-.001.328-.5.328-.363.001-.703.031c-.23.024-.403.078-.516.172a.71.71 0 0 0-.328.625q0 .282.187.875.202.597.532 1.422l5.328 13.719h.11q.386-.937 1.077-2.547a605 605 0 0 0 1.47-3.516c.53-1.257 1.038-2.5 1.53-3.718.5-1.227.942-2.313 1.328-3.25q.576-1.407.782-2.016.107-.292.203-.61.094-.327.094-.515c0-.258-.149-.438-.438-.531a3.2 3.2 0 0 0-.61-.11 8 8 0 0 0-.64-.03q-.549 0-.547-.329c0-.195.301-.297.906-.297q1.185 0 2.141.047.952.033 1.234.031c.258 0 .704-.008 1.329-.031a34 34 0 0 1 1.656-.047c.437 0 .656.102.656.297q-.001.328-.5.328-.269.001-.719.031-.44.036-.828.328-.298.204-.672.72-.375.502-.984 1.968a72 72 0 0 1-1.188 2.625q-.549 1.16-1.156 2.484-.61 1.314-1.484 3.172-1.502 3.361-2.594 5.797a257 257 0 0 1-1.61 3.563q-.58 1.348-.89 1.78-.298.454-.625.454-.33 0-.578-.375-.25-.375-.719-1.453m17.932-7.453v-10.797q0-.622-.047-1.078-.033-.796-.297-1.14c-.18-.227-.437-.392-.78-.485-.313-.094-.696-.14-1.141-.14q-.516.001-.516-.36-.001-.265.766-.266.608.001 1.421.031.809.019 1.594.032.796.016 1.235.015.385 0 1.125-.015.733-.013 1.53-.032.797-.03 1.407-.03.64 0 .64.265 0 .362-.5.36-.391.001-.937.108c-.43.063-.719.22-.875.47q-.235.361-.312 1.187-.036.456-.047 1.078a71 71 0 0 0-.016 1.828v8.969q-.001 2.19.016 3.953.012 1.769.125 2.734.06.627.312.985.264.363.953.468.313.035.782.063.467.033.828.031.499 0 .5.328 0 .328-.61.328a74 74 0 0 1-3-.062 74 74 0 0 0-2.109-.047q-.362-.001-1.094.016a59 59 0 0 0-1.562.046 27 27 0 0 1-1.485.047q-.609 0-.609-.328c0-.219.164-.328.5-.328q.685 0 1.125-.094.497-.106.672-.453c.125-.226.21-.57.266-1.031.062-.625.097-1.523.109-2.703q.03-1.763.031-3.953m26.027 9.281q-3.253 0-5.984-.75a13 13 0 0 1-4.89-2.563q-1.548-1.323-2.423-2.859a11 11 0 0 1-1.203-3.11 15 15 0 0 1-.328-3.062q0-1.042.297-2.484.31-1.435 1.094-3 .795-1.576 2.312-2.906 1.718-1.513 4.11-2.375c1.601-.57 3.582-.86 5.937-.86q1.467 0 2.5.094 1.031.083 2.11.234a95 95 0 0 1 1.687.282q.796.141 1.469.218c.312.024.469.141.469.36q-.001.176-.032.515l-.11 1.172c-.023.5-.038 1.102-.046 1.797q-.017 1.048-.062 1.516-.065.75-.422.75-.329.002-.328-.64a4.8 4.8 0 0 0-.329-1.485 3.44 3.44 0 0 0-.906-1.36q-.783-.793-2.36-1.297-1.563-.499-3.75-.5-2.095.002-3.5.391a6.3 6.3 0 0 0-2.484 1.328q-1.77 1.517-2.343 3.625a16.8 16.8 0 0 0-.563 4.344q-.001 2.735.906 4.75.92 2.017 2.407 3.344 1.5 1.329 3.234 1.984c1.156.43 2.258.64 3.313.64q2.121 0 3.406-.28 1.277-.295 2.203-1.344.405-.452.703-1.032.31-.574.39-1.015.094-.61.391-.61.171 0 .266.188a.75.75 0 0 1 .094.36c0 .117-.04.437-.11.968a101 101 0 0 1-.25 1.672q-.14.878-.328 1.422-.112.394-.265.562-.158.159-.563.328-.938.374-2.562.532a34 34 0 0 1-3.157.156m14.005-9.281v-10.797q0-.622-.047-1.078-.034-.798-.328-1.125-.28-.328-1.03-.532a1.8 1.8 0 0 0-.548-.093c-.242-.008-.48-.016-.719-.016q-.531 0-.53-.328c0-.195.237-.297.718-.297q1.249 0 2.562.047 1.326.033 2 .031h8.641q.435-.03.797-.078.358-.058.547-.094.14-.046.265-.093a.55.55 0 0 1 .235-.063c.144 0 .219.102.219.297q0 .142-.094.547-.096.391-.156 1.422 0 .158-.047.593c-.024.282-.047.563-.078.844a8 8 0 0 1-.063.578q-.034.113-.11.313-.062.204-.25.203-.25.002-.25-.406a4 4 0 0 0-.046-.516 1.5 1.5 0 0 0-.172-.594 2 2 0 0 0-.547-.703q-.363-.312-1.547-.406-.205-.045-.89-.063c-.461-.007-.98-.02-1.563-.03a135 135 0 0 1-1.562-.032q-.69-.03-.954-.031-.203.001-.203.297v7.562q0 .315.203.313h2.782q.935.001 1.718-.016.797-.012 1.047-.047.575-.076.938-.14.356-.076.578-.329.188-.186.281-.297.107-.107.219-.109c.164 0 .25.11.25.328q0 .14-.047.61-.048.469-.203 1.625-.035.469-.094 1.171-.047.705-.047.875c0 .125-.023.274-.062.438q-.048.251-.266.25-.28.001-.281-.25a4 4 0 0 1-.031-.531q-.002-.295-.078-.578a1.75 1.75 0 0 0-.5-.797q-.364-.328-1.266-.39-.222-.047-.906-.063-.675-.013-1.5-.032c-.555-.007-1.07-.02-1.547-.03q-.721-.031-1.016-.032-.174 0-.172.328v6.984q.062 1.548.953 2.063c.602.336 1.711.5 3.329.5q.607.001 1.484-.078.891-.076 1.5-.328c.695-.313 1.156-1.067 1.375-2.266q.106-.47.36-.469.17 0 .218.235c.04.156.063.32.063.484q-.001.328-.079 1.031c-.043.469-.093.93-.156 1.375a6.3 6.3 0 0 1-.203.985q-.14.578-.469.687c-.21.07-.617.11-1.218.11-2.325 0-4.266-.04-5.829-.11a78 78 0 0 0-2.062-.062 81 81 0 0 0-1.61-.016q-.252-.001-.734.016c-.324.007-.68.015-1.062.015q-.58.046-1.14.063-.565.014-1.063.015-.61 0-.61-.328c0-.219.164-.328.5-.328q.686 0 1.125-.094.497-.105.672-.515c.125-.282.211-.649.266-1.11q.092-.968.11-2.703.03-1.734.03-3.812m24.158 9.281c-.918 0-1.836-.055-2.75-.156q-1.36-.158-2.406-.625c-.242-.125-.402-.242-.484-.36-.086-.125-.125-.351-.125-.687q0-1.266.062-2.485.077-1.23.125-1.593 0-.781.39-.782c.145 0 .235.055.266.157q.061.156.063.343 0 .721.281 1.579.357 1.127 1.172 1.796.81.659 1.844.954a7.8 7.8 0 0 0 2.031.28q2.045 0 3.219-1.124 1.172-1.137 1.172-2.766-.001-.686-.204-1.344-.206-.668-.875-1.406-.656-.731-2.062-1.562l-1.828-1.094q-2.813-1.652-3.89-3.281-1.08-1.641-1.079-3.657 0-1.874 1.078-3.25 1.077-1.389 2.89-2.14c1.22-.508 2.556-.766 4.016-.766q1.547.001 2.72.172 1.17.159 1.78.328.436.11.438.39-.002.298-.063 1.095-.045.784-.046 2.578-.002.984-.391.984-.328.002-.328-.547-.001-.218-.172-.828-.158-.608-.656-1.187-.363-.434-1.172-.938-.813-.499-2.36-.5-1.687 0-3 .844t-1.312 2.437q-.001.675.25 1.297c.164.406.488.836.969 1.281.476.438 1.187.922 2.125 1.454l1.297.718q3.124 1.723 4.296 3.532 1.173 1.8 1.172 3.875c0 1.136-.242 2.171-.718 3.109q-.72 1.395-2.454 2.625-1.113.783-2.578 1.016-1.453.234-2.703.234m0 0"/><path fill="none" stroke="#1263a0" stroke-width="5.621" d="M0 281.734h375"/></svg>