<svg xmlns="http://www.w3.org/2000/svg" width="500" height="500" version="1.2" viewBox="0 0 375 375"><defs><clipPath id="0a4549ad3d"><path d="M90.055 37.5h194.593v263.715H90.055Zm0 0"/></clipPath><clipPath id="a3fa056c0b"><path d="M95 236h189.54v65.191H95Zm0 0"/></clipPath></defs><g id="f770805812"><path d="M0 0h375v375H0z" style="fill:#fff;fill-opacity:1;stroke:none"/><path d="M0 0h375v375H0z" style="fill:#fff;fill-opacity:1;stroke:none"/><g style="fill:#fff;fill-opacity:1"><path d="M-.344-4.578a1 1 0 0 1-.031-.203c-.008-.051-.016-.098-.016-.14q0-.388.094-.657.094-.282.281-.469.048-.047.235-.14c.133-.063.304-.133.515-.22a1.1 1.1 0 0 0 .36-.25.6.6 0 0 0 .156-.359 1.6 1.6 0 0 1 .125-.375c.07-.144.156-.3.25-.468q.047-.06.281-.797.235-.75.657-2.172.123-.435.234-.75.122-.311.203-.547.375-.982.61-1.297a4 4 0 0 0 .359-.515V-14l-.36-.562.454-.532.593-.125q.172-.013.313-.312.152-.31.515-.672.078-.029.266-.156.187-.123.469-.344A2.5 2.5 0 0 1 6.625-17a.7.7 0 0 1 .281-.094q.312 0 .453.14.141.13.141.329-.001.269-.266.766c-.18.324-.265.57-.265.734q0 .128.047.203.044.082.125.094l1.406.765q.107.048.203.376.093.314.156.874.075.47.11.782.045.314.046.5-.08.502-.171 1.015.124.658.265 1.391-.08.691-.156 1.406-.002.066.031.125.03.05.094.063.188 0 .281.093c.07.063.11.153.11.266a.8.8 0 0 1-.063.328.5.5 0 0 1-.187.203 3 3 0 0 0-.235.172.5.5 0 0 0-.125.11l.156.718-.218 1.672q-.001.205-.031.531-.035.331-.11.766-.112.316-.172.531-.063.205-.062.282.06.187.11.422-.065.314-.142.625-.08.314-.156.625-.128.405-.344.593a.67.67 0 0 1-.484.203.25.25 0 0 1-.234-.14Q7.155.34 7.156.079q-.002-.123.032-.345.046-.234.046-.343 0-.077-.03-.22a2 2 0 0 1-.016-.25q-.001-.326.062-1.046.062-.717.063-1.094a3 3 0 0 1-.11-.406q.03-.217.031-.437.012-.234 0-.438l.172-.312-.156-1.094-.078-.032a.7.7 0 0 0-.203.047 1.5 1.5 0 0 0-.328.172q-.142.049-.453.11-.3.046-.782.046A6 6 0 0 1 5-5.374q-.268.065-.672.219-.409.141-.953.343-.314.158-.578.25-.268.08-.438.079a.3.3 0 0 0-.234.109.9.9 0 0 0-.156.313 2.6 2.6 0 0 1-.172.515c-.086.219-.203.492-.36.813a5 5 0 0 0-.125.406q-.081.27-.187.656l-.156.39Q.874-1.058.75-.75q-.001.142-.031.344C.695-.27.672-.11.64.078L.469.484a8 8 0 0 1-.25.563.56.56 0 0 1-.266.266.94.94 0 0 1-.453.093.38.38 0 0 1-.312-.14c-.07-.086-.11-.22-.11-.407q0-.315.078-.703.064-.389.203-.86c.118-.413.215-.75.297-1q.112-.388.125-.577l.11-.297q.063-.218.156-.516c.07-.195.14-.422.203-.672l-.062-.093-.375.062a.25.25 0 0 1-.188-.11.46.46 0 0 1-.062-.25q0-.076.03-.171a2 2 0 0 1 .063-.25m4.266-2.156q.264.001.781-.125.53-.124.813-.125.151.034.328.062.281-.059.562-.14.282-.076.578-.141.124-.013.172-.078a.24.24 0 0 0 .063-.172 7 7 0 0 1 0-.969q.03-.28.093-.578l-.14-.531.047-.485a8 8 0 0 1-.078-.468 1.1 1.1 0 0 1 0-.391 1 1 0 0 1-.094-.156 1.4 1.4 0 0 0-.125-.219 4 4 0 0 0-.234-.375A5 5 0 0 1 6.453-12a1.4 1.4 0 0 0-.36-.328.8.8 0 0 0-.39-.11c-.156 0-.32.126-.484.376q-.236.377-.453 1.14a5 5 0 0 1-.188.39 21 21 0 0 1-.453.75q-.048.457-.312 1.126-.27.656-.75 1.547a.4.4 0 0 0-.079.14v.125q0 .08.047.125c.031.024.07.032.125.032q.106.001.375-.016.263-.03.39-.031m0 0" style="stroke:none" transform="translate(43.008 328.636)"/></g><g style="fill:#fff;fill-opacity:1"><path d="m-.422-3.5.063-.078.046-.11q.206-.264.36-.406l.234-.234q.061-.062.25-.156.2-.094.547-.235l.156-.093q.077-.125.282-.36c.144-.164.316-.36.515-.578q.06-.06.172-.14a2.4 2.4 0 0 0 .25-.22q.282-.264.563-.546.28-.295.53-.578.095-.106.423-.375l.89-.766q.093-.06.297-.172l.547-.265a.52.52 0 0 0 .234-.235.9.9 0 0 0 .079-.406 1.7 1.7 0 0 0 .172-.36q.091-.216.171-.515.123-.357.188-.578.058-.235.094-.328.2-.515.547-1.22c.226-.476.5-1.023.812-1.64q.232-.466.547-1.062.201-.295.437-.438.246-.14.516-.14.218 0 .313.172.107.157.109.468c0 .336-.027.656-.078.969a2.8 2.8 0 0 1-.25.844.8.8 0 0 0-.078.25 6 6 0 0 0-.032.39.9.9 0 0 1-.093.329 3 3 0 0 1-.188.28.7.7 0 0 1-.031.188 8 8 0 0 1-.047.266l-.156.203a.5.5 0 0 0-.031.188V-11a1 1 0 0 1-.079.281q-.08.204-.25.578c-.125.274-.226.485-.296.641a3 3 0 0 0-.126.281 2 2 0 0 0-.124.203q-.066.129-.172.282l.03.265-.75 2.688q0 .455.016.765c.008.211.032.375.063.5q.06.207.188.5.137.282.359.61.122.223.297.328.188.094.375.094c.156 0 .304-.04.453-.125q.234-.122.469-.391.139.314.265.578c.082.18.149.344.203.5a3 3 0 0 0-.265.25q-.188.204-.5.578a1.1 1.1 0 0 1-.469.328q-.268.094-.672.094c-.586 0-1.058-.148-1.422-.453Q5.982-2.093 5.75-3q-.048-.187-.078-.328-.035-.139-.063-.266a2.4 2.4 0 0 0-.28-.469q-.095.113-.141.172-.142.095-.313.266a4 4 0 0 0-.344.453 1.6 1.6 0 0 1-.125.281c-.062.118-.148.25-.25.407-.25.293-.508.586-.765.875q-.394.438-.782.859-.516.58-.968.86-.438.28-.766.28Q.28.39 0 .11t-.281-.86q.002-.264.203-.75.201-.499.203-.734l-.078-.188Zm5.89-3.344a.5.5 0 0 0-.046-.172c-.117.118-.262.25-.438.407q-.253.234-.593.515A5 5 0 0 1 4-5.5q-.282.409-.812 1-.16.175-.422.61c-.168.28-.375.632-.625 1.046a5 5 0 0 0-.266.594q0 .064.094.156.356-.105.86-.61.515-.514 1.218-1.421.715-.967 1.062-1.64.36-.668.36-1.079m0 0" style="stroke:none" transform="translate(53.585 328.636)"/></g><g style="fill:#fff;fill-opacity:1"><path d="M-.422-3.5q.048-.092.219-.312c.117-.157.273-.348.484-.579A7 7 0 0 0 .828-5q.218-.281.313-.516.14-.262.328-.671.201-.404.437-.954.031-.058.5-.375.468-.328.578-.328.153 0 .235.219.076.222.078.656-.002.658-.016 1.11a3 3 0 0 1-.094.703q.03.065.047.14.03.083.063.188a3 3 0 0 0-.063.25q0 1.394.11 2.078.105.689.281.688.216.001.625-.594.42-.591 1-1.797.592-1.154.89-1.89.313-.75.36-1.126.094-.655.328-.984a.78.78 0 0 1 .656-.344c.082 0 .141.024.172.063q.047.063.047.203c0 .312-.043.633-.125.953q-.128.487-.375.969c0 .21-.055.449-.156.718a4.4 4.4 0 0 1-.453.875q-.096.316-.157.61-.033.157-.546 1.093Q5.389-2.138 5.25-2q-.001.283-.266.688c-.18.261-.453.558-.828.89q-.128.157-.25.297-.128.141-.25.281a1.2 1.2 0 0 1-.281.25A.7.7 0 0 1 3 .5c-.418 0-.734-.164-.953-.484q-.328-.48-.328-1.453.03-.17.047-.297a2 2 0 0 1-.125-.36 2.3 2.3 0 0 1-.079-.515q-.002-.375-.015-.61-.001-.234-.031-.328l.078-.265-.11-.063q-.094.034-.453.39c-.23.243-.558.594-.984 1.063a5 5 0 0 0-.188-.5A24 24 0 0 0-.42-3.5m0 0" style="stroke:none" transform="translate(63.377 328.636)"/></g><g style="fill:#fff;fill-opacity:1"><path d="M-.422-3.5q.08-.074.172-.203a5 5 0 0 1 .203-.313l.906-.609a4.4 4.4 0 0 1 .5-.516q.34-.31.844-.75a1.2 1.2 0 0 1 .188-.296 4 4 0 0 1 .328-.344q.17-.153.328-.282.171-.138.312-.265.17-.169.329-.344.151-.186.328-.344.188-.17.375-.265.2-.094.437-.094.263.002.39.063.14.063.157.187-.128.269-.25.531l.063.11A14 14 0 0 1 6-7.531q.293-.094.375-.094c.57 0 1 .18 1.281.531q.436.517.438 1.578 0 .188-.047.47c-.031.179-.086.37-.156.577a3.3 3.3 0 0 1-.266.594 1.3 1.3 0 0 1-.234.328.7.7 0 0 0 .093.219q.061.063.157.062a.4.4 0 0 0 .187-.046q.107-.06.25-.188l.219.547q.123.268.234.531l-.406.375a6 6 0 0 1-.422.328q-.27.235-.516.328a1.3 1.3 0 0 1-.468.094.77.77 0 0 1-.453-.125.85.85 0 0 1-.282-.36q-.28.391-.703.72-.423.315-.922.515-.298.142-.53.219a1.3 1.3 0 0 1-.438.078 1 1 0 0 0-.235.047 1 1 0 0 1-.265.047q-.675 0-1.22-.563-.531-.56-.53-1.25c0-.187.039-.43.125-.734q.124-.469.125-.563a.17.17 0 0 0-.047-.125.17.17 0 0 0-.14-.062q-.064 0-.298.187-.221.175-.625.5-.033.048-.078.141a.8.8 0 0 1-.156.203 11 11 0 0 0-.203-.531A9 9 0 0 0-.422-3.5m5.64-2.14a.5.5 0 0 0-.171.124 1.6 1.6 0 0 0-.219.282 9 9 0 0 1-.375.578 1 1 0 0 1-.281.218.9.9 0 0 1-.328.11q-.11.018-.25.234a3 3 0 0 0-.25.625 6 6 0 0 0-.188.625 1.8 1.8 0 0 0-.062.422q-.002.33.156.5.17.158.516.156.527.001.984-.296.45-.294.86-.891.186-.217.343-.422a.6.6 0 0 0 .156-.234q.062-.155.11-.391l.218-.672a6 6 0 0 0-.203-.547q-.093-.2-.187-.25c-.043-.031-.133-.054-.266-.078a5 5 0 0 0-.562-.094m0 0" style="stroke:none" transform="translate(71.096 328.636)"/></g><g style="fill:#fff;fill-opacity:1"><path d="m-.422-3.5.11-.094q.001-.122.156-.297Q0-4.06.28-4.297q.172-.14.36-.25.198-.124.375-.266c.5-.414.976-.82 1.437-1.218q.388-.341.781-.594.404-.246.766-.406.247-.312.922-.64.67-.33 1.094-.329.154 0 .25.094.105.093.14.234v.64q-.002.346-.203.61-.19.251-.578.484-.252.112-.516.25-.252.142-.515.266-.095.11-.5.438-.41.315-1.094.859-.315.251-.531.438-.205.188-.281.312a1.7 1.7 0 0 0-.188.5q-.063.27-.062.61c0 .18.023.335.078.468q.074.188.25.313.106.08.312.156.218.08.516.172.17-.077.453-.14a7 7 0 0 0 .656-.173q.387-.233.797-.484.422-.263.844-.531.047-.03.14-.079a1 1 0 0 0 .188-.124 2 2 0 0 1 .312-.344q.2-.2.5-.469.47 1.032.47 1.078l-.891.735a4 4 0 0 1-1 .593q-.188.159-.329.282-.58.597-1.359.89a5.1 5.1 0 0 1-1.781.297Q1.87.374 1.704.344A1.3 1.3 0 0 1 1.405.25Q1.06.016.813-.172a4 4 0 0 1-.438-.344 1.2 1.2 0 0 1-.25-.328 1.2 1.2 0 0 1-.156-.406 3 3 0 0 1-.047-.562q.002-.093.062-.297.062-.218.063-.313a6 6 0 0 0-.188-.515A6 6 0 0 0-.42-3.5m0 0" style="stroke:none" transform="translate(79.564 328.636)"/></g><g style="fill:#fff;fill-opacity:1"><path d="m-.047-4.016 1.063-.703q.059-.047.14-.14a1.4 1.4 0 0 0 .188-.297.9.9 0 0 1 .218-.25q.14-.107.313-.203c.063-.07.148-.164.266-.282a9 9 0 0 1 .453-.421q.123-.06.328-.188.201-.141.437-.375 1.062-.996 1.86-1.5.808-.516 1.36-.516c.194 0 .343.047.437.141a.44.44 0 0 1 .156.36 1 1 0 0 1-.094.437.7.7 0 0 1-.266.312q-.3.205-.64.47a6 6 0 0 1-.453.53 5.5 5.5 0 0 1-.625.532 6 6 0 0 0-.203.265 6 6 0 0 1-.235.219 3.4 3.4 0 0 1-.422.344q-.129.268-.515.672-.392.41-1.047.984-.081.083-.297.375-.206.3-.547.781l.078.094q.265-.076.547-.266c.188-.132.395-.312.625-.53q.388-.373.64-.595a2.3 2.3 0 0 1 .516-.39c.063-.032.13-.07.204-.125q.529-.638 1-.953.466-.312.875-.313.232.002.359.203.14.19.156.578-.017.58-.016 1.125c-.011.25.055.477.204.672q.216.299.562.297.107 0 .203-.062.107-.061.219-.157.075-.094.156-.187.076-.094.156-.188c.032-.02.07-.046.126-.078a.8.8 0 0 0 .171-.156q.17.363.282.625c.07.18.129.328.172.453q-.269.252-.532.516c-.18.18-.367.343-.562.5A3 3 0 0 1 7.297-1a1.8 1.8 0 0 1-.656.125q-.767 0-1.188-.422-.41-.433-.469-1.312a1 1 0 0 0-.03-.22 1 1 0 0 0-.126-.233q-.065.064-.14.124-.064.066-.157.172l-.375.297c-.156.117-.336.258-.531.422q-.408.423-.687.688-.283.268-.407.39a6 6 0 0 1-.547.39q-.313.207-.687.407a4 4 0 0 1-.438.219.8.8 0 0 1-.25.078c-.375 0-.648-.094-.828-.281q-.28-.28-.281-.86 0-.312.14-.593.142-.294.407-.563.03-.153.031-.25a.3.3 0 0 0-.031-.11 5 5 0 0 1-.234-.516A14 14 0 0 0-.391-3.5q.048-.045.141-.172zm0 0" style="stroke:none" transform="translate(86.955 328.636)"/></g><g style="fill:#fff;fill-opacity:1"><path d="m-.422-3.5.11-.094q.001-.122.156-.297Q0-4.06.28-4.297q.172-.14.36-.25.198-.124.375-.266c.5-.414.976-.82 1.437-1.218q.388-.341.781-.594.404-.246.766-.406.247-.312.922-.64.67-.33 1.094-.329.154 0 .25.094.105.093.14.234v.64q-.002.346-.203.61-.19.251-.578.484-.252.112-.516.25-.252.142-.515.266-.095.11-.5.438-.41.315-1.094.859-.315.251-.531.438-.205.188-.281.312a1.7 1.7 0 0 0-.188.5q-.063.27-.062.61c0 .18.023.335.078.468q.074.188.25.313.106.08.312.156.218.08.516.172.17-.077.453-.14a7 7 0 0 0 .656-.173q.387-.233.797-.484.422-.263.844-.531.047-.03.14-.079a1 1 0 0 0 .188-.124 2 2 0 0 1 .312-.344q.2-.2.5-.469.47 1.032.47 1.078l-.891.735a4 4 0 0 1-1 .593q-.188.159-.329.282-.58.597-1.359.89a5.1 5.1 0 0 1-1.781.297Q1.87.374 1.704.344A1.3 1.3 0 0 1 1.405.25Q1.06.016.813-.172a4 4 0 0 1-.438-.344 1.2 1.2 0 0 1-.25-.328 1.2 1.2 0 0 1-.156-.406 3 3 0 0 1-.047-.562q.002-.093.062-.297.062-.218.063-.313a6 6 0 0 0-.188-.515A6 6 0 0 0-.42-3.5m0 0" style="stroke:none" transform="translate(95.962 328.636)"/></g><g style="fill:#fff;fill-opacity:1"><path d="M-.422-3.5c.18-.187.453-.41.828-.672q.561-.404.828-.656a8 8 0 0 1 .454-.516l.671-.703a2 2 0 0 1 .454-.328.9.9 0 0 1 .453-.125q.28 0 .437.14.154.142.156.454 0 .455-.359 1.484-.344 1.018-.344 1.531 0 .127.047.172a.2.2 0 0 0 .125.047l.063-.015a13 13 0 0 0 1.188-.89c.206-.189.46-.43.765-.735l1.062-1.063q.234-.187.532-.469.294-.293.671-.703a.94.94 0 0 1 .422-.328q.28-.124.672-.125c.188 0 .32.04.406.11q.141.095.141.296-.002.081-.016.157l-.03.14a10 10 0 0 1-.25.875q-.158.503-.392 1.188-.204.438-.421 1.047a44 44 0 0 0-.47 1.328l.095.093q.233-.107.718-.546Q8.982-2.75 9.72-3.5l.469 1.078-.235.235a1.6 1.6 0 0 1-.36.28A18.6 18.6 0 0 0 7.439-.14Q6.547.732 6.03 1.594 5.235 2.89 4.72 3.687q-.516.811-.75 1.141-.815 1.061-1.547 1.578-.721.516-1.406.516c-.18 0-.309-.04-.391-.11q-.11-.094-.11-.312 0-.128.063-.297.062-.175.203-.375.234-.316.422-.656l.344-.313a.8.8 0 0 0 .047-.203 1 1 0 0 1 .125-.14q.092-.083.218-.188.076-.223.438-.703.356-.487 1-1.25.481-.564.875-1 .406-.441.688-.734.046-.094.093-.235.059-.128.094-.25.152-.311.328-.734.187-.435.438-1.031.122-.341.203-.782.074-.435.156-.953c-.023-.031-.031-.07-.031-.125a.8.8 0 0 0-.047-.219 2.2 2.2 0 0 0-.469.329 9 9 0 0 0-.547.484 5.6 5.6 0 0 1-.797.844 3.4 3.4 0 0 1-.765.5q-.27.515-.672.75A1.8 1.8 0 0 1 2-.547q-.393.002-.594-.172-.203-.187-.203-.562-.001-.06.016-.172.029-.107.062-.25a4 4 0 0 1-.125-.328q.048-.201.094-.438-.002-.356-.062-.531-.049-.17-.172-.172l-.047.016c-.086.062-.203.156-.36.281l-.562.453c-.043-.094-.086-.207-.14-.344a6 6 0 0 1-.188-.5.5.5 0 0 0-.063-.125.4.4 0 0 0-.078-.109m0 0" style="stroke:none" transform="translate(103.353 328.636)"/></g><g style="fill:#fff;fill-opacity:1"><path d="M3.406-.781a.6.6 0 0 1-.094.328 1.1 1.1 0 0 1-.25.281.6.6 0 0 1-.156.266.27.27 0 0 1-.219.094c-.324 0-.601-.118-.828-.344-.218-.227-.398-.563-.53-1l.077-.094-.11-.297.095-.36q.046-.184.093-.359a.55.55 0 0 1 .188-.312.54.54 0 0 1 .328-.11q.293.002.563.172.263.16.468.5.2.3.281.61.094.315.094.625m0 0" style="stroke:none" transform="translate(113.473 328.636)"/></g><g style="fill:#fff;fill-opacity:1"><path d="m9.828-3.5.438 1.078a3 3 0 0 1-.313.266 7 7 0 0 1-.422.281 6 6 0 0 0-.594.234q-.346.159-.796.344a5 5 0 0 1-.547.328q-.222.094-.297.094-.159 0-.563.14-.408.13-1.062.376-.345.14-.75.28-.392.124-.813.235L3.391 0l-.453.203c-.149 0-.297-.008-.454-.016a8 8 0 0 1-.437-.015q-.33-.017-.5-.11c-.117-.054-.172-.128-.172-.234l.063-.437-.063-.079Q.967-.686.828-.796c-.086-.07-.125-.238-.125-.5q-.001-.169.016-.578.014-.406.062-1.062 0-.062.063-.25a.9.9 0 0 0 .078-.266 1.3 1.3 0 0 1-.063-.188.6.6 0 0 1-.015-.14q.029-.452.094-1.11.075-.668.203-1.593.14-.545.234-1.235-.036-.513-.047-1.062.434-1.936.89-3.906c.04-.239.126-.461.25-.672q.2-.31.47-.61a.6.6 0 0 0 .156-.125c.039-.07.094-.16.156-.265.063-.102.133-.223.219-.36l.234-.14c.102-.063.242-.149.422-.266a4 4 0 0 0 .266-.219q.152-.122.359-.297.437-.28.813-.578.387-.293.968-.36.263-.012.532-.03.28-.012.515-.047.234-.046.422-.063.105-.013.188-.031a.6.6 0 0 1 .171-.031c.04 0 .102.008.188.015q.122.018.344.047.153.017.265.016.123.001.235-.016.466.141.687.422c.145.18.219.39.219.64 0 .544-.055.946-.156 1.204q-.16.392-.5.39c-.168 0-.36-.085-.578-.265q-.331-.265-1.766-.266c-.406.086-.805.164-1.188.235a.5.5 0 0 1-.14.14q-.08.048-.125.078l-.422-.156q-.188.064-.422.39a4.8 4.8 0 0 0-.484.86 1 1 0 0 0-.094.297 2 2 0 0 0-.031.406 51 51 0 0 1-.422 1.625q-.188.846-.313 1.281-.127.44-.156.532-.034.112-.062.219a1.4 1.4 0 0 0-.016.218q0 .14.062.235.06.08.172.078.105 0 .516-.39.406-.39.594-.438.247-.06.5-.141.248-.093.53-.203.093-.029.548-.094.45-.059 1.265-.14l.329.093.625-.125.328.156q.107.128.203.297.105.16.187.36-.002.703-.156 1.078-.142.362-.453.36l-.64-.266-1.579.156q-.785.081-1.594.156c-.656.125-1.164.34-1.515.64-.344.294-.54.684-.578 1.173a4 4 0 0 1-.094.468l-.156.782.093.359a11 11 0 0 0-.171.953 5.4 5.4 0 0 0-.063.781q-.002.13.031.188c.031.031.063.039.094.016q.563-.046.89-.063.342-.028.485-.016.31.018.625.047l.734-.062q.123-.013.516-.172.387-.17.703-.172.341 0 .688-.062a4.6 4.6 0 0 0 .672-.204q.31-.105.625-.234.31-.122.624-.25c.07-.02.172-.062.297-.125q.2-.093.47-.25m0 0" style="stroke:none" transform="translate(124.776 328.636)"/></g><g style="fill:#fff;fill-opacity:1"><path d="m-.422-3.5.063-.078.046-.11q.206-.264.36-.406l.234-.234q.061-.062.25-.156.2-.094.547-.235l.156-.093q.077-.125.282-.36c.144-.164.316-.36.515-.578q.06-.06.172-.14a2.4 2.4 0 0 0 .25-.22q.282-.264.563-.546.28-.295.53-.578.095-.106.423-.375l.89-.766q.093-.06.297-.172l.547-.265a.52.52 0 0 0 .234-.235.9.9 0 0 0 .079-.406 1.7 1.7 0 0 0 .172-.36q.091-.216.171-.515.123-.357.188-.578.058-.235.094-.328.2-.515.547-1.22c.226-.476.5-1.023.812-1.64q.232-.466.547-1.062.201-.295.437-.438.246-.14.516-.14.218 0 .313.172.107.157.109.468c0 .336-.027.656-.078.969a2.8 2.8 0 0 1-.25.844.8.8 0 0 0-.078.25 6 6 0 0 0-.032.39.9.9 0 0 1-.093.329 3 3 0 0 1-.188.28.7.7 0 0 1-.031.188 8 8 0 0 1-.047.266l-.156.203a.5.5 0 0 0-.031.188V-11a1 1 0 0 1-.079.281q-.08.204-.25.578c-.125.274-.226.485-.296.641a3 3 0 0 0-.126.281 2 2 0 0 0-.124.203q-.066.129-.172.282l.03.265-.75 2.688q0 .455.016.765c.008.211.032.375.063.5q.06.207.188.5.137.282.359.61.122.223.297.328.188.094.375.094c.156 0 .304-.04.453-.125q.234-.122.469-.391.139.314.265.578c.082.18.149.344.203.5a3 3 0 0 0-.265.25q-.188.204-.5.578a1.1 1.1 0 0 1-.469.328q-.268.094-.672.094c-.586 0-1.058-.148-1.422-.453Q5.982-2.093 5.75-3q-.048-.187-.078-.328-.035-.139-.063-.266a2.4 2.4 0 0 0-.28-.469q-.095.113-.141.172-.142.095-.313.266a4 4 0 0 0-.344.453 1.6 1.6 0 0 1-.125.281c-.062.118-.148.25-.25.407-.25.293-.508.586-.765.875q-.394.438-.782.859-.516.58-.968.86-.438.28-.766.28Q.28.39 0 .11t-.281-.86q.002-.264.203-.75.201-.499.203-.734l-.078-.188Zm5.89-3.344a.5.5 0 0 0-.046-.172c-.117.118-.262.25-.438.407q-.253.234-.593.515A5 5 0 0 1 4-5.5q-.282.409-.812 1-.16.175-.422.61c-.168.28-.375.632-.625 1.046a5 5 0 0 0-.266.594q0 .064.094.156.356-.105.86-.61.515-.514 1.218-1.421.715-.967 1.062-1.64.36-.668.36-1.079m0 0" style="stroke:none" transform="translate(134.943 328.636)"/></g><g style="fill:#fff;fill-opacity:1"><path d="M-.422-3.5a.25.25 0 0 0 .078-.078.17.17 0 0 0 .031-.11q.19-.17.438-.453.263-.294.578-.671.263-.358.531-.704c.188-.238.383-.472.594-.703q.264-.358.516-.734c.164-.258.344-.508.531-.75.313-.145.55-.25.719-.313q.265-.093.36-.093.17.002.265.109.093.112.093.328 0 .064-.03.203c-.024.086-.048.172-.079.266-.062.156-.125.32-.187.484a9 9 0 0 1-.235.828q-.129.411-.234.797a9 9 0 0 0-.188.938 5 5 0 0 0-.062.765q0 .657.062.985.06.314.188.265.105-.06.281-.156l.422-.234q.2-.218.469-.547.264-.327.64-.781c.133-.22.282-.43.438-.641q.075-.091.187-.219c.07-.093.141-.18.204-.265q.217-.561.5-.828.28-.282.609-.282.31.002.484.078a.54.54 0 0 1 .266.22q.03.095.047.296.03.188.031.516 0 .128.047.375.06.253.062.359 0 .44.141.656c.102.149.258.219.469.219a.8.8 0 0 0 .219-.031q.139-.047.265-.094l.469 1.078q-.705.423-1.156.64c-.305.15-.528.22-.672.22q-.58 0-.953-.297-.375-.31-.563-.907a.8.8 0 0 0-.094-.28 3 3 0 0 0-.187-.282 4 4 0 0 0-.25.281q-.13.159-.281.328c-.211.262-.422.516-.641.766q-.314.362-.64.719-.41.486-.829.703a1.6 1.6 0 0 1-.781.219q-.531 0-.86-.329-.327-.327-.421-.953a11 11 0 0 1-.14-.953q-.035-.34-.016-.406a2.7 2.7 0 0 0-.063-.516q-.048-.17-.125-.172l-.062.032-.672.687a1 1 0 0 1-.125.203 3 3 0 0 1-.22.297 3 3 0 0 0-.155-.422q-.124-.264-.313-.656m0 0" style="stroke:none" transform="translate(144.735 328.636)"/></g><g style="fill:#fff;fill-opacity:1"><path d="m-.422-3.5.11-.094q.001-.122.156-.297Q0-4.06.28-4.297q.172-.14.36-.25.198-.124.375-.266c.5-.414.976-.82 1.437-1.218q.388-.341.781-.594.404-.246.766-.406.247-.312.922-.64.67-.33 1.094-.329.154 0 .25.094.105.093.14.234v.64q-.002.346-.203.61-.19.251-.578.484-.252.112-.516.25-.252.142-.515.266-.095.11-.5.438-.41.315-1.094.859-.315.251-.531.438-.205.188-.281.312a1.7 1.7 0 0 0-.188.5q-.063.27-.062.61c0 .18.023.335.078.468q.074.188.25.313.106.08.312.156.218.08.516.172.17-.077.453-.14a7 7 0 0 0 .656-.173q.387-.233.797-.484.422-.263.844-.531.047-.03.14-.079a1 1 0 0 0 .188-.124 2 2 0 0 1 .312-.344q.2-.2.5-.469.47 1.032.47 1.078l-.891.735a4 4 0 0 1-1 .593q-.188.159-.329.282-.58.597-1.359.89a5.1 5.1 0 0 1-1.781.297Q1.87.374 1.704.344A1.3 1.3 0 0 1 1.405.25Q1.06.016.813-.172a4 4 0 0 1-.438-.344 1.2 1.2 0 0 1-.25-.328 1.2 1.2 0 0 1-.156-.406 3 3 0 0 1-.047-.562q.002-.093.062-.297.062-.218.063-.313a6 6 0 0 0-.188-.515A6 6 0 0 0-.42-3.5m0 0" style="stroke:none" transform="translate(154.48 328.636)"/></g><g style="fill:#fff;fill-opacity:1"><path d="m-.047-4.016 1.063-.703q.059-.047.14-.14a1.4 1.4 0 0 0 .188-.297.9.9 0 0 1 .218-.25q.14-.107.313-.203c.063-.07.148-.164.266-.282a9 9 0 0 1 .453-.421q.123-.06.328-.188.201-.141.437-.375 1.062-.996 1.86-1.5.808-.516 1.36-.516c.194 0 .343.047.437.141a.44.44 0 0 1 .156.36 1 1 0 0 1-.094.437.7.7 0 0 1-.266.312q-.3.205-.64.47a6 6 0 0 1-.453.53 5.5 5.5 0 0 1-.625.532 6 6 0 0 0-.203.265 6 6 0 0 1-.235.219 3.4 3.4 0 0 1-.422.344q-.129.268-.515.672-.392.41-1.047.984-.081.083-.297.375-.206.3-.547.781l.078.094q.265-.076.547-.266c.188-.132.395-.312.625-.53q.388-.373.64-.595a2.3 2.3 0 0 1 .516-.39c.063-.032.13-.07.204-.125q.529-.638 1-.953.466-.312.875-.313.232.002.359.203.14.19.156.578-.017.58-.016 1.125c-.011.25.055.477.204.672q.216.299.562.297.107 0 .203-.062.107-.061.219-.157.075-.094.156-.187.076-.094.156-.188c.032-.02.07-.046.126-.078a.8.8 0 0 0 .171-.156q.17.363.282.625c.07.18.129.328.172.453q-.269.252-.532.516c-.18.18-.367.343-.562.5A3 3 0 0 1 7.297-1a1.8 1.8 0 0 1-.656.125q-.767 0-1.188-.422-.41-.433-.469-1.312a1 1 0 0 0-.03-.22 1 1 0 0 0-.126-.233q-.065.064-.14.124-.064.066-.157.172l-.375.297c-.156.117-.336.258-.531.422q-.408.423-.687.688-.283.268-.407.39a6 6 0 0 1-.547.39q-.313.207-.687.407a4 4 0 0 1-.438.219.8.8 0 0 1-.25.078c-.375 0-.648-.094-.828-.281q-.28-.28-.281-.86 0-.312.14-.593.142-.294.407-.563.03-.153.031-.25a.3.3 0 0 0-.031-.11 5 5 0 0 1-.234-.516A14 14 0 0 0-.391-3.5q.048-.045.141-.172zm0 0" style="stroke:none" transform="translate(161.872 328.636)"/></g><g style="fill:#fff;fill-opacity:1"><path d="m-.422-3.5.047-.094q.064-.093.188-.234l.265-.328a13 13 0 0 0 1.61-1.828A23 23 0 0 0 3.266-8.47q.093-.123.203-.328.124-.215.265-.531 0-.075-.046-.11-.035-.03-.11-.03a1 1 0 0 0-.234.046 1 1 0 0 1-.235.031H1.328c-.148-.007-.25-.015-.312-.015a1.5 1.5 0 0 0-.22-.094L.61-9.594a.5.5 0 0 1-.218-.125.24.24 0 0 1-.079-.187q-.001-.75.157-1.14.17-.406.5-.407a6 6 0 0 1 1.125.11q.17-.031.328-.079.31.001.531.031.216.017.344.063c.101-.031.203-.05.297-.063q.14-.03.328-.078l.375.125q.42-.046.875-1.14.467-1.11 1-1.11.28.001.422.172c.101.117.156.29.156.516 0 .18-.055.418-.156.719a3.6 3.6 0 0 0-.188.656q.03.048.063.11c.031.03.07.07.125.108q.075.05.11.157.03.111.03.281 0 .705-.078 1.094-.064.375-.203.375l-.797.172a3 3 0 0 1-.062.28c-.024.118-.047.247-.078.392q-.207.597-.453 1.5a53 53 0 0 0-.547 2.125c-.125.656-.227 1.187-.297 1.593a7 7 0 0 0-.094.828.5.5 0 0 0 .063.282q.06.093.171.093.077.001.516-.343.434-.341 1.219-1.016l.453 1.078q-.112.142-.328.313a6 6 0 0 1-.5.375 2.4 2.4 0 0 1-.297.28q-.175.159-.375.376-.224.234-.422.469a9 9 0 0 1-.422.453 1.9 1.9 0 0 1-.547.437 1.1 1.1 0 0 1-.5.14q-.518 0-.765-.312-.251-.294-.25-.921 0-.668.046-1.172.048-.497.141-.813l.078-.156q-.002-.124.031-.313.03-.199.079-.468.074-.468.156-.922c.082-.188.172-.383.265-.594q0-.061-.093-.11l-.11.079a4 4 0 0 1-.453.593c-.187.2-.414.415-.672.641Q1.012-3.465.391-2.89a1.5 1.5 0 0 1-.125.188 5 5 0 0 0-.22.281c-.042-.094-.085-.207-.14-.344a6 6 0 0 1-.187-.5.5.5 0 0 0-.063-.125.4.4 0 0 0-.078-.109m0 0" style="stroke:none" transform="translate(170.879 328.636)"/></g><g style="fill:#fff;fill-opacity:1"><path d="m-.422-3.5.063-.078.046-.11q.315-.434 1.11-1.124c.531-.47.898-.848 1.11-1.141q.106-.186.265-.266a.57.57 0 0 1 .297-.093q.421.001.703.218.28.205.375.61.076.361.14.734.077.361.126.734.075.237.187.72.123.469.188.546.06.112.171.172a.8.8 0 0 0 .297.047q.2.002.422-.078.234-.078.469-.266.17-.154.36-.312c.132-.102.265-.208.39-.313l.469 1.078a6 6 0 0 1-.5.438q-.317.235-.75.547a5 5 0 0 1-.813.53q-.345.175-.516.173-1.063.001-1.39-.25c-.211-.164-.445-.625-.703-1.375a2 2 0 0 0-.14-.22 3 3 0 0 1-.204-.312 2.5 2.5 0 0 0-.25-.39q-.112-.14-.172-.14-.187.001-.516.25-.314.25-.765.75c-.043-.095-.086-.208-.14-.345a6 6 0 0 1-.188-.5.5.5 0 0 0-.063-.125.4.4 0 0 0-.078-.109m4.906-9.234q.282.001.422.125.14.11.14.328-.08.329-.124.547-.11.42-.203.703-.095.27-.14.375c-.063.18-.157.328-.282.453a2.4 2.4 0 0 1-.438.344c-.18.125-.328.214-.453.265q-.189.081-.25.063-.203-.013-.39-.031a2 2 0 0 0-.344-.032q-.158-.077-.25-.312c-.055-.156-.078-.364-.078-.625q0-.358.422-.89.42-.528.75-.563.199-.246.468-.563a.9.9 0 0 1 .313-.14q.187-.048.437-.047m0 0" style="stroke:none" transform="translate(177.368 328.636)"/></g><g style="fill:#fff;fill-opacity:1"><path d="M-.422-3.5q.08-.074.172-.203a5 5 0 0 1 .203-.313l.906-.609a4.4 4.4 0 0 1 .5-.516q.34-.31.844-.75a1.2 1.2 0 0 1 .188-.296 4 4 0 0 1 .328-.344q.17-.153.328-.282.171-.138.312-.265.17-.169.329-.344.151-.186.328-.344.188-.17.375-.265.2-.094.437-.094.263.002.39.063.14.063.157.187-.128.269-.25.531l.063.11A14 14 0 0 1 6-7.531q.293-.094.375-.094c.57 0 1 .18 1.281.531q.436.517.438 1.578 0 .188-.047.47c-.031.179-.086.37-.156.577a3.3 3.3 0 0 1-.266.594 1.3 1.3 0 0 1-.234.328.7.7 0 0 0 .093.219q.061.063.157.062a.4.4 0 0 0 .187-.046q.107-.06.25-.188l.219.547q.123.268.234.531l-.406.375a6 6 0 0 1-.422.328q-.27.235-.516.328a1.3 1.3 0 0 1-.468.094.77.77 0 0 1-.453-.125.85.85 0 0 1-.282-.36q-.28.391-.703.72-.423.315-.922.515-.298.142-.53.219a1.3 1.3 0 0 1-.438.078 1 1 0 0 0-.235.047 1 1 0 0 1-.265.047q-.675 0-1.22-.563-.531-.56-.53-1.25c0-.187.039-.43.125-.734q.124-.469.125-.563a.17.17 0 0 0-.047-.125.17.17 0 0 0-.14-.062q-.064 0-.298.187-.221.175-.625.5-.033.048-.078.141a.8.8 0 0 1-.156.203 11 11 0 0 0-.203-.531A9 9 0 0 0-.422-3.5m5.64-2.14a.5.5 0 0 0-.171.124 1.6 1.6 0 0 0-.219.282 9 9 0 0 1-.375.578 1 1 0 0 1-.281.218.9.9 0 0 1-.328.11q-.11.018-.25.234a3 3 0 0 0-.25.625 6 6 0 0 0-.188.625 1.8 1.8 0 0 0-.062.422q-.002.33.156.5.17.158.516.156.527.001.984-.296.45-.294.86-.891.186-.217.343-.422a.6.6 0 0 0 .156-.234q.062-.155.11-.391l.218-.672a6 6 0 0 0-.203-.547q-.093-.2-.187-.25c-.043-.031-.133-.054-.266-.078a5 5 0 0 0-.562-.094m0 0" style="stroke:none" transform="translate(184.068 328.636)"/></g><g style="fill:#fff;fill-opacity:1"><path d="M-.422-3.5c.031-.05.074-.11.125-.172.055-.07.11-.156.172-.25a3 3 0 0 0 .313-.265q.187-.171.421-.407.217-.233.516-.578.312-.34.734-.844l.47-.5q.28-.31.671-.75c.219-.257.453-.453.703-.578q.375-.187.797-.187.42.001.625.265.201.269.203.766-.002.27-.203 1.031A34 34 0 0 1 4.5-3.953q-.11.235-.203.453a1.5 1.5 0 0 0-.094.266 1 1 0 0 0-.016.172q-.002.08.079.171a.4.4 0 0 0 .109-.078c.04-.039.082-.094.125-.156a1.7 1.7 0 0 1 .281-.36 9 9 0 0 1 .469-.437q.105-.187.281-.375.171-.2.375-.375c.032-.031.07-.078.125-.14q.077-.106.188-.235.14-.14.343-.297.218-.17.5-.36a8 8 0 0 1 .579-.25q.248-.093.437-.093.358.001.64.172.28.174.485.547.233.738.438 1.36.139.361.297.53a.46.46 0 0 0 .359.172.8.8 0 0 0 .265-.046.7.7 0 0 0 .235-.188l.469 1.078q-.206.174-.422.344-.207.174-.406.344-.268.25-.5.343a1.25 1.25 0 0 1-.985-.015 1.1 1.1 0 0 1-.422-.36 1.7 1.7 0 0 1-.234-.343 13 13 0 0 1-.328-.625 3.4 3.4 0 0 1-.344-.407l-.453-.593-.11-.032a2.2 2.2 0 0 0-.437.22 3 3 0 0 0-.453.358q-.533.47-.766.594-.235.112-.312.266a6 6 0 0 1-.578.734q-.393.438-.985 1.047-.158.143-.312.297c-.094.094-.196.188-.297.281a.8.8 0 0 1-.36.188 1.7 1.7 0 0 1-.421.047q-.47-.001-.516-.313-.034-.328-.062-.656.169-.497.39-1.235.234-.733.516-1.718 0-.062.047-.156.046-.106.093-.266.06-.154.079-.266a.7.7 0 0 0 .03-.187.17.17 0 0 0-.062-.14Q2.61-4.72 2.47-4.72q-.112 0-.313.14a3 3 0 0 0-.453.454q-.33.346-.531.547a1.6 1.6 0 0 1-.266.234 1.7 1.7 0 0 0-.281.235q-.159.156-.36.343a.8.8 0 0 1-.219.344 3 3 0 0 0-.155-.422q-.124-.264-.313-.656m0 0" style="stroke:none" transform="translate(192.536 328.636)"/></g><g style="fill:#fff;fill-opacity:1"><path d="M3.406-.781a.6.6 0 0 1-.094.328 1.1 1.1 0 0 1-.25.281.6.6 0 0 1-.156.266.27.27 0 0 1-.219.094c-.324 0-.601-.118-.828-.344-.218-.227-.398-.563-.53-1l.077-.094-.11-.297.095-.36q.046-.184.093-.359a.55.55 0 0 1 .188-.312.54.54 0 0 1 .328-.11q.293.002.563.172.263.16.468.5.2.3.281.61.094.315.094.625m0 0" style="stroke:none" transform="translate(203.734 328.636)"/></g><g style="fill:#fff;fill-opacity:1"><path d="M4.063-6.578q0 .236.328.625.34.394 1.015.969.435.362.89.718c.313.23.618.461.923.688q.199.175.515.437.312.252.735.61.312.234.64.469c.227.156.47.312.72.468q.262.205.577.438.311.235.735.5c.156.094.273.265.359.515q.122.357.156.954l-.11.296-.124.063c-.074 0-.18-.04-.313-.11a6 6 0 0 1-.484-.28 7 7 0 0 0-.531-.25c-.313-.15-.766-.36-1.36-.641a5 5 0 0 1-.906-.47 6 6 0 0 1-.75-.562 6 6 0 0 0-.516-.375q-.298-.216-.718-.468-.438-.245-.766-.47a6 6 0 0 1-.5-.374 13 13 0 0 0-1.031-.781Q3.154-3.874 3-3.875a.65.65 0 0 0-.125.328 22 22 0 0 0-.297 1.406q-.157.832-.344 1.938 0 .204-.078.297a.22.22 0 0 1-.203.11q-.469-.001-.703-.22-.234-.233-.234-.671a11.3 11.3 0 0 1 .328-2.64q.059-.312.093-.564.031-.263.032-.468 0-.546-.469-.922C.695-5.54.547-5.727.547-5.844q0-.248.062-.437a.66.66 0 0 1 .235-.313q.389-.246.719-.468a.27.27 0 0 0 .109-.157q.03-.124.031-.312v-.516l.063-2.156v-.266q-.001-.17-.032-.453a5 5 0 0 1-.015-.39q.014-.188.015-.344a5 5 0 0 0-.125-.39 1.2 1.2 0 0 1-.046-.329q-.002-.14.015-.437.03-.295.031-.438 0-.154-.03-.453a4 4 0 0 1-.032-.438q0-.42.187-.812.2-.389.594-.766.387-.326.797-.5.406-.17.828-.172.2.001.594.032c.258.023.46.03.61.03q.152 0 .827.267.28.015.485.062.216.033.343.078l.454.219q.17.082.234.094l.344.109a.8.8 0 0 1 .25.125l.344.156q.216.095.468.219.42.205.781.484.375.282.704.61.375.422.562.828.188.409.188.812-.002.112-.016.329a5 5 0 0 1-.062.484c-.024.23-.141.476-.36.734q-.315.392-.906.86-.534.408-.985.687-.456.284-.843.39-.159.111-.235.204-.11.11-.484.328-.375.205-1.031.531-1.173.563-1.672.75c-.324.125-.484.258-.484.39m-1.22-5.64q.219-.17.407-.329a.86.86 0 0 1 .531-.156q.14 0 .344.312.201.315.203.454c0 .062-.023.195-.062.39q-.065.283-.188.781a26 26 0 0 0-.312 1.438q-.035.28-.141.89a5 5 0 0 0-.094.391q-.002.11.031.156c.032.032.07.047.126.047q2.324-1.172 2.406-1.218a.8.8 0 0 0 .203-.063q.107-.046.203-.094l.172-.219q.668-.434 1.406-.921.45-.36.672-.688.234-.34.234-.687 0-.436-.515-.86-.504-.422-1.5-.797a11 11 0 0 0-1.563-.5 6 6 0 0 0-1.281-.156c-.5 0-.883.09-1.14.266q-.376.251-.376.765 0 .41.063.61.06.205.172.187m0 0" style="stroke:none" transform="translate(215.037 328.636)"/></g><g style="fill:#fff;fill-opacity:1"><path d="M-.422-3.5q.141-.233.375-.484.218-.263.547-.532c.031-.156.055-.304.078-.453q.03-.234.047-.468a2 2 0 0 1 .11-.391l.171-.484q.105-.248.282-.641.186-.389.484-.86a71 71 0 0 1 .5-.593q.279-.329.547-.656c.082-.07.176-.141.281-.204q.153-.093.313-.203a3 3 0 0 1 .312-.078q.169-.047.39-.047c.188 0 .344.024.47.063q.186.064.296.203.075.093.157.281.074.188.156.453.03.234.078.516 0-.06-.047.062A8 8 0 0 1 5-7.609l-.094.375q-.175.562-.75 1.312-.562.736-1.547 1.672a1 1 0 0 0-.14.219.6.6 0 0 0-.047.25c0 .168.023.312.078.437a.65.65 0 0 0 .25.281q.093.082.297.157.217.063.5.11.452-.03.828-.142a4.3 4.3 0 0 0 .672-.28.7.7 0 0 1 .172-.11 1 1 0 0 0 .265-.172q.154.345.266.625c.082.18.145.328.188.453-.438.438-.84.774-1.204 1q-.55.328-1 .328a1.15 1.15 0 0 1-.437.172 3 3 0 0 1-.563.047q-.44.001-.78-.125a1.3 1.3 0 0 1-.548-.375 1.4 1.4 0 0 1-.234-.344 24 24 0 0 1-.25-.547 1.7 1.7 0 0 0-.188-.375Q.64-2.765.516-2.766q-.095 0-.22.094a1.5 1.5 0 0 0-.25.25 3 3 0 0 0-.155-.422q-.124-.264-.313-.656m3.75-3.797c-.168 0-.398.227-.687.672q-.439.674-.438.984-.002.081.031.11.031.016.125.015.122.002.204-.125.092-.138.156-.25l.25-.25a5 5 0 0 1 .25-.265q.14-.17.203-.328a.8.8 0 0 0 .078-.328.3.3 0 0 0-.047-.172.16.16 0 0 0-.125-.063m0 0" style="stroke:none" transform="translate(226.118 328.636)"/></g><g style="fill:#fff;fill-opacity:1"><path d="M-.422-3.5q.236-.294.594-.719.374-.433.906-.984.029-.107.094-.25.06-.153.172-.375.622-.92 1.11-1.781.496-.857.858-1.657c.063-.132.133-.3.22-.5q.123-.294.312-.671.17-.281.328-.438.153-.155.312-.156.234.002.344.203c.07.137.11.344.11.625 0 .156-.137.664-.407 1.515q-.408 1.284-1.203 3.61-.205.563-.469 1.578-.253 1.02-.593 2.531c-.024.149-.047.32-.079.516-.03.187-.074.414-.124.672q-.206.749-.282 1.187-.08.452-.062.594l.047.094a1 1 0 0 0 .125-.235q.075-.19.14-.53.059-.317.094-.532a.9.9 0 0 0 .016-.36q.263-.684.609-1.75.359-1.06.828-2.468.188-.328.422-.813.246-.498.516-1.156.262-.263.484-.39.217-.125.375-.126.328 0 .61.188.28.175.515.516.046.082.203.421.169.33.438.891.153.363.312.563.17.187.313.187l.5 1.078q-.066.018-.313.094-.25.065-.719.14l-.796-.28q-.299-.094-.72-.579-.408-.497-.671-.578-.234.174-.516.688a9.5 9.5 0 0 0-.578 1.343q-.082.188-.187.407a5 5 0 0 0-.22.5c-.054.292-.108.578-.171.859a7 7 0 0 0-.328.89q-.175.547-.375 1.297-.063.248-.297.766-.234.516-.281.797a8 8 0 0 1-.328 1.063 4.4 4.4 0 0 1-.5.702q-.224.249-.375.25-.345-.002-.532-.343c-.117-.23-.171-.57-.171-1.016q-.001-1 .109-2.219.124-1.207.36-2.578.074-.404.155-.812l.157-.828q.105-.497.14-.907c.032-.27.04-.515.032-.734q-.128.034-.407.297c-.18.18-.406.437-.687.781a3 3 0 0 0-.156-.422q-.124-.264-.313-.656m0 0" style="stroke:none" transform="translate(232.01 328.636)"/></g><g style="fill:#fff;fill-opacity:1"><path d="M-.422-3.5q.188-.234.375-.516.856-.7 1.406-1.343.546-.657.782-1.22l-.11-.562q.153-.293.75-.687.61-.405.985-.406c.257 0 .484.078.672.234q.28.235.53.5.124.08.188.125.47.363.703.984.235.61.235 1.5 0 .47-.36 1.344c-.242.586-.359 1.024-.359 1.313q-.002.064.031.109a.17.17 0 0 0 .11.031q.152 0 .359-.14.216-.142.469-.375.621-.61.75-.672.124-.06.312-.219c.063.156.133.328.219.516q.14.27.25.562-.11.094-.25.235a4 4 0 0 1-.312.28q-.393.299-1.032.72c-.43.273-.937.59-1.531.953q-.235.156-.547.25-.487 0-.734-.141c-.168-.102-.25-.266-.25-.484q0-.122.047-.297.06-.171.156-.375.074-.154.156-.313.076-.153.14-.312.25-.749.391-1.375.141-.638.141-1.14-.002-.624-.203-.954a.73.73 0 0 0-.578-.375 3.7 3.7 0 0 0-.563.406q-.297.253-.625.64a8 8 0 0 1-.61.704c-.179.18-.323.297-.437.36a2 2 0 0 1-.343.39 5 5 0 0 1-.625.484.8.8 0 0 1-.219.344 11 11 0 0 0-.203-.531A23 23 0 0 0-.422-3.5m0 0" style="stroke:none" transform="translate(240.197 328.636)"/></g><g style="fill:#fff;fill-opacity:1"><path d="M-.422-3.5q.141-.233.375-.484.218-.263.547-.532c.031-.156.055-.304.078-.453q.03-.234.047-.468a2 2 0 0 1 .11-.391l.171-.484q.105-.248.282-.641.186-.389.484-.86a71 71 0 0 1 .5-.593q.279-.329.547-.656c.082-.07.176-.141.281-.204q.153-.093.313-.203a3 3 0 0 1 .312-.078q.169-.047.39-.047c.188 0 .344.024.47.063q.186.064.296.203.075.093.157.281.074.188.156.453.03.234.078.516 0-.06-.047.062A8 8 0 0 1 5-7.609l-.094.375q-.175.562-.75 1.312-.562.736-1.547 1.672a1 1 0 0 0-.14.219.6.6 0 0 0-.047.25c0 .168.023.312.078.437a.65.65 0 0 0 .25.281q.093.082.297.157.217.063.5.11.452-.03.828-.142a4.3 4.3 0 0 0 .672-.28.7.7 0 0 1 .172-.11 1 1 0 0 0 .265-.172q.154.345.266.625c.082.18.145.328.188.453-.438.438-.84.774-1.204 1q-.55.328-1 .328a1.15 1.15 0 0 1-.437.172 3 3 0 0 1-.563.047q-.44.001-.78-.125a1.3 1.3 0 0 1-.548-.375 1.4 1.4 0 0 1-.234-.344 24 24 0 0 1-.25-.547 1.7 1.7 0 0 0-.188-.375Q.64-2.765.516-2.766q-.095 0-.22.094a1.5 1.5 0 0 0-.25.25 3 3 0 0 0-.155-.422q-.124-.264-.313-.656m3.75-3.797c-.168 0-.398.227-.687.672q-.439.674-.438.984-.002.081.031.11.031.016.125.015.122.002.204-.125.092-.138.156-.25l.25-.25a5 5 0 0 1 .25-.265q.14-.17.203-.328a.8.8 0 0 0 .078-.328.3.3 0 0 0-.047-.172.16.16 0 0 0-.125-.063m0 0" style="stroke:none" transform="translate(248.01 328.636)"/></g><g style="fill:#fff;fill-opacity:1"><path d="m-.422-3.5.063-.078a1 1 0 0 1 .218-.344c.106-.125.254-.25.454-.375.25-.164.445-.3.593-.406a1.4 1.4 0 0 0 .266-.219 1 1 0 0 0 .14-.203q.125-.093.313-.25.188-.17.422-.406a.7.7 0 0 0 .187-.188q.094-.122.188-.297.14-.092.328-.25.2-.168.469-.437.28-.312.656-.688c.25-.257.523-.523.828-.796a1.5 1.5 0 0 1 .281-.11.8.8 0 0 1 .266-.047q.527.002.797.25.265.25.266.719 0 .128-.047.39-.048.268-.094.688-.159 1.173-.234 1.438-.064.251-.485 1.609a9 9 0 0 0-.203.563q-.093.327-.234.796.03.048.125.094.075.002.28-.156.218-.169.563-.485.422-.375.657-.562.234-.202.28-.25.141.33.25.594.125.251.22.484-.159.095-.282.219a1.6 1.6 0 0 0-.234.25 12 12 0 0 1-.562.39q-.33.207-.704.454-.19.175-.484.422-.298.251-.672.562l-.219.047a2 2 0 0 1-.312.344.9.9 0 0 1-.266.172q-.187.06-.375.125c-.125.05-.258.097-.39.14a.29.29 0 0 1-.203-.156.6.6 0 0 1-.032-.297 3 3 0 0 1-.297-.734 4 4 0 0 1-.093-.907v-.203c.007-.07.02-.133.03-.187a2.4 2.4 0 0 1-.077-.36.71.71 0 0 1 .265-.578.9.9 0 0 1 .61-.234q.168 0 .25.187c.05.118.101.172.156.172.063 0 .117-.101.172-.312q.091-.327.172-.953.075-.529.094-.922.03-.404.03-.625-.002-.154-.062-.219-.065-.077-.219-.078-.14 0-.984.703A66 66 0 0 0 .391-2.906a2 2 0 0 1-.141.203l-.203.281a3 3 0 0 0-.156-.422q-.124-.264-.313-.656m0 0" style="stroke:none" transform="translate(253.9 328.636)"/></g><g style="fill:#fff;fill-opacity:1"><path d="M-.422-3.5q.141-.233.375-.484.218-.263.547-.532c.031-.156.055-.304.078-.453q.03-.234.047-.468a2 2 0 0 1 .11-.391l.171-.484q.105-.248.282-.641.186-.389.484-.86a71 71 0 0 1 .5-.593q.279-.329.547-.656c.082-.07.176-.141.281-.204q.153-.093.313-.203a3 3 0 0 1 .312-.078q.169-.047.39-.047c.188 0 .344.024.47.063q.186.064.296.203.075.093.157.281.074.188.156.453.03.234.078.516 0-.06-.047.062A8 8 0 0 1 5-7.609l-.094.375q-.175.562-.75 1.312-.562.736-1.547 1.672a1 1 0 0 0-.14.219.6.6 0 0 0-.047.25c0 .168.023.312.078.437a.65.65 0 0 0 .25.281q.093.082.297.157.217.063.5.11.452-.03.828-.142a4.3 4.3 0 0 0 .672-.28.7.7 0 0 1 .172-.11 1 1 0 0 0 .265-.172q.154.345.266.625c.082.18.145.328.188.453-.438.438-.84.774-1.204 1q-.55.328-1 .328a1.15 1.15 0 0 1-.437.172 3 3 0 0 1-.563.047q-.44.001-.78-.125a1.3 1.3 0 0 1-.548-.375 1.4 1.4 0 0 1-.234-.344 24 24 0 0 1-.25-.547 1.7 1.7 0 0 0-.188-.375Q.64-2.765.516-2.766q-.095 0-.22.094a1.5 1.5 0 0 0-.25.25 3 3 0 0 0-.155-.422q-.124-.264-.313-.656m3.75-3.797c-.168 0-.398.227-.687.672q-.439.674-.438.984-.002.081.031.11.031.016.125.015.122.002.204-.125.092-.138.156-.25l.25-.25a5 5 0 0 1 .25-.265q.14-.17.203-.328a.8.8 0 0 0 .078-.328.3.3 0 0 0-.047-.172.16.16 0 0 0-.125-.063m0 0" style="stroke:none" transform="translate(261.233 328.636)"/></g><g style="fill:#fff;fill-opacity:1"><path d="M-.422-3.5c.031-.05.074-.11.125-.172.055-.07.11-.156.172-.25a3 3 0 0 0 .313-.265q.187-.171.421-.407.217-.233.516-.578.312-.34.734-.844l.47-.5q.28-.31.671-.75c.219-.257.453-.453.703-.578q.375-.187.797-.187.42.001.625.265.201.269.203.766-.002.27-.203 1.031A34 34 0 0 1 4.5-3.953q-.11.235-.203.453a1.5 1.5 0 0 0-.094.266 1 1 0 0 0-.016.172q-.002.08.079.171a.4.4 0 0 0 .109-.078c.04-.039.082-.094.125-.156a1.7 1.7 0 0 1 .281-.36 9 9 0 0 1 .469-.437q.105-.187.281-.375.171-.2.375-.375c.032-.031.07-.078.125-.14q.077-.106.188-.235.14-.14.343-.297.218-.17.5-.36a8 8 0 0 1 .579-.25q.248-.093.437-.093.358.001.64.172.28.174.485.547.233.738.438 1.36.139.361.297.53a.46.46 0 0 0 .359.172.8.8 0 0 0 .265-.046.7.7 0 0 0 .235-.188l.469 1.078q-.206.174-.422.344-.207.174-.406.344-.268.25-.5.343a1.25 1.25 0 0 1-.985-.015 1.1 1.1 0 0 1-.422-.36 1.7 1.7 0 0 1-.234-.343 13 13 0 0 1-.328-.625 3.4 3.4 0 0 1-.344-.407l-.453-.593-.11-.032a2.2 2.2 0 0 0-.437.22 3 3 0 0 0-.453.358q-.533.47-.766.594-.235.112-.312.266a6 6 0 0 1-.578.734q-.393.438-.985 1.047-.158.143-.312.297c-.094.094-.196.188-.297.281a.8.8 0 0 1-.36.188 1.7 1.7 0 0 1-.421.047q-.47-.001-.516-.313-.034-.328-.062-.656.169-.497.39-1.235.234-.733.516-1.718 0-.062.047-.156.046-.106.093-.266.06-.154.079-.266a.7.7 0 0 0 .03-.187.17.17 0 0 0-.062-.14Q2.61-4.72 2.47-4.72q-.112 0-.313.14a3 3 0 0 0-.453.454q-.33.346-.531.547a1.6 1.6 0 0 1-.266.234 1.7 1.7 0 0 0-.281.235q-.159.156-.36.343a.8.8 0 0 1-.219.344 3 3 0 0 0-.155-.422q-.124-.264-.313-.656m0 0" style="stroke:none" transform="translate(267.125 328.636)"/></g><g style="fill:#fff;fill-opacity:1"><path d="m-.422-3.5.047-.094q.064-.093.188-.234l.265-.328a13 13 0 0 0 1.61-1.828A23 23 0 0 0 3.266-8.47q.093-.123.203-.328.124-.215.265-.531 0-.075-.046-.11-.035-.03-.11-.03a1 1 0 0 0-.234.046 1 1 0 0 1-.235.031H1.328c-.148-.007-.25-.015-.312-.015a1.5 1.5 0 0 0-.22-.094L.61-9.594a.5.5 0 0 1-.218-.125.24.24 0 0 1-.079-.187q-.001-.75.157-1.14.17-.406.5-.407a6 6 0 0 1 1.125.11q.17-.031.328-.079.31.001.531.031.216.017.344.063c.101-.031.203-.05.297-.063q.14-.03.328-.078l.375.125q.42-.046.875-1.14.467-1.11 1-1.11.28.001.422.172c.101.117.156.29.156.516 0 .18-.055.418-.156.719a3.6 3.6 0 0 0-.188.656q.03.048.063.11c.031.03.07.07.125.108q.075.05.11.157.03.111.03.281 0 .705-.078 1.094-.064.375-.203.375l-.797.172a3 3 0 0 1-.062.28c-.024.118-.047.247-.078.392q-.207.597-.453 1.5a53 53 0 0 0-.547 2.125c-.125.656-.227 1.187-.297 1.593a7 7 0 0 0-.094.828.5.5 0 0 0 .063.282q.06.093.171.093.077.001.516-.343.434-.341 1.219-1.016l.453 1.078q-.112.142-.328.313a6 6 0 0 1-.5.375 2.4 2.4 0 0 1-.297.28q-.175.159-.375.376-.224.234-.422.469a9 9 0 0 1-.422.453 1.9 1.9 0 0 1-.547.437 1.1 1.1 0 0 1-.5.14q-.518 0-.765-.312-.251-.294-.25-.921 0-.668.046-1.172.048-.497.141-.813l.078-.156q-.002-.124.031-.313.03-.199.079-.468.074-.468.156-.922c.082-.188.172-.383.265-.594q0-.061-.093-.11l-.11.079a4 4 0 0 1-.453.593c-.187.2-.414.415-.672.641Q1.012-3.465.391-2.89a1.5 1.5 0 0 1-.125.188 5 5 0 0 0-.22.281c-.042-.094-.085-.207-.14-.344a6 6 0 0 1-.187-.5.5.5 0 0 0-.063-.125.4.4 0 0 0-.078-.109m0 0" style="stroke:none" transform="translate(278.323 328.636)"/></g><g style="fill:#fff;fill-opacity:1"><path d="m-.047-4.016 1.063-.703q.059-.047.14-.14a1.4 1.4 0 0 0 .188-.297.9.9 0 0 1 .218-.25q.14-.107.313-.203c.063-.07.148-.164.266-.282a9 9 0 0 1 .453-.421q.123-.06.328-.188.201-.141.437-.375 1.062-.996 1.86-1.5.808-.516 1.36-.516c.194 0 .343.047.437.141a.44.44 0 0 1 .156.36 1 1 0 0 1-.094.437.7.7 0 0 1-.266.312q-.3.205-.64.47a6 6 0 0 1-.453.53 5.5 5.5 0 0 1-.625.532 6 6 0 0 0-.203.265 6 6 0 0 1-.235.219 3.4 3.4 0 0 1-.422.344q-.129.268-.515.672-.392.41-1.047.984-.081.083-.297.375-.206.3-.547.781l.078.094q.265-.076.547-.266c.188-.132.395-.312.625-.53q.388-.373.64-.595a2.3 2.3 0 0 1 .516-.39c.063-.032.13-.07.204-.125q.529-.638 1-.953.466-.312.875-.313.232.002.359.203.14.19.156.578-.017.58-.016 1.125c-.011.25.055.477.204.672q.216.299.562.297.107 0 .203-.062.107-.061.219-.157.075-.094.156-.187.076-.094.156-.188c.032-.02.07-.046.126-.078a.8.8 0 0 0 .171-.156q.17.363.282.625c.07.18.129.328.172.453q-.269.252-.532.516c-.18.18-.367.343-.562.5A3 3 0 0 1 7.297-1a1.8 1.8 0 0 1-.656.125q-.767 0-1.188-.422-.41-.433-.469-1.312a1 1 0 0 0-.03-.22 1 1 0 0 0-.126-.233q-.065.064-.14.124-.064.066-.157.172l-.375.297c-.156.117-.336.258-.531.422q-.408.423-.687.688-.283.268-.407.39a6 6 0 0 1-.547.39q-.313.207-.687.407a4 4 0 0 1-.438.219.8.8 0 0 1-.25.078c-.375 0-.648-.094-.828-.281q-.28-.28-.281-.86 0-.312.14-.593.142-.294.407-.563.03-.153.031-.25a.3.3 0 0 0-.031-.11 5 5 0 0 1-.234-.516A14 14 0 0 0-.391-3.5q.048-.045.141-.172zm0 0" style="stroke:none" transform="translate(284.812 328.636)"/></g><g style="fill:#fff;fill-opacity:1"><path d="m-.422-3.5.047-.094q.064-.093.188-.234l.265-.328a13 13 0 0 0 1.61-1.828A23 23 0 0 0 3.266-8.47q.093-.123.203-.328.124-.215.265-.531 0-.075-.046-.11-.035-.03-.11-.03a1 1 0 0 0-.234.046 1 1 0 0 1-.235.031H1.328c-.148-.007-.25-.015-.312-.015a1.5 1.5 0 0 0-.22-.094L.61-9.594a.5.5 0 0 1-.218-.125.24.24 0 0 1-.079-.187q-.001-.75.157-1.14.17-.406.5-.407a6 6 0 0 1 1.125.11q.17-.031.328-.079.31.001.531.031.216.017.344.063c.101-.031.203-.05.297-.063q.14-.03.328-.078l.375.125q.42-.046.875-1.14.467-1.11 1-1.11.28.001.422.172c.101.117.156.29.156.516 0 .18-.055.418-.156.719a3.6 3.6 0 0 0-.188.656q.03.048.063.11c.031.03.07.07.125.108q.075.05.11.157.03.111.03.281 0 .705-.078 1.094-.064.375-.203.375l-.797.172a3 3 0 0 1-.062.28c-.024.118-.047.247-.078.392q-.207.597-.453 1.5a53 53 0 0 0-.547 2.125c-.125.656-.227 1.187-.297 1.593a7 7 0 0 0-.094.828.5.5 0 0 0 .063.282q.06.093.171.093.077.001.516-.343.434-.341 1.219-1.016l.453 1.078q-.112.142-.328.313a6 6 0 0 1-.5.375 2.4 2.4 0 0 1-.297.28q-.175.159-.375.376-.224.234-.422.469a9 9 0 0 1-.422.453 1.9 1.9 0 0 1-.547.437 1.1 1.1 0 0 1-.5.14q-.518 0-.765-.312-.251-.294-.25-.921 0-.668.046-1.172.048-.497.141-.813l.078-.156q-.002-.124.031-.313.03-.199.079-.468.074-.468.156-.922c.082-.188.172-.383.265-.594q0-.061-.093-.11l-.11.079a4 4 0 0 1-.453.593c-.187.2-.414.415-.672.641Q1.012-3.465.391-2.89a1.5 1.5 0 0 1-.125.188 5 5 0 0 0-.22.281c-.042-.094-.085-.207-.14-.344a6 6 0 0 1-.187-.5.5.5 0 0 0-.063-.125.4.4 0 0 0-.078-.109m0 0" style="stroke:none" transform="translate(293.819 328.636)"/></g><g style="fill:#fff;fill-opacity:1"><path d="m-.422-3.5.063-.078.046-.11q.315-.434 1.11-1.124c.531-.47.898-.848 1.11-1.141q.106-.186.265-.266a.57.57 0 0 1 .297-.093q.421.001.703.218.28.205.375.61.076.361.14.734.077.361.126.734.075.237.187.72.123.469.188.546.06.112.171.172a.8.8 0 0 0 .297.047q.2.002.422-.078.234-.078.469-.266.17-.154.36-.312c.132-.102.265-.208.39-.313l.469 1.078a6 6 0 0 1-.5.438q-.317.235-.75.547a5 5 0 0 1-.813.53q-.345.175-.516.173-1.063.001-1.39-.25c-.211-.164-.445-.625-.703-1.375a2 2 0 0 0-.14-.22 3 3 0 0 1-.204-.312 2.5 2.5 0 0 0-.25-.39q-.112-.14-.172-.14-.187.001-.516.25-.314.25-.765.75c-.043-.095-.086-.208-.14-.345a6 6 0 0 1-.188-.5.5.5 0 0 0-.063-.125.4.4 0 0 0-.078-.109m4.906-9.234q.282.001.422.125.14.11.14.328-.08.329-.124.547-.11.42-.203.703-.095.27-.14.375c-.063.18-.157.328-.282.453a2.4 2.4 0 0 1-.438.344c-.18.125-.328.214-.453.265q-.189.081-.25.063-.203-.013-.39-.031a2 2 0 0 0-.344-.032q-.158-.077-.25-.312c-.055-.156-.078-.364-.078-.625q0-.358.422-.89.42-.528.75-.563.199-.246.468-.563a.9.9 0 0 1 .313-.14q.187-.048.437-.047m0 0" style="stroke:none" transform="translate(300.308 328.636)"/></g><g style="fill:#fff;fill-opacity:1"><path d="M-.422-3.5q.08-.074.172-.203a5 5 0 0 1 .203-.313l.906-.609a4.4 4.4 0 0 1 .5-.516q.34-.31.844-.75a1.2 1.2 0 0 1 .188-.296 4 4 0 0 1 .328-.344q.17-.153.328-.282.171-.138.312-.265.17-.169.329-.344.151-.186.328-.344.188-.17.375-.265.2-.094.437-.094.263.002.39.063.14.063.157.187-.128.269-.25.531l.063.11A14 14 0 0 1 6-7.531q.293-.094.375-.094c.57 0 1 .18 1.281.531q.436.517.438 1.578 0 .188-.047.47c-.031.179-.086.37-.156.577a3.3 3.3 0 0 1-.266.594 1.3 1.3 0 0 1-.234.328.7.7 0 0 0 .093.219q.061.063.157.062a.4.4 0 0 0 .187-.046q.107-.06.25-.188l.219.547q.123.268.234.531l-.406.375a6 6 0 0 1-.422.328q-.27.235-.516.328a1.3 1.3 0 0 1-.468.094.77.77 0 0 1-.453-.125.85.85 0 0 1-.282-.36q-.28.391-.703.72-.423.315-.922.515-.298.142-.53.219a1.3 1.3 0 0 1-.438.078 1 1 0 0 0-.235.047 1 1 0 0 1-.265.047q-.675 0-1.22-.563-.531-.56-.53-1.25c0-.187.039-.43.125-.734q.124-.469.125-.563a.17.17 0 0 0-.047-.125.17.17 0 0 0-.14-.062q-.064 0-.298.187-.221.175-.625.5-.033.048-.078.141a.8.8 0 0 1-.156.203 11 11 0 0 0-.203-.531A9 9 0 0 0-.422-3.5m5.64-2.14a.5.5 0 0 0-.171.124 1.6 1.6 0 0 0-.219.282 9 9 0 0 1-.375.578 1 1 0 0 1-.281.218.9.9 0 0 1-.328.11q-.11.018-.25.234a3 3 0 0 0-.25.625 6 6 0 0 0-.188.625 1.8 1.8 0 0 0-.062.422q-.002.33.156.5.17.158.516.156.527.001.984-.296.45-.294.86-.891.186-.217.343-.422a.6.6 0 0 0 .156-.234q.062-.155.11-.391l.218-.672a6 6 0 0 0-.203-.547q-.093-.2-.187-.25c-.043-.031-.133-.054-.266-.078a5 5 0 0 0-.562-.094m0 0" style="stroke:none" transform="translate(307.008 328.636)"/></g><g style="fill:#fff;fill-opacity:1"><path d="M-.422-3.5c.031-.05.074-.11.125-.172.055-.07.11-.156.172-.25a3 3 0 0 0 .313-.265q.187-.171.421-.407.217-.233.516-.578.312-.34.734-.844l.47-.5q.28-.31.671-.75c.219-.257.453-.453.703-.578q.375-.187.797-.187.42.001.625.265.201.269.203.766-.002.27-.203 1.031A34 34 0 0 1 4.5-3.953q-.11.235-.203.453a1.5 1.5 0 0 0-.094.266 1 1 0 0 0-.016.172q-.002.08.079.171a.4.4 0 0 0 .109-.078c.04-.039.082-.094.125-.156a1.7 1.7 0 0 1 .281-.36 9 9 0 0 1 .469-.437q.105-.187.281-.375.171-.2.375-.375c.032-.031.07-.078.125-.14q.077-.106.188-.235.14-.14.343-.297.218-.17.5-.36a8 8 0 0 1 .579-.25q.248-.093.437-.093.358.001.64.172.28.174.485.547.233.738.438 1.36.139.361.297.53a.46.46 0 0 0 .359.172.8.8 0 0 0 .265-.046.7.7 0 0 0 .235-.188l.469 1.078q-.206.174-.422.344-.207.174-.406.344-.268.25-.5.343a1.25 1.25 0 0 1-.985-.015 1.1 1.1 0 0 1-.422-.36 1.7 1.7 0 0 1-.234-.343 13 13 0 0 1-.328-.625 3.4 3.4 0 0 1-.344-.407l-.453-.593-.11-.032a2.2 2.2 0 0 0-.437.22 3 3 0 0 0-.453.358q-.533.47-.766.594-.235.112-.312.266a6 6 0 0 1-.578.734q-.393.438-.985 1.047-.158.143-.312.297c-.094.094-.196.188-.297.281a.8.8 0 0 1-.36.188 1.7 1.7 0 0 1-.421.047q-.47-.001-.516-.313-.034-.328-.062-.656.169-.497.39-1.235.234-.733.516-1.718 0-.062.047-.156.046-.106.093-.266.06-.154.079-.266a.7.7 0 0 0 .03-.187.17.17 0 0 0-.062-.14Q2.61-4.72 2.47-4.72q-.112 0-.313.14a3 3 0 0 0-.453.454q-.33.346-.531.547a1.6 1.6 0 0 1-.266.234 1.7 1.7 0 0 0-.281.235q-.159.156-.36.343a.8.8 0 0 1-.219.344 3 3 0 0 0-.155-.422q-.124-.264-.313-.656m0 0" style="stroke:none" transform="translate(315.476 328.636)"/></g><g style="fill:#fff;fill-opacity:1"><path d="M3.406-.781a.6.6 0 0 1-.094.328 1.1 1.1 0 0 1-.25.281.6.6 0 0 1-.156.266.27.27 0 0 1-.219.094c-.324 0-.601-.118-.828-.344-.218-.227-.398-.563-.53-1l.077-.094-.11-.297.095-.36q.046-.184.093-.359a.55.55 0 0 1 .188-.312.54.54 0 0 1 .328-.11q.293.002.563.172.263.16.468.5.2.3.281.61.094.315.094.625m0 0" style="stroke:none" transform="translate(326.674 328.636)"/></g><g clip-path="url(#0a4549ad3d)"><path d="m97.07 37.605 30.067.125.422 38.41c1.273 1.473 2.476 3.145 4.117 4.665.574.53 1.84.785 2.304 1.36.489.605-.292 1.71.223 2.288.324.363 1.371-.066 1.68.313.293.363.113.953.402 1.332.348.453 1.016-.309 1.344.207.293.46-.176 1.285.016 1.968.187.68 1.023.657 1.261 1.403.254.8-2.21 2.09-2.039 3 .086.433.703.156 1.278.488.378.215.3.742.66 1.055.527.457 1.441.707 1.613.926.14.175.047.609-.676.851-.523.176-1.32-.039-1.941.094-.88.191-1.5.715-1.344.894.211.246.91.082 1.637.266.746.188 1.597 1.086 2.308 1.371.586.238.512-.629 1.332.059.516.433 1.078.879 1.485 1.53.43.692.707 1.587 1.27 2.017.363.28 1.163.27 1.831.394.711.129 1.301.387 1.875.371.965-.031 1.2-.312 1.89.078.25.145.282.657.618.993.348.343 1 .511 1.024.878.023.399-1.04.668-.864.993.137.246 1.399-.145 1.516.105.125.266-.176.754-.012.977.324.437 1.238.363 1.696.629.753.433 1.101 1.117 1.714 1.593.348.27-.007 1.086.328 1.403.458.433 1.098.437 1.602.89.563.504.332 1.485.895 2.078.347.364 1.53.176 1.992.489.398.27.11.648.351 1.02.328.491 1.387-.2 1.535 1.378.043.438-.238.754-.218 1.629.008.46.222.527.48.91.164.242.582.387.746.664.137.239.028.625.114.711.214.207.644-.355.882-.2.29.196.352.938.66 1.095.57.297 1.184.05 1.813.199.29.07.941.465.89.957-.062.598-.972 1.727-.628 1.836.191.062.586.394.855.242.25-.14.367-.754.684-.871.387-.145.52.316.914.156.523-.219.223-1.105 1.516-.914.167.028.867.543.972 1.3.04.286-.45.552-.5.86-.082.493.266 1.012.512 1.282.703.761 2.41-.047 2.691-.036 1.106.059 1.532.91 2.293.555.832-.39.235-.469.914-.871.422-.246 1.235-.262 1.957-.293.578-.027 1.098-.176 1.32.36.13.304.606 1.21.512 1.632-.086.39-.73.297-.773.684-.027.293.41.543.3.777-.124.258-.456.473-.511.797-.074.438.129 1.008-.102 1.469-.214.437-1.515-.047-1.574.465-.047.425-.008 1.101.313 1.441.304.324.89.309.808.746-.05.281-.5.945-.996 1.375-.246.219-.613.129-.726.399-.274.636.402 1.554.32 1.898-.094.383-.55 1.031-.629 1.469-.062.36.27.511.047.812-.258.348-1.172.43-1.281.801-.086.305.547.383.722.95.246.784.067 2.09-.058 2.515-.098.344-1.953-.262-2.059.082-.035.117.168.254.13.375-.056.191-.497 0-.556.191-.02.07.098 1.059.559 1.328.316.184.937-.394 1.215-.144.437.402.558 1.074.535 1.152-.043.145-.324.11-.426.36-.094.23.004.75-.16.89-.394.336-.973.29-1.074.602-.059.176.75.203.933.687.125.332-.48 1.13-.125 1.336.235.137.602-.078.985-.086.558-.011 1.144.172 1.394.5.352.461-.507 1.063-.449 1.64.09.872.969 1.692.895 1.93-.078.247-.258.766-.446.985-.23.262-1.308-.398-1.644-.187-.156.101-.113.39-.27.503-.199.141-1.199-.117-1.398.032-.246.183-.117.406-.29.62-.573.731-1.128 1.567-1.495 2.063-.23.313.32.242.535.465.207.219.3.875.578 1.117.488.418 1.14.442 1.098.899-.02.195-.286.52-.332.86-.051.335.12.687 0 .898-.114.195-.38.457-.774.601-.312.117-.766.117-.879.258-.32.406.613.758.598 1.176-.024.57-.887 1.21-.52 1.797.164.257.766-.547 1.051-.438.23.09.172.524.469.535.242.012.496.094.75-.047.195-.109.379-.441.617-.496.227-.05-.3.246.426.992.203.207.625 1.223 1.062 1.5.641.41 1.336.102 1.582.434.555.754.36 1.52.918 1.625.227.043.356-.254.567-.414.383-.285 1.203-.27 1.543-.813.312-.507.61-.945.738-1.492.105-.453.05-1.058.2-1.12.355-.145.593.359.995.456.305.074.774-.246 1.063-.316.344-.086.91-.043 1.219-.363.207-.215.16-.801.375-.915.351-.183.918 0 1.222-.3.356-.352.446-1.196.735-1.438.375-.308 1.207-.433 1.515-.73.262-.25-.37-1.336-.172-1.57.2-.231.422.019.621-.126.235-.168.211-.437.434-.535.25-.113.54.543.813.59.363.059.703-.43.898-.078.156.281-.059.82.191 1.133.22.273.907.312.977.652.074.352-.625 1.074-.348 1.246.336.207.664-.347 1.203-.324.305.012.368.324.688.434.652.214 1.027.343 1.215.71.129.25.02.352-.305.793-.402.555-.559 1.461-.402 1.778.261.531 1.175-.117 1.703.043.133.039-.008.304.039.535.047.238.281.441.348.586.101.215-.555.508-.68 1.02-.11.449.527.917.617 1.363.063.328-.441.68-.379.816.137.3.957.367 1.094.664.266.586-.172 1.61.086 2.196.312.71 1.566 1.222 1.867 1.937.113.266-.57.504-.383.793.203.305.692.219.98.543.235.262.212.621.481.902.3.313 1.14.766 1.48 1.09.391.379-.187.977.196 1.356.21.214.59.191.785.562.078.149-.262.149-.215.36.063.289.512.785.668.851.336.145.961-.633 1.242-.406.204.164-.504.945-.332 1.133.184.199.79.113 1.024.27.297.198-.238.413-.043.636.144.156.836-.102 1.137.055.257.132.14.68.18.8.081.239.398.614.468 1.293.027.242-.219.403-.25.68-.043.434.105.98.035 1.187-.191.579-1.344.329-1.617.618-.367.39.2 1.25.547 1.636.336.375-.04.95.597 1.418.231.172.676.028 1.133.172.235.07.106.328.32.465.27.172.868.23 1.012.332.414.29.512.758.934.883.168.05-.16.719-.004.734.414.043.762.203 1.25 0 .316-.133.59-.644.926-.84.37-.21.797-.097 1.082-.085.594.027 1.195.812 1.758 1.097.527.27 1.023.028 1.367.371.32.313.168.82.402 1.18.172.27.727.394.938.648.187.23.007.844.12 1.114.13.297.555.25.727.515.2.317-.093.715.098 1.02.125.203.488.695.5.953.02.578-1.176.707-1.074 1.27.058.332.988.476 1.488.933.336.3-.414.688-.238 1.055s1.277.719 1.36.957c.167.469-.474.75-.552 1.113-.144.691.172 1.352.891 1.848.281.195 1.137.793 2.059 1.11.433.148.879-.153 1.285.116.285.188.207.746.402 1.117.297.555.848.915 1.246.77.266-.094.926-.828.766-1.426-.113-.406-1.078-.605-.973-1.066.102-.45.73-.781 1.078-1.16.496-.536.758-1.043 1.004-1.141.328-.125.766-.035 1.031-.187.235-.133.293-.508.543-.583.758-.222 1.13.45 1.52.602.332.129.715-.289.988-.117.328.2 1.356.172 3.016.262.316.015.855.84 1.277.867.54.035.965-.723 1.367-.66.438.066.758.722 1.153.968a1.87 1.87 0 0 0 1.547.18c.562-.191-.055-.621.078-1.101.101-.38.777-.547.824-.915.09-.757-.602-.847-.395-1.16.442-.66 1.188.032 1.813-.281.777-.387 1.598-1.176 2.035-.937.29.156.324 1.058.867 1.195.715.176 1.957-.418 2.336-.219.242.125.668 1.004.98 1.027.426.032.774-.816 1.317-.816.219 0 .512.313.738.285.246-.031.5-.52.75-.543.336-.035.723.457 1.043.387.567-.133.684-.797 1.254-.914.723-.145 1.188-.242 1.926-.27.836-.03 1.14 2.453 2.047 2.25.351-.082.55-.62.969-.836.87-.445 2.015-.703 2.765-.996.524-.203 1.137.118 1.656-.14.118-.059.497.382.875.324.333-.05.63-.61 1.086-.52.34.067.977.078 1.336.293.313.188.352.578.641.668a1.9 1.9 0 0 0 1.46-.148c.349-.18-.581-.305-1.089-.902-.547-.649-.683-1.774-.418-2.083.496-.582 1.324-1.14 1.383-1.812.043-.453-.703-1.04-.469-1.414.153-.25.79-.344 1.168-.461.32-.102.38-.246.664-.191.453.082.613.593.926.476.492-.183.262-1.707.527-1.586.778.356 2.43 1.453 3.145 2.328.55.676.16 1.086.765 1.75.45.496 1.09.461 1.563.97.258.276-1.402.16-1.2.448.165.23.305.754.673 1.035.297.223.832-.078 1.191.118.274.148.258.683.488.902.426.406 1.047.535 1.286.781.16.164-.172.485-.141.801.035.32.43.64.652.793.254.176.742.57 1.145.594.437.031.785-.305.96-.082l.587 93.789-187.79-.707-.152-65.676c-.004-1.207-.332-1.746.281-3.316.122-.309.641-.243 1.012-.762.281-.387.43-1.363.516-1.64.078-.266.531-.684.484-1.216-.035-.422-.574-.976-.508-1.183.246-.762 1.063-1.344 1.227-2.094.14-.637-1.313-1.36-1.16-1.957.164-.652 1.136-.86 1.68-1.336.308-.27-.114-.613.019-.945.176-.43.844-.86.7-1.27-.177-.496-1.36-.539-2.032-.89-.441-.227-.09-2.297-.621-2.504-.738-.285-1.543.793-2.41.718-.617-.05-1.239-1.863-1.828-2.015-.457-.121-.895 1.11-1.29 1.14-.984.075-1.703-.847-1.824-1.441-.101-.477.73-1.437.578-1.828-.289-.73-1.574-.824-1.593-1.566-.016-.516.757-.77.957-1.368.18-.53-.223-1.406-.055-1.898.371-1.102 1.734-1.438 2.215-2.399.195-.39-.07-.691.09-1.105.133-.336.742-.617.863-1.008.14-.441-.207-.996-.031-1.398.14-.328.601.156.761-.153.172-.34-.074-.785.06-1.257.108-.383.67-.47.89-.836.215-.364.078-1.008.238-1.266.367-.594 1.285-.93 1.95-1.129.804-.238 1.374-.328 1.823-1.09.786-1.324 2.278-2.465 2.692-4.304.101-.45.094-1.25.285-1.989.105-.398.57-.781.539-1.074-.082-.82-1.008-.93-.719-1.398.559-.918 1.387-1.016 1.883-1.797.203-.317.106-1.172.297-1.574.289-.625 1.078-.598 1.355-1.286.38-.953.516-2.5.926-3.472.356-.848.985-1.121 1.254-1.985.149-.476-.234-1.464-.047-1.855.477-.984 1.465-1.64 2.29-2.871.167-.25.05-1.082.226-1.328.254-.348.894-.414 1.105-.79.34-.597-.078-1.855.27-2.351 1.016-1.469 2.266-1.73 2.273-3.125.008-1.336-1.078-1.55-1.808-2.437-.461-.56.027-2.153-.5-2.786-.344-.41-1.024-1.093-1.68-1.226-.68-.137-1.344.277-1.91.008-.461-.215-1.117-1.528-1.633-1.668-.754-.207-1.379.754-2.043.308-.469-.312-.422-1.246-.8-1.773-.4-.551-1.223-.703-1.665-1.14-.36-.364-.281-1.235-.445-1.938-.11-.45-.477-.75-.602-1.047-.265-.653-.718-.418-1.035-1.074-.207-.434-.133-1.38-.433-1.778-.235-.312-.399-.597-.72-.77-.218-.12-.612-.1-.726-.35-.222-.497.176-.661.52-.958.41-.351.816-.824.984-1.308.094-.274.364-.965.082-1.395-.265-.406-1.074-.543-1.164-.855-.117-.395.227-.704.207-1.153-.02-.508-.418-1.164-.773-1.68-.34-.496-.832-1.71-1.317-2.171-.64-.614-1.242-.457-1.171-.95.03-.226.335-.207.523-.535.164-.289.215-.93.262-1.105-.317-32.844-.375-65.555.468-97.817Zm0 0" style="stroke:none;fill-rule:nonzero;fill:#fff;fill-opacity:1"/></g><g clip-path="url(#a3fa056c0b)"><path d="M95.941 301.117s17.121-13.047 23.914-16.308c6.793-3.262 5.707-2.72 14.676-11.684 8.969-8.969 9.512-5.437 16.305-13.316 6.797-7.883 7.61-15.22 13.047-7.61 5.433 7.61 6.793 13.317 11.14 5.703 4.348-7.605 13.317-22.824 16.579-20.925 3.261 1.906 10.378 12.898 13.64 17.003 3.262 4.11 3.867 2.176 6.16 5.68 2.297 3.504 4.47 3.863 6.887 6.883 2.414 3.02 12.441-7.125 14.856-9.422 2.417-2.293 14.253 13.774 20.05 16.914s5.68 6.402 9.18 8.09c3.504 1.691 27.059 20.586 23.676 18.992-3.383-1.597-4.953-4.98-7.852-4.617s-3.5 3.867-5.918.363-.484-5.316-7.851-9.543c-7.368-4.226-9.785-7.125-12.442-5.675-2.656 1.449 2.657 5.312 3.746 9.18 1.086 3.863 3.985 11.113 1.207 6.28s-2.777-6.402-6.765-9.664c-3.985-3.261-3.14-2.777-5.192-4.953-2.054-2.172-3.261-5.675-5.316-9.543-2.055-3.863-1.57-8.453-3.02-6.402l-1.449 2.055s2.176 2.539 1.57 5.074c-.605 2.535 2.176 6.16 2.899 8.574.723 2.418 5.195 9.18 5.918 11.84.726 2.656 1.812 5.918-2.535-1.691-4.348-7.61-3.02-3.747-5.797-6.524-2.781-2.777-1.45-7.367-2.781-5.433-1.328 1.93-1.93 2.898-3.625 6.277-1.688 3.383-6.883 2.902-7.364 5.922-.484 3.02-4.593 5.797-3.625 3.136.965-2.656-1.09 2.782 3.625-7.003 4.707-9.786 5.192-7.125 4.95-11.715-.243-4.59 1.875-7.13.3-6.707-1.57.425-2.535 2.476-4.406 4.593-1.871 2.114-3.805 3.926-3.988 5.797-.18 1.871-1.508 4.953-1.145 2.657.36-2.293.48-2.235.239-3.926-.239-1.692 1.332-1.871 1.816-4.59.48-2.719 6.277-6.461 6.04-6.945-.247-.485-3.505.242-5.438 1.933-1.934 1.692-2.356 4.469-5.317 6.461-2.957 1.992-6.824 4.652-9.238 7.188-2.418 2.535-5.918 1.27-6.281 6.945-.364 5.676.484 12.32-.606 8.336-1.086-3.988-.844-6.16-1.691-4.953-.844 1.207-1.328 2.535-3.864 4.347-2.539 1.813-6.16 4.348-4.226 1.45 1.93-2.899 0 1.57 4.226-4.227 4.227-5.797-1.449-4.59 3.383-8.937 4.832-4.352 17.512-13.532 17.39-14.98-.12-1.45 0-.602-3.862 1.933-3.868 2.535-8.457 3.382-11.84 7.246-3.38 3.867-11.594 4.351-10.992 9.664.605 5.316 1.933 4.953-3.02 1.933-4.95-3.02.848-3.867-7.004.364-7.851 4.226-10.75 1.691-10.75 4.59s-7.972 8.332-9.785 7.851c-1.812-.484-.965.3 1.328-1.027 2.297-1.328 1.992-1.934 3.324-2.899 1.328-.968 2.414-2.777 1.993-3.324-.422-.543-1.512-.965-3.563-.422-2.055.543-4.168.848-5.375-.3-1.21-1.149-2.117-2.176.965-1.333 3.078.848 1.027-1.445 6.766-2.472 5.734-1.028 3.078-2.418 10.144-5.559 7.066-3.137 8.879-2.957 11.414-4.347 2.54-1.391 3.563-2.293 5.137-5.676 1.57-3.383 2.898-1.813 2.414-5.317s.484-3.199-2.477-2.054c-2.96 1.148-2.054-2.114-5.132 1.875-3.083 3.984-3.684 1.507-7.008 5.074-3.32 3.562-8.88 8.937-8.153 6.762.727-2.172 3.32-1.57 3.868-4.47.542-2.898 4.226-6.323 6.52-8.628 2.296-2.3 2.476-1.637 6.401-6.652 3.926-5.012 8.88-8.332 6.766-8.395-2.113-.059-2.113-2.113-3.02-.422-.906 1.692-1.328 1.45-3.261 3.504-1.934 2.05-3.746 1.629-4.77 4.348-1.027 2.719.48 1.328-3.504 5.195-3.988 3.863-6.945 8.695-6.343 5.977.605-2.715 1.39-1.387 2.355-5.192.969-3.804 3.566-3.988 5.86-7.187 2.296-3.2 9.843-8.094 9.722-11.293-.117-3.203.79-3.262-.059-4.59-.847-1.332-.542-4.41-1.992-2.781-1.449 1.632-1.996 2.113-4.652 6.043-2.656 3.922-2.234 1.328-5.074 5.797-2.836 4.468-4.469 5.011-7.067 9.238 0 0 .032 1.707-4.77 6.41-4.8 4.703-4.257 3.617-7.339 9.324-3.078 5.707-4.258 4.527-4.258 7.973 0 0 .031.12.153 1.328.12 1.207 1.328 3.289.937 3.383-.395.09-.453-1.45-1.543-1.903-1.086-.453.063-1.359-2.324-.394-2.387.969-.844-.363-2.414-1.36-1.57-.996 2.082-3.652 1.75-5.132s1.39-1.871.754-3.32c-.633-1.45.332-1.723-.723-2.176-1.059-.454-6.734 7.218-9.723 7.488-2.992.273-6.976 6.523-7.882 6.797-.907.27-3.262 2.804-2.81 1.48.454-1.332 1.903-1.574 3.352-3.535 1.45-1.96 2.114-4.922 4.079-5.86 1.96-.933 5.402-2.534 7.187-5.163 1.781-2.625 3.926-4.227 3.863-5.887-.058-1.66 5.98-4.953 7.793-8.125 1.809-3.168 4.528-2.172 4.618-4.89.093-2.72.183-3.716-.813-4.169s-.184 2.54-1.902 3.082c-1.723.543-2.176 1.72-3.352 2.625-1.18.907-1.633 2.72-2.629 3.899-.996 1.176-2.898 1.086-3.804 3.078-.907 1.992-1.239.512.543-2.176 1.78-2.687 2.355-2.656 3.984-4.258 1.633-1.597 3.598-5.039 4.953-5.855 1.36-.817 1.36-.758 1.027-2.176-.332-1.418-.453-2.055-1.027-2.266s-1.297-.18-2.566 1.965c-1.266 2.145-4.137 4.86-5.95 6.25-1.812 1.39-.48 1.149-4.832 4.047-4.347 2.899-2.472 3.262-7.066 6.402-4.59 3.141-5.645 3.594-5.375 7.215.273 3.625-3.621 5.164-3.352 9.153.274 3.984-.453 11.957-1.175 7.882-.727-4.078-1.36-3.898-1.633-6.886-.27-2.988.09-5.617-2.262-4.348-2.355 1.27-1.543-.09-6.16 2.988-4.621 3.082-3.625.817-8.426 4.711-4.8 3.895-16.191 11.223-14.844 8.965" style="stroke:none;fill-rule:nonzero;fill:#000;fill-opacity:1"/></g><path d="M0 4h500" style="fill:none;stroke-width:8;stroke-linecap:butt;stroke-linejoin:miter;stroke:#fff;stroke-opacity:1;stroke-miterlimit:4" transform="matrix(.75 0 0 .75 0 298.097)"/></g></svg>